<svg width="251" viewBox="0 0 251 189" fill="none" xmlns="http://www.w3.org/2000/svg">
<path d="M168.401 47.7548C165.17 30.4666 170.257 10.7983 184.396 0.33374C183.595 19.4427 189.58 38.2192 201.293 53.341C205.831 59.1565 211.485 65.1523 211.309 72.5263C211.2 77.1146 208.718 81.389 205.447 84.6092C202.176 87.8295 198.147 90.1512 194.166 92.4367L193.546 93.4005C181.876 80.2403 171.632 65.0431 168.401 47.7548Z" fill="#69945A"/>
<path d="M184.654 0.598022C178.714 13.889 177.113 28.7133 180.08 42.9652C180.735 46.0147 181.664 49.0512 183.239 51.7604C184.796 54.3894 187.028 56.5538 189.704 58.0288C192.171 59.4541 194.86 60.6264 196.938 62.6266C199.128 64.7348 200.103 67.6122 200.022 70.6186C199.922 74.2969 198.507 77.7201 197.006 81.0196C195.34 84.6831 193.551 88.462 193.659 92.5808C193.672 93.0798 192.897 93.071 192.884 92.5727C192.696 85.4067 197.878 79.6516 199.033 72.7755C199.572 69.5671 199.146 66.1768 196.89 63.6898C194.917 61.515 192.145 60.3037 189.635 58.8821C186.998 57.3894 184.754 55.5451 183.086 52.9884C181.379 50.3731 180.329 47.3665 179.6 44.3471C177.997 37.4881 177.483 30.4197 178.077 23.401C178.709 15.3868 180.709 7.5399 183.988 0.199807C184.192 -0.254414 184.856 0.146766 184.654 0.598022H184.654Z" fill="white"/>
<path d="M178.855 38.4324C176.396 38.6055 173.955 37.8989 171.968 36.4389C169.982 34.9789 168.579 32.8605 168.011 30.462C167.898 29.9764 168.647 29.7775 168.761 30.2638C169.286 32.4982 170.593 34.4714 172.445 35.8271C174.298 37.1829 176.574 37.832 178.863 37.6573C179.361 37.6199 179.35 38.3952 178.855 38.4324V38.4324Z" fill="white"/>
<path d="M188.357 57.4708C191.696 53.6963 193.489 48.8025 193.378 43.7651C193.367 43.2661 194.142 43.2748 194.154 43.7732C194.259 49.0155 192.382 54.1044 188.899 58.0246C188.567 58.398 188.027 57.8421 188.357 57.4708V57.4708Z" fill="white"/>
<path d="M179.618 15.8681C180.583 15.9994 181.566 15.8889 182.479 15.5465C183.391 15.2041 184.204 14.6405 184.844 13.9064C185.172 13.5289 185.712 14.0852 185.387 14.4602C184.675 15.268 183.777 15.8893 182.77 16.2698C181.763 16.6503 180.678 16.7785 179.61 16.6432C179.508 16.6389 179.412 16.596 179.34 16.5233C179.269 16.4505 179.228 16.3534 179.226 16.2516C179.228 16.149 179.27 16.0511 179.343 15.9793C179.416 15.9075 179.515 15.8675 179.618 15.8681V15.8681Z" fill="white"/>
<path d="M242.216 14.6337C242.018 14.8752 241.821 15.1167 241.625 15.3645C238.984 18.625 236.612 22.0945 234.533 25.739C234.368 26.0182 234.205 26.3037 234.048 26.587C229.133 35.4207 225.901 45.0898 224.517 55.1029C223.97 59.0879 223.727 63.1087 223.79 67.1305C223.877 72.6848 224.414 78.7001 222.711 83.8085C222.539 84.3435 222.334 84.8673 222.098 85.3769L194.77 94.0815C194.698 94.0702 194.628 94.0651 194.556 94.0538L193.48 94.4512C193.463 94.244 193.449 94.0288 193.431 93.8216C193.42 93.7014 193.416 93.5793 193.405 93.4592C193.399 93.3785 193.395 93.2976 193.385 93.2251C193.383 93.1982 193.382 93.1713 193.382 93.1506C193.372 93.0781 193.371 93.0097 193.364 92.9434C193.283 91.7403 193.208 90.5352 193.145 89.3261C193.143 89.3198 193.143 89.3198 193.147 89.3117C192.678 80.1026 192.974 70.7735 194.677 61.7858C194.728 61.5154 194.777 61.2389 194.841 60.9646C195.631 56.9176 196.751 52.942 198.188 49.0774C198.983 46.9638 199.883 44.8917 200.887 42.8691C203.491 37.6481 206.899 32.8691 210.988 28.7071C219.141 20.4114 229.857 14.8148 241.339 14.6385C241.632 14.6342 241.92 14.6318 242.216 14.6337Z" fill="#48673F"/>
<path d="M242.265 15C229.518 22.0367 219.313 32.9098 213.099 46.0751C211.785 48.9037 210.698 51.8874 210.325 54.999C209.984 58.0349 210.463 61.1065 211.711 63.8948C212.823 66.518 214.264 69.0726 214.718 71.9203C215.197 74.9219 214.243 77.8064 212.368 80.1578C210.073 83.0349 206.881 84.9161 203.696 86.6473C200.16 88.5695 196.456 90.51 194.061 93.8636C193.771 94.27 193.158 93.7962 193.447 93.3905C197.613 87.5557 205.216 86.0798 210.279 81.2847C212.642 79.0472 214.344 76.0844 214.04 72.7405C213.774 69.8164 212.291 67.1809 211.142 64.5346C209.936 61.7559 209.255 58.9324 209.462 55.8869C209.675 52.7715 210.647 49.739 211.883 46.8892C214.734 40.4479 218.58 34.4948 223.281 29.2479C228.613 23.23 234.935 18.1682 241.974 14.2816C242.41 14.0412 242.698 14.7612 242.265 15V15Z" fill="white"/>
<path d="M214.85 41.7181C212.782 40.376 211.259 38.3427 210.552 35.9813C209.845 33.6199 210.001 31.0843 210.992 28.8272C211.194 28.3712 211.912 28.6636 211.71 29.1202C210.783 31.2203 210.638 33.5823 211.301 35.7799C211.964 37.9774 213.39 39.8658 215.323 41.1042C215.743 41.3738 215.267 41.9862 214.85 41.7181H214.85Z" fill="white"/>
<path d="M210.972 62.6389C215.911 61.6348 220.289 58.8066 223.235 54.7182C223.526 54.3129 224.14 54.7865 223.849 55.1914C220.776 59.4401 216.213 62.3741 211.071 63.4077C210.581 63.5058 210.484 62.7366 210.972 62.6389H210.972Z" fill="white"/>
<path d="M229.048 24.161C229.739 24.847 230.591 25.3505 231.526 25.6262C232.46 25.9019 233.449 25.9412 234.402 25.7406C234.891 25.6363 234.987 26.4057 234.502 26.5093C233.447 26.7261 232.356 26.6813 231.322 26.379C230.289 26.0767 229.346 25.526 228.574 24.775C228.496 24.7103 228.445 24.6181 228.432 24.5172C228.418 24.4162 228.444 24.3141 228.504 24.2315C228.567 24.1505 228.659 24.0977 228.761 24.0845C228.863 24.0713 228.966 24.0988 229.048 24.1611V24.161Z" fill="white"/>
<path d="M66.6073 27.1021C65.0973 26.0365 63.4452 24.9253 61.5974 24.9697C57.1252 25.0772 54.714 31.6316 50.2464 31.4011C47.3973 31.2541 45.5059 28.3605 42.8531 27.3113C39.3994 25.9454 35.0042 28.6168 34.6274 32.3108L35.071 31.9049C48.4963 35.177 62.4282 35.8204 76.0981 33.7998C72.9346 31.5672 69.771 29.3347 66.6073 27.1021Z" fill="#F0F0F0"/>
<path d="M74.9751 34.986C83.5457 34.986 90.4935 28.04 90.4935 19.4716C90.4935 10.9032 83.5457 3.95718 74.9751 3.95718C66.4046 3.95718 59.4568 10.9032 59.4568 19.4716C59.4568 28.04 66.4046 34.986 74.9751 34.986Z" fill="#FF6582"/>
<path d="M111.3 16.5079C109.375 15.1498 107.27 13.7337 104.915 13.7903C99.2156 13.9273 96.1428 22.2803 90.4492 21.9866C86.8182 21.7992 84.4079 18.1116 81.0271 16.7745C76.6256 15.0338 71.0244 18.4382 70.5442 23.1459L71.1095 22.6287C88.2189 26.7986 105.974 27.6187 123.395 25.0435C119.363 22.1983 115.332 19.3531 111.3 16.5079Z" fill="#F0F0F0"/>
<path d="M250.888 172.25L234.42 84.0943C234.138 82.6411 233.371 81.3267 232.244 80.3667C231.117 79.4066 229.697 78.8578 228.217 78.8104C228.084 78.8074 227.951 78.8074 227.817 78.8104L216.599 79.2127L215.391 79.2571L209.792 79.4582L208.585 79.4997L204.983 79.6299L132.362 82.2364C132.253 82.2423 132.14 82.2423 132.031 82.2393L115.758 81.8991L109.735 81.7748L109.543 81.7719L105.098 81.6772L66.3669 80.8725L56.0982 80.6565L51.0348 80.553L49.8215 80.5263L44.0479 80.408L42.8376 80.3814L36.9308 80.26L35.7204 80.2334L29.2307 80.0973L28.2127 80.0766L22.4243 79.9553L21.5099 79.9376H21.3768C19.8401 79.9438 18.355 80.493 17.1842 81.4881C16.0134 82.4832 15.2322 83.8601 14.9787 85.3754L0.0845764 176.854C-0.0666757 177.78 -0.0146107 178.729 0.237164 179.633C0.488939 180.538 0.934397 181.377 1.54269 182.092C2.15099 182.808 2.90758 183.382 3.76004 183.776C4.6125 184.17 5.54045 184.374 6.47961 184.374H92.0152C93.2741 184.378 94.4993 184.782 95.5131 185.528L97.1348 186.729C98.2525 187.552 99.6029 187.997 100.991 188.001H151.399C152.251 188.004 153.095 187.837 153.882 187.511C154.669 187.185 155.383 186.706 155.983 186.102C157.01 185.076 158.381 184.466 159.83 184.389L244.857 179.91C245.779 179.862 246.68 179.617 247.5 179.192C248.32 178.768 249.039 178.173 249.61 177.448C250.181 176.722 250.591 175.883 250.811 174.987C251.032 174.091 251.058 173.157 250.888 172.25V172.25Z" fill="#A97474"/>
<path d="M237.411 169.854L228.232 78.9287C228.229 78.8903 228.223 78.8488 228.217 78.8104C228.045 77.3576 227.328 76.0242 226.21 75.0797L206.463 58.6331C205.604 57.9125 204.537 57.4863 203.418 57.4171C194.383 56.8373 148.452 54.6894 131.498 69.4022C130.984 69.8498 130.377 70.1792 129.722 70.3673C129.067 70.5554 128.378 70.5976 127.704 70.491C127.029 70.3815 126.386 70.1276 125.818 69.7467C125.25 69.3658 124.771 68.8668 124.414 68.2839C122.972 66.0375 121.083 64.112 118.865 62.6271C117.869 61.9357 116.831 61.3063 115.758 60.7425C114.808 60.2425 113.775 59.7573 112.65 59.2899C111.683 58.8875 110.65 58.5 109.543 58.1301C103.805 56.213 96.1345 54.7811 85.8835 54.3018C81.631 54.1006 77.0085 54.074 72.1464 54.219C67.7075 54.3491 62.9903 54.6183 58.1282 55.0207L58.0572 55.0237L25.1587 75.1033C24.4211 75.563 23.7978 76.1844 23.3359 76.9204C22.874 77.6565 22.5855 78.4879 22.4924 79.3518L22.4243 79.9553L11.978 173.271C11.8877 174.064 11.9606 174.867 12.1922 175.63C12.4237 176.394 12.809 177.102 13.3244 177.712C13.8261 178.306 14.4509 178.784 15.1554 179.113C15.86 179.442 16.6277 179.614 17.4053 179.617H98.4664C99.5442 179.622 100.588 179.993 101.429 180.667L104.968 183.501C105.89 184.242 107.032 184.656 108.214 184.679L143.856 185.262H143.942C144.842 185.26 145.727 185.03 146.514 184.593L153.388 180.777C154.015 180.428 154.713 180.225 155.43 180.185L232.253 176.129C233.002 176.089 233.734 175.892 234.401 175.55C235.069 175.209 235.657 174.73 236.127 174.147C236.616 173.552 236.981 172.866 237.202 172.129C237.422 171.392 237.493 170.619 237.411 169.854V169.854Z" fill="#F4E6E6"/>
<path d="M210.596 153.456L209.521 139.304L204.984 79.6315L204.31 70.804C204.139 68.4853 203.111 66.3133 201.426 64.7113C199.741 63.1092 197.519 62.1921 195.194 62.1385C178.572 61.7119 148.472 62.4628 133.701 72.357C132.059 73.4735 130.066 73.9549 128.094 73.7116C126.123 73.4682 124.307 72.5168 122.985 71.0344C120.941 68.7912 118.488 66.9593 115.756 65.6372C113.757 64.6348 111.678 63.7986 109.542 63.1369C103.29 61.1402 95.4004 59.927 85.8735 59.4975L63.2634 59.3653H63.225C61.6587 59.3667 60.1518 59.9643 59.0103 61.0365C57.8688 62.1087 57.1785 63.5752 57.0796 65.138L56.098 80.6555L51.809 148.708C51.7288 149.975 51.9071 151.246 52.3331 152.443C52.759 153.64 53.4239 154.737 54.2871 155.669C55.1504 156.602 56.1941 157.349 57.3549 157.865C58.5158 158.382 59.7695 158.657 61.04 158.674C98.9924 159.238 115.572 167.246 122.802 173.859C124.339 175.269 126.303 176.126 128.382 176.295C130.461 176.463 132.537 175.933 134.282 174.789C147.405 166.196 169.221 163.807 186.586 163.436C191.904 163.325 196.803 163.397 200.909 163.542C202.228 163.59 203.543 163.358 204.767 162.863C205.99 162.367 207.096 161.619 208.01 160.667C208.925 159.715 209.628 158.58 210.073 157.338C210.519 156.095 210.697 154.772 210.596 153.456V153.456Z" fill="white"/>
<path d="M22.1846 173.195C22.1705 173.195 22.1557 173.194 22.1415 173.193C22.0624 173.187 21.9851 173.166 21.9141 173.131C21.8431 173.095 21.7798 173.046 21.7278 172.986C21.6758 172.926 21.6361 172.857 21.6109 172.782C21.5858 172.706 21.5757 172.627 21.5813 172.548L28.1114 80.3672C28.116 80.2877 28.1365 80.21 28.1717 80.1386C28.2068 80.0672 28.2559 80.0035 28.316 79.9513C28.3761 79.8991 28.446 79.8595 28.5217 79.8347C28.5974 79.81 28.6772 79.8006 28.7566 79.8071C28.8357 79.8127 28.913 79.8338 28.984 79.8692C29.055 79.9047 29.1183 79.9537 29.1703 80.0136C29.2223 80.0735 29.2621 80.1431 29.2872 80.2183C29.3123 80.2936 29.3224 80.373 29.3168 80.4522L22.7868 172.633C22.7761 172.785 22.7081 172.928 22.5963 173.032C22.4846 173.137 22.3375 173.195 22.1846 173.195Z" fill="white"/>
<path d="M30.0428 169.569C30.0286 169.569 30.0139 169.568 29.9997 169.567C29.9205 169.561 29.8433 169.54 29.7723 169.505C29.7013 169.469 29.638 169.42 29.5859 169.36C29.5339 169.301 29.4942 169.231 29.4691 169.156C29.444 169.081 29.4339 169.001 29.4395 168.922L35.9695 76.7412C35.9742 76.6618 35.9947 76.5841 36.0298 76.5126C36.0649 76.4412 36.114 76.3775 36.1741 76.3254C36.2342 76.2732 36.3042 76.2336 36.3799 76.2088C36.4555 76.184 36.5354 76.1746 36.6147 76.1812C36.6939 76.1868 36.7712 76.2079 36.8421 76.2433C36.9131 76.2787 36.9765 76.3278 37.0285 76.3877C37.0805 76.4476 37.1202 76.5172 37.1453 76.5924C37.1705 76.6677 37.1805 76.7471 37.1749 76.8262L30.6449 169.007C30.6343 169.159 30.5662 169.302 30.4545 169.406C30.3428 169.511 30.1956 169.569 30.0428 169.569V169.569Z" fill="white"/>
<path d="M37.2965 167.756C37.2823 167.756 37.2675 167.755 37.2534 167.754C37.1742 167.748 37.0969 167.727 37.0259 167.692C36.9549 167.656 36.8916 167.607 36.8396 167.547C36.7876 167.488 36.7479 167.418 36.7227 167.343C36.6976 167.268 36.6876 167.188 36.6932 167.109L43.2232 74.9283C43.2278 74.8488 43.2483 74.7711 43.2835 74.6997C43.3186 74.6283 43.3677 74.5646 43.4278 74.5124C43.4879 74.4602 43.5578 74.4206 43.6335 74.3958C43.7092 74.3711 43.789 74.3617 43.8684 74.3682C43.9475 74.3738 44.0248 74.3949 44.0958 74.4303C44.1668 74.4658 44.2301 74.5148 44.2821 74.5747C44.3342 74.6346 44.3739 74.7042 44.399 74.7794C44.4241 74.8547 44.4342 74.9341 44.4286 75.0133L37.8986 167.194C37.8879 167.346 37.8199 167.489 37.7082 167.593C37.5964 167.698 37.4493 167.756 37.2965 167.756V167.756Z" fill="white"/>
<path d="M44.5501 164.13C44.536 164.13 44.5212 164.129 44.507 164.128C44.4279 164.122 44.3506 164.101 44.2796 164.066C44.2086 164.031 44.1453 163.981 44.0933 163.922C44.0412 163.862 44.0015 163.792 43.9764 163.717C43.9513 163.642 43.9412 163.562 43.9468 163.483L50.4768 71.3024C50.4815 71.2229 50.502 71.1452 50.5371 71.0738C50.5723 71.0023 50.6213 70.9387 50.6815 70.8865C50.7416 70.8343 50.8115 70.7947 50.8872 70.7699C50.9629 70.7451 51.0427 70.7357 51.122 70.7423C51.2012 70.7479 51.2785 70.769 51.3495 70.8044C51.4205 70.8398 51.4838 70.8889 51.5358 70.9488C51.5878 71.0087 51.6275 71.0783 51.6527 71.1535C51.6778 71.2287 51.6878 71.3082 51.6822 71.3873L45.1522 163.568C45.1416 163.72 45.0736 163.863 44.9618 163.967C44.8501 164.072 44.703 164.13 44.5501 164.13V164.13Z" fill="white"/>
<path d="M230.124 173.799C230.138 173.799 230.153 173.798 230.167 173.797C230.246 173.792 230.323 173.771 230.394 173.735C230.465 173.7 230.529 173.651 230.581 173.591C230.633 173.531 230.672 173.461 230.698 173.386C230.723 173.311 230.733 173.231 230.727 173.152L224.197 80.9715C224.192 80.8921 224.172 80.8144 224.137 80.7429C224.102 80.6715 224.053 80.6078 223.993 80.5557C223.932 80.5035 223.862 80.4638 223.787 80.4391C223.711 80.4143 223.631 80.4049 223.552 80.4115C223.473 80.417 223.396 80.4381 223.325 80.4736C223.254 80.509 223.19 80.5581 223.138 80.618C223.086 80.6779 223.046 80.7474 223.021 80.8227C222.996 80.8979 222.986 80.9774 222.992 81.0565L229.522 173.237C229.532 173.39 229.6 173.532 229.712 173.637C229.824 173.741 229.971 173.799 230.124 173.799V173.799Z" fill="white"/>
<path d="M222.265 168.36C222.28 168.36 222.294 168.359 222.309 168.358C222.388 168.353 222.465 168.332 222.536 168.296C222.607 168.261 222.67 168.212 222.722 168.152C222.774 168.092 222.814 168.022 222.839 167.947C222.864 167.872 222.874 167.792 222.869 167.713L216.339 75.5326C216.334 75.4532 216.314 75.3754 216.278 75.304C216.243 75.2326 216.194 75.1689 216.134 75.1167C216.074 75.0645 216.004 75.0249 215.928 75.0001C215.853 74.9754 215.773 74.966 215.694 74.9725C215.614 74.9781 215.537 74.9992 215.466 75.0346C215.395 75.0701 215.332 75.1191 215.28 75.179C215.228 75.2389 215.188 75.3085 215.163 75.3837C215.138 75.459 215.128 75.5384 215.133 75.6176L221.663 167.798C221.674 167.951 221.742 168.093 221.854 168.198C221.966 168.302 222.113 168.36 222.265 168.36V168.36Z" fill="white"/>
<path d="M215.012 162.317C215.026 162.317 215.04 162.316 215.055 162.315C215.134 162.31 215.211 162.288 215.282 162.253C215.353 162.218 215.416 162.168 215.468 162.109C215.52 162.049 215.56 161.979 215.585 161.904C215.61 161.829 215.62 161.749 215.615 161.67L209.085 69.4894C209.08 69.4099 209.06 69.3322 209.025 69.2608C208.989 69.1893 208.94 69.1257 208.88 69.0735C208.82 69.0213 208.75 68.9817 208.674 68.9569C208.599 68.9321 208.519 68.9228 208.44 68.9293C208.36 68.9349 208.283 68.956 208.212 68.9914C208.141 69.0268 208.078 69.0759 208.026 69.1358C207.974 69.1957 207.934 69.2653 207.909 69.3405C207.884 69.4158 207.874 69.4952 207.879 69.5744L214.409 161.755C214.42 161.907 214.488 162.05 214.6 162.154C214.712 162.259 214.859 162.317 215.012 162.317V162.317Z" fill="white"/>
<path d="M66.6671 80.1889C80.2925 75.8428 95.4936 76.9934 108.402 83.1161C112.085 84.8541 115.563 86.9959 118.773 89.5022C119.681 90.2146 120.973 88.9403 120.055 88.2202C108.199 79.0267 93.3024 74.6594 78.3578 75.9957C74.2233 76.3656 70.1416 77.1855 66.185 78.4407C65.0774 78.794 65.5508 80.545 66.6671 80.1889H66.6671Z" fill="#3F3D56"/>
<path d="M141.643 90.2055C154.311 83.5487 169.481 82.0971 183.255 85.8758C187.181 86.9505 190.976 88.4589 194.569 90.3733C195.598 90.9223 196.515 89.3579 195.484 88.8078C182.357 81.805 166.599 80.1929 152.264 84.0966C148.265 85.1875 144.397 86.711 140.728 88.6401C139.695 89.1831 140.61 90.7484 141.643 90.2055V90.2055Z" fill="#3F3D56"/>
<path d="M141.643 102.292C154.311 95.6352 169.481 94.1836 183.255 97.9622C187.181 99.037 190.976 100.545 194.569 102.46C195.598 103.009 196.515 101.444 195.484 100.894C182.357 93.8914 166.599 92.2794 152.264 96.183C148.265 97.274 144.397 98.7975 140.728 100.727C139.695 101.27 140.61 102.835 141.643 102.292V102.292Z" fill="#3F3D56"/>
<path d="M195.928 113.73C195.938 113.574 195.9 113.42 195.82 113.286C195.741 113.152 195.623 113.045 195.481 112.979C184.965 107.473 173.041 105.241 161.245 106.567C161.171 106.573 161.103 106.585 161.023 106.591H161.02C160.948 106.598 160.876 106.609 160.804 106.624C153.788 107.431 146.982 109.528 140.728 112.81C140.592 112.891 140.479 113.006 140.401 113.144C140.322 113.282 140.281 113.438 140.281 113.597V136.144C140.284 136.283 140.318 136.419 140.38 136.543C140.443 136.667 140.533 136.775 140.644 136.858C140.754 136.942 140.883 137 141.019 137.027C141.155 137.054 141.295 137.049 141.43 137.014C141.708 136.934 141.986 136.857 142.27 136.783C148.592 135.072 155.082 134.057 161.624 133.756C161.763 133.751 161.902 133.745 162.047 133.739C167.376 133.51 172.714 133.702 178.013 134.313C178.124 134.319 178.234 134.331 178.344 134.348C178.616 134.378 178.894 134.41 179.167 134.446C179.276 134.458 179.38 134.47 179.48 134.487C180.54 134.62 181.59 134.771 182.644 134.934C184.165 135.177 185.686 135.447 187.207 135.745C187.302 135.762 187.399 135.786 187.497 135.804C189.939 136.289 192.368 136.851 194.786 137.472C194.92 137.507 195.061 137.511 195.198 137.483C195.334 137.456 195.462 137.398 195.573 137.313C195.683 137.229 195.773 137.121 195.836 136.997C195.898 136.872 195.932 136.736 195.934 136.597V113.766C195.935 113.753 195.933 113.741 195.928 113.73Z" fill="#3F3D56"/>
<path d="M162.667 107.797C162.002 107.472 161.241 107.405 160.53 107.609C160.216 107.727 159.928 107.906 159.684 108.136C159.44 108.365 159.244 108.641 159.107 108.947C158.86 109.534 158.703 110.155 158.638 110.788C158.601 111.037 158.598 111.351 158.849 111.468C158.94 111.501 159.038 111.508 159.133 111.489C159.228 111.471 159.316 111.426 159.387 111.361C159.517 111.234 159.623 111.085 159.702 110.922C160.137 110.245 160.736 109.689 161.442 109.305C162.149 108.921 162.941 108.721 163.746 108.724L164.415 108.991C163.888 108.516 163.3 108.115 162.667 107.797V107.797Z" fill="#FF6582"/>
<path d="M169.913 112.994C169.393 112.229 168.777 111.413 167.813 111.163C166.697 110.874 165.55 111.448 164.577 112.015C161.684 113.699 158.882 115.536 156.184 117.518L156.187 117.548L162.45 117.163C163.958 117.071 165.518 116.965 166.851 116.33C167.33 116.03 167.865 115.831 168.423 115.745C168.77 115.764 169.109 115.851 169.421 116.002C169.734 116.152 170.014 116.363 170.244 116.622C173.131 119.357 173.966 123.54 177.204 125.943C175.143 121.429 172.704 117.097 169.913 112.994V112.994Z" fill="white"/>
<path d="M162.048 133.738C161.903 133.744 161.764 133.75 161.625 133.756C160.616 133.394 159.582 133.074 158.536 132.796C157.859 132.614 157.17 132.451 156.481 132.312C155.701 132.143 154.915 132.01 154.13 131.895C152.633 131.678 151.126 131.55 149.614 131.514C149.603 131.516 149.591 131.515 149.58 131.511C149.569 131.507 149.559 131.502 149.55 131.494C149.542 131.486 149.535 131.477 149.53 131.466C149.526 131.456 149.523 131.444 149.523 131.433C149.523 131.421 149.526 131.41 149.53 131.399C149.535 131.389 149.542 131.38 149.55 131.372C149.559 131.364 149.569 131.358 149.58 131.355C149.591 131.351 149.603 131.35 149.614 131.351C149.807 131.351 150.001 131.357 150.188 131.369C151.703 131.425 153.213 131.573 154.71 131.811C155.49 131.937 156.269 132.089 157.043 132.258C157.744 132.415 158.445 132.59 159.135 132.784C160.12 133.062 161.091 133.38 162.048 133.738Z" fill="white"/>
<path d="M179.481 134.488C179.379 134.47 179.276 134.457 179.167 134.445C178.75 134.101 178.327 133.775 177.885 133.454C177.335 133.055 176.767 132.681 176.187 132.33C174.902 131.55 173.56 130.868 172.173 130.288C169.98 129.375 167.711 128.659 165.391 128.148C162.745 127.569 160.066 127.149 157.37 126.891C154.673 126.613 151.965 126.444 149.257 126.275C149.143 126.269 149.136 126.1 149.257 126.106C149.596 126.13 149.934 126.148 150.279 126.172C153.017 126.341 155.755 126.535 158.476 126.843C161.173 127.132 163.848 127.596 166.485 128.233C168.736 128.788 170.933 129.542 173.05 130.487C174.267 131.034 175.446 131.662 176.58 132.367C177.299 132.82 177.994 133.303 178.659 133.817C178.937 134.034 179.215 134.252 179.481 134.488Z" fill="white"/>
<path d="M178.345 134.349C178.235 134.331 178.124 134.319 178.012 134.312C177.885 134.21 177.752 134.113 177.619 134.016C176.689 133.35 175.718 132.743 174.712 132.197C173.798 131.701 172.86 131.251 171.901 130.85C169.709 129.934 167.439 129.218 165.119 128.71C162.473 128.131 159.794 127.711 157.097 127.453C154.401 127.175 151.693 127.006 148.985 126.837C148.87 126.825 148.87 126.662 148.985 126.668C149.33 126.692 149.668 126.71 150.007 126.734C152.745 126.903 155.483 127.097 158.204 127.405C160.901 127.694 163.576 128.158 166.213 128.795C168.464 129.349 170.661 130.103 172.777 131.049C173.575 131.412 174.355 131.805 175.117 132.234C176.246 132.854 177.326 133.561 178.345 134.349V134.349Z" fill="white"/>
<path d="M187.497 135.805C187.4 135.787 187.303 135.763 187.207 135.745C187.098 135.63 186.995 135.509 186.892 135.388C186.372 134.79 185.859 134.186 185.351 133.575C183.35 131.194 181.452 128.741 179.663 126.239C178.127 124.099 176.67 121.918 175.292 119.694C174.633 118.642 173.999 117.579 173.376 116.503C172.893 115.669 172.421 114.833 171.962 113.995C171.829 113.753 171.702 113.512 171.575 113.27C171.278 112.702 170.982 112.128 170.668 111.566C170.326 110.877 169.825 110.28 169.205 109.825C168.896 109.618 168.537 109.495 168.165 109.469C167.641 109.471 167.126 109.604 166.666 109.855C163.285 111.43 160.094 113.387 157.158 115.687C154.29 117.917 151.697 120.479 149.433 123.32C149.36 123.404 149.203 123.326 149.269 123.235C149.541 122.897 149.819 122.558 150.098 122.226C152.274 119.653 154.724 117.324 157.406 115.282C157.412 115.276 157.424 115.27 157.43 115.264C157.666 115.077 157.901 114.896 158.143 114.72C159.64 113.618 161.198 112.601 162.81 111.674C163.632 111.197 164.472 110.744 165.33 110.315C165.542 110.206 165.76 110.097 165.977 109.994C166.195 109.886 166.413 109.783 166.63 109.68C167.061 109.461 167.532 109.331 168.014 109.3C169.695 109.275 170.559 110.967 171.158 112.11C171.345 112.466 171.538 112.823 171.726 113.179C172.451 114.527 173.207 115.869 173.993 117.192C174.47 118.014 174.966 118.83 175.468 119.64C176.187 120.794 176.924 121.936 177.692 123.072C177.692 123.073 177.692 123.074 177.692 123.074C177.693 123.075 177.693 123.076 177.694 123.076C177.694 123.077 177.695 123.077 177.696 123.078C177.697 123.078 177.697 123.078 177.698 123.078C178.587 124.42 179.512 125.737 180.467 127.049C182.105 129.291 183.822 131.482 185.617 133.624C186.233 134.361 186.86 135.088 187.497 135.805Z" fill="white"/>
<path d="M195.935 133.14V133.418C195.337 132.717 194.726 132.022 194.122 131.327C193.868 131.037 193.614 130.747 193.36 130.457C192.284 129.236 191.202 128.019 190.114 126.807C189.02 125.598 187.926 124.389 186.819 123.187C186.554 122.897 186.288 122.607 186.016 122.317C185.798 122.073 185.561 121.847 185.308 121.64C185.053 121.427 184.76 121.265 184.444 121.162C184.081 121.062 183.697 121.058 183.332 121.15C182.915 121.247 182.516 121.398 182.111 121.525C181.693 121.664 181.282 121.797 180.865 121.93C180.031 122.202 179.203 122.474 178.369 122.746C178.359 122.75 178.348 122.752 178.336 122.752C178.325 122.752 178.314 122.749 178.304 122.745C178.294 122.74 178.285 122.734 178.277 122.726C178.27 122.717 178.264 122.708 178.26 122.697C178.255 122.686 178.253 122.674 178.254 122.661C178.254 122.649 178.258 122.637 178.263 122.626C178.269 122.615 178.277 122.605 178.287 122.598C178.297 122.59 178.308 122.585 178.321 122.583C178.526 122.516 178.738 122.45 178.949 122.383C179.789 122.105 180.624 121.833 181.464 121.561C181.881 121.422 182.298 121.289 182.715 121.156C183.102 121.009 183.511 120.928 183.924 120.915C184.599 120.963 185.233 121.26 185.701 121.749C185.961 121.99 186.197 122.244 186.433 122.504C186.711 122.806 186.989 123.108 187.267 123.41C188.385 124.631 189.495 125.856 190.597 127.085C191.704 128.318 192.8 129.552 193.886 130.789C193.964 130.88 194.043 130.971 194.122 131.061C194.732 131.75 195.331 132.445 195.935 133.14Z" fill="white"/>
<path d="M165.931 109.115L165.763 109.188C165.38 108.542 164.844 108 164.201 107.611C163.558 107.221 162.828 106.997 162.078 106.958C159.603 106.782 157.429 108.431 157.231 110.633C157.151 111.54 157.414 112.444 157.967 113.166L157.812 113.258C157.236 112.505 156.962 111.564 157.046 110.62C157.251 108.326 159.515 106.609 162.093 106.792C162.874 106.833 163.634 107.067 164.303 107.472C164.973 107.878 165.532 108.442 165.931 109.115V109.115Z" fill="#FF6582"/>
<path d="M153.702 113.571C153.053 113.288 152.345 113.165 151.638 113.21C150.932 113.254 150.246 113.467 149.637 113.829C151.858 114.17 154.06 114.627 156.233 115.199C155.334 114.73 154.63 113.995 153.702 113.571Z" fill="white"/>
<path d="M149.625 113.827L149.38 114.004C149.463 113.942 149.549 113.884 149.637 113.829L149.625 113.827Z" fill="white"/>
<path d="M185.215 122.753C184.986 122.459 184.682 122.233 184.334 122.099L183.991 122.111C186.689 126.308 190.223 129.904 194.374 132.674C191.321 129.367 188.268 126.06 185.215 122.753Z" fill="white"/>
<path d="M156.99 114.853C156.893 114.757 156.796 114.66 156.698 114.563C155.945 113.745 155.039 113.082 154.031 112.613C153.518 112.396 152.967 112.283 152.41 112.278C151.835 112.292 151.266 112.402 150.727 112.605C150.474 112.695 150.226 112.797 149.982 112.906C149.703 113.031 149.429 113.164 149.157 113.298C148.645 113.55 148.14 113.813 147.642 114.088C146.65 114.633 145.689 115.22 144.759 115.849C144.277 116.175 143.805 116.512 143.343 116.859C142.914 117.182 142.493 117.513 142.08 117.853C141.992 117.926 141.86 117.808 141.949 117.736C142.057 117.646 142.167 117.556 142.277 117.468C142.588 117.218 142.903 116.973 143.224 116.733C143.808 116.294 144.407 115.872 145.022 115.467C145.978 114.837 146.967 114.25 147.988 113.706C148.499 113.434 149.016 113.173 149.541 112.924C149.699 112.849 149.859 112.776 150.021 112.706C150.392 112.54 150.773 112.402 151.164 112.292C151.724 112.131 152.31 112.08 152.89 112.141C153.445 112.212 153.983 112.378 154.482 112.631C155.47 113.185 156.362 113.896 157.122 114.736C157.202 114.815 157.071 114.933 156.99 114.853Z" fill="white"/>
<path d="M66.6671 92.2754C80.2925 87.9293 95.4936 89.0799 108.402 95.2026C112.085 96.9405 115.563 99.0824 118.773 101.589C119.681 102.301 120.973 101.027 120.055 100.307C108.199 91.1132 93.3024 86.7459 78.3578 88.0822C74.2233 88.4521 70.1416 89.2719 66.185 90.5272C65.0774 90.8804 65.5508 92.6315 66.6671 92.2754H66.6671Z" fill="#3F3D56"/>
<path d="M66.6671 104.362C80.2925 100.016 95.4936 101.166 108.402 107.289C112.085 109.027 115.563 111.169 118.773 113.675C119.681 114.388 120.973 113.113 120.055 112.393C108.199 103.2 93.3024 98.8324 78.3578 100.169C74.2233 100.539 70.1416 101.358 66.185 102.614C65.0774 102.967 65.5508 104.718 66.6671 104.362H66.6671Z" fill="#3F3D56"/>
<path d="M66.6671 116.448C80.2925 112.102 95.4936 113.253 108.402 119.376C112.085 121.113 115.563 123.255 118.773 125.762C119.681 126.474 120.973 125.2 120.055 124.48C108.199 115.286 93.3024 110.919 78.3578 112.255C74.2233 112.625 70.1416 113.445 66.185 114.7C65.0774 115.053 65.5508 116.804 66.6671 116.448H66.6671Z" fill="#3F3D56"/>
<path d="M66.6671 128.535C80.2925 124.189 95.4936 125.339 108.402 131.462C112.085 133.2 115.563 135.342 118.773 137.848C119.681 138.561 120.973 137.286 120.055 136.566C108.199 127.373 93.3024 123.005 78.3578 124.342C74.2233 124.712 70.1416 125.531 66.185 126.787C65.0774 127.14 65.5508 128.891 66.6671 128.535H66.6671Z" fill="#3F3D56"/>
<path d="M66.6671 140.621C80.2925 136.275 95.4936 137.426 108.402 143.549C112.085 145.286 115.563 147.428 118.773 149.935C119.681 150.647 120.973 149.373 120.055 148.653C108.199 139.459 93.3024 135.092 78.3578 136.428C74.2233 136.798 70.1416 137.618 66.185 138.873C65.0774 139.226 65.5508 140.977 66.6671 140.621L66.6671 140.621Z" fill="#3F3D56"/>
<path d="M115.758 60.7425V94.6179C115.758 95.1948 114.751 95.677 113.393 95.8072C113.156 95.8309 112.908 95.8427 112.65 95.8427C111.903 95.8569 111.159 95.7356 110.454 95.4847C110.324 95.434 110.197 95.3737 110.076 95.3042C109.738 95.106 109.543 94.8723 109.543 94.6178V58.1301C110.65 58.4999 111.683 58.8875 112.65 59.2899C113.775 59.7573 114.808 60.2425 115.758 60.7425Z" fill="#7D92E7"/>
<path d="M128.782 72.3578H127.894V181.936H128.782V72.3578Z" fill="#F4E6E6"/>
<path d="M208.014 160.663C207.099 161.615 205.993 162.364 204.769 162.86C203.544 163.356 202.229 163.589 200.909 163.542C196.803 163.397 191.904 163.325 186.586 163.436L186.557 163.41L209.602 133.544L210.596 153.456C210.696 154.771 210.518 156.093 210.073 157.334C209.628 158.576 208.927 159.71 208.014 160.663V160.663Z" fill="#F2F2F2"/>
</svg>