<svg width="303" viewBox="0 0 303 352" fill="none" xmlns="http://www.w3.org/2000/svg">
<path d="M192.414 136.427C191.96 135.972 188.33 126.432 188.33 126.432L179.708 125.978L175.763 135.289L192.414 136.427V136.427Z" fill="#FFB6B6"/>
<path d="M180.182 130.373C186.591 130.373 191.787 125.171 191.787 118.754C191.787 112.337 186.591 107.135 180.182 107.135C173.772 107.135 168.576 112.337 168.576 118.754C168.576 125.171 173.772 130.373 180.182 130.373Z" fill="#FFB6B6"/>
<path d="M202.17 199.347L206.254 212.976L195.364 292.024H187.991L184.019 232.511L179.481 252.954L202.624 282.483L196.725 289.298L163.372 256.816L164.053 206.616L166.775 198.893L202.17 199.347Z" fill="#2F2E41"/>
<path d="M189.912 128.299L189.005 128.343C189.005 128.343 188.195 121.106 187.719 120.674C187.244 120.243 186.382 121.195 186.382 121.195C186.382 121.195 182.644 119.105 182.533 116.837C182.421 114.568 182.332 112.753 180.972 112.82C179.612 112.887 171.997 115.082 170.184 115.171C168.371 115.261 165.495 112.219 168.534 109.34C171.573 106.461 174.247 105.419 174.678 104.943C175.109 104.467 177.946 102.508 180.425 104.205C182.903 105.902 186.076 105.745 186.076 105.745C186.076 105.745 192.035 106.816 191.262 109.583C190.49 112.35 193.477 117.661 192.252 120.451C191.026 123.24 189.912 128.299 189.912 128.299H189.912Z" fill="#2F2E41"/>
<path d="M187.649 290.661L195.817 291.569L196.725 306.561C196.725 306.561 196.271 313.83 188.557 312.921C180.843 312.013 183.112 304.744 183.112 304.744L187.649 290.661Z" fill="#2F2E41"/>
<path d="M198.313 279.985C198.313 279.985 204.212 277.259 205.12 280.439L206.935 286.799C206.935 286.799 206.935 293.159 207.389 293.614C207.843 294.068 216.464 305.88 208.75 312.24C208.75 312.24 204.666 312.694 202.397 306.334C200.128 299.974 193.322 293.614 193.322 293.614C193.322 293.614 192.003 290.434 194.251 290.661C196.498 290.888 199.674 285.436 198.767 283.619C197.859 281.802 198.313 279.985 198.313 279.985Z" fill="#2F2E41"/>
<path d="M176.078 133.701L191.053 134.155L205.574 140.515L203.305 178.222C203.305 178.222 206.028 186.854 204.666 188.217C203.305 189.579 204.666 195.689 203.759 195.814C202.851 195.94 203.759 202.511 203.759 202.511C203.759 202.511 191.053 198.211 180.162 200.937C169.271 203.663 165.641 199.12 165.641 199.12C165.641 199.12 162.918 188.217 162.918 185.945V139.496L176.078 133.701Z" fill="#7283E0"/>
<rect x="56.5" y="216.5" width="94" height="135" rx="18.5" fill="#2F2E41" stroke="#464463"/>
<rect x="206.5" y="223.5" width="96" height="92" rx="18.5" fill="#2F2E41" stroke="#464463"/>
<rect x="0.5" y="106.5" width="97" height="88" rx="18.5" fill="#2F2E41" stroke="#464463"/>
<path d="M131.47 255.378H130.859V238.67C130.859 236.105 129.838 233.646 128.02 231.832C126.203 230.019 123.738 229 121.167 229H85.6915C83.1211 229 80.6561 230.019 78.8386 231.832C77.0211 233.646 76 236.105 76 238.67V330.33C76 332.895 77.0211 335.354 78.8386 337.168C80.6561 338.981 83.1211 340 85.6915 340H121.167C123.738 340 126.203 338.981 128.02 337.168C129.838 335.354 130.859 332.894 130.859 330.33V267.27H131.47L131.47 255.378Z" fill="#151515"/>
<path d="M121.559 231.515H116.928C117.141 232.036 117.223 232.601 117.165 233.161C117.107 233.721 116.913 234.258 116.598 234.725C116.284 235.192 115.859 235.574 115.361 235.839C114.863 236.103 114.308 236.242 113.744 236.242H93.4205C92.8567 236.242 92.3015 236.103 91.8038 235.839C91.3062 235.574 90.8814 235.191 90.5669 234.724C90.2524 234.257 90.0577 233.72 90.0002 233.161C89.9427 232.601 90.024 232.036 90.2369 231.515H85.9118C84.9614 231.515 84.0202 231.702 83.1421 232.065C82.264 232.428 81.4662 232.959 80.7941 233.63C80.1221 234.301 79.589 235.097 79.2252 235.973C78.8615 236.849 78.6743 237.788 78.6743 238.737V330.263C78.6743 332.178 79.4368 334.015 80.7941 335.37C82.1514 336.724 83.9923 337.485 85.9118 337.485H121.559C123.478 337.485 125.319 336.724 126.676 335.37C128.034 334.015 128.796 332.178 128.796 330.263V238.736C128.796 236.821 128.034 234.984 126.676 233.63C125.319 232.276 123.478 231.515 121.559 231.515Z" fill="white" fill-opacity="0.08"/>
<path d="M107.205 292.919L121.768 307.519L108.013 307.359L102.895 302.252L107.205 292.919Z" fill="#01579B"/>
<path d="M113.108 288.836L102.895 292.252L109.143 284.83L113.108 288.836Z" fill="url(#paint0_linear_130_247)"/>
<path d="M121.67 262.921L92.5561 291.974L85.7026 285.138L107.97 262.921H121.67Z" fill="#54C5F8"/>
<path d="M95.9373 295.469L107.933 283.5H121.688L102.815 302.172L95.9373 295.469Z" fill="#54C5F8"/>
<path d="M102.83 288.556L109.684 295.391L102.895 302.252L96.0173 295.549L102.83 288.556Z" fill="#29B6F6"/>
<path d="M123.393 220.633C121.282 219.742 120.703 216.329 122.101 213.006C122.641 211.671 123.493 210.486 124.584 209.548L126.215 205.803L126.157 205.764L130.846 187.054C131.936 182.704 134.938 179.034 139.061 177.279C141.513 176.235 143.84 176.046 144.517 178.548C145.64 182.699 138.326 196.071 133.917 203.595L130.481 212.034C130.574 213.472 130.322 214.911 129.745 216.231C128.348 219.552 125.504 221.523 123.393 220.633H123.393Z" fill="#FFB6B6"/>
<path d="M165.414 139.379C165.414 139.379 159.061 137.562 155.885 142.105C152.708 146.648 150.893 146.648 150.893 152.554C150.893 152.554 132.288 178.903 133.195 181.629L128.885 188.671L139.775 194.577C139.775 194.577 143.632 190.715 143.632 187.081C143.632 183.446 154.523 173.452 154.523 173.452C154.523 173.452 164.053 161.186 164.506 156.643C164.96 152.1 165.414 139.379 165.414 139.379Z" fill="#7283E0"/>
<path d="M214.687 230.913C216.975 230.793 218.676 227.778 218.488 224.178C218.432 222.739 218.033 221.334 217.324 220.081L217.059 216.004L217.128 215.987L219.059 196.795C219.509 192.333 217.929 187.861 214.646 184.809C212.693 182.993 210.568 182.025 209.084 184.148C206.62 187.672 208.966 202.735 210.564 211.31L210.934 220.416C210.36 221.737 210.109 223.176 210.204 224.614C210.392 228.213 212.399 231.033 214.687 230.913H214.687Z" fill="#FFB6B6"/>
<path d="M202.705 140.204C202.705 140.204 209.297 140.654 210.745 146.006C212.193 151.359 213.9 151.976 211.898 157.531C211.898 157.531 220.466 188.638 218.689 190.894L220.357 198.982L208.11 200.837C208.11 200.837 205.791 195.894 207.023 192.475C208.255 189.057 201.399 175.955 201.399 175.955C201.399 175.955 196.593 161.179 197.707 156.752C198.82 152.324 202.705 140.204 202.705 140.204V140.204Z" fill="#7283E0"/>
<path d="M89.9621 132.254H7C5.34315 132.254 4 133.597 4 135.254V171.361C4 173.018 5.34315 174.361 7 174.361H89.9621C91.6189 174.361 92.9621 173.018 92.9621 171.361V135.254C92.9621 133.597 91.6189 132.254 89.9621 132.254Z" fill="#151515"/>
<path d="M87.4184 135.864H9.54395C7.88709 135.864 6.54395 137.208 6.54395 138.864V167.996C6.54395 169.653 7.88709 170.996 9.54394 170.996H87.4184C89.0752 170.996 90.4184 169.653 90.4184 167.996V138.864C90.4184 137.208 89.0752 135.864 87.4184 135.864Z" fill="white" fill-opacity="0.08"/>
<path d="M11.7005 134.897C12.0874 134.897 12.401 134.585 12.401 134.199C12.401 133.813 12.0874 133.5 11.7005 133.5C11.3136 133.5 11 133.813 11 134.199C11 134.585 11.3136 134.897 11.7005 134.897Z" fill="white" fill-opacity="0.12"/>
<path d="M14.3594 134.897C14.7463 134.897 15.0599 134.585 15.0599 134.199C15.0599 133.813 14.7463 133.5 14.3594 133.5C13.9726 133.5 13.6589 133.813 13.6589 134.199C13.6589 134.585 13.9726 134.897 14.3594 134.897Z" fill="white" fill-opacity="0.12"/>
<path d="M17.0184 134.897C17.4052 134.897 17.7189 134.585 17.7189 134.199C17.7189 133.813 17.4052 133.5 17.0184 133.5C16.6315 133.5 16.3179 133.813 16.3179 134.199C16.3179 134.585 16.6315 134.897 17.0184 134.897Z" fill="white" fill-opacity="0.12"/>
<path d="M20.2853 143.862C20.1937 143.862 20.1059 143.898 20.0411 143.963C19.9763 144.028 19.9399 144.115 19.9399 144.207C19.9399 144.298 19.9763 144.386 20.0411 144.45C20.1059 144.515 20.1937 144.551 20.2853 144.551H29.7217C29.8133 144.551 29.9012 144.515 29.9659 144.45C30.0307 144.386 30.0671 144.298 30.0671 144.207C30.0671 144.115 30.0307 144.028 29.9659 143.963C29.9012 143.898 29.8133 143.862 29.7217 143.862H20.2853Z" fill="#3F3D56"/>
<path d="M14.9486 148.606C14.857 148.606 14.7692 148.642 14.7044 148.707C14.6397 148.771 14.6033 148.859 14.6033 148.95C14.6033 149.042 14.6397 149.129 14.7044 149.194C14.7692 149.258 14.857 149.295 14.9486 149.295H35.0587C35.1503 149.295 35.2381 149.258 35.3029 149.194C35.3677 149.129 35.404 149.042 35.404 148.95C35.404 148.859 35.3677 148.771 35.3029 148.707C35.2381 148.642 35.1503 148.606 35.0587 148.606H14.9486Z" fill="#CCCCCC"/>
<path d="M14.9486 151.346C14.857 151.346 14.7692 151.383 14.7044 151.447C14.6397 151.512 14.6033 151.6 14.6033 151.691C14.6033 151.782 14.6397 151.87 14.7044 151.935C14.7692 151.999 14.857 152.035 14.9486 152.035H35.0587C35.1503 152.035 35.2381 151.999 35.3029 151.935C35.3677 151.87 35.404 151.782 35.404 151.691C35.404 151.6 35.3677 151.512 35.3029 151.447C35.2381 151.383 35.1503 151.346 35.0587 151.346H14.9486Z" fill="#CCCCCC"/>
<path d="M14.9486 154.087C14.857 154.087 14.7692 154.124 14.7044 154.188C14.6397 154.253 14.6033 154.34 14.6033 154.432C14.6033 154.523 14.6397 154.611 14.7044 154.675C14.7692 154.74 14.857 154.776 14.9486 154.776H35.0587C35.1503 154.776 35.2381 154.74 35.3029 154.675C35.3677 154.611 35.404 154.523 35.404 154.432C35.404 154.34 35.3677 154.253 35.3029 154.188C35.2381 154.124 35.1503 154.087 35.0587 154.087H14.9486Z" fill="#CCCCCC"/>
<path d="M14.9486 156.828C14.857 156.828 14.7692 156.864 14.7044 156.929C14.6397 156.993 14.6033 157.081 14.6033 157.172C14.6033 157.264 14.6397 157.351 14.7044 157.416C14.7692 157.481 14.857 157.517 14.9486 157.517H35.0587C35.1503 157.517 35.2381 157.481 35.3029 157.416C35.3677 157.351 35.404 157.264 35.404 157.172C35.404 157.081 35.3677 156.993 35.3029 156.929C35.2381 156.864 35.1503 156.828 35.0587 156.828H14.9486Z" fill="#CCCCCC"/>
<path d="M14.9486 159.569C14.857 159.569 14.7692 159.605 14.7044 159.67C14.6397 159.734 14.6033 159.822 14.6033 159.913C14.6033 160.005 14.6397 160.092 14.7044 160.157C14.7692 160.221 14.857 160.258 14.9486 160.258H35.0587C35.1503 160.258 35.2381 160.221 35.3029 160.157C35.3677 160.092 35.404 160.005 35.404 159.913C35.404 159.822 35.3677 159.734 35.3029 159.67C35.2381 159.605 35.1503 159.569 35.0587 159.569H14.9486Z" fill="#CCCCCC"/>
<path d="M14.9486 162.309C14.857 162.309 14.7692 162.346 14.7044 162.41C14.6397 162.475 14.6033 162.563 14.6033 162.654C14.6033 162.745 14.6397 162.833 14.7044 162.898C14.7692 162.962 14.857 162.998 14.9486 162.998H35.0587C35.1503 162.998 35.2381 162.962 35.3029 162.898C35.3677 162.833 35.404 162.745 35.404 162.654C35.404 162.563 35.3677 162.475 35.3029 162.41C35.2381 162.346 35.1503 162.309 35.0587 162.309H14.9486Z" fill="#CCCCCC"/>
<path d="M70.0297 162.544C71.4888 162.544 72.6717 161.364 72.6717 159.909C72.6717 158.453 71.4888 157.274 70.0297 157.274C68.5706 157.274 67.3877 158.453 67.3877 159.909C67.3877 161.364 68.5706 162.544 70.0297 162.544Z" fill="#FF6583"/>
<path d="M75.1263 157.374C74.9708 157.209 74.7838 157.077 74.5765 156.986C74.3691 156.894 74.1455 156.845 73.9188 156.841C73.6921 156.837 73.4669 156.878 73.2564 156.962C73.0459 157.046 72.8544 157.171 72.6931 157.33L64.1246 165.877C63.027 166.977 61.8812 165.295 61.1491 164.616V164.616C59.7168 163.203 60.4068 167.069 62.4187 167.069H83.5872C83.7257 167.069 83.838 166.957 83.838 166.818V166.818C83.838 166.755 83.814 166.693 83.7707 166.647L75.1263 157.374Z" fill="#7283E0"/>
<mask id="mask0_130_247" style="mask-type:alpha" maskUnits="userSpaceOnUse" x="13" y="0" width="95" height="123">
<path d="M106.977 40.4026C106.222 39.1286 102.957 40.4927 102.357 39.3365C101.759 38.1844 104.793 36.429 106.526 32.419C106.838 31.6959 108.808 27.1388 107.35 25.7326C104.586 23.0672 91.9394 34.0665 87.5136 30.467C86.5423 29.6771 85.8638 28.1001 82.9241 25.5398C81.7547 24.5213 81.0475 24.0614 80.3632 24.2325C79.3921 24.4753 79.3151 25.7764 78.2738 28.3347C76.7122 32.1715 75.7886 31.9398 74.8787 35.0009C74.2032 37.2733 74.3575 38.5944 73.5627 38.8518C72.438 39.216 71.4027 36.8058 69.9773 37.0216C68.5228 37.2418 67.6434 40.0482 67.3657 42.1494C66.8444 46.0924 68.2908 48.6943 69.0925 51.4302C69.9637 54.4034 70.4807 58.925 68.4688 65.3259L48.5554 121.496C52.9517 109.97 65.681 78.3744 71.0298 66.6333C72.5739 63.2438 74.2789 59.8059 77.7796 58.4491C81.1499 57.1427 85.7787 57.9227 91.6799 56.4994C92.369 56.3332 94.2816 55.8461 94.5223 54.7199C94.7213 53.7889 93.5963 53.2692 93.7692 52.3972C94.001 51.2275 96.2132 51.2131 98.9317 49.8637C100.849 48.9121 102.043 47.7805 103.07 46.8073C103.379 46.5139 107.982 42.0986 106.977 40.4026H106.977V40.4026Z" fill="#5C9553"/>
<path d="M28.632 69.9728C27.7896 69.9761 27.5163 71.974 26.7763 71.9353C26.0389 71.8968 26.0536 69.8997 24.5878 67.8911C24.3234 67.5289 22.6576 65.2462 21.5475 65.557C19.4434 66.1459 21.1868 75.5337 18.1452 76.6698C17.4777 76.9191 16.5088 76.7975 14.4054 77.5032C13.5687 77.784 13.1392 77.9988 13.0256 78.3844C12.8644 78.9316 13.4801 79.3449 14.4339 80.5946C15.8642 82.469 15.4841 82.856 16.7223 84.1863C17.6415 85.1738 18.3337 85.4792 18.2305 85.944C18.0846 86.6018 16.6042 86.415 16.2987 87.1777C15.987 87.9559 17.1091 89.1978 18.0591 89.9405C19.8418 91.3343 21.5346 91.3743 23.1072 91.7698C24.8162 92.1996 27.1821 93.2502 29.7397 96.0856L51.5313 122.077C47.1492 116.591 35.3323 101.22 31.1195 95.2044C29.9034 93.4678 28.7099 91.6381 29.0548 89.5264C29.3868 87.4934 31.1047 85.4441 32.1096 82.1338C32.227 81.7472 32.54 80.6669 32.0574 80.2237C31.6583 79.8572 31.079 80.2601 30.7014 79.9235C30.1948 79.4721 30.8261 78.381 30.9489 76.6559C31.0354 75.4394 30.8252 74.5261 30.6444 73.7407C30.5899 73.5039 29.7533 69.9685 28.632 69.9728V69.9729L28.632 69.9728Z" fill="#5C9553"/>
<path d="M45.4367 73.7495L44.9292 69.2139L45.1611 68.8701C46.2341 67.2801 46.781 65.7274 46.7875 64.2535C46.7886 64.0192 46.7777 63.7848 46.7667 63.5461C46.723 62.6 46.6683 61.424 47.2808 60.053C47.6242 59.2887 48.589 57.5191 50.0393 57.7382C50.4298 57.7929 50.7251 57.9725 50.9493 58.1827C50.9821 58.1302 51.016 58.0776 51.0521 58.0206C51.5038 57.3308 51.8615 57.0351 52.206 56.7504C52.4707 56.5314 52.7442 56.3059 53.1729 55.7715C53.361 55.5372 53.5076 55.3313 53.6312 55.1583C54.0064 54.6349 54.4964 54.0107 55.3605 54.0217C56.2836 54.0655 56.767 54.8298 57.0875 55.3357C57.6596 56.238 57.9188 56.8884 58.0905 57.3198C58.1529 57.4775 58.224 57.6549 58.26 57.7097C58.5576 58.1477 60.9759 57.7381 61.887 57.5892C63.9334 57.2475 65.7042 56.9519 66.4338 58.244C66.9566 59.1682 66.5683 60.3902 65.2449 61.9736C64.8325 62.4664 64.3939 62.8409 64.0045 63.1344C64.3272 63.3271 64.6159 63.6227 64.733 64.087C65.0086 65.1864 64.0647 66.288 61.9286 67.3655C61.3981 67.6349 60.6839 67.9941 59.6831 68.1671C59.2116 68.2481 58.7872 68.2678 58.4241 68.2788C58.4165 68.489 58.3673 68.7168 58.2393 68.9511C57.8641 69.641 57.0832 69.9695 55.9063 69.8906C54.6112 69.8227 53.5448 69.5753 52.6042 69.3585C51.7828 69.1701 51.0751 69.0102 50.5195 69.0475C49.4891 69.1307 48.695 69.9563 47.7632 71.0273L45.4367 73.7495H45.4367L45.4367 73.7495Z" fill="#5C9553"/>
<path d="M47.7912 46.7447L43.5376 48.3866L43.1466 48.2493C41.3382 47.6135 39.6993 47.4777 38.2736 47.8453C38.0469 47.9036 37.8232 47.9737 37.5954 48.0448C36.6924 48.3272 35.5699 48.6784 34.09 48.433C33.2643 48.2943 31.3099 47.8089 31.1536 46.3489C31.1075 45.9568 31.2061 45.6253 31.3524 45.3548C31.2933 45.3364 31.2339 45.3169 31.1697 45.2964C30.3886 45.0339 30.0122 44.7626 29.6497 44.5011C29.371 44.3003 29.0837 44.0927 28.4586 43.8131C28.1845 43.6904 27.9484 43.6006 27.7499 43.5248C27.149 43.2943 26.4217 42.9781 26.2131 42.1385C26.0213 41.2335 26.6371 40.5714 27.0446 40.1327C27.7713 39.3499 28.334 38.9339 28.7073 38.6582C28.8438 38.5578 28.9972 38.4439 29.041 38.3951C29.3887 37.9959 28.3796 35.7579 28.0046 34.9133C27.1554 33.0182 26.4206 31.3784 27.484 30.3441C28.2444 29.6034 29.5236 29.6695 31.3891 30.5495C31.9698 30.8238 32.4429 31.1536 32.8252 31.4562C32.9296 31.0949 33.142 30.7403 33.5609 30.5092C34.5533 29.9634 35.857 30.598 37.4399 32.3934C37.8348 32.8387 38.363 33.4393 38.784 34.3646C38.9818 34.8005 39.1085 35.2065 39.2112 35.5554C39.4163 35.5095 39.6488 35.4994 39.9077 35.5639C40.6694 35.7522 41.1849 36.4251 41.4072 37.5848C41.6701 38.8562 41.7015 39.9516 41.7306 40.9175C41.757 41.7608 41.782 42.4866 41.959 43.0153C42.3007 43.9919 43.2999 44.5515 44.571 45.1823L47.7913 46.7447L47.7911 46.7447L47.7912 46.7447Z" fill="#5C9553"/>
<path d="M45.4367 33.3829L44.9292 28.8473L45.1611 28.5035C46.2341 26.9135 46.781 25.3608 46.7875 23.8869C46.7886 23.6525 46.7777 23.4182 46.7667 23.1795C46.723 22.2334 46.6683 21.0574 47.2808 19.6864C47.6242 18.9221 48.589 17.1525 50.0393 17.3715C50.4298 17.4263 50.7251 17.6059 50.9493 17.8161C50.9821 17.7636 51.016 17.711 51.0521 17.654C51.5038 16.9642 51.8615 16.6685 52.206 16.3838C52.4707 16.1648 52.7442 15.9393 53.1729 15.4049C53.361 15.1706 53.5076 14.9647 53.6312 14.7917C54.0064 14.2683 54.4964 13.6441 55.3605 13.655C56.2836 13.6989 56.767 14.4632 57.0875 14.9691C57.6596 15.8713 57.9188 16.5218 58.0905 16.9532C58.1529 17.1109 58.224 17.2883 58.26 17.3431C58.5576 17.7811 60.9759 17.3715 61.887 17.2226C63.9334 16.8809 65.7042 16.5853 66.4338 17.8774C66.9566 18.8016 66.5683 20.0236 65.2449 21.607C64.8325 22.0998 64.3939 22.4743 64.0045 22.7678C64.3272 22.9605 64.6159 23.2561 64.733 23.7204C65.0086 24.8198 64.0647 25.9214 61.9286 26.9989C61.3981 27.2683 60.6839 27.6275 59.6831 27.8005C59.2116 27.8815 58.7872 27.9012 58.4241 27.9122C58.4165 28.1224 58.3673 28.3502 58.2393 28.5845C57.8641 29.2744 57.0832 29.6029 55.9063 29.524C54.6112 29.4561 53.5448 29.2087 52.6042 28.9918C51.7828 28.8035 51.0751 28.6436 50.5195 28.6809C49.4891 28.7641 48.695 29.5897 47.7632 30.6606L45.4367 33.3828H45.4367L45.4367 33.3829Z" fill="#5C9553"/>
<path d="M50.0722 121.422L49.1228 120.826L48.8931 119.729L49.1228 120.826L48.0159 120.953C47.9984 120.85 47.9382 120.614 47.8475 120.244C47.352 118.216 45.8415 112.044 44.5815 102.325C43.7021 95.5402 43.2044 88.565 43.1016 81.5898C42.9988 74.6036 43.3291 69.3146 43.5938 65.0638C43.794 61.8576 44.0368 58.8047 44.2752 55.8306C44.9096 47.8852 45.5079 40.38 45.0627 32.071C44.9643 30.2161 44.7575 26.3551 42.5044 22.2466C41.1973 19.8638 39.397 17.7483 37.1526 15.9612L38.5482 14.2048C41.0256 16.1802 43.0174 18.5235 44.4688 21.1691C46.967 25.7244 47.1923 29.9314 47.3006 31.9528C47.7534 40.4085 47.1486 47.986 46.5076 56.0081C46.2713 58.9712 46.0285 62.011 45.8295 65.204C45.567 69.4154 45.2399 74.6583 45.3417 81.5548C45.4423 88.4468 45.9345 95.3366 46.8018 102.036C48.0465 111.633 49.5352 117.712 50.0241 119.709C50.2844 120.776 50.3391 120.999 50.0722 121.422V121.422L50.0722 121.422Z" fill="#5C9553"/>
<path d="M33.0445 19.5244C32.9526 19.5244 32.8596 19.5222 32.7656 19.5156C30.858 19.4127 29.0916 18.2695 27.5144 16.1189C26.775 15.1071 26.3965 13.9529 25.6418 11.6512C25.5248 11.2964 24.956 9.49622 24.6104 7.0193C24.384 5.40085 24.4124 4.72416 24.7329 4.12627C25.0884 3.4605 25.6637 2.99622 26.3112 2.68305C26.2828 2.46842 26.3057 2.24723 26.3987 2.02165C26.7804 1.08651 27.7955 1.20917 28.3445 1.26829C28.6223 1.30333 28.9691 1.34932 29.3432 1.3296C29.9316 1.30115 30.2477 1.12592 30.7268 0.863113C31.1851 0.611255 31.7549 0.298089 32.6004 0.125074C34.2673 -0.223136 35.664 0.249911 36.1245 0.40539C38.5472 1.2135 39.7416 3.09913 41.1241 5.28257C41.3998 5.72058 42.3459 7.31491 42.9704 9.50056C43.421 11.0774 43.3576 11.7782 43.222 12.2994C42.9463 13.3703 42.2956 13.9836 40.6429 15.337C38.9169 16.7539 38.0506 17.4635 37.3069 17.895C35.5754 18.8958 34.4882 19.5243 33.0445 19.5243V19.5244H33.0445Z" fill="#5C9553"/>
</mask>
<g mask="url(#mask0_130_247)">
<rect y="-4" width="111" height="111" fill="#5C9553"/>
</g>
<path d="M246.493 276.163V301.982H264.606V276.163C264.606 275.977 264.547 275.796 264.437 275.647C264.326 275.497 264.171 275.387 263.993 275.332C263.91 275.304 263.822 275.291 263.734 275.292H247.368C247.253 275.291 247.14 275.314 247.034 275.357C246.928 275.401 246.831 275.465 246.75 275.546C246.669 275.627 246.604 275.723 246.56 275.829C246.516 275.935 246.494 276.048 246.493 276.163V276.163ZM253.562 285.034C253.567 284.525 253.773 284.039 254.135 283.681C254.497 283.322 254.986 283.121 255.495 283.121C256.005 283.121 256.494 283.322 256.856 283.681C257.218 284.039 257.424 284.525 257.429 285.034V288.03C257.426 288.54 257.221 289.029 256.859 289.389C256.497 289.749 256.007 289.951 255.495 289.951C254.984 289.951 254.494 289.749 254.132 289.389C253.769 289.029 253.565 288.54 253.562 288.03V285.034Z" fill="#151515"/>
<path d="M246.438 301.156V303.646C246.438 303.775 246.49 303.898 246.581 303.99C246.672 304.081 246.795 304.133 246.925 304.134H264.175C264.304 304.133 264.428 304.082 264.519 303.99C264.61 303.899 264.661 303.775 264.661 303.646V301.156H246.438Z" fill="#272727"/>
<path d="M218 237.263V284.405C218 285.006 218.24 285.582 218.665 286.006C219.09 286.431 219.667 286.67 220.269 286.671H290.223C290.824 286.67 291.401 286.431 291.827 286.006C292.252 285.582 292.491 285.006 292.492 284.405V237.263C292.49 236.663 292.251 236.088 291.825 235.664C291.4 235.239 290.824 235.001 290.223 235H220.269C219.668 235.001 219.091 235.239 218.666 235.664C218.241 236.088 218.001 236.663 218 237.263V237.263Z" fill="#272727"/>
<path d="M219.641 237.85V283.823C219.642 284.144 219.77 284.452 219.997 284.679C220.224 284.906 220.532 285.034 220.854 285.034H289.641C289.962 285.034 290.27 284.906 290.497 284.679C290.725 284.452 290.853 284.144 290.853 283.823V237.85C290.853 237.528 290.725 237.22 290.498 236.993C290.271 236.765 289.962 236.637 289.641 236.636H220.854C220.532 236.637 220.223 236.765 219.996 236.993C219.769 237.22 219.641 237.528 219.641 237.85V237.85Z" fill="#7283E0"/>
<path d="M233.667 304.721C233.737 304.808 233.826 304.879 233.927 304.927C234.029 304.976 234.14 305.001 234.252 305H275.176C275.288 305 275.398 304.975 275.499 304.927C275.6 304.879 275.689 304.809 275.76 304.722C275.83 304.635 275.88 304.534 275.907 304.425C275.933 304.316 275.935 304.203 275.912 304.094L275.277 301.08C275.25 300.957 275.194 300.843 275.112 300.748C275.03 300.652 274.925 300.579 274.808 300.534C274.723 300.501 274.632 300.484 274.54 300.484H234.885C234.793 300.484 234.703 300.501 234.617 300.534C234.5 300.579 234.395 300.652 234.314 300.748C234.232 300.843 234.175 300.957 234.149 301.08L233.513 304.094C233.491 304.203 233.493 304.316 233.519 304.424C233.546 304.533 233.596 304.634 233.667 304.721Z" fill="#151515"/>
<path d="M273.112 301.782H274.127C274.195 301.782 274.25 301.727 274.25 301.659V301.149C274.25 301.081 274.195 301.026 274.127 301.026H273.112C273.044 301.026 272.989 301.081 272.989 301.149V301.659C272.989 301.727 273.044 301.782 273.112 301.782Z" fill="#272727"/>
<path d="M270.592 301.782H271.606C271.674 301.782 271.729 301.727 271.729 301.659V301.149C271.729 301.081 271.674 301.026 271.606 301.026H270.592C270.524 301.026 270.469 301.081 270.469 301.149V301.659C270.469 301.727 270.524 301.782 270.592 301.782Z" fill="#272727"/>
<path d="M268.071 301.782H269.085C269.153 301.782 269.208 301.727 269.208 301.659V301.149C269.208 301.081 269.153 301.026 269.085 301.026H268.071C268.003 301.026 267.948 301.081 267.948 301.149V301.659C267.948 301.727 268.003 301.782 268.071 301.782Z" fill="#272727"/>
<path d="M265.55 301.782H266.564C266.632 301.782 266.687 301.727 266.687 301.659V301.149C266.687 301.081 266.632 301.026 266.564 301.026H265.55C265.482 301.026 265.427 301.081 265.427 301.149V301.659C265.427 301.727 265.482 301.782 265.55 301.782Z" fill="#272727"/>
<path d="M263.029 301.782H264.043C264.111 301.782 264.166 301.727 264.166 301.659V301.149C264.166 301.081 264.111 301.026 264.043 301.026H263.029C262.961 301.026 262.906 301.081 262.906 301.149V301.659C262.906 301.727 262.961 301.782 263.029 301.782Z" fill="#272727"/>
<path d="M260.508 301.782H261.522C261.59 301.782 261.646 301.727 261.646 301.659V301.149C261.646 301.081 261.59 301.026 261.522 301.026H260.508C260.44 301.026 260.385 301.081 260.385 301.149V301.659C260.385 301.727 260.44 301.782 260.508 301.782Z" fill="#272727"/>
<path d="M257.987 301.782H259.001C259.069 301.782 259.125 301.727 259.125 301.659V301.149C259.125 301.081 259.069 301.026 259.001 301.026H257.987C257.919 301.026 257.864 301.081 257.864 301.149V301.659C257.864 301.727 257.919 301.782 257.987 301.782Z" fill="#272727"/>
<path d="M255.466 301.782H256.481C256.549 301.782 256.604 301.727 256.604 301.659V301.149C256.604 301.081 256.549 301.026 256.481 301.026H255.466C255.398 301.026 255.343 301.081 255.343 301.149V301.659C255.343 301.727 255.398 301.782 255.466 301.782Z" fill="#272727"/>
<path d="M252.946 301.782H253.96C254.028 301.782 254.083 301.727 254.083 301.659V301.149C254.083 301.081 254.028 301.026 253.96 301.026H252.946C252.878 301.026 252.823 301.081 252.823 301.149V301.659C252.823 301.727 252.878 301.782 252.946 301.782Z" fill="#272727"/>
<path d="M250.425 301.782H251.439C251.507 301.782 251.562 301.727 251.562 301.659V301.149C251.562 301.081 251.507 301.026 251.439 301.026H250.425C250.357 301.026 250.302 301.081 250.302 301.149V301.659C250.302 301.727 250.357 301.782 250.425 301.782Z" fill="#272727"/>
<path d="M247.904 301.782H248.918C248.986 301.782 249.041 301.727 249.041 301.659V301.149C249.041 301.081 248.986 301.026 248.918 301.026H247.904C247.836 301.026 247.781 301.081 247.781 301.149V301.659C247.781 301.727 247.836 301.782 247.904 301.782Z" fill="#272727"/>
<path d="M245.383 301.782H246.397C246.465 301.782 246.52 301.727 246.52 301.659V301.149C246.52 301.081 246.465 301.026 246.397 301.026H245.383C245.315 301.026 245.26 301.081 245.26 301.149V301.659C245.26 301.727 245.315 301.782 245.383 301.782Z" fill="#272727"/>
<path d="M242.862 301.782H243.876C243.944 301.782 244 301.727 244 301.659V301.149C244 301.081 243.944 301.026 243.876 301.026H242.862C242.794 301.026 242.739 301.081 242.739 301.149V301.659C242.739 301.727 242.794 301.782 242.862 301.782Z" fill="#272727"/>
<path d="M240.341 301.782H241.355C241.423 301.782 241.479 301.727 241.479 301.659V301.149C241.479 301.081 241.423 301.026 241.355 301.026H240.341C240.273 301.026 240.218 301.081 240.218 301.149V301.659C240.218 301.727 240.273 301.782 240.341 301.782Z" fill="#272727"/>
<path d="M237.82 301.782H238.834C238.902 301.782 238.958 301.727 238.958 301.659V301.149C238.958 301.081 238.902 301.026 238.834 301.026H237.82C237.752 301.026 237.697 301.081 237.697 301.149V301.659C237.697 301.727 237.752 301.782 237.82 301.782Z" fill="#272727"/>
<path d="M235.299 301.782H236.314C236.382 301.782 236.437 301.727 236.437 301.659V301.149C236.437 301.081 236.382 301.026 236.314 301.026H235.299C235.231 301.026 235.176 301.081 235.176 301.149V301.659C235.176 301.727 235.231 301.782 235.299 301.782Z" fill="#272727"/>
<path d="M273.142 303.04H274.156C274.224 303.04 274.28 302.985 274.28 302.918V302.408C274.28 302.34 274.224 302.285 274.156 302.285H273.142C273.074 302.285 273.019 302.34 273.019 302.408V302.918C273.019 302.985 273.074 303.04 273.142 303.04Z" fill="#272727"/>
<path d="M270.621 303.04H271.636C271.704 303.04 271.759 302.985 271.759 302.918V302.408C271.759 302.34 271.704 302.285 271.636 302.285H270.621C270.553 302.285 270.498 302.34 270.498 302.408V302.918C270.498 302.985 270.553 303.04 270.621 303.04Z" fill="#272727"/>
<path d="M268.101 303.04H269.115C269.183 303.04 269.238 302.985 269.238 302.918V302.408C269.238 302.34 269.183 302.285 269.115 302.285H268.101C268.033 302.285 267.978 302.34 267.978 302.408V302.918C267.978 302.985 268.033 303.04 268.101 303.04Z" fill="#272727"/>
<path d="M265.58 303.04H266.594C266.662 303.04 266.717 302.985 266.717 302.918V302.408C266.717 302.34 266.662 302.285 266.594 302.285H265.58C265.512 302.285 265.457 302.34 265.457 302.408V302.918C265.457 302.985 265.512 303.04 265.58 303.04Z" fill="#272727"/>
<path d="M263.059 303.04H264.073C264.141 303.04 264.196 302.985 264.196 302.918V302.408C264.196 302.34 264.141 302.285 264.073 302.285H263.059C262.991 302.285 262.936 302.34 262.936 302.408V302.918C262.936 302.985 262.991 303.04 263.059 303.04Z" fill="#272727"/>
<path d="M260.538 303.04H261.552C261.62 303.04 261.675 302.985 261.675 302.918V302.408C261.675 302.34 261.62 302.285 261.552 302.285H260.538C260.47 302.285 260.415 302.34 260.415 302.408V302.918C260.415 302.985 260.47 303.04 260.538 303.04Z" fill="#272727"/>
<path d="M258.017 303.04H259.031C259.099 303.04 259.154 302.985 259.154 302.918V302.408C259.154 302.34 259.099 302.285 259.031 302.285H258.017C257.949 302.285 257.894 302.34 257.894 302.408V302.918C257.894 302.985 257.949 303.04 258.017 303.04Z" fill="#272727"/>
<path d="M255.496 303.04H256.51C256.578 303.04 256.634 302.985 256.634 302.918V302.408C256.634 302.34 256.578 302.285 256.51 302.285H255.496C255.428 302.285 255.373 302.34 255.373 302.408V302.918C255.373 302.985 255.428 303.04 255.496 303.04Z" fill="#272727"/>
<path d="M252.975 303.04H253.99C254.058 303.04 254.113 302.985 254.113 302.918V302.408C254.113 302.34 254.058 302.285 253.99 302.285H252.975C252.907 302.285 252.852 302.34 252.852 302.408V302.918C252.852 302.985 252.907 303.04 252.975 303.04Z" fill="#272727"/>
<path d="M250.454 303.04H251.469C251.537 303.04 251.592 302.985 251.592 302.918V302.408C251.592 302.34 251.537 302.285 251.469 302.285H250.454C250.386 302.285 250.331 302.34 250.331 302.408V302.918C250.331 302.985 250.386 303.04 250.454 303.04Z" fill="#272727"/>
<path d="M247.934 303.04H248.948C249.016 303.04 249.071 302.985 249.071 302.918V302.408C249.071 302.34 249.016 302.285 248.948 302.285H247.934C247.866 302.285 247.811 302.34 247.811 302.408V302.918C247.811 302.985 247.866 303.04 247.934 303.04Z" fill="#272727"/>
<path d="M245.413 303.04H246.427C246.495 303.04 246.55 302.985 246.55 302.918V302.408C246.55 302.34 246.495 302.285 246.427 302.285H245.413C245.345 302.285 245.29 302.34 245.29 302.408V302.918C245.29 302.985 245.345 303.04 245.413 303.04Z" fill="#272727"/>
<path d="M242.892 303.04H243.906C243.974 303.04 244.029 302.985 244.029 302.918V302.408C244.029 302.34 243.974 302.285 243.906 302.285H242.892C242.824 302.285 242.769 302.34 242.769 302.408V302.918C242.769 302.985 242.824 303.04 242.892 303.04Z" fill="#272727"/>
<path d="M240.371 303.04H241.385C241.453 303.04 241.508 302.985 241.508 302.918V302.408C241.508 302.34 241.453 302.285 241.385 302.285H240.371C240.303 302.285 240.248 302.34 240.248 302.408V302.918C240.248 302.985 240.303 303.04 240.371 303.04Z" fill="#272727"/>
<path d="M237.85 303.04H238.864C238.932 303.04 238.987 302.985 238.987 302.918V302.408C238.987 302.34 238.932 302.285 238.864 302.285H237.85C237.782 302.285 237.727 302.34 237.727 302.408V302.918C237.727 302.985 237.782 303.04 237.85 303.04Z" fill="#272727"/>
<path d="M235.329 303.04H236.343C236.411 303.04 236.467 302.985 236.467 302.918V302.408C236.467 302.34 236.411 302.285 236.343 302.285H235.329C235.261 302.285 235.206 302.34 235.206 302.408V302.918C235.206 302.985 235.261 303.04 235.329 303.04Z" fill="#272727"/>
<path d="M252.219 304.551H262.056C262.124 304.551 262.179 304.496 262.179 304.428V303.919C262.179 303.851 262.124 303.796 262.056 303.796H252.219C252.151 303.796 252.096 303.851 252.096 303.919V304.428C252.096 304.496 252.151 304.551 252.219 304.551Z" fill="#272727"/>
<path d="M224.31 242.969H288.674C288.741 242.968 288.804 242.94 288.851 242.893C288.898 242.845 288.924 242.781 288.924 242.714C288.924 242.647 288.898 242.583 288.851 242.535C288.804 242.487 288.741 242.46 288.674 242.458H224.31C224.243 242.46 224.18 242.487 224.133 242.535C224.086 242.583 224.06 242.647 224.06 242.714C224.06 242.781 224.086 242.845 224.133 242.893C224.18 242.94 224.243 242.968 224.31 242.969V242.969Z" fill="#272727"/>
<path d="M284.292 241.153C285.121 241.153 285.793 240.467 285.793 239.622C285.793 238.776 285.121 238.09 284.292 238.09C283.464 238.09 282.792 238.776 282.792 239.622C282.792 240.467 283.464 241.153 284.292 241.153Z" fill="#272727"/>
<path d="M279.111 241.153C279.939 241.153 280.611 240.467 280.611 239.622C280.611 238.776 279.939 238.09 279.111 238.09C278.282 238.09 277.611 238.776 277.611 239.622C277.611 240.467 278.282 241.153 279.111 241.153Z" fill="#272727"/>
<path d="M273.929 241.153C274.757 241.153 275.429 240.467 275.429 239.622C275.429 238.776 274.757 238.09 273.929 238.09C273.1 238.09 272.429 238.776 272.429 239.622C272.429 240.467 273.1 241.153 273.929 241.153Z" fill="#272727"/>
<path d="M227.156 238.748C227.155 238.785 227.162 238.821 227.176 238.854C227.19 238.888 227.21 238.918 227.235 238.944C227.261 238.969 227.291 238.99 227.325 239.004C227.358 239.018 227.394 239.025 227.43 239.025H231.111C231.184 239.024 231.253 238.994 231.304 238.942C231.354 238.89 231.383 238.82 231.383 238.747C231.383 238.675 231.354 238.605 231.304 238.553C231.253 238.501 231.184 238.471 231.111 238.469H227.43C227.357 238.47 227.287 238.5 227.235 238.552C227.184 238.605 227.155 238.675 227.156 238.748V238.748Z" fill="#272727"/>
<path d="M227.156 239.793C227.155 239.829 227.162 239.865 227.176 239.899C227.19 239.932 227.21 239.963 227.235 239.989C227.261 240.014 227.291 240.035 227.325 240.049C227.358 240.063 227.394 240.07 227.43 240.07H231.111C231.184 240.069 231.253 240.038 231.304 239.986C231.355 239.935 231.383 239.865 231.383 239.792C231.383 239.719 231.355 239.649 231.304 239.597C231.253 239.545 231.184 239.515 231.111 239.514H227.43C227.357 239.515 227.287 239.545 227.235 239.597C227.184 239.649 227.155 239.72 227.156 239.793V239.793Z" fill="#272727"/>
<path d="M227.156 240.835C227.155 240.909 227.184 240.979 227.235 241.032C227.287 241.084 227.357 241.114 227.43 241.115H231.111C231.184 241.113 231.253 241.083 231.304 241.031C231.354 240.979 231.383 240.909 231.383 240.837C231.383 240.764 231.354 240.694 231.304 240.642C231.253 240.59 231.184 240.56 231.111 240.559H227.43C227.394 240.559 227.358 240.566 227.325 240.58C227.291 240.594 227.261 240.614 227.235 240.64C227.21 240.666 227.19 240.696 227.176 240.73C227.162 240.763 227.155 240.799 227.156 240.835V240.835Z" fill="#272727"/>
<path d="M228.293 248.91H226.971C226.57 248.91 226.245 249.234 226.245 249.635C226.245 250.035 226.57 250.36 226.971 250.36H228.293C228.694 250.36 229.019 250.035 229.019 249.635C229.019 249.234 228.694 248.91 228.293 248.91Z" fill="white"/>
<path d="M243.418 248.91H242.096C241.695 248.91 241.37 249.234 241.37 249.635C241.37 250.035 241.695 250.36 242.096 250.36H243.418C243.819 250.36 244.144 250.035 244.144 249.635C244.144 249.234 243.819 248.91 243.418 248.91Z" fill="#6CF2BA"/>
<path d="M247.704 248.91H246.382C245.981 248.91 245.656 249.234 245.656 249.635C245.656 250.035 245.981 250.36 246.382 250.36H247.704C248.105 250.36 248.43 250.035 248.43 249.635C248.43 249.234 248.105 248.91 247.704 248.91Z" fill="white"/>
<path d="M239.304 248.789H231.085C230.684 248.789 230.359 249.113 230.359 249.514C230.359 249.914 230.684 250.239 231.085 250.239H239.304C239.705 250.239 240.03 249.914 240.03 249.514C240.03 249.113 239.705 248.789 239.304 248.789Z" fill="#FF9FD3"/>
<path d="M259.471 248.789H251.252C250.851 248.789 250.526 249.113 250.526 249.514C250.526 249.914 250.851 250.239 251.252 250.239H259.471C259.872 250.239 260.197 249.914 260.197 249.514C260.197 249.113 259.872 248.789 259.471 248.789Z" fill="#C8FFDE"/>
<path d="M232.327 252.182H231.004C230.603 252.182 230.278 252.507 230.278 252.907C230.278 253.308 230.603 253.632 231.004 253.632H232.327C232.728 253.632 233.053 253.308 233.053 252.907C233.053 252.507 232.728 252.182 232.327 252.182Z" fill="#6CF2BA"/>
<path d="M247.452 252.182H246.129C245.728 252.182 245.403 252.507 245.403 252.907C245.403 253.308 245.728 253.632 246.129 253.632H247.452C247.853 253.632 248.178 253.308 248.178 252.907C248.178 252.507 247.853 252.182 247.452 252.182Z" fill="#C8FFDE"/>
<path d="M251.737 252.182H250.415C250.014 252.182 249.689 252.507 249.689 252.907C249.689 253.308 250.014 253.632 250.415 253.632H251.737C252.138 253.632 252.463 253.308 252.463 252.907C252.463 252.507 252.138 252.182 251.737 252.182Z" fill="white"/>
<path d="M243.338 252.062H235.118C234.717 252.062 234.392 252.386 234.392 252.787C234.392 253.187 234.717 253.512 235.118 253.512H243.338C243.739 253.512 244.064 253.187 244.064 252.787C244.064 252.386 243.739 252.062 243.338 252.062Z" fill="white"/>
<path d="M263.505 252.062H255.285C254.884 252.062 254.559 252.386 254.559 252.787C254.559 253.187 254.884 253.512 255.285 253.512H263.505C263.906 253.512 264.231 253.187 264.231 252.787C264.231 252.386 263.906 252.062 263.505 252.062Z" fill="white"/>
<path d="M236.36 255.455H235.037C234.636 255.455 234.311 255.78 234.311 256.18C234.311 256.58 234.636 256.905 235.037 256.905H236.36C236.761 256.905 237.086 256.58 237.086 256.18C237.086 255.78 236.761 255.455 236.36 255.455Z" fill="white"/>
<path d="M251.485 255.455H250.163C249.762 255.455 249.437 255.78 249.437 256.18C249.437 256.58 249.762 256.905 250.163 256.905H251.485C251.886 256.905 252.211 256.58 252.211 256.18C252.211 255.78 251.886 255.455 251.485 255.455Z" fill="#FF9FD3"/>
<path d="M255.771 255.455H254.448C254.047 255.455 253.722 255.78 253.722 256.18C253.722 256.58 254.047 256.905 254.448 256.905H255.771C256.172 256.905 256.497 256.58 256.497 256.18C256.497 255.78 256.172 255.455 255.771 255.455Z" fill="white"/>
<path d="M247.371 255.334H239.152C238.751 255.334 238.426 255.659 238.426 256.059C238.426 256.46 238.751 256.784 239.152 256.784H247.371C247.772 256.784 248.097 256.46 248.097 256.059C248.097 255.659 247.772 255.334 247.371 255.334Z" fill="#C8FFDE"/>
<path d="M267.538 255.334H259.319C258.918 255.334 258.593 255.659 258.593 256.059C258.593 256.46 258.918 256.784 259.319 256.784H267.538C267.939 256.784 268.264 256.46 268.264 256.059C268.264 255.659 267.939 255.334 267.538 255.334Z" fill="white"/>
<path d="M240.393 258.728H239.071C238.67 258.728 238.345 259.052 238.345 259.453C238.345 259.853 238.67 260.178 239.071 260.178H240.393C240.794 260.178 241.119 259.853 241.119 259.453C241.119 259.052 240.794 258.728 240.393 258.728Z" fill="#6CF2BA"/>
<path d="M255.519 258.728H254.196C253.795 258.728 253.47 259.052 253.47 259.453C253.47 259.853 253.795 260.178 254.196 260.178H255.519C255.92 260.178 256.245 259.853 256.245 259.453C256.245 259.052 255.92 258.728 255.519 258.728Z" fill="#FF9FD3"/>
<path d="M259.804 258.728H258.482C258.081 258.728 257.756 259.052 257.756 259.453C257.756 259.853 258.081 260.178 258.482 260.178H259.804C260.205 260.178 260.53 259.853 260.53 259.453C260.53 259.052 260.205 258.728 259.804 258.728Z" fill="white"/>
<path d="M251.404 258.607H243.185C242.784 258.607 242.459 258.931 242.459 259.332C242.459 259.732 242.784 260.057 243.185 260.057H251.404C251.805 260.057 252.13 259.732 252.13 259.332C252.13 258.931 251.805 258.607 251.404 258.607Z" fill="#C8FFDE"/>
<path d="M243.418 271.741H242.096C241.695 271.741 241.37 272.066 241.37 272.466C241.37 272.867 241.695 273.191 242.096 273.191H243.418C243.819 273.191 244.144 272.867 244.144 272.466C244.144 272.066 243.819 271.741 243.418 271.741Z" fill="#6CF2BA"/>
<path d="M247.704 271.741H246.382C245.981 271.741 245.656 272.066 245.656 272.466C245.656 272.867 245.981 273.191 246.382 273.191H247.704C248.105 273.191 248.43 272.867 248.43 272.466C248.43 272.066 248.105 271.741 247.704 271.741Z" fill="white"/>
<path d="M259.471 271.862H251.252C250.851 271.862 250.526 272.187 250.526 272.587C250.526 272.988 250.851 273.312 251.252 273.312H259.471C259.872 273.312 260.197 272.988 260.197 272.587C260.197 272.187 259.872 271.862 259.471 271.862Z" fill="#FF9FD3"/>
<path d="M228.293 271.741H226.971C226.57 271.741 226.245 272.066 226.245 272.466C226.245 272.867 226.57 273.191 226.971 273.191H228.293C228.694 273.191 229.019 272.867 229.019 272.466C229.019 272.066 228.694 271.741 228.293 271.741Z" fill="white"/>
<path d="M239.304 271.862H231.085C230.684 271.862 230.359 272.187 230.359 272.587C230.359 272.988 230.684 273.312 231.085 273.312H239.304C239.705 273.312 240.03 272.988 240.03 272.587C240.03 272.187 239.705 271.862 239.304 271.862Z" fill="#C8FFDE"/>
<path d="M232.327 268.469H231.004C230.603 268.469 230.278 268.793 230.278 269.194C230.278 269.594 230.603 269.919 231.004 269.919H232.327C232.728 269.919 233.053 269.594 233.053 269.194C233.053 268.793 232.728 268.469 232.327 268.469Z" fill="#6CF2BA"/>
<path d="M247.452 268.469H246.129C245.728 268.469 245.403 268.793 245.403 269.194C245.403 269.594 245.728 269.919 246.129 269.919H247.452C247.853 269.919 248.178 269.594 248.178 269.194C248.178 268.793 247.853 268.469 247.452 268.469Z" fill="white"/>
<path d="M251.737 268.469H250.415C250.014 268.469 249.689 268.793 249.689 269.194C249.689 269.594 250.014 269.919 250.415 269.919H251.737C252.138 269.919 252.463 269.594 252.463 269.194C252.463 268.793 252.138 268.469 251.737 268.469Z" fill="#FF9FD3"/>
<path d="M243.338 268.589H235.118C234.717 268.589 234.392 268.914 234.392 269.314C234.392 269.715 234.717 270.039 235.118 270.039H243.338C243.739 270.039 244.064 269.715 244.064 269.314C244.064 268.914 243.739 268.589 243.338 268.589Z" fill="#C8FFDE"/>
<path d="M236.36 265.196H235.037C234.636 265.196 234.311 265.521 234.311 265.921C234.311 266.321 234.636 266.646 235.037 266.646H236.36C236.761 266.646 237.086 266.321 237.086 265.921C237.086 265.521 236.761 265.196 236.36 265.196Z" fill="#6CF2BA"/>
<path d="M251.485 265.196H250.163C249.762 265.196 249.437 265.521 249.437 265.921C249.437 266.321 249.762 266.646 250.163 266.646H251.485C251.886 266.646 252.211 266.321 252.211 265.921C252.211 265.521 251.886 265.196 251.485 265.196Z" fill="#FF9FD3"/>
<path d="M255.771 265.196H254.448C254.047 265.196 253.722 265.521 253.722 265.921C253.722 266.321 254.047 266.646 254.448 266.646H255.771C256.172 266.646 256.497 266.321 256.497 265.921C256.497 265.521 256.172 265.196 255.771 265.196Z" fill="white"/>
<path d="M247.371 265.317H239.152C238.751 265.317 238.426 265.641 238.426 266.042C238.426 266.442 238.751 266.767 239.152 266.767H247.371C247.772 266.767 248.097 266.442 248.097 266.042C248.097 265.641 247.772 265.317 247.371 265.317Z" fill="#C8FFDE"/>
<path d="M240.393 261.923H239.071C238.67 261.923 238.345 262.248 238.345 262.648C238.345 263.049 238.67 263.373 239.071 263.373H240.393C240.794 263.373 241.119 263.049 241.119 262.648C241.119 262.248 240.794 261.923 240.393 261.923Z" fill="white"/>
<path d="M255.519 261.923H254.196C253.795 261.923 253.47 262.248 253.47 262.648C253.47 263.049 253.795 263.373 254.196 263.373H255.519C255.92 263.373 256.245 263.049 256.245 262.648C256.245 262.248 255.92 261.923 255.519 261.923Z" fill="#FF9FD3"/>
<path d="M259.804 261.923H258.482C258.081 261.923 257.756 262.248 257.756 262.648C257.756 263.049 258.081 263.373 258.482 263.373H259.804C260.205 263.373 260.53 263.049 260.53 262.648C260.53 262.248 260.205 261.923 259.804 261.923Z" fill="white"/>
<path d="M251.404 262.044H243.185C242.784 262.044 242.459 262.369 242.459 262.769C242.459 263.17 242.784 263.494 243.185 263.494H251.404C251.805 263.494 252.13 263.17 252.13 262.769C252.13 262.369 251.805 262.044 251.404 262.044Z" fill="white"/>
<defs>
<linearGradient id="paint0_linear_130_247" x1="104.632" y1="293.313" x2="109.719" y2="288.214" gradientUnits="userSpaceOnUse">
<stop stop-color="#1A237E" stop-opacity="0.4"/>
<stop offset="1" stop-color="#1A237E" stop-opacity="0"/>
</linearGradient>
</defs>
</svg>
