<svg width="639" height="621" viewBox="0 0 639 621" fill="none" xmlns="http://www.w3.org/2000/svg">
<path d="M601.177 171.398C595.195 160.607 588.558 150.191 581.303 140.211C576.219 133.209 570.847 126.44 565.188 119.905H565.174C554.933 108.075 543.796 97.0522 531.861 86.9337C529.418 84.8593 526.942 82.8273 524.433 80.8379C501.788 62.823 476.675 48.1497 449.862 37.2664L450.1 76.4457L452.666 523.068H230.288L217.782 77.2884L218.713 38.7347C109.688 84.5862 33.1368 192.391 33.1368 318.082C33.1165 344.025 36.4265 369.863 42.9856 394.964C45.756 405.574 49.1101 416.024 53.0326 426.264C54.4486 429.981 55.9425 433.665 57.5143 437.316C58.2719 439.093 59.0437 440.856 59.8438 442.612C60.8704 444.906 61.9396 447.193 63.037 449.451C63.8866 451.228 64.7599 452.994 65.6568 454.747C66.8108 457.048 68.0027 459.33 69.2323 461.594C70.1811 463.371 71.1582 465.134 72.1494 466.889C88.1414 495.175 108.563 520.715 132.637 542.539C139.497 548.763 146.637 554.663 154.055 560.239C206.54 599.677 270.416 621 336.068 621C401.721 621 465.597 599.677 518.082 560.239C522.118 557.209 526.071 554.077 529.942 550.844C532.512 548.706 535.04 546.528 537.525 544.309C538.183 543.722 538.842 543.134 539.493 542.539C561.688 522.42 580.789 499.133 596.178 473.431C601.83 464.009 606.954 454.28 611.528 444.29C612.739 441.656 613.912 438.999 615.047 436.318C620.273 424.026 624.667 411.398 628.203 398.518C628.748 396.528 629.274 394.532 629.782 392.528V392.521C629.866 392.174 629.959 391.82 630.043 391.473C630.567 389.363 631.07 387.239 631.552 385.115V385.108C633.109 378.262 634.424 371.333 635.495 364.321C635.63 363.422 635.764 362.523 635.892 361.624C635.941 361.298 635.991 360.973 636.026 360.647V360.64C636.791 355.224 637.412 349.767 637.888 344.271C638.625 335.64 638.995 326.911 639 318.082C639.08 266.766 626.062 216.278 601.177 171.398V171.398Z" fill="#3F3D56"/>
<path d="M571.427 500.937C589.357 476.711 596.253 442.587 582.306 415.869C569.225 445.921 545.936 470.378 516.558 484.913C505.208 490.477 492.004 495.484 486.751 506.981C483.482 514.135 484.104 522.582 486.732 529.995C489.36 537.408 493.83 544.004 498.252 550.508L498.485 552.457C526.328 540.914 553.497 525.163 571.427 500.937Z" fill="#3F675D"/>
<path d="M581.71 416.084C580.907 441.017 572.267 465.064 557.019 484.808C553.811 489.117 549.945 492.893 545.562 495.998C541.194 498.884 536.133 500.549 530.905 500.818C526.035 501.167 521.013 500.96 516.313 502.486C513.919 503.304 511.724 504.618 509.873 506.342C508.022 508.067 506.557 510.164 505.573 512.494C502.971 518.238 502.588 524.575 502.429 530.784C502.252 537.678 502.177 544.842 498.925 551.109C498.531 551.869 499.732 552.436 500.126 551.677C505.784 540.773 502.11 528.022 505.482 516.56C507.055 511.211 510.25 506.304 515.59 504.161C520.26 502.286 525.438 502.495 530.372 502.185C535.476 501.997 540.457 500.562 544.879 498.006C549.406 495.134 553.412 491.513 556.724 487.298C564.332 477.926 570.419 467.417 574.763 456.155C579.792 443.329 582.589 429.737 583.034 415.968C583.061 415.116 581.737 415.237 581.71 416.084V416.084Z" fill="#111111"/>
<path d="M562.303 478.739C565.963 480.848 570.254 481.587 574.408 480.824C578.563 480.062 582.311 477.847 584.984 474.576C585.522 473.912 584.516 473.044 583.977 473.709C581.494 476.76 578.002 478.822 574.132 479.524C570.262 480.227 566.268 479.522 562.871 477.539C562.133 477.109 561.569 478.312 562.303 478.739Z" fill="#111111"/>
<path d="M533.398 500.966C531.081 492.648 531.984 483.763 535.928 476.081C536.319 475.321 535.118 474.753 534.727 475.513C530.638 483.514 529.717 492.763 532.147 501.413C532.379 502.238 533.629 501.786 533.398 500.966H533.398Z" fill="#111111"/>
<path d="M578.032 443.39C576.446 442.87 575.014 441.963 573.864 440.752C572.715 439.541 571.885 438.064 571.448 436.453C571.226 435.626 569.977 436.078 570.197 436.9C570.688 438.678 571.607 440.308 572.874 441.649C574.141 442.99 575.716 444 577.464 444.591C577.624 444.661 577.804 444.667 577.968 444.608C578.133 444.549 578.268 444.43 578.348 444.275C578.422 444.116 578.431 443.933 578.372 443.768C578.313 443.602 578.19 443.466 578.032 443.39V443.39Z" fill="#111111"/>
<path d="M482.496 394.607C482.619 395.127 482.743 395.647 482.859 396.176C484.486 403.179 485.542 410.303 486.015 417.477C486.06 418.031 486.098 418.593 486.127 419.147C487.083 436.443 484.819 453.766 479.451 470.236C477.309 476.787 474.672 483.167 471.561 489.318C467.266 497.813 461.932 506.683 460.73 515.832C460.593 516.785 460.516 517.745 460.499 518.708L496.088 552.59C496.208 552.627 496.32 552.672 496.44 552.708L497.799 554.126C497.982 553.82 498.165 553.499 498.347 553.193C498.454 553.016 498.552 552.831 498.659 552.654C498.728 552.533 498.796 552.413 498.865 552.308C498.888 552.268 498.91 552.227 498.925 552.195C498.994 552.091 499.047 551.986 499.108 551.889C500.135 550.096 501.15 548.292 502.155 546.478C502.163 546.47 502.163 546.47 502.163 546.454C509.785 532.612 516.318 518.012 520.427 502.884C520.55 502.429 520.682 501.966 520.789 501.495C522.603 494.666 523.857 487.7 524.536 480.667C524.896 476.814 525.06 472.946 525.029 469.077C524.928 459.081 523.256 449.162 520.073 439.685C513.725 420.793 501.405 404.142 483.844 395.271C483.395 395.045 482.953 394.825 482.496 394.607Z" fill="#3F3D56"/>
<path d="M482.145 395.135C496.516 415.526 504.097 439.928 503.809 464.873C503.843 470.244 503.029 475.587 501.399 480.705C499.65 485.639 496.611 490.015 492.598 493.377C488.92 496.588 484.786 499.446 481.952 503.495C480.532 505.588 479.571 507.959 479.132 510.45C478.693 512.942 478.785 515.498 479.403 517.951C480.783 524.104 484.293 529.394 487.904 534.448C491.914 540.059 496.167 545.824 497.344 552.785C497.487 553.629 498.788 553.358 498.645 552.516C496.598 540.404 485.987 532.434 481.777 521.252C479.813 516.034 479.41 510.193 482.383 505.267C484.983 500.959 489.244 498.008 492.996 494.789C496.958 491.566 500.071 487.422 502.063 482.719C503.948 477.701 504.966 472.398 505.073 467.038C505.505 454.975 504.038 442.919 500.725 431.312C497.018 418.044 491.068 405.508 483.133 394.246C482.641 393.549 481.657 394.442 482.145 395.135V395.135Z" fill="#111111"/>
<path d="M504.375 456.846C508.567 456.326 512.438 454.333 515.296 451.223C518.154 448.113 519.813 444.088 519.978 439.867C520.008 439.013 518.682 438.926 518.652 439.781C518.506 443.712 516.96 447.461 514.293 450.351C511.625 453.242 508.012 455.084 504.106 455.545C503.257 455.647 503.531 456.947 504.375 456.846H504.375Z" fill="#111111"/>
<path d="M494.679 491.995C487.82 486.749 483.192 479.11 481.715 470.603C481.57 469.76 480.269 470.03 480.415 470.872C481.967 479.722 486.8 487.661 493.949 493.105C494.631 493.624 495.357 492.511 494.679 491.995V491.995Z" fill="#111111"/>
<path d="M495.65 419.153C494.07 419.692 492.381 419.83 490.734 419.555C489.087 419.28 487.535 418.601 486.216 417.577C485.541 417.05 484.816 418.164 485.486 418.687C486.949 419.811 488.665 420.56 490.483 420.868C492.302 421.176 494.168 421.033 495.919 420.454C496.089 420.413 496.237 420.309 496.333 420.163C496.428 420.017 496.465 419.84 496.435 419.669C496.399 419.496 496.296 419.346 496.149 419.249C496.002 419.153 495.822 419.118 495.65 419.153Z" fill="#111111"/>
<path d="M14.142 365.253C-1.76006 339.65 -5.85972 305.079 10.2131 279.583C20.8081 310.599 42.0328 336.867 70.132 353.741C80.9923 360.21 93.745 366.273 98.0469 378.159C100.724 385.554 99.4168 393.923 96.1952 401.098C92.9733 408.273 87.9824 414.484 83.0459 420.607L82.6553 422.531C55.8434 408.763 30.0441 390.856 14.142 365.253Z" fill="#3F675D"/>
<path d="M10.7885 279.845C9.56287 304.762 16.2196 329.431 29.8133 350.349C32.6598 354.904 36.2065 358.982 40.3229 362.433C44.4414 365.664 49.3503 367.735 54.5394 368.428C59.3649 369.171 64.3868 369.373 68.9474 371.277C71.2675 372.286 73.348 373.774 75.0525 375.643C76.7571 377.513 78.0472 379.721 78.8383 382.124C80.9652 388.061 80.8321 394.407 80.4863 400.609C80.1023 407.495 79.5944 414.641 82.3264 421.152C82.6574 421.941 81.4139 422.408 81.0834 421.62C76.3302 410.293 81.0283 397.882 78.5992 386.184C77.4657 380.725 74.6802 375.574 69.5321 373.004C65.0303 370.757 59.8518 370.544 54.9594 369.833C49.8873 369.231 45.0398 367.397 40.8403 364.489C36.5615 361.259 32.8636 357.325 29.9049 352.854C23.0834 342.895 17.8703 331.926 14.4564 320.348C10.4868 307.156 8.80335 293.382 9.47875 279.622C9.52089 278.771 10.8304 278.999 10.7886 279.845L10.7885 279.845Z" fill="#111111"/>
<path d="M25.0401 343.871C21.2208 345.675 16.8844 346.063 12.8055 344.965C8.72658 343.867 5.1707 341.356 2.77287 337.878C2.29011 337.173 3.36344 336.39 3.84684 337.096C6.07372 340.338 9.38627 342.678 13.1867 343.692C16.987 344.706 21.0249 344.329 24.5714 342.628C25.3426 342.259 25.8068 343.504 25.0401 343.871V343.871Z" fill="#111111"/>
<path d="M52.0435 368.373C55.0288 360.271 54.8506 351.341 51.5444 343.365C51.2162 342.575 52.4596 342.107 52.7874 342.896C56.2124 351.203 56.379 360.496 53.2538 368.92C52.9554 369.723 51.7467 369.171 52.0435 368.373V368.373Z" fill="#111111"/>
<path d="M12.2365 307.361C13.8598 306.97 15.3607 306.183 16.6045 305.07C17.8484 303.956 18.7961 302.551 19.3627 300.981C19.6508 300.175 20.8592 300.727 20.573 301.528C19.939 303.26 18.8904 304.811 17.5189 306.044C16.1474 307.277 14.4947 308.156 12.7052 308.604C12.5401 308.66 12.3597 308.651 12.2007 308.579C12.0417 308.507 11.9161 308.378 11.8494 308.216C11.7881 308.052 11.7945 307.869 11.867 307.709C11.9394 307.549 12.0723 307.424 12.2365 307.361V307.361Z" fill="#111111"/>
<path d="M111.421 266.502C111.255 267.011 111.089 267.519 110.931 268.037C108.74 274.884 107.109 281.899 106.054 289.01C105.964 289.559 105.881 290.116 105.807 290.666C103.448 307.827 104.297 325.277 108.308 342.128C109.911 348.832 112.021 355.405 114.621 361.789C118.212 370.605 122.807 379.878 123.262 389.095C123.321 390.056 123.319 391.019 123.259 391.98L85.0332 422.858C84.9111 422.885 84.7956 422.92 84.6731 422.947L83.2033 424.25C83.0462 423.93 82.8902 423.595 82.733 423.275C82.6412 423.09 82.5578 422.898 82.4659 422.713C82.4073 422.587 82.3491 422.461 82.2891 422.351C82.2695 422.309 82.2502 422.267 82.2376 422.234C82.1776 422.124 82.1335 422.016 82.0805 421.914C81.2031 420.043 80.3373 418.163 79.4832 416.273C79.4761 416.264 79.4761 416.264 79.4776 416.249C73.0061 401.833 67.6813 386.75 64.8151 371.339C64.7291 370.875 64.6355 370.403 64.5669 369.925C63.3135 362.971 62.6306 355.926 62.525 348.861C62.4796 344.992 62.6301 341.123 62.9759 337.27C63.8887 327.314 66.3617 317.564 70.3044 308.377C78.1668 290.064 91.7989 274.469 110.023 267.055C110.489 266.865 110.947 266.683 111.421 266.502Z" fill="#5A948A"/>
<path d="M111.726 267.057C95.7457 286.213 86.2075 309.918 84.4666 334.804C83.9968 340.154 84.3733 345.546 85.5823 350.779C86.9248 355.839 89.5979 360.447 93.3238 364.125C96.7289 367.624 100.617 370.808 103.112 375.074C104.357 377.276 105.123 379.717 105.358 382.236C105.593 384.755 105.294 387.295 104.478 389.69C102.602 395.71 98.675 400.697 94.6648 405.441C90.2123 410.708 85.504 416.108 83.7652 422.951C83.5546 423.78 82.2803 423.405 82.4906 422.577C85.5158 410.671 96.7392 403.59 101.843 392.787C104.225 387.746 105.102 381.957 102.539 376.805C100.298 372.3 96.2911 369.013 92.8128 365.5C89.1255 361.966 86.3597 357.582 84.7571 352.733C83.2855 347.578 82.7019 342.21 83.0313 336.859C83.5808 324.801 86.0228 312.904 90.268 301.605C95.0415 288.681 101.991 276.67 110.815 266.09C111.361 265.436 112.269 266.406 111.726 267.057V267.057Z" fill="#111111"/>
<path d="M84.5557 326.757C80.4199 325.899 76.724 323.598 74.1282 320.265C71.5323 316.933 70.2055 312.787 70.3847 308.567C70.3936 308.395 70.4689 308.233 70.5948 308.115C70.7207 307.998 70.8873 307.934 71.0596 307.936C71.2318 307.939 71.3962 308.009 71.5182 308.131C71.6401 308.252 71.7101 308.416 71.7133 308.589C71.5392 312.518 72.7755 316.38 75.199 319.478C77.6226 322.576 81.0739 324.706 84.9298 325.483C85.7676 325.653 85.3886 326.926 84.5557 326.757V326.757Z" fill="#111111"/>
<path d="M91.3635 362.578C98.6254 357.906 103.859 350.669 106.022 342.31C106.236 341.482 107.51 341.857 107.297 342.684C105.03 351.379 99.5678 358.899 92.0003 363.744C91.2787 364.205 90.6459 363.037 91.3635 362.578V362.578Z" fill="#111111"/>
<path d="M96.3156 289.898C97.8465 290.564 99.5189 290.839 101.183 290.698C102.846 290.558 104.449 290.007 105.847 289.094C106.562 288.624 107.194 289.793 106.483 290.26C104.934 291.261 103.164 291.868 101.326 292.027C99.4882 292.186 97.6396 291.893 95.9414 291.172C95.7757 291.118 95.6369 291.002 95.5532 290.849C95.4696 290.696 95.4474 290.517 95.4912 290.348C95.5416 290.18 95.6564 290.038 95.8108 289.953C95.9651 289.869 96.1465 289.849 96.3156 289.898V289.898Z" fill="#111111"/>
<path d="M309.335 103.906C332.579 103.906 351.422 85.0636 351.422 61.8208C351.422 38.5779 332.579 19.7359 309.335 19.7359C286.091 19.7359 267.248 38.5779 267.248 61.8208C267.248 85.0636 286.091 103.906 309.335 103.906Z" fill="#FF6584"/>
<path d="M438.195 59.6246C434.403 55.6186 430.399 51.8183 426.201 48.2399C418.002 41.2874 408.925 35.3756 398.807 31.6515C394.998 30.2448 391.062 29.2087 387.054 28.5575C386.573 28.4797 386.098 28.4018 385.617 28.338C385.581 28.3345 385.546 28.3345 385.511 28.338C385.436 28.3171 385.361 28.3029 385.284 28.2955C384.3 28.1681 383.316 28.069 382.324 27.9982C376.986 27.6433 371.625 28.1259 366.436 29.4284C363.425 30.1879 360.488 31.2114 357.657 32.4869C354.821 33.8753 352.071 35.4334 349.422 37.1526C348 38.0166 346.535 38.8082 345.032 39.5244C340.646 41.6025 336.003 43.0882 331.226 43.9424C327.999 44.5212 324.732 44.8431 321.455 44.9053C318.609 44.9619 315.925 45.061 313.228 46.0876C310.349 47.1693 307.763 48.9095 305.676 51.169C303.59 53.4286 302.061 56.1448 301.212 59.1007C301.145 59.3632 301.164 59.6402 301.266 59.8912C301.368 60.1422 301.548 60.3539 301.779 60.4954C302.508 61.0194 303.216 61.6141 303.988 62.0814C304.669 62.3922 305.396 62.5906 306.14 62.669C307.358 62.9239 308.578 63.1717 309.801 63.4124C314.297 64.3045 318.812 65.0951 323.345 65.7842C332.465 67.1648 341.636 68.1371 350.859 68.7012C350.916 68.7094 350.972 68.7141 351.029 68.7153C361.449 69.3442 371.894 69.4458 382.324 69.0198C383.903 68.956 385.475 68.8782 387.054 68.7861C393.632 68.418 400.193 67.8374 406.737 67.0444C412.791 66.3081 418.821 65.3948 424.828 64.3045C429.118 63.5257 433.392 62.6572 437.65 61.699C437.857 61.6379 438.044 61.5244 438.194 61.3696C438.345 61.2148 438.452 61.0239 438.507 60.8154C438.562 60.6068 438.562 60.3877 438.507 60.1791C438.453 59.9705 438.345 59.7795 438.195 59.6246V59.6246Z" fill="#E6E6E6"/>
<path d="M350.718 115.741C344.625 109.223 337.912 103.314 330.674 98.0974C328.274 96.4124 325.803 94.8265 323.261 93.375C320.144 91.5762 316.908 89.9937 313.575 88.6385C312.831 88.3341 312.081 88.0438 311.33 87.7677C307.067 86.1885 302.644 85.0775 298.14 84.4542C298.104 84.4472 298.069 84.4542 298.034 84.4472C297.963 84.433 297.885 84.4189 297.814 84.4047C295.631 84.1216 293.431 83.9867 291.229 84.0011C289.651 84.0011 288.065 84.0861 286.493 84.2418C283.953 84.492 281.435 84.9274 278.959 85.5446C277.734 85.849 276.517 86.203 275.32 86.6065C273.575 87.1809 271.861 87.8473 270.187 88.6031C270.158 88.6173 270.137 88.6244 270.109 88.6385C267.298 90.0136 264.574 91.56 261.952 93.2689C261.896 93.3042 261.832 93.3396 261.775 93.375C258.798 95.1562 255.647 96.6317 252.373 97.7788C249.562 98.7618 246.678 99.524 243.749 100.059C240.523 100.639 237.255 100.959 233.978 101.014C231.132 101.071 228.448 101.17 225.758 102.204C222.878 103.285 220.291 105.025 218.203 107.285C216.116 109.544 214.586 112.261 213.735 115.217C213.67 115.479 213.689 115.756 213.791 116.007C213.893 116.257 214.072 116.469 214.302 116.612C215.031 117.136 215.746 117.723 216.511 118.19C217.191 118.504 217.918 118.702 218.663 118.778C219.881 119.033 221.099 119.288 222.324 119.529C226.82 120.421 231.337 121.209 235.876 121.893C242.099 122.835 248.349 123.588 254.624 124.152C257.598 124.428 260.574 124.655 263.553 124.832C271.192 125.292 278.839 125.471 286.493 125.37C288.072 125.348 289.651 125.313 291.229 125.263C300.604 124.987 309.95 124.284 319.268 123.154C329.653 121.897 339.969 120.113 350.173 117.808C350.38 117.748 350.567 117.635 350.717 117.481C350.867 117.327 350.975 117.136 351.029 116.928C351.084 116.72 351.084 116.502 351.03 116.294C350.975 116.086 350.868 115.895 350.718 115.741V115.741Z" fill="#E6E6E6"/>
<path d="M245.814 2.79411L282.891 515.145L208.736 521.727V9.31267C217.573 2.41075 230.257 1.33092 245.814 2.79411Z" fill="#CCCCCC"/>
<path d="M428.834 2.79411L391.757 515.145L465.912 521.727V9.31267C457.075 2.41075 444.391 1.33092 428.834 2.79411Z" fill="#CCCCCC"/>
<path d="M467.656 9.53628C465.355 3.89474 460.462 0 454.805 0H219.052C211.186 0 204.792 7.54711 204.792 16.8327V526.068C204.723 530.779 206.485 535.333 209.706 538.772C211.391 540.542 213.525 541.821 215.88 542.474C216.913 542.76 217.98 542.903 219.052 542.9H454.805C455.877 542.903 456.944 542.76 457.977 542.474C464.321 540.769 469.065 534.066 469.065 526.068V16.8327C469.072 14.3323 468.593 11.8544 467.656 9.53628V9.53628ZM464.335 526.068C464.335 532.269 460.059 537.317 454.805 537.317H219.052C214.697 537.317 211.009 533.849 209.883 529.127C209.642 528.125 209.521 527.098 209.522 526.068V16.8327C209.522 10.6312 213.798 5.59142 219.052 5.59142H454.805C455.772 5.59066 456.731 5.76333 457.637 6.10124C461.51 7.52209 464.335 11.7929 464.335 16.8327V526.068Z" fill="#CCCCCC"/>
<path d="M466.7 154.79H207.158V159.523H466.7V154.79Z" fill="#CCCCCC"/>
<path d="M466.7 57.0856H207.158V61.8187H466.7V57.0856Z" fill="#CCCCCC"/>
<path d="M466.7 233.674H207.158V238.408H466.7V233.674Z" fill="#CCCCCC"/>
<path d="M291.382 2.12402H286.648V300.726H291.382V2.12402Z" fill="#CCCCCC"/>
<path d="M387.21 2.12402H382.477V300.726H387.21V2.12402Z" fill="#CCCCCC"/>
<path d="M496.282 513.32H185.463C179.816 513.327 174.403 515.573 170.41 519.565C166.418 523.558 164.172 528.971 164.165 534.617C164.162 537.332 164.684 540.022 165.702 542.539C167.283 546.488 170.01 549.873 173.532 552.258C177.054 554.642 181.209 555.918 185.463 555.921H496.282C500 555.919 503.653 554.945 506.877 553.094C510.102 551.244 512.786 548.581 514.662 545.371C515.197 544.464 515.661 543.517 516.05 542.539C517.068 540.022 517.589 537.332 517.586 534.617C517.578 528.97 515.331 523.557 511.337 519.564C507.343 515.572 501.929 513.327 496.282 513.32Z" fill="#CCCCCC"/>
<path d="M466.701 289.683H208.736V305.46H466.701V289.683Z" fill="#CCCCCC"/>
<path d="M335.352 284.95H340.085C342.386 284.95 344.594 285.864 346.221 287.491C347.848 289.118 348.763 291.325 348.763 293.627V293.627H326.674C326.674 292.487 326.898 291.359 327.334 290.306C327.77 289.253 328.41 288.297 329.215 287.491C330.021 286.685 330.978 286.046 332.031 285.61C333.084 285.174 334.212 284.95 335.352 284.95V284.95Z" fill="#CCCCCC"/>
<path d="M342.269 334.177C369.269 334.177 391.157 312.29 391.157 285.291C391.157 258.293 369.269 236.406 342.269 236.406C315.269 236.406 293.381 258.293 293.381 285.291C293.381 312.29 315.269 334.177 342.269 334.177Z" fill="#FFB8B8"/>
<path d="M287.733 238.263C288.103 232.649 291.815 226.904 303.611 223.903C303.611 223.903 323.855 198.017 351.363 211.592C351.363 211.592 364.7 209.298 374.589 223.134C374.589 223.134 384.393 217.352 388.53 227.601C388.53 227.601 400.029 248.506 395.795 269.83C391.562 291.153 389.395 293.815 389.395 293.815C389.395 293.815 394.791 249.707 363.711 252.765C332.631 255.824 307.608 244.895 300.57 268.824C294.725 288.694 295.462 299.014 295.462 299.014C295.462 299.014 275.918 279.192 282.563 263.583C285.961 255.6 287.163 246.921 287.733 238.263Z" fill="#2F2E41"/>
<path d="M209.323 552.451H479.736C477.929 531.825 476.748 452.98 476.748 447.791C476.748 424.903 458.019 399.926 458.019 399.926L451.315 396.221L395.33 378.755L380.842 359.936C379.325 357.959 377.37 356.362 375.131 355.269C372.892 354.176 370.43 353.617 367.938 353.636L322.171 353.979C318.144 354.01 314.273 355.544 311.317 358.28L282.977 384.57L241.41 404.419L241.339 404.348L240.905 404.671L234.736 409.113L230.768 411.981C230.768 411.981 220.359 424.469 212.039 461.925C210.787 467.559 209.909 540.488 209.323 552.451Z" fill="#6C63FF"/>
<path d="M542.325 542.539C541.674 543.134 541.015 543.722 540.357 544.309C537.865 546.525 535.337 548.704 532.774 550.844C528.901 554.073 524.948 557.204 520.914 560.239H156.887C149.474 554.674 142.334 548.774 135.469 542.539H542.325Z" fill="#A97474"/>
<path d="M408.889 546.787H275.071L277.903 533.336H406.057L408.889 546.787Z" fill="#2F2E41"/>
<path d="M529.956 488.731H495.135C494.349 488.729 493.573 488.899 492.859 489.229C492.146 489.56 491.514 490.042 491.008 490.643C490.522 490.549 490.029 490.502 489.535 490.501C488.45 490.5 487.375 490.713 486.372 491.128C485.369 491.542 484.457 492.15 483.689 492.917C482.922 493.684 482.313 494.595 481.897 495.598C481.481 496.6 481.268 497.675 481.268 498.76C481.268 499.845 481.481 500.92 481.897 501.923C482.313 502.925 482.922 503.836 483.689 504.603C484.457 505.37 485.369 505.978 486.372 506.393C487.375 506.807 488.45 507.02 489.535 507.019C490.782 507.019 492.012 506.733 493.132 506.184L493.712 513.32L496.02 541.527C496.13 541.879 496.277 542.219 496.459 542.539C496.926 543.396 497.615 544.111 498.453 544.609C499.292 545.108 500.249 545.371 501.224 545.371H523.867C524.844 545.37 525.801 545.107 526.641 544.609C527.48 544.11 528.171 543.396 528.639 542.539C528.816 542.217 528.961 541.878 529.071 541.527L535.16 495.776C535.411 494.962 535.467 494.1 535.323 493.26C535.18 492.42 534.842 491.626 534.336 490.941C533.83 490.256 533.17 489.699 532.409 489.315C531.648 488.931 530.808 488.731 529.956 488.731ZM489.535 504.661C487.971 504.66 486.472 504.037 485.366 502.931C484.261 501.824 483.64 500.324 483.64 498.76C483.64 497.196 484.261 495.696 485.366 494.59C486.472 493.483 487.971 492.861 489.535 492.859C489.641 492.859 489.74 492.887 489.846 492.894C489.613 493.845 489.643 494.841 489.931 495.776L492.424 503.875C491.546 504.386 490.55 504.657 489.535 504.661V504.661Z" fill="#3F3D56"/>
<path d="M451.308 339.039H230.883C228.99 339.042 227.174 339.795 225.835 341.134C224.496 342.473 223.742 344.289 223.739 346.182V494.919C223.741 496.813 224.494 498.629 225.834 499.969C227.173 501.308 228.989 502.061 230.883 502.063H451.308C453.202 502.061 455.018 501.308 456.358 499.969C457.697 498.629 458.45 496.813 458.452 494.919V346.182C458.449 344.289 457.695 342.473 456.356 341.134C455.017 339.795 453.202 339.042 451.308 339.039Z" fill="#3F3D56"/>
<path d="M365.919 458.216H314.353C313.623 458.218 312.924 458.508 312.409 459.025C311.894 459.541 311.605 460.241 311.605 460.971V542.426H368.673V460.971C368.673 460.609 368.602 460.251 368.464 459.916C368.325 459.582 368.122 459.278 367.867 459.023C367.611 458.767 367.307 458.564 366.973 458.426C366.639 458.287 366.28 458.216 365.919 458.216V458.216ZM340.309 504.498C338.697 504.491 337.152 503.847 336.012 502.707C334.872 501.567 334.228 500.022 334.22 498.41V489.014C334.222 487.401 334.864 485.854 336.006 484.714C337.148 483.573 338.695 482.933 340.309 482.933C341.923 482.933 343.471 483.573 344.612 484.714C345.754 485.854 346.396 487.401 346.398 489.014V498.41C346.391 500.022 345.747 501.567 344.606 502.707C343.466 503.847 341.922 504.491 340.309 504.498V504.498Z" fill="#2F2E41"/>
<path d="M311.429 539.821V547.679C311.43 548.087 311.592 548.477 311.88 548.765C312.168 549.053 312.558 549.215 312.965 549.216H367.314C367.721 549.214 368.11 549.051 368.398 548.764C368.686 548.476 368.848 548.086 368.85 547.679V539.821H311.429Z" fill="#3F3D56"/>
<path d="M446.62 493.364C448.542 493.364 450.1 491.806 450.1 489.885C450.1 487.963 448.542 486.405 446.62 486.405C444.699 486.405 443.141 487.963 443.141 489.885C443.141 491.806 444.699 493.364 446.62 493.364Z" fill="#2F2E41"/>
<path d="M258.709 484.837C258.549 484.837 258.391 484.869 258.243 484.93C258.095 484.991 257.961 485.081 257.848 485.194C257.735 485.307 257.645 485.441 257.584 485.589C257.523 485.737 257.491 485.895 257.491 486.055V492.321C257.492 492.643 257.621 492.952 257.849 493.18C258.077 493.408 258.387 493.536 258.709 493.536C259.031 493.536 259.341 493.408 259.569 493.18C259.797 492.952 259.926 492.643 259.927 492.321V486.055C259.927 485.895 259.895 485.737 259.834 485.589C259.773 485.441 259.683 485.307 259.57 485.194C259.457 485.081 259.323 484.991 259.175 484.93C259.027 484.869 258.869 484.837 258.709 484.837V484.837Z" fill="#2F2E41"/>
<path d="M265.321 484.837C265.161 484.837 265.003 484.869 264.855 484.93C264.708 484.991 264.573 485.081 264.46 485.194C264.347 485.307 264.257 485.441 264.196 485.589C264.135 485.737 264.104 485.895 264.104 486.055V492.321C264.104 492.644 264.232 492.954 264.46 493.182C264.689 493.41 264.998 493.539 265.321 493.539C265.644 493.539 265.954 493.41 266.182 493.182C266.411 492.954 266.539 492.644 266.539 492.321V486.055C266.539 485.895 266.508 485.737 266.446 485.589C266.385 485.441 266.296 485.307 266.182 485.194C266.069 485.081 265.935 484.991 265.787 484.93C265.64 484.869 265.481 484.837 265.321 484.837V484.837Z" fill="#2F2E41"/>
<path d="M271.935 484.837C271.775 484.837 271.616 484.869 271.469 484.93C271.321 484.991 271.187 485.081 271.073 485.194C270.96 485.307 270.871 485.441 270.809 485.589C270.748 485.737 270.717 485.895 270.717 486.055V492.321C270.718 492.643 270.846 492.952 271.075 493.18C271.303 493.408 271.612 493.536 271.935 493.536C272.257 493.536 272.566 493.408 272.795 493.18C273.023 492.952 273.152 492.643 273.152 492.321V486.055C273.152 485.895 273.121 485.737 273.06 485.589C272.999 485.441 272.909 485.307 272.796 485.194C272.683 485.081 272.548 484.991 272.401 484.93C272.253 484.869 272.095 484.837 271.935 484.837Z" fill="#2F2E41"/>
<path d="M278.548 484.837C278.388 484.837 278.23 484.869 278.082 484.93C277.934 484.991 277.8 485.081 277.687 485.194C277.574 485.307 277.484 485.441 277.423 485.589C277.362 485.737 277.33 485.895 277.33 486.055V492.321C277.331 492.643 277.46 492.952 277.688 493.18C277.916 493.408 278.225 493.536 278.548 493.536C278.87 493.536 279.18 493.408 279.408 493.18C279.636 492.952 279.765 492.643 279.766 492.321V486.055C279.766 485.895 279.734 485.737 279.673 485.589C279.612 485.441 279.522 485.307 279.409 485.194C279.296 485.081 279.162 484.991 279.014 484.93C278.866 484.869 278.708 484.837 278.548 484.837V484.837Z" fill="#2F2E41"/>
<path d="M283.824 543.247C293.991 543.247 302.233 535.006 302.233 524.839C302.233 514.673 293.991 506.431 283.824 506.431C273.657 506.431 265.415 514.673 265.415 524.839C265.415 535.006 273.657 543.247 283.824 543.247Z" fill="#FFB8B8"/>
<path d="M412.429 546.787C422.596 546.787 430.838 538.546 430.838 528.379C430.838 518.213 422.596 509.971 412.429 509.971C402.262 509.971 394.021 518.213 394.021 528.379C394.021 538.546 402.262 546.787 412.429 546.787Z" fill="#FFB8B8"/>
<path d="M602.442 306.189C600.623 303.18 598.467 299.968 595.092 298.986C591.182 297.848 587.166 300.108 583.76 302.338C573.572 309.008 563.762 316.236 554.373 323.989L554.383 324.106C561.693 323.602 567.759 343.037 575.069 342.533C580.35 342.169 587.056 321.815 591.723 319.317C593.494 318.369 595.22 317.102 597.227 317.014C599.721 316.905 601.895 318.646 603.603 320.465C613.709 331.226 616.634 347.683 627.972 357.137C620.822 339.506 612.286 322.47 602.442 306.189V306.189Z" fill="#3F3D56"/>
<path d="M621.894 332.327C627.225 341.956 632.88 351.393 638.858 360.64V360.647C638.823 360.973 638.773 361.298 638.724 361.624C638.001 360.519 637.286 359.41 636.578 358.296C631.211 349.878 626.111 341.3 621.278 332.56C618.984 328.404 616.746 324.215 614.565 319.993C612.88 316.722 611.231 313.433 609.616 310.124C609.156 309.175 608.71 308.226 608.264 307.271C607.216 305.033 606.182 302.782 605.078 300.573C603.818 298.053 602.281 295.419 599.966 293.727C598.913 292.924 597.653 292.438 596.334 292.325C594.475 292.336 592.655 292.858 591.073 293.833C579.096 300.128 567.916 307.837 557.774 316.793C547.62 325.714 538.543 335.792 530.727 346.82C530.487 347.159 529.92 346.834 530.161 346.487C531.117 345.142 532.08 343.818 533.071 342.501C545.356 326.165 560.419 312.116 577.571 300.998C580.452 299.129 583.391 297.347 586.386 295.652C587.894 294.796 589.409 293.953 590.953 293.16C592.43 292.294 594.087 291.781 595.795 291.659C601.672 291.567 604.717 298.222 606.805 302.697C607.457 304.106 608.12 305.512 608.795 306.917C611.337 312.227 613.978 317.494 616.718 322.719C618.403 325.941 620.128 329.143 621.894 332.327Z" fill="#3F3D56"/>
<path d="M557.197 313.506C556.855 313.126 556.516 312.745 556.172 312.365C553.463 309.369 550.556 306.407 546.835 304.689C545.061 303.844 543.125 303.396 541.16 303.374C539.133 303.43 537.134 303.865 535.268 304.659C534.38 305.013 533.513 305.416 532.658 305.844C531.682 306.335 530.723 306.859 529.768 307.388C527.977 308.379 526.208 309.414 524.463 310.493C520.99 312.639 517.626 314.949 514.371 317.422C512.684 318.705 511.031 320.03 509.414 321.397C507.909 322.667 506.435 323.971 504.991 325.309C504.682 325.593 504.221 325.132 504.53 324.848C504.91 324.493 505.295 324.141 505.68 323.793C506.767 322.81 507.872 321.846 508.994 320.901C511.04 319.175 513.139 317.515 515.291 315.922C518.638 313.443 522.099 311.133 525.676 308.99C527.464 307.92 529.276 306.896 531.112 305.916C531.667 305.62 532.228 305.331 532.795 305.057C534.083 304.407 535.421 303.863 536.796 303.428C538.744 302.798 540.805 302.596 542.839 302.835C544.802 303.12 546.694 303.775 548.414 304.763C552.067 306.805 554.9 309.962 557.658 313.043C557.936 313.356 557.477 313.819 557.197 313.506Z" fill="#3F3D56"/>
<path d="M530.465 327.922C529.536 327.968 528.618 327.705 527.855 327.175C525.833 325.643 525.887 321.965 528.017 315.929C528.597 314.294 529.506 312.794 530.688 311.524C531.87 310.254 533.3 309.239 534.889 308.543C536.378 307.877 537.989 307.529 539.621 307.519C541.252 307.509 542.867 307.839 544.364 308.487C544.625 308.6 544.883 308.722 545.137 308.852C546.87 309.823 548.494 310.975 549.982 312.29C551.247 313.387 552.596 314.384 554.017 315.27L554.491 315.548L554.042 315.865C542.572 323.939 534.796 327.922 530.465 327.922Z" fill="#3F3D56"/>
<path d="M574.569 279.871C570.798 279.871 567.143 278.561 564.23 276.167C561.316 273.772 559.323 270.441 558.592 266.741C555.439 267.379 552.545 268.938 550.277 271.219C548.008 273.5 546.466 276.403 545.845 279.559C545.224 282.716 545.553 285.986 546.788 288.957C548.024 291.927 550.113 294.465 552.789 296.25C555.466 298.035 558.612 298.987 561.829 298.986C565.047 298.985 568.192 298.031 570.868 296.244C573.543 294.457 575.63 291.918 576.864 288.947C578.098 285.976 578.424 282.706 577.801 279.549C576.737 279.763 575.654 279.871 574.569 279.871V279.871Z" fill="#3F3D56"/>
<path opacity="0.74" d="M138.649 306.067C152.071 306.067 162.951 295.187 162.951 281.767C162.951 268.346 152.071 257.466 138.649 257.466C125.228 257.466 114.348 268.346 114.348 281.767C114.348 295.187 125.228 306.067 138.649 306.067Z" fill="#3F3D56"/>
<path opacity="0.74" d="M162.951 306.067C176.372 306.067 187.252 295.187 187.252 281.767C187.252 268.346 176.372 257.466 162.951 257.466C149.53 257.466 138.649 268.346 138.649 281.767C138.649 295.187 149.53 306.067 162.951 306.067Z" fill="#6C63FF"/>
<path opacity="0.74" d="M151.006 286.7C164.427 286.7 175.307 275.82 175.307 262.399C175.307 248.979 164.427 238.099 151.006 238.099C137.584 238.099 126.704 248.979 126.704 262.399C126.704 275.82 137.584 286.7 151.006 286.7Z" fill="#FF6584"/>
<path d="M214.552 255.436L152.131 275.045L152.555 276.396L214.976 256.787L214.552 255.436Z" fill="#3F3D56"/>
<path d="M214.948 258.717C216.512 258.717 217.78 257.449 217.78 255.885C217.78 254.321 216.512 253.053 214.948 253.053C213.384 253.053 212.116 254.321 212.116 255.885C212.116 257.449 213.384 258.717 214.948 258.717Z" fill="#3F3D56"/>
<path d="M620.18 383.317C624.329 386.241 628.316 389.222 632.875 391.473C632.79 391.82 632.698 392.174 632.613 392.521C632.054 392.259 631.509 391.983 630.964 391.7C626.34 389.278 622.361 385.986 618.021 383.126C615.869 381.639 613.519 380.461 611.04 379.628C608.455 378.852 605.754 378.535 603.06 378.694C591.824 379.246 582.194 385.951 571.751 389.328C566.639 390.985 561.201 391.87 555.87 390.829C550.538 389.788 545.801 386.956 541.093 384.393C536.448 381.859 531.386 379.31 525.962 379.31C521.544 379.317 516.9 381.087 514.535 384.995C514.461 385.112 514.345 385.195 514.211 385.228C514.077 385.26 513.936 385.239 513.817 385.169C513.698 385.099 513.611 384.986 513.575 384.853C513.538 384.72 513.555 384.578 513.621 384.457C514.15 383.566 514.801 382.754 515.554 382.043C518.641 379.119 523.18 377.965 527.35 378.304C532.745 378.743 537.666 381.292 542.332 383.855C547.281 386.574 552.351 389.498 558.072 390.093C563.722 390.687 569.315 389.208 574.555 387.218C584.701 383.36 594.712 376.931 605.998 377.646C611.323 377.986 615.882 380.294 620.18 383.317Z" fill="#3F3D56"/>
<path d="M176.075 178.556V179.993C175.599 179.899 175.115 179.852 174.63 179.852H167.224V195.753C167.223 198.108 166.287 200.365 164.622 202.03C162.957 203.695 160.7 204.63 158.345 204.632H147.399V207.081C147.399 208.063 147.594 209.036 147.973 209.942H146.457C146.141 209.022 145.981 208.055 145.983 207.081V204.632H139.965V203.216H145.983V187.314C145.984 184.96 146.92 182.702 148.585 181.038C150.25 179.373 152.507 178.437 154.862 178.436H165.808V175.958H167.224V178.436H174.63C175.114 178.436 175.597 178.477 176.075 178.556V178.556Z" fill="#6C63FF"/>
<path d="M158.345 167.108H138.577C136.223 167.109 133.965 168.045 132.3 169.71C130.635 171.374 129.7 173.632 129.698 175.986V195.753C129.7 198.108 130.635 200.365 132.3 202.03C133.965 203.695 136.223 204.63 138.577 204.632H158.345C160.7 204.63 162.957 203.695 164.622 202.03C166.287 200.365 167.223 198.108 167.224 195.753V175.958C167.215 173.608 166.276 171.358 164.612 169.699C162.948 168.041 160.695 167.109 158.345 167.108V167.108ZM165.808 195.753C165.805 197.732 165.018 199.628 163.619 201.027C162.22 202.426 160.324 203.213 158.345 203.216H138.577C136.599 203.213 134.702 202.426 133.303 201.027C131.904 199.628 131.117 197.732 131.114 195.753V175.986C131.117 174.008 131.904 172.111 133.303 170.712C134.702 169.313 136.599 168.526 138.577 168.524H158.345C160.319 168.526 162.211 169.309 163.61 170.702C165.008 172.095 165.798 173.984 165.808 175.958V195.753Z" fill="#3F3D56"/>
<path d="M145.982 203.216V204.632H147.399V203.216H145.982ZM145.982 203.216V204.632H147.399V203.216H145.982ZM176.074 178.556C175.596 178.476 175.113 178.436 174.629 178.436H154.861C152.507 178.437 150.249 179.373 148.584 181.038C146.92 182.702 145.984 184.96 145.982 187.314V207.081C145.98 208.055 146.14 209.021 146.457 209.942C147.054 211.696 148.186 213.22 149.693 214.299C151.2 215.378 153.007 215.959 154.861 215.96H174.629C176.984 215.958 179.241 215.023 180.906 213.358C182.571 211.693 183.507 209.436 183.508 207.081V187.314C183.508 185.21 182.76 183.175 181.398 181.571C180.037 179.967 178.15 178.898 176.074 178.556V178.556ZM182.092 207.081C182.089 209.06 181.302 210.956 179.903 212.355C178.504 213.754 176.608 214.541 174.629 214.544H154.861C152.883 214.541 150.986 213.754 149.587 212.355C148.188 210.956 147.401 209.06 147.399 207.081V187.314C147.401 185.336 148.188 183.439 149.587 182.04C150.986 180.641 152.883 179.854 154.861 179.852H174.629C176.608 179.852 178.506 180.639 179.906 182.038C181.305 183.438 182.091 185.335 182.092 187.314V207.081ZM145.982 203.216V204.632H147.399V203.216H145.982Z" fill="#3F3D56"/>
<path d="M131.999 387.785H48.0264C47.4419 387.785 46.8813 388.017 46.4673 388.429C46.0533 388.842 45.8196 389.402 45.8174 389.986V394.964C48.5878 405.574 51.9419 416.024 55.8644 426.264H131.999C132.288 426.265 132.575 426.208 132.842 426.097C133.109 425.987 133.352 425.825 133.557 425.62C133.761 425.416 133.923 425.173 134.034 424.905C134.145 424.638 134.201 424.352 134.201 424.063V389.986C134.2 389.403 133.968 388.843 133.555 388.43C133.143 388.017 132.583 387.785 131.999 387.785V387.785Z" fill="#6C63FF"/>
<path d="M123.998 437.316H60.3462C61.1038 439.093 61.8756 440.856 62.6756 442.612H123.998C127.454 442.662 127.418 437.267 123.998 437.316Z" fill="#E4E4E4"/>
<path d="M123.999 449.451H65.8691C66.7187 451.229 67.592 452.994 68.4888 454.747H123.999C127.454 454.797 127.418 449.409 123.999 449.451Z" fill="#E4E4E4"/>
<path d="M123.999 461.594H72.0645C73.0132 463.371 73.9903 465.134 74.9815 466.889H123.999C127.454 466.939 127.418 461.544 123.999 461.594Z" fill="#E4E4E4"/>
<path d="M559.333 135.23H558.93C560.186 135.231 561.424 135.524 562.547 136.085H560.711C558.733 136.088 556.836 136.874 555.437 138.273C554.038 139.672 553.251 141.569 553.249 143.547V163.315C553.251 165.294 554.038 167.19 555.437 168.589C556.836 169.988 558.733 170.775 560.711 170.777H561.882C560.941 171.146 559.94 171.336 558.93 171.338H559.333C561.499 171.335 563.576 170.474 565.108 168.942C566.64 167.411 567.501 165.334 567.504 163.168V143.4C567.501 141.234 566.64 139.157 565.108 137.625C563.576 136.094 561.499 135.232 559.333 135.23V135.23Z" fill="#3F3D56"/>
<path opacity="0.21" d="M559.333 135.23H558.93C560.186 135.231 561.424 135.524 562.547 136.085H560.711C558.733 136.088 556.836 136.874 555.437 138.273C554.038 139.672 553.251 141.569 553.249 143.547V163.315C553.251 165.294 554.038 167.19 555.437 168.589C556.836 169.988 558.733 170.775 560.711 170.777H561.882C560.941 171.146 559.94 171.336 558.93 171.338H559.333C561.499 171.335 563.576 170.474 565.108 168.942C566.64 167.411 567.501 165.334 567.504 163.168V143.4C567.501 141.234 566.64 139.157 565.108 137.625C563.576 136.094 561.499 135.232 559.333 135.23V135.23Z" fill="black"/>
<path d="M506.939 135.23H506.535C507.791 135.231 509.03 135.524 510.153 136.085H508.317C506.338 136.088 504.442 136.874 503.043 138.273C501.644 139.672 500.857 141.569 500.854 143.547V163.315C500.857 165.294 501.644 167.19 503.043 168.589C504.442 169.988 506.338 170.775 508.317 170.777H509.487C508.547 171.146 507.546 171.336 506.535 171.338H506.939C509.105 171.335 511.182 170.474 512.713 168.942C514.245 167.411 515.107 165.334 515.109 163.168V143.4C515.107 141.234 514.245 139.157 512.713 137.625C511.182 136.094 509.105 135.232 506.939 135.23V135.23Z" fill="#6C63FF"/>
<path opacity="0.21" d="M506.939 135.23H506.535C507.791 135.231 509.03 135.524 510.153 136.085H508.317C506.338 136.088 504.442 136.874 503.043 138.273C501.644 139.672 500.857 141.569 500.854 143.547V163.315C500.857 165.294 501.644 167.19 503.043 168.589C504.442 169.988 506.338 170.775 508.317 170.777H509.487C508.547 171.146 507.546 171.336 506.535 171.338H506.939C509.105 171.335 511.182 170.474 512.713 168.942C514.245 167.411 515.107 165.334 515.109 163.168V143.4C515.107 141.234 514.245 139.157 512.713 137.625C511.182 136.094 509.105 135.232 506.939 135.23V135.23Z" fill="black"/>
<path d="M508.396 170.839C506.417 170.837 504.52 170.05 503.121 168.651C501.722 167.252 500.935 165.355 500.933 163.377V143.609C500.935 141.631 501.722 139.734 503.121 138.335C504.52 136.936 506.417 136.149 508.396 136.147H510.232C509.108 135.585 507.87 135.293 506.614 135.291H486.845C484.679 135.294 482.602 136.155 481.071 137.687C479.539 139.219 478.677 141.295 478.675 143.461V163.229C478.677 165.395 479.539 167.472 481.071 169.004C482.602 170.535 484.679 171.397 486.845 171.399H506.614C507.624 171.398 508.626 171.208 509.566 170.839L508.396 170.839Z" fill="#6C63FF"/>
<path d="M560.79 170.839C558.812 170.837 556.915 170.05 555.516 168.651C554.117 167.252 553.33 165.355 553.328 163.377V143.609C553.33 141.631 554.117 139.734 555.516 138.335C556.915 136.936 558.812 136.149 560.79 136.147H562.626C561.503 135.585 560.264 135.293 559.009 135.291H539.24C537.074 135.294 534.997 136.155 533.465 137.687C531.933 139.219 531.072 141.295 531.069 143.461V163.229C531.072 165.395 531.933 167.472 533.465 169.004C534.997 170.535 537.074 171.397 539.24 171.399H559.009C560.019 171.398 561.02 171.208 561.961 170.839L560.79 170.839Z" fill="#3F3D56"/>
<path d="M584.135 140.211C591.39 150.191 598.027 160.607 604.009 171.398H591.633C589.467 171.395 587.39 170.533 585.859 169.002C584.327 167.47 583.465 165.394 583.462 163.228V143.461C583.461 142.343 583.69 141.237 584.135 140.211V140.211Z" fill="#FF6584"/>
<path d="M559.318 181.77L552.393 171.398L547.331 163.815C547.035 163.373 546.621 163.022 546.134 162.806C545.648 162.589 545.11 162.514 544.583 162.591C544.057 162.667 543.562 162.891 543.157 163.237C542.753 163.583 542.454 164.036 542.297 164.545L540.165 171.398L535.875 185.169C535.705 185.717 535.707 186.305 535.88 186.852C536.053 187.4 536.389 187.881 536.843 188.233C537.297 188.585 537.847 188.79 538.421 188.82C538.994 188.851 539.563 188.706 540.052 188.404L541.575 187.463C541.881 187.274 542.23 187.166 542.59 187.15C542.95 187.134 543.307 187.21 543.629 187.371C543.951 187.532 544.227 187.773 544.43 188.07C544.633 188.367 544.756 188.711 544.789 189.07L546.184 204.292C546.249 204.991 546.573 205.641 547.091 206.115C547.609 206.588 548.285 206.852 548.988 206.855C549.073 206.855 549.158 206.848 549.25 206.841L551.388 206.65C551.757 206.616 552.115 206.51 552.443 206.338C552.771 206.166 553.062 205.93 553.298 205.646C553.535 205.361 553.713 205.032 553.823 204.678C553.933 204.325 553.971 203.953 553.937 203.584L552.499 187.866C552.465 187.497 552.529 187.125 552.684 186.789C552.84 186.452 553.081 186.162 553.384 185.948C553.687 185.734 554.041 185.604 554.41 185.57C554.779 185.537 555.151 185.601 555.487 185.756L555.799 185.898C556.357 186.155 556.983 186.222 557.583 186.09C558.183 185.958 558.723 185.634 559.121 185.167C559.52 184.699 559.755 184.115 559.79 183.502C559.826 182.888 559.66 182.281 559.318 181.77V181.77Z" fill="#CCCCCC"/>
</svg>
