<svg width="252" viewBox="0 0 252 252" fill="none" xmlns="http://www.w3.org/2000/svg">
<path d="M234.112 150H16.8883C12.9397 150 9.15278 151.58 6.36068 154.393C3.56859 157.206 2 161.022 2 165C2 168.978 3.56859 172.794 6.36068 175.607C9.15278 178.42 12.9397 180 16.8883 180H234.112C236.226 180 238.316 179.546 240.242 178.668C242.168 177.789 243.886 176.506 245.281 174.905C245.912 174.181 246.473 173.398 246.957 172.567C247.332 171.93 247.657 171.264 247.929 170.576C248.835 168.3 249.174 165.835 248.916 163.397C248.657 160.959 247.808 158.622 246.445 156.591C245.081 154.56 243.243 152.897 241.093 151.748C238.943 150.599 236.546 149.998 234.112 150V150Z" fill="#2C2E43"/>
<path d="M248 172C243.183 177.689 237.972 183.035 232.407 188H18.5932C13.0277 183.035 7.8173 177.689 3 172H248Z" fill="#3F3D56"/>
<path d="M143.117 116H107.878C107.688 115.998 107.499 116.028 107.319 116.089C106.936 116.21 106.602 116.454 106.364 116.785C106.127 117.115 105.999 117.515 106 117.926V175H145V117.926C145 117.672 144.951 117.422 144.856 117.188C144.761 116.954 144.622 116.741 144.447 116.563C144.273 116.384 144.065 116.242 143.837 116.146C143.608 116.049 143.364 116 143.117 116ZM129.78 144.159C129.781 145.085 129.483 145.985 128.933 146.719C128.408 147.431 127.678 147.957 126.846 148.221C126.014 148.486 125.123 148.476 124.297 148.193C123.47 147.91 122.752 147.369 122.242 146.645C121.732 145.921 121.456 145.052 121.453 144.159V137.537C121.464 136.411 121.907 135.336 122.686 134.544C123.466 133.752 124.519 133.308 125.617 133.308C126.714 133.308 127.767 133.752 128.547 134.544C129.327 135.336 129.77 136.411 129.78 137.537V144.159Z" fill="#2F2E41"/>
<path d="M106 173V178.852C106 179.156 106.109 179.447 106.305 179.662C106.5 179.877 106.765 179.998 107.041 180H143.959C144.235 179.997 144.499 179.876 144.694 179.661C144.889 179.446 144.999 179.155 145 178.852V173H106Z" fill="#3F3D56"/>
<path d="M203.975 27H49.0254C47.6941 27.0017 46.4177 27.5281 45.4757 28.464C44.5338 29.3999 44.0032 30.669 44 31.9932V136.001C44.001 137.327 44.5308 138.598 45.4731 139.535C46.4153 140.472 47.6929 140.999 49.0254 141H203.975C205.307 140.999 206.585 140.472 207.527 139.535C208.469 138.598 208.999 137.327 209 136.001V31.9932C208.997 30.669 208.466 29.3999 207.524 28.464C206.582 27.5281 205.306 27.0017 203.975 27V27Z" fill="#3F3D56"/>
<path d="M201.344 30H50.6562C49.9513 30.0016 49.2757 30.2875 48.7777 30.7951C48.2798 31.3028 48.0001 31.9906 48 32.7077V135.298C48.0012 136.014 48.2814 136.701 48.7793 137.207C49.2772 137.714 49.9521 137.999 50.6562 138H201.344C202.048 137.999 202.723 137.714 203.221 137.207C203.719 136.701 203.999 136.014 204 135.298V32.7077C204 31.9906 203.72 31.3028 203.222 30.7951C202.724 30.2875 202.049 30.0016 201.344 30Z" fill="#7283E0"/>
<path d="M172.966 179.993L171.589 173.321C171.532 173.049 171.409 172.796 171.231 172.584C171.054 172.373 170.827 172.211 170.572 172.111C170.388 172.038 170.191 172 169.993 172H84.0082C83.8099 172 83.6134 172.038 83.4288 172.111C83.1739 172.211 82.9473 172.373 82.7697 172.584C82.5921 172.796 82.4692 173.049 82.4121 173.321L81.0347 179.993C80.9849 180.235 80.9887 180.486 81.0458 180.727C81.1029 180.967 81.2118 181.192 81.3647 181.384C81.5176 181.576 81.7105 181.731 81.9295 181.838C82.1485 181.944 82.3881 182 82.6308 182H171.365C171.608 182.001 171.849 181.946 172.068 181.839C172.288 181.732 172.481 181.575 172.633 181.381C172.786 181.19 172.895 180.966 172.953 180.726C173.011 180.486 173.015 180.235 172.966 179.993V179.993Z" fill="#2F2E41"/>
<path d="M86.7071 173H84.2929C84.1311 173 84 173.073 84 173.163V173.837C84 173.927 84.1311 174 84.2929 174H86.7071C86.8689 174 87 173.927 87 173.837V173.163C87 173.073 86.8689 173 86.7071 173Z" fill="#3F3D56"/>
<path d="M91.7071 173H89.2929C89.1311 173 89 173.073 89 173.163V173.837C89 173.927 89.1311 174 89.2929 174H91.7071C91.8689 174 92 173.927 92 173.837V173.163C92 173.073 91.8689 173 91.7071 173Z" fill="#3F3D56"/>
<path d="M97.7071 173H95.2929C95.1311 173 95 173.073 95 173.163V173.837C95 173.927 95.1311 174 95.2929 174H97.7071C97.8689 174 98 173.927 98 173.837V173.163C98 173.073 97.8689 173 97.7071 173Z" fill="#3F3D56"/>
<path d="M102.707 173H100.293C100.131 173 100 173.073 100 173.163V173.837C100 173.927 100.131 174 100.293 174H102.707C102.869 174 103 173.927 103 173.837V173.163C103 173.073 102.869 173 102.707 173Z" fill="#3F3D56"/>
<path d="M108.805 173H107.195C107.087 173 107 173.073 107 173.163V173.837C107 173.927 107.087 174 107.195 174H108.805C108.913 174 109 173.927 109 173.837V173.163C109 173.073 108.913 173 108.805 173Z" fill="#3F3D56"/>
<path d="M113.805 173H112.195C112.087 173 112 173.073 112 173.163V173.837C112 173.927 112.087 174 112.195 174H113.805C113.913 174 114 173.927 114 173.837V173.163C114 173.073 113.913 173 113.805 173Z" fill="#3F3D56"/>
<path d="M119.805 173H118.195C118.087 173 118 173.073 118 173.163V173.837C118 173.927 118.087 174 118.195 174H119.805C119.913 174 120 173.927 120 173.837V173.163C120 173.073 119.913 173 119.805 173Z" fill="#3F3D56"/>
<path d="M124.805 173H123.195C123.087 173 123 173.073 123 173.163V173.837C123 173.927 123.087 174 123.195 174H124.805C124.913 174 125 173.927 125 173.837V173.163C125 173.073 124.913 173 124.805 173Z" fill="#3F3D56"/>
<path d="M130.805 173H129.195C129.087 173 129 173.073 129 173.163V173.837C129 173.927 129.087 174 129.195 174H130.805C130.913 174 131 173.927 131 173.837V173.163C131 173.073 130.913 173 130.805 173Z" fill="#3F3D56"/>
<path d="M136.707 173H134.293C134.131 173 134 173.073 134 173.163V173.837C134 173.927 134.131 174 134.293 174H136.707C136.869 174 137 173.927 137 173.837V173.163C137 173.073 136.869 173 136.707 173Z" fill="#3F3D56"/>
<path d="M142.707 173H140.293C140.131 173 140 173.073 140 173.163V173.837C140 173.927 140.131 174 140.293 174H142.707C142.869 174 143 173.927 143 173.837V173.163C143 173.073 142.869 173 142.707 173Z" fill="#3F3D56"/>
<path d="M148.609 173H145.391C145.175 173 145 173.073 145 173.163V173.837C145 173.927 145.175 174 145.391 174H148.609C148.825 174 149 173.927 149 173.837V173.163C149 173.073 148.825 173 148.609 173Z" fill="#3F3D56"/>
<path d="M153.707 173H151.293C151.131 173 151 173.073 151 173.163V173.837C151 173.927 151.131 174 151.293 174H153.707C153.869 174 154 173.927 154 173.837V173.163C154 173.073 153.869 173 153.707 173Z" fill="#3F3D56"/>
<path d="M159.609 173H156.391C156.175 173 156 173.073 156 173.163V173.837C156 173.927 156.175 174 156.391 174H159.609C159.825 174 160 173.927 160 173.837V173.163C160 173.073 159.825 173 159.609 173Z" fill="#3F3D56"/>
<path d="M164.707 173H162.293C162.131 173 162 173.073 162 173.163V173.837C162 173.927 162.131 174 162.293 174H164.707C164.869 174 165 173.927 165 173.837V173.163C165 173.073 164.869 173 164.707 173Z" fill="#3F3D56"/>
<path d="M169.707 173H167.293C167.131 173 167 173.073 167 173.163V173.837C167 173.927 167.131 174 167.293 174H169.707C169.869 174 170 173.927 170 173.837V173.163C170 173.073 169.869 173 169.707 173Z" fill="#3F3D56"/>
<path d="M86.7071 175H84.2929C84.1311 175 84 175.219 84 175.488V177.512C84 177.781 84.1311 178 84.2929 178H86.7071C86.8689 178 87 177.781 87 177.512V175.488C87 175.219 86.8689 175 86.7071 175Z" fill="#3F3D56"/>
<path d="M91.7071 175H89.2929C89.1311 175 89 175.219 89 175.488V177.512C89 177.781 89.1311 178 89.2929 178H91.7071C91.8689 178 92 177.781 92 177.512V175.488C92 175.219 91.8689 175 91.7071 175Z" fill="#3F3D56"/>
<path d="M97.7071 175H95.2929C95.1311 175 95 175.219 95 175.488V177.512C95 177.781 95.1311 178 95.2929 178H97.7071C97.8689 178 98 177.781 98 177.512V175.488C98 175.219 97.8689 175 97.7071 175Z" fill="#3F3D56"/>
<path d="M102.707 175H100.293C100.131 175 100 175.219 100 175.488V177.512C100 177.781 100.131 178 100.293 178H102.707C102.869 178 103 177.781 103 177.512V175.488C103 175.219 102.869 175 102.707 175Z" fill="#3F3D56"/>
<path d="M108.707 175H106.293C106.131 175 106 175.219 106 175.488V177.512C106 177.781 106.131 178 106.293 178H108.707C108.869 178 109 177.781 109 177.512V175.488C109 175.219 108.869 175 108.707 175Z" fill="#3F3D56"/>
<path d="M113.805 175H112.195C112.087 175 112 175.219 112 175.488V177.512C112 177.781 112.087 178 112.195 178H113.805C113.913 178 114 177.781 114 177.512V175.488C114 175.219 113.913 175 113.805 175Z" fill="#3F3D56"/>
<path d="M119.805 175H118.195C118.087 175 118 175.219 118 175.488V177.512C118 177.781 118.087 178 118.195 178H119.805C119.913 178 120 177.781 120 177.512V175.488C120 175.219 119.913 175 119.805 175Z" fill="#3F3D56"/>
<path d="M124.805 175H123.195C123.087 175 123 175.219 123 175.488V177.512C123 177.781 123.087 178 123.195 178H124.805C124.913 178 125 177.781 125 177.512V175.488C125 175.219 124.913 175 124.805 175Z" fill="#3F3D56"/>
<path d="M130.805 175H129.195C129.087 175 129 175.219 129 175.488V177.512C129 177.781 129.087 178 129.195 178H130.805C130.913 178 131 177.781 131 177.512V175.488C131 175.219 130.913 175 130.805 175Z" fill="#3F3D56"/>
<path d="M136.707 175H134.293C134.131 175 134 175.219 134 175.488V177.512C134 177.781 134.131 178 134.293 178H136.707C136.869 178 137 177.781 137 177.512V175.488C137 175.219 136.869 175 136.707 175Z" fill="#3F3D56"/>
<path d="M142.707 175H140.293C140.131 175 140 175.219 140 175.488V177.512C140 177.781 140.131 178 140.293 178H142.707C142.869 178 143 177.781 143 177.512V175.488C143 175.219 142.869 175 142.707 175Z" fill="#3F3D56"/>
<path d="M148.609 175H145.391C145.175 175 145 175.219 145 175.488V177.512C145 177.781 145.175 178 145.391 178H148.609C148.825 178 149 177.781 149 177.512V175.488C149 175.219 148.825 175 148.609 175Z" fill="#3F3D56"/>
<path d="M153.707 175H151.293C151.131 175 151 175.219 151 175.488V177.512C151 177.781 151.131 178 151.293 178H153.707C153.869 178 154 177.781 154 177.512V175.488C154 175.219 153.869 175 153.707 175Z" fill="#3F3D56"/>
<path d="M159.609 175H156.391C156.175 175 156 175.219 156 175.488V177.512C156 177.781 156.175 178 156.391 178H159.609C159.825 178 160 177.781 160 177.512V175.488C160 175.219 159.825 175 159.609 175Z" fill="#3F3D56"/>
<path d="M164.707 175H162.293C162.131 175 162 175.219 162 175.488V177.512C162 177.781 162.131 178 162.293 178H164.707C164.869 178 165 177.781 165 177.512V175.488C165 175.219 164.869 175 164.707 175Z" fill="#3F3D56"/>
<path d="M169.707 175H167.293C167.131 175 167 175.219 167 175.488V177.512C167 177.781 167.131 178 167.293 178H169.707C169.869 178 170 177.781 170 177.512V175.488C170 175.219 169.869 175 169.707 175Z" fill="#3F3D56"/>
<path d="M132.731 179H111.269C111.12 179 111 179.146 111 179.325V180.675C111 180.854 111.12 181 111.269 181H132.731C132.88 181 133 180.854 133 180.675V179.325C133 179.146 132.88 179 132.731 179Z" fill="#3F3D56"/>
<path d="M193.452 45H52.5482C52.4017 44.9971 52.2623 44.9432 52.1598 44.8497C52.0574 44.7563 52 44.6307 52 44.5C52 44.3693 52.0574 44.2437 52.1598 44.1503C52.2623 44.0568 52.4017 44.0029 52.5482 44H193.452C193.598 44.0029 193.738 44.0568 193.84 44.1503C193.943 44.2437 194 44.3693 194 44.5C194 44.6307 193.943 44.7563 193.84 44.8497C193.738 44.9432 193.598 44.9971 193.452 45V45Z" fill="#3F3D56"/>
<path d="M62.5 40C64.433 40 66 38.6569 66 37C66 35.3431 64.433 34 62.5 34C60.567 34 59 35.3431 59 37C59 38.6569 60.567 40 62.5 40Z" fill="#3F3D56"/>
<path d="M73.5 40C75.433 40 77 38.6569 77 37C77 35.3431 75.433 34 73.5 34C71.567 34 70 35.3431 70 37C70 38.6569 71.567 40 73.5 40Z" fill="#3F3D56"/>
<path d="M85 40C86.6569 40 88 38.6569 88 37C88 35.3431 86.6569 34 85 34C83.3432 34 82 35.3431 82 37C82 38.6569 83.3432 40 85 40Z" fill="#3F3D56"/>
<path d="M187.415 35H179.579C179.425 35.003 179.277 35.0571 179.169 35.1505C179.061 35.2439 179 35.3694 179 35.5C179 35.6306 179.061 35.7561 179.169 35.8495C179.277 35.9429 179.425 35.997 179.579 36H187.415C187.571 35.9981 187.72 35.9447 187.829 35.8511C187.939 35.7575 188 35.6314 188 35.5C188 35.3686 187.939 35.2425 187.829 35.1489C187.72 35.0553 187.571 35.0019 187.415 35Z" fill="#3F3D56"/>
<path d="M187.414 37H179.58C179.425 37.0029 179.277 37.0568 179.169 37.1503C179.061 37.2437 179 37.3693 179 37.5C179 37.6307 179.061 37.7563 179.169 37.8497C179.277 37.9432 179.425 37.9971 179.58 38H187.414C187.57 37.9984 187.719 37.945 187.829 37.8514C187.939 37.7578 188 37.6316 188 37.5C188 37.3684 187.939 37.2422 187.829 37.1486C187.719 37.055 187.57 37.0016 187.414 37V37Z" fill="#3F3D56"/>
<path d="M187.415 39H179.579C179.425 39.003 179.277 39.0571 179.169 39.1505C179.061 39.2439 179 39.3694 179 39.5C179 39.6306 179.061 39.7561 179.169 39.8495C179.277 39.9429 179.425 39.997 179.579 40H187.415C187.571 39.9981 187.72 39.9447 187.829 39.8511C187.939 39.7575 188 39.6314 188 39.5C188 39.3686 187.939 39.2425 187.829 39.1489C187.72 39.0553 187.571 39.0019 187.415 39V39Z" fill="#3F3D56"/>
<path d="M65.1683 58H61.8317C60.8201 58 60 58.6716 60 59.5C60 60.3284 60.8201 61 61.8317 61H65.1683C66.1799 61 67 60.3284 67 59.5C67 58.6716 66.1799 58 65.1683 58Z" fill="#E6E6E6"/>
<path d="M97.43 58H94.57C93.7029 58 93 58.6716 93 59.5C93 60.3284 93.7029 61 94.57 61H97.43C98.2971 61 99 60.3284 99 59.5C99 58.6716 98.2971 58 97.43 58Z" fill="#E6E6E6"/>
<path d="M107.168 58H103.832C102.82 58 102 58.6716 102 59.5C102 60.3284 102.82 61 103.832 61H107.168C108.18 61 109 60.3284 109 59.5C109 58.6716 108.18 58 107.168 58Z" fill="#E6E6E6"/>
<path d="M88.4987 57H71.5013C70.6722 57 70 57.6716 70 58.5C70 59.3284 70.6722 60 71.5013 60H88.4987C89.3278 60 90 59.3284 90 58.5C90 57.6716 89.3278 57 88.4987 57Z" fill="#E6E6E6"/>
<path d="M133.349 57H114.651C113.739 57 113 57.6716 113 58.5C113 59.3284 113.739 60 114.651 60H133.349C134.261 60 135 59.3284 135 58.5C135 57.6716 134.261 57 133.349 57Z" fill="#E6E6E6"/>
<path d="M74.1683 65H70.8317C69.8201 65 69 65.6716 69 66.5C69 67.3284 69.8201 68 70.8317 68H74.1683C75.1799 68 76 67.3284 76 66.5C76 65.6716 75.1799 65 74.1683 65Z" fill="#E6E6E6"/>
<path d="M106.43 65H103.57C102.703 65 102 65.6716 102 66.5C102 67.3284 102.703 68 103.57 68H106.43C107.297 68 108 67.3284 108 66.5C108 65.6716 107.297 65 106.43 65Z" fill="#E6E6E6"/>
<path d="M116.168 65H112.832C111.82 65 111 65.6716 111 66.5C111 67.3284 111.82 68 112.832 68H116.168C117.18 68 118 67.3284 118 66.5C118 65.6716 117.18 65 116.168 65Z" fill="#E6E6E6"/>
<path d="M97.4987 65H80.5013C79.6722 65 79 65.6716 79 66.5C79 67.3284 79.6722 68 80.5013 68H97.4987C98.3278 68 99 67.3284 99 66.5C99 65.6716 98.3278 65 97.4987 65Z" fill="#E6E6E6"/>
<path d="M142.349 65H123.651C122.739 65 122 65.6716 122 66.5C122 67.3284 122.739 68 123.651 68H142.349C143.261 68 144 67.3284 144 66.5C144 65.6716 143.261 65 142.349 65Z" fill="#E6E6E6"/>
<path d="M82.43 72H79.57C78.7029 72 78 72.8954 78 74C78 75.1046 78.7029 76 79.57 76H82.43C83.2971 76 84 75.1046 84 74C84 72.8954 83.2971 72 82.43 72Z" fill="#E6E6E6"/>
<path d="M116.168 72H112.832C111.82 72 111 72.8954 111 74C111 75.1046 111.82 76 112.832 76H116.168C117.18 76 118 75.1046 118 74C118 72.8954 117.18 72 116.168 72Z" fill="#E6E6E6"/>
<path d="M125.43 72H122.57C121.703 72 121 72.8954 121 74C121 75.1046 121.703 76 122.57 76H125.43C126.297 76 127 75.1046 127 74C127 72.8954 126.297 72 125.43 72Z" fill="#E6E6E6"/>
<path d="M106.424 72H88.5764C87.7058 72 87 72.8954 87 74C87 75.1046 87.7058 76 88.5764 76H106.424C107.294 76 108 75.1046 108 74C108 72.8954 107.294 72 106.424 72Z" fill="#E6E6E6"/>
<path d="M151.349 72H132.651C131.739 72 131 72.8954 131 74C131 75.1046 131.739 76 132.651 76H151.349C152.261 76 153 75.1046 153 74C153 72.8954 152.261 72 151.349 72Z" fill="#E6E6E6"/>
<path d="M90.6917 80H88.3083C87.5858 80 87 80.4477 87 81C87 81.5523 87.5858 82 88.3083 82H90.6917C91.4142 82 92 81.5523 92 81C92 80.4477 91.4142 80 90.6917 80Z" fill="#E6E6E6"/>
<path d="M125.168 80H121.832C120.82 80 120 80.4477 120 81C120 81.5523 120.82 82 121.832 82H125.168C126.18 82 127 81.5523 127 81C127 80.4477 126.18 80 125.168 80Z" fill="#E6E6E6"/>
<path d="M133.692 80H131.308C130.586 80 130 80.4477 130 81C130 81.5523 130.586 82 131.308 82H133.692C134.414 82 135 81.5523 135 81C135 80.4477 134.414 80 133.692 80Z" fill="#E6E6E6"/>
<path d="M115.424 79H97.5764C96.7058 79 96 79.6716 96 80.5C96 81.3284 96.7058 82 97.5764 82H115.424C116.294 82 117 81.3284 117 80.5C117 79.6716 116.294 79 115.424 79Z" fill="#E6E6E6"/>
<path d="M97.43 108H94.57C93.7029 108 93 108.672 93 109.5C93 110.328 93.7029 111 94.57 111H97.43C98.2971 111 99 110.328 99 109.5C99 108.672 98.2971 108 97.43 108Z" fill="#E6E6E6"/>
<path d="M107.168 108H103.832C102.82 108 102 108.672 102 109.5C102 110.328 102.82 111 103.832 111H107.168C108.18 111 109 110.328 109 109.5C109 108.672 108.18 108 107.168 108Z" fill="#E6E6E6"/>
<path d="M133.349 108H114.651C113.739 108 113 108.672 113 109.5C113 110.328 113.739 111 114.651 111H133.349C134.261 111 135 110.328 135 109.5C135 108.672 134.261 108 133.349 108Z" fill="#E6E6E6"/>
<path d="M65.1683 108H61.8317C60.8201 108 60 108.672 60 109.5C60 110.328 60.8201 111 61.8317 111H65.1683C66.1799 111 67 110.328 67 109.5C67 108.672 66.1799 108 65.1683 108Z" fill="#E6E6E6"/>
<path d="M88.4987 108H71.5013C70.6722 108 70 108.672 70 109.5C70 110.328 70.6722 111 71.5013 111H88.4987C89.3278 111 90 110.328 90 109.5C90 108.672 89.3278 108 88.4987 108Z" fill="#E6E6E6"/>
<path d="M74.1683 101H70.8317C69.8201 101 69 101.672 69 102.5C69 103.328 69.8201 104 70.8317 104H74.1683C75.1799 104 76 103.328 76 102.5C76 101.672 75.1799 101 74.1683 101Z" fill="#E6E6E6"/>
<path d="M106.43 101H103.57C102.703 101 102 101.672 102 102.5C102 103.328 102.703 104 103.57 104H106.43C107.297 104 108 103.328 108 102.5C108 101.672 107.297 101 106.43 101Z" fill="#E6E6E6"/>
<path d="M116.168 101H112.832C111.82 101 111 101.672 111 102.5C111 103.328 111.82 104 112.832 104H116.168C117.18 104 118 103.328 118 102.5C118 101.672 117.18 101 116.168 101Z" fill="#E6E6E6"/>
<path d="M97.4987 101H80.5013C79.6722 101 79 101.672 79 102.5C79 103.328 79.6722 104 80.5013 104H97.4987C98.3278 104 99 103.328 99 102.5C99 101.672 98.3278 101 97.4987 101Z" fill="#E6E6E6"/>
<path d="M82.43 95H79.57C78.7029 95 78 95.4477 78 96C78 96.5523 78.7029 97 79.57 97H82.43C83.2971 97 84 96.5523 84 96C84 95.4477 83.2971 95 82.43 95Z" fill="#E6E6E6"/>
<path d="M116.168 95H112.832C111.82 95 111 95.4477 111 96C111 96.5523 111.82 97 112.832 97H116.168C117.18 97 118 96.5523 118 96C118 95.4477 117.18 95 116.168 95Z" fill="#E6E6E6"/>
<path d="M125.43 95H122.57C121.703 95 121 95.4477 121 96C121 96.5523 121.703 97 122.57 97H125.43C126.297 97 127 96.5523 127 96C127 95.4477 126.297 95 125.43 95Z" fill="#E6E6E6"/>
<path d="M106.424 95H88.5764C87.7058 95 87 95.6716 87 96.5C87 97.3284 87.7058 98 88.5764 98H106.424C107.294 98 108 97.3284 108 96.5C108 95.6716 107.294 95 106.424 95Z" fill="#E6E6E6"/>
<path d="M90.6917 87H88.3083C87.5858 87 87 87.6716 87 88.5C87 89.3284 87.5858 90 88.3083 90H90.6917C91.4142 90 92 89.3284 92 88.5C92 87.6716 91.4142 87 90.6917 87Z" fill="#E6E6E6"/>
<path d="M125.168 87H121.832C120.82 87 120 87.6716 120 88.5C120 89.3284 120.82 90 121.832 90H125.168C126.18 90 127 89.3284 127 88.5C127 87.6716 126.18 87 125.168 87Z" fill="#E6E6E6"/>
<path d="M133.692 87H131.308C130.586 87 130 87.6716 130 88.5C130 89.3284 130.586 90 131.308 90H133.692C134.414 90 135 89.3284 135 88.5C135 87.6716 134.414 87 133.692 87Z" fill="#E6E6E6"/>
<path d="M115.424 87H97.5764C96.7058 87 96 87.6716 96 88.5C96 89.3284 96.7058 90 97.5764 90H115.424C116.294 90 117 89.3284 117 88.5C117 87.6716 116.294 87 115.424 87Z" fill="#E6E6E6"/>
<path d="M195 212.667C194.661 212.841 194.317 213.014 193.979 213.181C185.208 217.596 178.192 220.104 168.594 222.854C167.783 213.746 167.001 197.737 166.24 187.814C166.04 185.238 165.841 183.075 165.646 181.55C165.597 180.739 165.433 179.939 165.158 179.175L165.191 181.55L165.274 187.814L165.757 223.636C153.819 226.816 141.555 228.595 129.21 228.938C128.566 228.955 127.933 228.966 127.322 228.978C127.106 228.983 126.895 228.989 126.684 228.989C125.99 228.994 125.302 229 124.608 229C111.599 229.01 98.6364 227.428 86.0062 224.29C86.2782 215.277 86.5502 199.447 86.8111 187.814C86.8666 185.54 86.9166 183.422 86.9721 181.55C87.0776 177.549 87.1886 174.666 87.2941 173.7C87.2006 173.871 87.1279 174.053 87.0776 174.241C86.5635 176.651 86.2129 179.093 86.0284 181.55C85.8341 183.422 85.6399 185.54 85.4456 187.814C84.4131 199.9 83.3362 216.333 82.226 223.301C75.6179 221.485 69.1336 219.239 62.8142 216.579C59.4836 215.182 56.2122 213.675 53 212.058C53.6106 208.035 54.249 203.526 54.904 198.849C55.4147 195.223 55.942 191.496 56.4805 187.814C57.3131 182.126 58.168 176.549 59.0339 171.638C60.2996 164.463 61.5985 158.697 62.8863 156.048C64.1075 153.534 65.3288 151.053 66.5111 148.678C66.9219 147.846 67.3327 147.024 67.7323 146.225C67.8267 146.035 67.9211 145.851 68.0154 145.667C68.8647 143.985 69.6863 142.375 70.469 140.867C71.1407 139.576 71.7791 138.358 72.3841 137.235C73.8495 134.508 75.093 132.335 76.0144 130.96C79.8669 125.078 85.602 120.699 92.2677 118.55L92.4343 118.505L92.5508 118.556L103.903 115.046L105.562 114.532L106.678 114.186L110.608 111.174L112.745 109.537L114.749 108.001L118.668 105L142.932 106.503L147.656 117.952L158.236 121.847L158.419 121.763L158.58 121.696L158.746 121.74C165.411 123.891 171.146 128.27 175 134.15C175.522 134.938 176.154 135.978 176.87 137.235C177.481 138.302 178.147 139.52 178.869 140.867C179.896 142.783 181.017 144.946 182.205 147.287C182.466 147.801 182.732 148.326 182.999 148.857C183.493 149.84 183.994 150.844 184.503 151.869C185.685 154.243 186.907 156.724 188.128 159.244C189.188 161.429 190.259 165.922 191.314 171.638C192.186 176.387 193.052 181.986 193.89 187.814C194.989 195.368 193.818 204.414 194.811 211.365C194.872 211.807 194.939 212.237 195 212.667Z" fill="#3F3D56"/>
<path d="M125.5 97C141.24 97 154 84.0163 154 68C154 51.9837 141.24 39 125.5 39C109.76 39 97 51.9837 97 68C97 84.0163 109.76 97 125.5 97Z" fill="#A0616A"/>
<path d="M171.794 30.6764C171.238 29.3736 170.499 28.1578 169.598 27.0665C165.328 21.8295 157.562 19.5248 149.591 25.7226C148.057 25.3784 146.457 25.4707 144.973 25.9891C144.272 26.244 143.615 26.6075 143.026 27.0665C141.819 28.0118 140.877 29.2557 140.293 30.6764C139.981 31.4267 139.776 32.2176 139.685 33.0255C137.714 31.9977 135.629 31.2091 133.473 30.6764C128.183 29.3552 122.651 29.3552 117.36 30.6764C115.665 31.1069 114.032 31.7566 112.504 32.609C109.915 34.1085 108.427 36.0023 108.162 38.1071C104.428 38.3181 100.545 40.2896 97.6521 43.5218C97.3258 43.8828 97.0105 44.2604 96.7173 44.6492C94.2845 47.8452 92.9772 51.7617 93.0003 55.7842V56.4895H93.7028C95.6275 56.4876 97.5342 56.861 99.3171 57.5891C100.472 58.055 101.566 58.6612 102.575 59.394C103.235 59.864 103.858 60.3838 104.439 60.949C105.786 62.2586 106.928 63.7659 107.824 65.4196C110.122 69.5985 110.919 74.4438 110.081 79.1426C109.889 80.2302 109.608 81.3001 109.24 82.3414C108.718 83.8271 108.029 85.2486 107.188 86.5788C107.155 86.6288 107.127 86.6788 107.094 86.7288C106.723 87.323 106.369 87.9283 106.038 88.5392C105.789 88.9946 105.556 89.4611 105.341 89.9276C104.71 91.226 104.178 92.57 103.748 93.9484C102.978 96.3863 102.524 98.9137 102.398 101.468C102.359 102.146 102.348 102.823 102.37 103.501C102.403 105.247 102.594 106.987 102.94 108.699C102.99 108.932 103.04 109.16 103.089 109.393L103.493 111.165L104.45 115.391L105.114 118.301L105.728 121L106.635 119.695C106.945 119.251 107.725 117.884 108.77 115.952C109.462 114.691 110.264 113.186 111.132 111.542C112.343 109.238 113.671 106.666 114.971 104.1C115.496 103.062 116.016 102.029 116.519 101.018C117.471 99.1022 118.367 97.2529 119.136 95.609C119.844 94.0929 120.447 92.7489 120.895 91.6715C121.033 92.3768 121.149 93.0932 121.238 93.8152C121.337 94.5483 121.409 95.2924 121.448 96.0366C121.459 96.1477 121.464 96.2643 121.47 96.3754L121.492 96.8308L121.498 96.9641L122.084 97.0419C125.466 97.4054 128.875 97.4315 132.262 97.1196H132.267C136.754 96.7804 141.155 95.7094 145.299 93.9485C147.652 92.9234 149.85 91.5698 151.826 89.9277C152.749 89.1602 153.611 88.3208 154.403 87.4175C154.603 87.1898 154.796 86.9621 154.984 86.7288C156.079 85.3781 157.016 83.9061 157.778 82.3415C158.287 81.3089 158.72 80.2397 159.072 79.1426C161.196 72.6838 161.074 64.6255 158.707 55.0511C159.346 54.9275 159.959 54.6905 160.516 54.3514C162.252 53.3018 163.458 51.2192 163.834 48.6756L164.432 48.8367C166.549 47.8463 168.436 46.4196 169.969 44.6493C170.272 44.2888 170.556 43.9125 170.82 43.5219C173.525 39.5232 173.547 34.7249 171.794 30.6764Z" fill="#2F2E41"/>
<path opacity="0.2" d="M80 172L84.2485 153L88 169.395L80 172Z" fill="black"/>
<path d="M205 159.2C203.315 182.761 205.061 193.135 195.759 212.561C187.295 216.765 178.48 220.196 169.416 222.812C168.474 223.082 167.529 223.344 166.583 223.599C154.66 226.801 142.413 228.592 130.085 228.938C129.441 228.955 128.81 228.966 128.2 228.977C127.984 228.983 127.773 228.989 127.562 228.989C126.869 228.994 126.182 229 125.489 229C112.497 229.01 99.5523 227.417 86.9391 224.257C85.6752 223.942 84.4168 223.61 83.164 223.262C76.5647 221.433 70.0892 219.173 63.7782 216.494C60.452 215.087 57.185 213.57 53.9772 211.942C53.251 211.571 52.5248 211.2 51.8096 210.817C48.1343 204.257 46.0443 196.28 46 186.694C48.5445 170.176 199.379 144.955 205 159.2Z" fill="#2F2E41"/>
<path opacity="0.2" d="M204.705 163.465C204.792 162.052 204.888 160.591 205 159.071C199.379 145.265 48.5445 169.709 46 185.717C46.007 187.185 46.0708 188.609 46.1781 190C52.3401 174.199 195.635 150.967 204.705 163.465Z" fill="black"/>
<path d="M55.6455 98.6692C55.6831 98.182 55.61 97.6929 55.431 97.2347C55.2521 96.7765 54.9714 96.3599 54.6079 96.0129C54.2444 95.6659 53.8065 95.3966 53.3237 95.2231C52.8409 95.0495 52.3245 94.9758 51.8091 95.0069C51.617 95.0138 51.426 95.0364 51.238 95.0745L28.648 99.9012C28.1432 100.017 27.6697 100.231 27.2579 100.531C26.846 100.83 26.5051 101.208 26.2569 101.639C25.9256 101.651 25.5966 101.696 25.2755 101.774C24.5726 101.925 23.9079 102.205 23.3194 102.599C22.7309 102.993 22.2301 103.492 21.8457 104.069C21.4613 104.646 21.2007 105.288 21.0789 105.96C20.9571 106.632 20.9765 107.32 21.1358 107.985C21.2951 108.65 21.5914 109.279 22.0076 109.835C22.4238 110.392 22.9519 110.865 23.5616 111.229C24.7931 111.963 26.2825 112.205 27.7022 111.9C28.5104 111.723 29.2663 111.377 29.9148 110.888L37.5698 131.275C37.9522 131.913 38.5429 132.418 39.2537 132.713C39.9645 133.008 40.7572 133.078 41.5132 132.912L56.1986 129.773C56.9489 129.606 57.6241 129.22 58.1275 128.668C58.6308 128.116 58.9362 127.427 59 126.701L55.6455 98.6692ZM27.3632 110.449C26.3493 110.665 25.286 110.493 24.4065 109.969C23.5271 109.445 22.9032 108.612 22.6717 107.654C22.4403 106.695 22.6201 105.689 23.1717 104.856C23.7234 104.023 24.6019 103.431 25.6146 103.209C25.6859 103.192 25.7574 103.209 25.8287 103.192C25.8233 103.807 25.9895 104.412 26.3105 104.947L29.1119 109.571C28.6242 110.009 28.0196 110.312 27.3632 110.449Z" fill="#2F2E41"/>
<path d="M51.9933 95C52.2061 97.4967 47.3472 100.368 40.839 101.507C34.8628 102.584 29.5074 101.835 28 99.8685C28.303 99.7103 28.632 99.5945 28.9754 99.5252L51.4258 95.0625C51.6125 95.0273 51.8024 95.0064 51.9933 95V95Z" fill="#3F3D56"/>
<path d="M36.6509 165L49 158.777L38.7091 130.772L35.997 116.649C35.6446 114.814 34.8206 113.105 33.6074 111.692C32.3942 110.278 30.8341 109.211 29.0833 108.595C27.3324 107.98 25.4519 107.839 23.6298 108.185C21.8077 108.532 20.1078 109.354 18.6999 110.571V110.571C16.6136 112.373 15.3037 114.922 15.0465 117.679C14.7894 120.437 15.6052 123.187 17.3217 125.349L27.3891 138.033L36.6509 165Z" fill="#A0616A"/>
<path d="M48.6472 152.78L32 161.14L44.6335 200.896C45.5407 203.751 47.1669 206.322 49.3546 208.359C51.5424 210.397 54.2173 211.833 57.12 212.527V212.527C60.6991 213.383 64.4567 213.072 67.8478 211.638C71.239 210.205 74.0876 207.725 75.9805 204.556L109.481 146.887C111.855 142.913 112.588 138.165 111.523 133.656C110.458 129.147 107.679 125.235 103.781 122.755V122.755C101.684 121.421 99.3318 120.546 96.8761 120.186C94.4204 119.826 91.9167 119.99 89.5281 120.666C87.1394 121.342 84.9192 122.515 83.0121 124.11C81.1049 125.705 79.5535 127.685 78.4588 129.922L58.0114 173.679L48.6472 152.78Z" fill="#3F3D56"/>
<path d="M44.6668 118C44.6299 118 44.5932 117.993 44.5584 117.981L40.225 116.402C40.1727 116.383 40.1256 116.35 40.0881 116.307C40.0506 116.264 40.0238 116.212 40.0102 116.155C39.9966 116.098 39.9966 116.039 40.0102 115.982C40.0238 115.925 40.0505 115.873 40.088 115.83L43.3109 112.115C43.3404 112.081 43.3761 112.053 43.4158 112.033C43.4555 112.014 43.4985 112.002 43.5423 112C43.5861 111.998 43.6299 112.005 43.6711 112.021C43.7124 112.037 43.7502 112.061 43.7825 112.093C43.8149 112.124 43.841 112.162 43.8595 112.204C43.8779 112.246 43.8883 112.292 43.8901 112.338C43.8919 112.385 43.885 112.431 43.8699 112.475C43.8547 112.518 43.8315 112.558 43.8017 112.592L40.9231 115.91L44.7751 117.314C44.8497 117.341 44.9128 117.395 44.9531 117.467C44.9934 117.539 45.0084 117.623 44.9954 117.705C44.9824 117.788 44.9423 117.863 44.8821 117.917C44.8219 117.97 44.7456 118 44.6668 118V118Z" fill="url(#paint0_linear_37_111)"/>
<path d="M49.1388 117C49.0865 117 49.0353 116.979 48.9919 116.94C48.9485 116.9 48.9148 116.845 48.8952 116.779C48.8755 116.714 48.8708 116.643 48.8817 116.574C48.8925 116.505 48.9184 116.442 48.9561 116.394L51.2659 113.395L48.163 111.679C48.1311 111.661 48.102 111.635 48.0775 111.603C48.053 111.57 48.0336 111.531 48.0203 111.488C48.007 111.446 48.0001 111.4 48 111.353C47.9999 111.307 48.0066 111.261 48.0198 111.218C48.033 111.175 48.0523 111.136 48.0767 111.104C48.1011 111.071 48.1301 111.045 48.162 111.027C48.1939 111.009 48.2281 111 48.2626 111C48.2971 111 48.3313 111.009 48.3632 111.027L51.8372 112.949C51.8776 112.971 51.9132 113.006 51.9408 113.052C51.9684 113.097 51.9871 113.151 51.9953 113.209C52.0035 113.266 52.0009 113.325 51.9877 113.381C51.9746 113.437 51.9512 113.488 51.9199 113.528L49.3215 116.901C49.2725 116.964 49.207 117 49.1388 117V117Z" fill="url(#paint1_linear_37_111)"/>
<path d="M45.2673 119C45.2406 119 45.2141 118.996 45.1887 118.987C45.1552 118.977 45.124 118.959 45.0969 118.935C45.0699 118.912 45.0475 118.883 45.0311 118.85C45.0146 118.818 45.0045 118.782 45.0012 118.745C44.9979 118.708 45.0015 118.671 45.0118 118.636L47.4776 110.198C47.4986 110.126 47.5456 110.067 47.6082 110.032C47.6708 109.998 47.7439 109.991 47.8115 110.013C47.8791 110.034 47.9357 110.084 47.9688 110.15C48.002 110.215 48.009 110.292 47.9884 110.363L45.5227 118.802C45.5058 118.859 45.4719 118.909 45.4259 118.945C45.38 118.981 45.3244 119 45.2673 119V119Z" fill="url(#paint2_linear_37_111)"/>
<defs>
<linearGradient id="paint0_linear_37_111" x1="42.5" y1="112" x2="45" y2="112" gradientUnits="userSpaceOnUse">
<stop stop-color="#7283E0"/>
<stop offset="1" stop-color="#7892EE"/>
</linearGradient>
<linearGradient id="paint1_linear_37_111" x1="50" y1="111" x2="52" y2="111" gradientUnits="userSpaceOnUse">
<stop stop-color="#7283E0"/>
<stop offset="1" stop-color="#7892EE"/>
</linearGradient>
<linearGradient id="paint2_linear_37_111" x1="46.5" y1="110" x2="48" y2="110" gradientUnits="userSpaceOnUse">
<stop stop-color="#7283E0"/>
<stop offset="1" stop-color="#7892EE"/>
</linearGradient>
</defs>
</svg>
