<svg width="577" height="494" viewBox="0 0 577 494" fill="none" xmlns="http://www.w3.org/2000/svg">
<path d="M169.569 488.845C178.832 481.017 184.458 468.651 182.983 456.613C181.507 444.575 172.368 433.508 160.514 430.951C148.66 428.395 135.147 435.472 131.546 447.053C129.565 424.724 127.282 401.46 115.412 382.445C104.664 365.228 86.0492 352.908 65.8747 350.704C45.7001 348.5 24.4589 356.824 11.8767 372.75C-0.705422 388.676 -3.7861 411.829 5.02611 430.113C11.5177 443.582 23.4776 453.606 36.0086 461.761C76.5007 487.891 125.066 498.517 172.768 491.684" fill="#3F675D"/>
<path d="M31.8268 357.286C48.4733 370.847 63.7447 386.013 77.4202 402.566C98.8222 428.383 116.141 457.329 128.773 488.395C129.698 490.661 126.018 491.648 125.104 489.406C117.071 469.765 107.132 450.958 95.4309 433.256C77.184 405.602 54.8289 380.892 29.1361 359.977C27.2365 358.43 29.9428 355.751 31.8268 357.286Z" fill="white"/>
<path d="M175.967 488.845C166.704 481.017 161.078 468.651 162.553 456.613C164.029 444.575 173.167 433.508 185.022 430.951C196.876 428.395 210.389 435.472 213.989 447.053C215.971 424.724 218.254 401.46 230.124 382.445C240.871 365.228 259.487 352.908 279.661 350.704C299.836 348.5 321.077 356.824 333.659 372.75C346.241 388.676 349.322 411.829 340.51 430.113C334.018 443.582 322.058 453.606 309.527 461.761C269.035 487.891 220.47 498.517 172.768 491.684" fill="#5A948A"/>
<path d="M313.709 357.286C297.063 370.847 281.791 386.013 268.116 402.566C246.714 428.383 229.395 457.329 216.763 488.395C215.838 490.661 219.518 491.648 220.432 489.406C241.101 438.918 274.096 394.418 316.4 359.977C318.3 358.43 315.593 355.751 313.709 357.286Z" fill="white"/>
<path d="M39 153.58C39 120.675 65.6749 94 98.58 94H334V312H39V153.58Z" fill="#B9C8FF"/>
<path d="M203.454 222.225C220.589 222.225 234.481 208.332 234.481 191.194C234.481 174.055 220.589 160.162 203.454 160.162C186.318 160.162 172.427 174.055 172.427 191.194C172.427 208.332 186.318 222.225 203.454 222.225Z" fill="#3F3D56"/>
<path d="M107.789 84.2229H321.556V95.92H135.078C124.114 95.92 113.257 98.0799 103.128 102.276C92.9979 106.473 83.7939 112.623 76.0411 120.377C68.2882 128.131 62.1383 137.337 57.9425 147.468C53.7466 157.599 51.5871 168.457 51.5871 179.423V312.316H28.1963C27.1624 312.316 26.1708 311.905 25.4397 311.174C24.7086 310.443 24.2979 309.451 24.2979 308.417V167.726C24.2978 156.76 26.4574 145.902 30.6532 135.771C34.849 125.64 40.999 116.434 48.7518 108.68C56.5047 100.926 65.7086 94.7755 75.8382 90.5791C85.9678 86.3827 96.8247 84.2229 107.789 84.2229Z" fill="#3F3D56"/>
<path d="M148.906 489.496V311.816H200.951V489.496C200.95 490.69 200.475 491.835 199.631 492.679C198.786 493.524 197.642 493.999 196.448 494H153.41C152.216 493.999 151.071 493.524 150.227 492.679C149.383 491.835 148.908 490.69 148.906 489.496Z" fill="#3F3D56"/>
<path d="M203.454 207.21C198.677 207.204 194.098 205.304 190.72 201.926C187.343 198.548 185.443 193.969 185.438 189.191V60.0608C185.437 59.2646 185.12 58.5013 184.557 57.9383C183.995 57.3753 183.231 57.0586 182.435 57.0578H112.374C111.048 57.0562 109.776 56.5284 108.838 55.5901C107.899 54.6518 107.372 53.3796 107.37 52.0527V5.00507C107.372 3.67811 107.899 2.40594 108.838 1.46764C109.776 0.529342 111.048 0.00153659 112.374 0H216.465C217.792 0.00151809 219.064 0.529323 220.002 1.46763C220.94 2.40593 221.468 3.67811 221.469 5.00507V189.191C221.464 193.969 219.564 198.548 216.187 201.926C212.809 205.304 208.23 207.204 203.454 207.21Z" fill="#7892EE"/>
<path d="M328.562 75.0761C343.661 75.0444 358.154 81.0129 368.853 91.6685C379.552 102.324 385.58 116.794 385.612 131.895V296.371H497.709C502.212 296.362 506.535 298.142 509.725 301.32C512.916 304.498 514.714 308.813 514.724 313.317H271.513V131.895C271.544 116.794 277.573 102.324 288.272 91.6685C298.97 81.0129 313.463 75.0444 328.562 75.0761Z" fill="#3F3D56"/>
<path d="M314.872 168.738L326.685 217.544L557.766 161.596L545.953 112.79C545.811 112.193 545.519 111.642 545.107 111.188C544.694 110.734 544.174 110.392 543.594 110.192C543.165 110.042 542.712 109.974 542.258 109.991L408.683 40.8195C407.9 40.4198 407.001 40.313 406.146 40.5185C405.292 40.7239 404.539 41.2281 404.023 41.9399L339.647 131.725L315.378 165.582C315.334 165.641 315.303 165.709 315.288 165.781C315.273 165.854 315.273 165.928 315.289 166C314.795 166.822 314.645 167.806 314.872 168.738Z" fill="white"/>
<path d="M315.29 166C315.301 166.064 315.325 166.124 315.36 166.179C315.395 166.233 315.44 166.28 315.493 166.316C315.556 166.359 315.627 166.389 315.701 166.404C315.776 166.419 315.852 166.418 315.927 166.402C316.048 166.37 316.153 166.297 316.226 166.195L316.309 166.079L317.573 164.312L340.522 132.315L404.878 42.5511C405.246 42.0424 405.783 41.6823 406.393 41.536C407.003 41.3898 407.645 41.4671 408.203 41.754L540.744 110.39L541.933 111.008C541.981 111.028 542.03 111.045 542.08 111.059C542.17 111.043 542.261 111.034 542.352 111.033C542.477 110.992 542.58 110.904 542.642 110.788C542.674 110.727 542.694 110.661 542.701 110.592C542.707 110.523 542.7 110.454 542.68 110.388C542.659 110.322 542.626 110.261 542.582 110.208C542.538 110.155 542.484 110.111 542.423 110.079L542.259 109.991L408.684 40.8195C407.901 40.4198 407.001 40.313 406.147 40.5185C405.292 40.7239 404.539 41.2281 404.024 41.9399L339.648 131.725L315.379 165.582C315.335 165.641 315.304 165.709 315.289 165.781C315.273 165.854 315.274 165.928 315.29 166Z" fill="#3F3D56"/>
<path d="M384.69 170.977L389.834 171.548L428.01 175.777L453.318 178.579L454.813 178.746L486.392 154.076L487.602 153.131L495.061 147.305L521.597 126.578L521.757 125.122L531.195 39.9213C531.324 38.7481 530.982 37.5718 530.245 36.6502C529.508 35.7285 528.435 35.1369 527.263 35.0048L401.298 21.049C400.125 20.9208 398.949 21.2628 398.027 22C397.106 22.7372 396.514 23.8095 396.382 24.9821L389.726 85.0805L386.033 118.4L382.73 148.209L381.199 162.052L380.753 166.062C380.625 167.235 380.968 168.412 381.706 169.333C382.444 170.254 383.517 170.845 384.69 170.977Z" fill="#A97474"/>
<path d="M419.306 96.2952L473.87 102.339L493.221 104.482C494.075 104.577 494.94 104.502 495.765 104.263C496.591 104.023 497.361 103.623 498.032 103.086C498.703 102.549 499.261 101.885 499.676 101.131C500.09 100.378 500.352 99.5508 500.447 98.6964C500.541 97.8419 500.467 96.9772 500.227 96.1516C499.988 95.326 499.588 94.5556 499.051 93.8845C498.514 93.2134 497.85 92.6547 497.096 92.2403C496.343 91.8259 495.516 91.5639 494.662 91.4692L470.594 88.8033L420.751 83.2758C419.026 83.0851 417.295 83.5877 415.939 84.6729C414.584 85.7582 413.715 87.3374 413.523 89.0633C413.332 90.7892 413.833 92.5205 414.918 93.8767C416.002 95.2328 417.581 96.1028 419.306 96.2952Z" fill="white"/>
<path d="M416.199 120.436C416.34 120.461 416.481 120.486 416.624 120.5L479.964 127.518L490.54 128.692C492.266 128.883 493.997 128.38 495.352 127.295C496.708 126.209 497.577 124.629 497.768 122.903C497.959 121.176 497.456 119.445 496.371 118.089C495.285 116.734 493.705 115.865 491.979 115.674L476.688 113.982L426.514 108.421L418.07 107.485C416.382 107.297 414.686 107.773 413.342 108.812C411.998 109.851 411.11 111.373 410.867 113.055C410.624 114.736 411.045 116.447 412.04 117.824C413.035 119.202 414.526 120.138 416.199 120.436Z" fill="white"/>
<path d="M409.03 141.841C409.549 142.703 410.26 143.434 411.107 143.976C411.954 144.519 412.915 144.859 413.915 144.97L439.876 147.845L486.113 152.969L486.124 152.966L487.602 153.131L495.061 147.305C495.107 146.862 495.107 146.416 495.062 145.974C494.905 144.487 494.245 143.099 493.192 142.039C492.139 140.979 490.755 140.311 489.27 140.144L482.847 139.43L457.368 136.61L439.035 134.576L415.355 131.952C414.141 131.817 412.914 132.025 411.812 132.552C410.711 133.078 409.778 133.902 409.12 134.931C408.462 135.96 408.105 137.152 408.089 138.373C408.074 139.594 408.399 140.796 409.03 141.841Z" fill="white"/>
<path d="M445.495 66.7872L459.071 68.2911L465.068 68.9571L474.126 69.9597C475.852 70.1507 477.583 69.648 478.938 68.5624C480.294 67.4767 481.163 65.8969 481.354 64.1706C481.545 62.4443 481.042 60.7128 479.957 59.3571C478.871 58.0014 477.292 57.1325 475.565 56.9415L446.941 53.7729C445.216 53.5811 443.485 54.0827 442.129 55.1674C440.773 56.2521 439.904 57.831 439.712 59.5568C439.52 61.2826 440.022 63.0139 441.106 64.3699C442.191 65.7258 443.77 66.5954 445.495 66.7872Z" fill="white"/>
<path d="M334.484 103.036L351.035 171.419L378.661 176.673L404.215 181.538L431.632 186.756L440.393 188.424C440.906 188.52 441.433 188.507 441.941 188.384C442.448 188.261 442.923 188.032 443.335 187.711L450.363 182.221L454.813 178.746L486.393 154.076L466.313 71.1183C466.115 70.293 465.682 69.5425 465.068 68.957C464.529 68.439 463.868 68.065 463.147 67.8696C462.425 67.6741 461.666 67.6635 460.939 67.8387L337.763 97.6615C336.616 97.94 335.626 98.6625 335.011 99.6702C334.397 100.678 334.207 101.889 334.484 103.036Z" fill="#7892EE"/>
<path d="M372.437 157.437C372.846 159.124 373.909 160.579 375.39 161.484C376.872 162.388 378.652 162.667 380.339 162.26L452.616 144.761C454.302 144.35 455.757 143.287 456.661 141.806C457.565 140.324 457.844 138.544 457.438 136.857C457.42 136.773 457.396 136.691 457.368 136.61C456.906 134.983 455.833 133.598 454.373 132.745C452.913 131.892 451.18 131.637 449.536 132.034L377.259 149.533C375.572 149.943 374.117 151.006 373.213 152.488C372.309 153.97 372.03 155.75 372.437 157.437Z" fill="white"/>
<path d="M378.66 176.673L404.214 181.538L458.346 168.432C460.033 168.024 461.489 166.962 462.394 165.479C463.298 163.997 463.577 162.216 463.168 160.529C462.76 158.841 461.698 157.385 460.215 156.48C458.733 155.576 456.953 155.297 455.265 155.706L382.988 173.205C381.478 173.568 380.147 174.46 379.238 175.719C379.019 176.02 378.825 176.339 378.66 176.673Z" fill="white"/>
<path d="M431.632 186.756L440.392 188.423C440.905 188.52 441.433 188.507 441.94 188.384C442.447 188.261 442.923 188.032 443.335 187.711L450.363 182.221L431.632 186.756Z" fill="white"/>
<path d="M387 120.769C387.41 122.456 388.472 123.911 389.954 124.815C391.435 125.72 393.215 125.999 394.903 125.592L422.897 118.814C424.583 118.403 426.038 117.34 426.942 115.859C427.846 114.377 428.125 112.598 427.719 110.91C427.501 110.003 427.09 109.154 426.514 108.421C425.739 107.431 424.696 106.684 423.508 106.27C422.321 105.856 421.039 105.792 419.817 106.087L391.822 112.865C390.135 113.274 388.679 114.336 387.775 115.818C386.87 117.301 386.592 119.081 387 120.769Z" fill="white"/>
<path d="M404.212 181.538L431.634 186.757L440.392 188.425C440.905 188.521 441.432 188.507 441.939 188.384C442.445 188.261 442.921 188.033 443.333 187.713L450.366 182.222L447.898 182.819L442.688 186.884C442.393 187.113 442.054 187.276 441.692 187.364C441.33 187.451 440.953 187.461 440.587 187.393L434.102 186.159L406.68 180.94L404.212 181.538ZM486.121 152.97L486.388 154.073L487.604 153.127L486.121 152.97ZM404.212 181.538L431.634 186.757L440.392 188.425C440.905 188.521 441.432 188.507 441.939 188.384C442.445 188.261 442.921 188.033 443.333 187.713L450.366 182.222L447.898 182.819L442.688 186.884C442.393 187.113 442.054 187.276 441.692 187.364C441.33 187.451 440.953 187.461 440.587 187.393L434.102 186.159L406.68 180.94L404.212 181.538ZM404.212 181.538L431.634 186.757L440.392 188.425C440.905 188.521 441.432 188.507 441.939 188.384C442.445 188.261 442.921 188.033 443.333 187.713L450.366 182.222L447.898 182.819L442.688 186.884C442.393 187.113 442.054 187.276 441.692 187.364C441.33 187.451 440.953 187.461 440.587 187.393L434.102 186.159L406.68 180.94L404.212 181.538ZM314.872 168.738L345.814 296.578C346.044 297.522 346.639 298.337 347.469 298.844C348.299 299.35 349.295 299.507 350.24 299.279L574.195 245.056C575.14 244.827 575.955 244.231 576.461 243.402C576.968 242.572 577.124 241.575 576.896 240.63L545.953 112.79C545.811 112.193 545.519 111.642 545.107 111.188C544.694 110.734 544.174 110.391 543.594 110.192C543.165 110.042 542.712 109.973 542.258 109.991C541.729 110.007 541.211 110.143 540.743 110.39C540.527 110.493 540.323 110.619 540.135 110.767L521.755 125.122L495.062 145.976L486.119 152.963L486.121 152.97L486.113 152.972L453.319 178.576L447.898 182.819L442.688 186.884C442.393 187.113 442.054 187.276 441.692 187.364C441.33 187.451 440.953 187.461 440.587 187.393L434.102 186.159L406.68 180.94L379.234 175.719L319.121 164.278C318.608 164.177 318.08 164.188 317.572 164.312C316.889 164.479 316.267 164.839 315.783 165.349C315.597 165.549 315.432 165.767 315.289 166C314.795 166.822 314.645 167.806 314.872 168.738ZM404.212 181.538L431.634 186.757L440.392 188.425C440.905 188.521 441.432 188.507 441.939 188.384C442.445 188.261 442.921 188.033 443.333 187.713L450.366 182.222L447.898 182.819L442.688 186.884C442.393 187.113 442.054 187.276 441.692 187.364C441.33 187.451 440.953 187.461 440.587 187.393L434.102 186.159L406.68 180.94L404.212 181.538ZM404.212 181.538L431.634 186.757L440.392 188.425C440.905 188.521 441.432 188.507 441.939 188.384C442.445 188.261 442.921 188.033 443.333 187.713L450.366 182.222L447.898 182.819L442.688 186.884C442.393 187.113 442.054 187.276 441.692 187.364C441.33 187.451 440.953 187.461 440.587 187.393L434.102 186.159L406.68 180.94L404.212 181.538ZM404.212 181.538L431.634 186.757L440.392 188.425C440.905 188.521 441.432 188.507 441.939 188.384C442.445 188.261 442.921 188.033 443.333 187.713L450.366 182.222L447.898 182.819L442.688 186.884C442.393 187.113 442.054 187.276 441.692 187.364C441.33 187.451 440.953 187.461 440.587 187.393L434.102 186.159L406.68 180.94L404.212 181.538Z" fill="white"/>
<path d="M404.212 181.538L431.634 186.757L440.392 188.425C440.905 188.521 441.432 188.507 441.939 188.384C442.445 188.261 442.921 188.033 443.333 187.713L450.366 182.222L447.898 182.819L442.688 186.884C442.393 187.113 442.054 187.276 441.692 187.364C441.33 187.451 440.953 187.461 440.587 187.393L434.102 186.159L406.68 180.941L404.212 181.538ZM486.121 152.97L486.388 154.073L487.604 153.127L486.121 152.97ZM404.212 181.538L431.634 186.757L440.392 188.425C440.905 188.521 441.432 188.507 441.939 188.384C442.445 188.261 442.921 188.033 443.333 187.713L450.366 182.222L447.898 182.819L442.688 186.884C442.393 187.113 442.054 187.276 441.692 187.364C441.33 187.451 440.953 187.461 440.587 187.393L434.102 186.159L406.68 180.941L404.212 181.538ZM404.212 181.538L431.634 186.757L440.392 188.425C440.905 188.521 441.432 188.507 441.939 188.384C442.445 188.261 442.921 188.033 443.333 187.713L450.366 182.222L447.898 182.819L442.688 186.884C442.393 187.113 442.054 187.276 441.692 187.364C441.33 187.451 440.953 187.461 440.587 187.393L434.102 186.159L406.68 180.941L404.212 181.538ZM316.309 166.079L316.445 166.181C316.467 166.144 316.507 166.111 316.537 166.071C316.84 165.756 317.217 165.52 317.634 165.386C318.05 165.252 318.494 165.223 318.924 165.303L378.662 176.668L404.212 181.538L431.634 186.757L440.392 188.425C440.905 188.521 441.432 188.507 441.939 188.384C442.445 188.261 442.921 188.033 443.333 187.713L450.366 182.222L447.898 182.819L442.688 186.884C442.393 187.113 442.054 187.276 441.692 187.364C441.33 187.451 440.953 187.461 440.587 187.393L434.102 186.159L406.68 180.941L379.234 175.72L319.121 164.278C318.608 164.177 318.08 164.188 317.572 164.312L316.309 166.079ZM314.872 168.738L345.814 296.578C346.044 297.523 346.639 298.338 347.469 298.844C348.299 299.35 349.295 299.507 350.24 299.279L574.195 245.056C575.14 244.827 575.955 244.232 576.461 243.402C576.968 242.572 577.124 241.575 576.896 240.63L545.953 112.79C545.811 112.193 545.519 111.642 545.107 111.188C544.694 110.734 544.174 110.392 543.594 110.192C543.165 110.042 542.712 109.974 542.258 109.991C541.729 110.007 541.211 110.143 540.743 110.39C540.527 110.493 540.323 110.619 540.135 110.768L521.755 125.122L495.062 145.976L486.119 152.963L486.121 152.97L486.113 152.972L453.319 178.576L447.898 182.819L442.688 186.884C442.393 187.113 442.054 187.276 441.692 187.364C441.33 187.451 440.953 187.461 440.587 187.393L434.102 186.159L406.68 180.941L379.234 175.72L319.121 164.278C318.608 164.177 318.08 164.188 317.572 164.312C316.889 164.479 316.267 164.839 315.783 165.349C315.597 165.549 315.432 165.767 315.289 166C314.795 166.822 314.645 167.806 314.872 168.738ZM315.892 168.491C315.801 168.114 315.795 167.722 315.875 167.343C315.955 166.963 316.118 166.606 316.354 166.298C316.375 166.253 316.406 166.213 316.445 166.181C316.467 166.144 316.507 166.111 316.537 166.071C316.84 165.756 317.217 165.52 317.634 165.386C318.05 165.252 318.494 165.223 318.924 165.303L378.662 176.668L404.212 181.538L431.634 186.757L440.392 188.425C440.905 188.521 441.432 188.507 441.939 188.384C442.445 188.261 442.921 188.033 443.333 187.713L450.366 182.222L454.814 178.746L486.388 154.073L487.604 153.127L495.057 147.304L521.599 126.574L540.786 111.587C541.078 111.359 541.415 111.197 541.774 111.109C541.875 111.085 541.977 111.068 542.08 111.059C542.17 111.043 542.26 111.034 542.352 111.033C542.658 111.03 542.963 111.08 543.253 111.18C543.667 111.324 544.038 111.569 544.332 111.893C544.627 112.217 544.836 112.61 544.94 113.035L575.883 240.875C575.965 241.21 575.979 241.558 575.926 241.898C575.873 242.239 575.753 242.566 575.574 242.86C575.394 243.154 575.158 243.41 574.88 243.613C574.601 243.816 574.285 243.963 573.95 244.043L349.995 298.266C349.32 298.429 348.607 298.316 348.014 297.953C347.422 297.59 346.997 297.007 346.835 296.331L315.892 168.491ZM404.212 181.538L431.634 186.757L440.392 188.425C440.905 188.521 441.432 188.507 441.939 188.384C442.445 188.261 442.921 188.033 443.333 187.713L450.366 182.222L447.898 182.819L442.688 186.884C442.393 187.113 442.054 187.276 441.692 187.364C441.33 187.451 440.953 187.461 440.587 187.393L434.102 186.159L406.68 180.941L404.212 181.538ZM404.212 181.538L431.634 186.757L440.392 188.425C440.905 188.521 441.432 188.507 441.939 188.384C442.445 188.261 442.921 188.033 443.333 187.713L450.366 182.222L447.898 182.819L442.688 186.884C442.393 187.113 442.054 187.276 441.692 187.364C441.33 187.451 440.953 187.461 440.587 187.393L434.102 186.159L406.68 180.941L404.212 181.538ZM404.212 181.538L431.634 186.757L440.392 188.425C440.905 188.521 441.432 188.507 441.939 188.384C442.445 188.261 442.921 188.033 443.333 187.713L450.366 182.222L447.898 182.819L442.688 186.884C442.393 187.113 442.054 187.276 441.692 187.364C441.33 187.451 440.953 187.461 440.587 187.393L434.102 186.159L406.68 180.941L404.212 181.538Z" fill="#3F3D56"/>
<path d="M203.453 196.199C207.323 196.199 210.459 193.061 210.459 189.192C210.459 185.322 207.323 182.184 203.453 182.184C199.584 182.184 196.447 185.322 196.447 189.192C196.447 193.061 199.584 196.199 203.453 196.199Z" fill="white"/>
</svg>
