<svg 
	id="Layer_1" 
	xmlns="http://www.w3.org/2000/svg" 
	x="0px"
	y="0px"
	fill="black"
	viewBox="0 0 512 512" >
	<g>
		<path d="M129.8,213.9c54.3,0,98.3,44,98.3,98.3s-44,98.3-98.3,98.3s-98.3-44-98.3-98.3l-0.4-14c0-108.6,88.1-196.7,196.7-196.7
			v56.2c-37.5,0-72.8,14.6-99.4,41.1c-5.1,5.1-9.8,10.5-14,16.2C119.4,214.2,124.5,213.8,129.8,213.9L129.8,213.9z M382.7,213.9
			c54.3,0,98.3,44,98.3,98.3s-44,98.3-98.3,98.3s-98.3-44-98.3-98.3l-0.4-14c0-108.6,88.1-196.7,196.7-196.7v56.2
			c-37.5,0-72.8,14.6-99.4,41.1c-5.1,5.1-9.8,10.5-14,16.2C372.3,214.2,377.4,213.8,382.7,213.9L382.7,213.9z"/>
	</g>
</svg>
