<svg width="454" height="232" viewBox="0 0 454 232" fill="none" xmlns="http://www.w3.org/2000/svg">
<path d="M372.639 207.558H91.8772C89.2679 207.558 87.1453 205.436 87.1453 202.827C87.1453 200.219 89.2679 198.097 91.8772 198.097H372.639C375.248 198.097 377.371 200.219 377.371 202.827C377.371 205.436 375.248 207.558 372.639 207.558Z" fill="#A97474"/>
<path d="M310.335 232H154.181C151.572 232 149.449 229.878 149.449 227.269C149.449 224.661 151.572 222.539 154.181 222.539H310.335C312.944 222.539 315.067 224.661 315.067 227.269C315.067 229.878 312.944 232 310.335 232V232Z" fill="#A97474"/>
<path d="M123.121 42.5576L140.815 35.1128L148.405 50.6673L129.81 58.2549L123.121 42.5576Z" fill="#FFB6B6"/>
<path opacity="0.1" d="M123.121 42.5576L140.815 35.1128L148.405 50.6673L129.81 58.2549L123.121 42.5576Z" fill="black"/>
<path d="M125.636 36.6303L143.092 56.7374C143.092 56.7374 130.949 95.0547 118.805 98.4691C106.662 101.884 84.2728 118.576 84.2728 118.576L56.1914 100.366L69.8526 80.2589C69.8526 80.2589 102.867 35.1128 111.595 35.1128C120.323 35.1128 125.636 36.6303 125.636 36.6303V36.6303Z" fill="#7283E0"/>
<path d="M102.051 167.706H61.4168L58.8477 164.272L48.359 150.254L45.9455 147.03C45.9455 147.03 36.838 130.337 38.7354 115.162C40.6328 99.9867 60.3656 96.5723 60.3656 96.5723H61.1777L85.3353 117.795L83.8933 137.545L91.5436 150.254L102.051 167.706V167.706Z" fill="#2F2E41"/>
<path d="M69.7389 167.706H58.8479V151.582L69.7389 167.706Z" fill="#2F2E41"/>
<path d="M369.119 54.9291L373.181 80.2603L347.516 80.5912V58.5679L369.119 54.9291Z" fill="#FFB6B6"/>
<path d="M352.162 76.4082C351.462 75.2286 348.433 76.4916 347.877 75.4211C347.322 74.3544 350.135 72.7291 351.743 69.0163C352.033 68.3467 353.859 64.1273 352.507 62.8254C349.944 60.3576 338.215 70.5417 334.11 67.209C333.209 66.4776 332.58 65.0175 329.853 62.6469C328.768 61.7038 328.113 61.278 327.478 61.4364C326.577 61.6612 326.506 62.8659 325.54 65.2347C324.092 68.7871 323.235 68.5726 322.391 71.4068C321.765 73.5108 321.908 74.734 321.171 74.9723C320.127 75.3096 319.167 73.0779 317.845 73.2777C316.496 73.4817 315.681 76.08 315.423 78.0255C314.94 81.6763 316.281 84.0854 317.025 86.6185C317.833 89.3714 318.312 93.5579 316.446 99.4845L297.977 151.492C302.054 140.82 313.861 111.566 318.821 100.695C320.254 97.5567 321.835 94.3735 325.082 93.1172C328.208 91.9077 332.501 92.6298 337.974 91.3121C338.613 91.1582 340.387 90.7071 340.61 89.6644C340.795 88.8024 339.751 88.3212 339.912 87.5138C340.127 86.4309 342.178 86.4176 344.7 85.1681C346.478 84.2871 347.585 83.2393 348.538 82.3382C348.825 82.0666 353.093 77.9785 352.162 76.4082H352.162L352.162 76.4082Z" fill="#5C9553"/>
<path d="M279.498 103.787C278.717 103.79 278.463 105.64 277.777 105.604C277.093 105.569 277.107 103.72 275.747 101.86C275.502 101.524 273.957 99.4109 272.928 99.6986C270.976 100.244 272.593 108.936 269.772 109.988C269.153 110.219 268.254 110.106 266.304 110.76C265.527 111.019 265.129 111.218 265.024 111.575C264.874 112.082 265.445 112.465 266.33 113.622C267.656 115.357 267.304 115.716 268.452 116.947C269.305 117.862 269.947 118.144 269.851 118.575C269.716 119.184 268.343 119.011 268.059 119.717C267.77 120.438 268.811 121.587 269.692 122.275C271.346 123.566 272.916 123.603 274.374 123.969C275.959 124.367 278.153 125.339 280.526 127.965L300.737 152.03C296.672 146.951 285.713 132.719 281.805 127.149C280.677 125.541 279.57 123.847 279.89 121.892C280.198 120.009 281.792 118.112 282.724 115.047C282.833 114.689 283.123 113.689 282.675 113.278C282.305 112.939 281.768 113.312 281.418 113C280.948 112.582 281.533 111.572 281.647 109.975C281.727 108.849 281.532 108.003 281.365 107.276C281.314 107.057 280.538 103.783 279.498 103.787V103.787V103.787Z" fill="#5C9553"/>
<path d="M295.084 107.284L294.614 103.084L294.829 102.766C295.824 101.294 296.331 99.8563 296.337 98.4916C296.338 98.2746 296.328 98.0577 296.318 97.8366C296.277 96.9607 296.227 95.8718 296.795 94.6024C297.113 93.8948 298.008 92.2564 299.353 92.4591C299.715 92.5098 299.989 92.6761 300.197 92.8707C300.228 92.8221 300.259 92.7734 300.293 92.7207C300.712 92.082 301.043 91.8082 301.363 91.5446C301.608 91.3418 301.862 91.133 302.26 90.6382C302.434 90.4213 302.57 90.2307 302.685 90.0705C303.033 89.5858 303.487 89.0079 304.288 89.0181C305.145 89.0586 305.593 89.7663 305.89 90.2347C306.421 91.0701 306.661 91.6724 306.821 92.0718C306.878 92.2178 306.944 92.382 306.978 92.4327C307.254 92.8383 309.497 92.4591 310.342 92.3212C312.24 92.0049 313.882 91.7311 314.559 92.9275C315.044 93.7832 314.684 94.9147 313.456 96.3807C313.074 96.837 312.667 97.1837 312.306 97.4554C312.605 97.6339 312.873 97.9076 312.981 98.3375C313.237 99.3554 312.361 100.375 310.38 101.373C309.888 101.622 309.226 101.955 308.298 102.115C307.86 102.19 307.467 102.208 307.13 102.219C307.123 102.413 307.077 102.624 306.959 102.841C306.611 103.48 305.886 103.784 304.795 103.711C303.594 103.648 302.605 103.419 301.732 103.218C300.97 103.044 300.314 102.896 299.799 102.93C298.843 103.007 298.107 103.772 297.242 104.763L295.085 107.284H295.084V107.284Z" fill="#5C9553"/>
<path d="M297.268 82.2804L293.323 83.8006L292.96 83.6735C291.283 83.0848 289.763 82.9591 288.44 83.2994C288.23 83.3534 288.023 83.4183 287.811 83.4841C286.974 83.7456 285.933 84.0708 284.56 83.8436C283.795 83.7151 281.982 83.2657 281.837 81.9139C281.794 81.5509 281.886 81.2439 282.021 80.9935C281.966 80.9765 281.911 80.9584 281.852 80.9394C281.127 80.6964 280.778 80.4451 280.442 80.2031C280.184 80.0172 279.917 79.825 279.337 79.566C279.083 79.4524 278.864 79.3693 278.68 79.2991C278.123 79.0857 277.448 78.7929 277.255 78.0156C277.077 77.1776 277.648 76.5646 278.026 76.1584C278.7 75.4336 279.222 75.0484 279.568 74.7931C279.695 74.7002 279.837 74.5948 279.877 74.5496C280.2 74.18 279.264 72.1078 278.916 71.3259C278.129 69.5712 277.447 68.0529 278.433 67.0953C279.139 66.4095 280.325 66.4706 282.055 67.2854C282.594 67.5394 283.033 67.8447 283.387 68.1249C283.484 67.7904 283.681 67.462 284.07 67.2481C284.99 66.7427 286.199 67.3304 287.667 68.9926C288.033 69.405 288.523 69.961 288.914 70.8177C289.097 71.2214 289.215 71.5973 289.31 71.9203C289.5 71.8778 289.716 71.8685 289.956 71.9282C290.663 72.1025 291.141 72.7256 291.347 73.7994C291.591 74.9765 291.62 75.9908 291.647 76.8851C291.671 77.6658 291.694 78.3379 291.859 78.8273C292.176 79.7316 293.102 80.2497 294.281 80.8338L297.268 82.2804L297.268 82.2804V82.2804Z" fill="#5C9553"/>
<path d="M295.084 69.9087L294.614 65.7093L294.829 65.3909C295.824 63.9188 296.331 62.4811 296.337 61.1165C296.338 60.8995 296.328 60.6825 296.318 60.4615C296.277 59.5856 296.227 58.4967 296.795 57.2273C297.113 56.5196 298.008 54.8812 299.353 55.084C299.715 55.1347 299.989 55.301 300.197 55.4956C300.228 55.447 300.259 55.3983 300.293 55.3456C300.712 54.7068 301.043 54.4331 301.363 54.1695C301.608 53.9667 301.862 53.7579 302.26 53.2631C302.434 53.0462 302.57 52.8555 302.685 52.6954C303.033 52.2107 303.487 51.6328 304.288 51.643C305.145 51.6835 305.593 52.3912 305.89 52.8596C306.421 53.695 306.661 54.2973 306.821 54.6967C306.878 54.8427 306.944 55.0069 306.978 55.0576C307.254 55.4632 309.497 55.084 310.342 54.9461C312.24 54.6298 313.882 54.356 314.559 55.5524C315.044 56.4081 314.684 57.5396 313.456 59.0056C313.074 59.4619 312.667 59.8086 312.306 60.0803C312.605 60.2588 312.873 60.5325 312.981 60.9624C313.237 61.9803 312.361 63.0003 310.38 63.9979C309.888 64.2473 309.226 64.5799 308.298 64.7401C307.86 64.8151 307.467 64.8333 307.13 64.8435C307.123 65.0381 307.077 65.249 306.959 65.466C306.611 66.1047 305.886 66.4089 304.795 66.3359C303.594 66.273 302.605 66.0439 301.732 65.8431C300.97 65.6688 300.314 65.5207 299.799 65.5552C298.843 65.6322 298.107 66.3967 297.242 67.3883L295.085 69.9087H295.084V69.9087Z" fill="#5C9553"/>
<path d="M299.383 151.423L298.503 150.872L298.29 149.856L298.503 150.872L297.476 150.989C297.46 150.894 297.404 150.675 297.32 150.333C296.86 148.455 295.459 142.741 294.291 133.742C293.475 127.46 293.014 121.001 292.918 114.543C292.823 108.075 293.129 103.178 293.375 99.242C293.56 96.2734 293.786 93.4467 294.007 90.693C294.595 83.3364 295.15 76.3875 294.737 68.6943C294.646 66.9768 294.454 63.4019 292.364 59.5979C291.152 57.3917 289.482 55.4329 287.401 53.7783L288.695 52.1521C290.993 53.9811 292.84 56.1508 294.186 58.6003C296.503 62.818 296.712 66.7132 296.813 68.5848C297.233 76.4139 296.672 83.4298 296.077 90.8573C295.858 93.6009 295.633 96.4153 295.448 99.3718C295.205 103.271 294.901 108.125 294.996 114.511C295.089 120.892 295.546 127.271 296.35 133.474C297.504 142.36 298.885 147.988 299.339 149.838C299.58 150.825 299.631 151.032 299.383 151.423V151.423H299.383Z" fill="#5C9553"/>
<path d="M283.591 57.0774C283.506 57.0774 283.419 57.0754 283.332 57.0693C281.563 56.974 279.925 55.9155 278.462 53.9243C277.776 52.9875 277.425 51.9189 276.725 49.7877C276.616 49.4592 276.089 47.7925 275.768 45.4991C275.558 44.0006 275.585 43.374 275.882 42.8205C276.212 42.204 276.745 41.7742 277.346 41.4842C277.319 41.2855 277.341 41.0807 277.427 40.8718C277.781 40.006 278.722 40.1196 279.232 40.1743C279.489 40.2067 279.811 40.2493 280.158 40.2311C280.704 40.2047 280.997 40.0425 281.441 39.7991C281.866 39.566 282.395 39.276 283.179 39.1158C284.725 38.7934 286.02 39.2314 286.447 39.3753C288.694 40.1236 289.802 41.8695 291.084 43.8911C291.34 44.2966 292.218 45.7728 292.797 47.7965C293.215 49.2564 293.156 49.9053 293.03 50.3879C292.774 51.3795 292.171 51.9472 290.638 53.2004C289.037 54.5123 288.234 55.1693 287.544 55.5688C285.938 56.4954 284.93 57.0774 283.591 57.0774V57.0774V57.0774Z" fill="#5C9553"/>
<path opacity="0.1" d="M369.119 54.9291L373.181 80.2603L347.516 80.5912V58.5679L369.119 54.9291Z" fill="black"/>
<path d="M430.251 143.228L428.896 150.254L425.534 167.706H357.99C358.518 163.794 359.239 158.164 360.009 152.087C360.085 151.48 360.165 150.869 360.241 150.254C362.172 134.977 364.286 117.688 364.286 117.688L373.166 118.766L390.394 120.853L397.414 121.702L416.214 123.982C425.587 125.117 432.034 133.956 430.251 143.228V143.228Z" fill="#F2F2F2"/>
<path d="M304.643 143.228L303.289 150.254L299.927 167.706H232.383C232.911 163.794 233.632 158.164 234.402 152.087C234.478 151.48 234.558 150.869 234.634 150.254C236.565 134.977 238.679 117.688 238.679 117.688L247.559 118.766L264.787 120.853L271.807 121.702L290.607 123.982C299.98 125.117 306.427 133.956 304.643 143.228V143.228Z" fill="#F2F2F2"/>
<path d="M400.23 167.706H363.595C364.153 167.049 364.468 166.67 364.468 166.67L375.45 164.857L398.079 161.124C398.079 161.124 399.111 163.791 400.23 167.706V167.706Z" fill="#2F2E41"/>
<path d="M349.832 167.706H294.508C295.058 166.613 295.627 165.517 296.211 164.424C296.993 162.964 297.828 161.662 298.712 160.505C299.3 159.735 299.908 159.029 300.534 158.384C302.374 156.491 304.378 155.114 306.488 154.17C314.02 150.782 322.896 152.857 330.456 156.233C333.294 157.501 335.947 158.95 338.273 160.361C342.371 162.85 345.464 165.225 346.781 166.279C347.236 166.64 347.479 166.848 347.479 166.848L349.832 167.706V167.706Z" fill="#2F2E41"/>
<path d="M305.941 167.706H298.094L300.162 165.304L301.33 163.946L301.831 164.352L305.941 167.706Z" fill="#FFB6B6"/>
<path d="M402.909 167.706H335.332L338.273 160.361L342.314 150.254L344.345 145.178L342.667 138.042C342.667 138.042 341.84 137.458 340.58 136.407C336.091 132.689 326.099 123.114 328.395 113.28C331.006 102.088 334.285 80.2779 334.979 75.5773C335.066 74.9893 335.112 74.6706 335.112 74.6706L344.864 72.2805L345.187 72.2009L346.234 71.9429H372.358L391.571 84.9518L391.567 85.0884L390.394 120.852L389.893 136.153C389.893 136.153 389.29 138.361 389.434 141.79C389.529 144.143 389.973 147.068 391.202 150.254C392.504 153.642 394.694 157.322 398.287 160.915C401.001 163.627 402.317 165.911 402.909 167.706V167.706Z" fill="#7283E0"/>
<path d="M397.414 121.702C396.773 126.961 396.158 130.697 396.158 130.697L389.434 141.79L384.303 150.254L375.45 164.857L374.152 167L373.226 167.706H345.452L346.781 166.279L360.009 152.087L361.721 150.254L364.495 147.276L373.166 118.766L383.385 85.1643C383.385 85.1643 387.525 83.7227 391.567 85.0884C393.692 85.8055 395.794 87.3002 397.24 90.1987C400.006 95.73 398.659 111.55 397.414 121.702V121.702Z" fill="#7283E0"/>
<path d="M348.557 120.784L340.58 136.407L333.51 150.254L330.456 156.233L329.253 158.593L318.942 167.706H295.597L299.445 162.926L300.875 161.143L306.488 154.17L309.637 150.254L318.187 139.624L320.467 91.2085C320.846 83.1783 326.966 76.6868 334.931 75.5854C334.948 75.583 334.964 75.5803 334.979 75.5773C337.567 75.0576 341.681 74.9059 344.864 77.9826C344.974 78.0851 345.081 78.1951 345.187 78.3089C345.722 78.8742 346.227 79.5381 346.69 80.3158C346.735 80.3917 346.781 80.4714 346.822 80.5511C346.955 80.7938 347.084 81.0594 347.202 81.3439C351.266 90.8057 348.557 120.784 348.557 120.784L348.557 120.784Z" fill="#7283E0"/>
<path d="M244.835 50.1458L260.767 72.6711L232.977 73.5008L229.994 52.3323L244.835 50.1458Z" fill="#A0616A"/>
<path opacity="0.1" d="M244.835 50.1458L260.767 72.6711L232.977 73.5008L229.994 52.3323L244.835 50.1458Z" fill="black"/>
<path d="M166.266 96.8166C164.222 90.921 159.522 87.1967 155.769 88.4979C152.017 89.7991 150.633 95.6325 152.678 101.53C153.463 103.897 154.804 106.042 156.588 107.784L165.565 132.655L177.149 128.195L167.069 104.15C167.391 101.677 167.116 99.1619 166.266 96.8166V96.8166Z" fill="#A0616A"/>
<path d="M274.11 85.3389L274.088 108.295L271.951 116.774L267.557 134.214L264.358 150.254L261.975 162.205L261.125 166.473C260.483 166.902 259.846 167.311 259.208 167.706H203.702C200.549 165.813 198.784 164.341 198.784 164.341C198.784 164.341 199.657 163.521 200.655 162.205C202.34 159.982 204.378 156.34 203.129 152.861C202.867 152.132 202.799 151.245 202.879 150.254C203.387 143.722 210.241 132.674 210.241 132.674L208.821 116.277L208.199 109.092L212.587 74.0559L226.889 65.7438L229.359 65.5049L253.733 64.1885L263.807 64.7689L264.266 64.8941L274.11 85.3389L274.11 85.3389Z" fill="#CCCCCC"/>
<path d="M217.753 79.7895L212.208 74.0554C212.208 74.0554 200.337 79.4056 199.745 82.3738C199.154 85.3421 178.194 128.938 178.194 128.938L169.076 104.59L157.206 112.512C157.206 112.512 166.73 150.314 175.637 152.088C184.544 153.863 214.397 107.347 214.397 107.347L217.753 79.7895H217.753Z" fill="#CCCCCC"/>
<path d="M355.517 66.2033C365.707 66.2033 373.968 57.9449 373.968 47.7577C373.968 37.5704 365.707 29.312 355.517 29.312C345.327 29.312 337.067 37.5704 337.067 47.7577C337.067 57.9449 345.327 66.2033 355.517 66.2033Z" fill="#FFB6B6"/>
<path d="M363.168 55.0097C363.168 55.0097 361.255 49.7415 360.171 47.0077C359.086 44.274 359.793 40.7264 359.793 40.7264C359.793 40.7264 345.32 37.5326 339.653 40.6982C333.985 43.8638 333.604 27.9414 339.356 23.6079C339.356 23.6079 340.896 26.2843 340.299 27.0538L339.701 27.8233C339.701 27.8233 344.054 18.6199 351.404 18.1592C351.404 18.1592 354.888 20.9383 353.575 21.8557C352.262 22.773 363.256 16.6699 365.168 21.9382C365.168 21.9382 372.178 23.1867 370.812 25.5803L370.927 27.2323C370.927 27.2323 377.28 26.5729 376.828 31.0737C376.828 31.0737 374.69 30.6479 373.323 31.5603C371.956 32.4727 376.575 36.7992 376.575 36.7992C376.575 36.7992 379.351 54.8278 369.724 60.0185C369.724 60.0185 371.286 51.814 367.611 53.1552C363.937 54.4965 363.168 55.0097 363.168 55.0097V55.0097Z" fill="#2F2E41"/>
<path d="M442.915 172.157H11.0849C4.97267 172.157 0 167.185 0 161.075C0 154.964 4.97267 149.993 11.0849 149.993H442.915C449.027 149.993 454 154.964 454 161.075C454 167.185 449.027 172.157 442.915 172.157Z" fill="#A97474"/>
<path d="M271.583 116.213L270.743 155.382C270.662 159.174 267.564 162.205 263.77 162.205H191.699C187.996 162.205 184.938 159.31 184.736 155.613L182.594 116.445C182.375 112.45 185.556 109.092 189.558 109.092H264.61C268.52 109.092 271.666 112.305 271.583 116.213V116.213Z" fill="#3F3D56"/>
<path d="M428.187 116.213L427.348 155.382C427.266 159.174 424.169 162.205 420.375 162.205H348.304C344.6 162.205 341.543 159.31 341.34 155.613L339.199 116.445C338.98 112.45 342.161 109.092 346.162 109.092H421.215C425.125 109.092 428.271 112.305 428.187 116.213V116.213Z" fill="#3F3D56"/>
<path d="M155.235 52.0125C164.758 52.0125 172.478 44.2944 172.478 34.7738C172.478 25.2531 164.758 17.535 155.235 17.535C145.712 17.535 137.992 25.2531 137.992 34.7738C137.992 44.2944 145.712 52.0125 155.235 52.0125Z" fill="#FFB6B6"/>
<path d="M126.395 79.8795L128.292 100.366L141.195 152.341L130.048 156.247L111.216 99.6072L108.615 76.8445L126.395 79.8795Z" fill="#FFB6B6"/>
<path d="M121.263 116.213L120.423 155.382C120.342 159.174 117.244 162.205 113.451 162.205H41.3796C37.6758 162.205 34.618 159.31 34.4159 155.613L32.274 116.445C32.0556 112.45 35.2365 109.092 39.2378 109.092H114.29C118.2 109.092 121.346 112.305 121.263 116.213H121.263Z" fill="#3F3D56"/>
<path d="M143.249 162.47C150.77 162.47 156.867 159.774 156.867 156.448C156.867 153.122 150.77 150.426 143.249 150.426C135.728 150.426 129.631 153.122 129.631 156.448C129.631 159.774 135.728 162.47 143.249 162.47Z" fill="#FFB6B6"/>
<path d="M99.6418 83.0117L107.421 41.5622C107.421 41.5622 129.051 38.5272 129.81 45.7354C130.569 52.9436 129.268 88.1711 129.268 88.1711L99.6418 83.0117V83.0117Z" fill="#7283E0"/>
<path d="M148.275 37.4843C148.275 37.4843 158.941 33.6784 163.441 31.6306C167.94 29.5829 176.879 43.8659 177.078 36.3226C177.277 28.7792 174.188 25.6159 174.188 25.6159C174.188 25.6159 173.417 9.11377 156.787 11.1769C156.787 11.1769 160.445 2.92074 148.438 1.64407C136.431 0.367403 117.751 29.3549 119.424 33.6869C121.096 38.0189 123.102 41.6004 118.356 46.2323C113.609 50.8642 104.722 77.0053 111.484 84.0397C118.246 91.0741 118.69 94.1266 114.057 98.5029C109.424 102.879 98.4724 112.395 110.313 114.047C122.154 115.699 109.23 114.465 118.057 106.702C126.885 98.9396 139.766 99.2567 134.956 86.8021C130.147 74.3476 138.503 56.5003 137.457 53.7928C136.412 51.0853 139.8 33.8924 139.8 33.8924C139.8 33.8924 147.685 32.7342 148.275 37.4843V37.4843Z" fill="#2F2E41"/>
<path d="M275.192 167.706H263.049L262.514 162.205L262.502 162.095L265.94 161.86L274.885 161.249L275.04 164.542L275.162 167.068L275.192 167.706Z" fill="#FFB6B6"/>
<path d="M278.181 90.8892L283.282 120.811L279.12 150.254L278.471 154.837L277.325 162.929L276.972 165.418L276.983 165.688L277.07 167.706H262.65L262.119 162.205L262.073 161.712L260.988 150.444L260.969 150.254L258.666 126.361L263.182 109.092L263.516 107.821V107.817L265.48 78.2482L263.959 64.8107L263.943 64.6854C263.974 64.7044 264 64.7234 264.031 64.7423C264.11 64.7917 264.19 64.841 264.266 64.8941C273.131 70.5165 278.413 80.3804 278.181 90.8892V90.8892Z" fill="#CCCCCC"/>
<path d="M236.317 58.2988C246.684 58.2988 255.087 49.8971 255.087 39.5332C255.087 29.1692 246.684 20.7676 236.317 20.7676C225.95 20.7676 217.546 29.1692 217.546 39.5332C217.546 49.8971 225.95 58.2988 236.317 58.2988Z" fill="#A0616A"/>
<path d="M237.815 14.3041C237.272 14.6211 236.544 14.1415 236.37 13.5374C236.196 12.9332 236.399 12.2917 236.6 11.696L237.613 8.69715C238.331 6.57027 239.093 4.36907 240.649 2.75024C242.997 0.306873 246.728 -0.314708 250.087 0.135605C254.401 0.713898 258.657 3.04909 260.663 6.91062C262.668 10.7722 261.815 16.1604 258.19 18.5696C263.356 24.4883 265.156 31.0846 264.872 38.9342C264.588 46.7839 256.031 54.0081 250.451 59.5379C249.205 58.7827 248.072 55.2437 248.758 53.958C249.443 52.6723 248.461 51.1829 249.31 49.9986C250.158 48.8144 250.868 50.7 250.01 49.5225C249.469 48.7795 251.582 47.0701 250.777 46.6254C246.885 44.4744 245.59 39.6239 243.146 35.9096C240.197 31.4294 235.15 28.3953 229.809 27.892C226.867 27.6147 223.76 28.1169 221.348 29.8245C218.937 31.5321 217.376 34.5835 217.935 37.4845C216.487 36.0143 215.766 33.8599 216.038 31.8145C216.309 29.7691 217.568 27.8777 219.35 26.8368C218.267 23.2544 219.195 19.1337 221.71 16.3615C224.225 13.5894 234.427 14.0615 238.099 14.7911L237.815 14.3041V14.3041Z" fill="#2F2E41"/>
<path d="M238.385 28.0007C243.248 28.5256 246.759 32.737 249.724 36.6262C251.433 38.8678 253.223 41.3434 253.18 44.1616C253.137 47.0108 251.232 49.4547 250.321 52.1549C248.832 56.5685 250.283 61.8197 253.826 64.8439C250.325 65.5081 246.54 62.8836 245.936 59.3724C245.232 55.2849 248.332 51.3399 247.964 47.2087C247.641 43.569 244.772 40.7678 242.333 38.0464C239.894 35.325 237.603 31.7138 238.725 28.2362L238.385 28.0007V28.0007Z" fill="#2F2E41"/>
</svg>
