<svg viewBox="0 0 261 213" fill="none" xmlns="http://www.w3.org/2000/svg">
<path d="M77.1314 133.673C77.2247 133.04 77.1777 132.394 76.994 131.78C76.8102 131.167 76.494 130.601 76.0677 130.123C75.6414 129.645 75.1153 129.266 74.5266 129.013C73.9378 128.76 73.3007 128.639 72.6601 128.658L44.5807 100.294L39.0337 108.042L68.379 133.486C68.4832 134.559 68.9778 135.557 69.769 136.29C70.5602 137.023 71.5931 137.441 72.672 137.464C73.7508 137.487 74.8006 137.114 75.6225 136.415C76.4444 135.717 76.9813 134.741 77.1314 133.673V133.673Z" fill="#FFB8B8"/>
<path d="M63.8304 117.295L56.6636 124.448C56.3203 124.788 55.8568 124.98 55.373 124.982C54.8893 124.984 54.4242 124.796 54.0782 124.458L34.4943 105.222C33.8172 104.557 33.2788 103.765 32.9103 102.89C32.5418 102.016 32.3504 101.077 32.3472 100.129C32.344 99.1801 32.5292 98.2403 32.8919 97.3635C33.2546 96.4868 33.7876 95.6906 34.4603 95.0209C35.1329 94.3513 35.9318 93.8216 36.8106 93.4623C37.6895 93.1031 38.6309 92.9214 39.5804 92.928C40.53 92.9345 41.4688 93.129 42.3426 93.5003C43.2164 93.8716 44.0079 94.4123 44.6713 95.0911L63.8467 114.716C64.1829 115.062 64.3695 115.526 64.3665 116.009C64.3634 116.491 64.1709 116.953 63.8304 117.295V117.295Z" fill="#7283E0"/>
<path d="M38.6958 82.1885C44.2316 82.1885 48.7193 77.7051 48.7193 72.1745C48.7193 66.644 44.2316 62.1605 38.6958 62.1605C33.16 62.1605 28.6724 66.644 28.6724 72.1745C28.6724 77.7051 33.16 82.1885 38.6958 82.1885Z" fill="#FFB8B8"/>
<path d="M4.82666 192.176L7.36466 196.484L25.2037 188.754L21.4577 182.396L4.82666 192.176Z" fill="#FFB8B8"/>
<path d="M5.58735 190.25L10.5855 198.733L10.5857 198.734C11.004 199.444 11.2782 200.229 11.3927 201.045C11.5072 201.861 11.4597 202.691 11.253 203.489C11.0462 204.286 10.6843 205.035 10.1878 205.693C9.6913 206.351 9.06998 206.904 8.35932 207.322L8.18346 207.426L0 193.536L5.58735 190.25Z" fill="#2F2E41"/>
<path d="M34.2332 207.695H39.2366L41.6167 188.415L34.2324 188.415L34.2332 207.695Z" fill="#FFB8B8"/>
<path d="M32.957 206.063L42.8102 206.063H42.8106C43.6352 206.063 44.4518 206.225 45.2136 206.54C45.9755 206.856 46.6677 207.318 47.2508 207.9C47.8339 208.483 48.2964 209.174 48.612 209.936C48.9275 210.697 49.0899 211.512 49.0899 212.336V212.54L32.9573 212.541L32.957 206.063Z" fill="#2F2E41"/>
<path d="M14.119 196.014C13.831 196.014 13.5471 195.947 13.2902 195.817C13.0332 195.687 12.8105 195.499 12.64 195.267L7.81469 188.719C7.66749 188.52 7.56234 188.292 7.50561 188.051C7.44889 187.809 7.44176 187.559 7.48465 187.315C7.52755 187.07 7.61958 186.837 7.75519 186.63C7.89079 186.422 8.06715 186.244 8.27361 186.106L29.7456 171.778L16.7897 137.744L44.4956 140.028L45.4288 169.275C45.5163 171.939 44.8773 174.576 43.5801 176.905C42.2829 179.233 40.3763 181.166 38.0644 182.495L15.0365 195.768C14.7577 195.929 14.4412 196.014 14.119 196.014V196.014Z" fill="#2F2E41"/>
<path d="M34.3849 203.781C33.9097 203.78 33.4534 203.595 33.1118 203.265C32.7702 202.936 32.5699 202.486 32.553 202.012L31.5376 173.52L44.1106 172.858L43.1095 201.555C43.0948 202.009 42.911 202.442 42.5942 202.769C42.2773 203.095 41.85 203.292 41.3956 203.321L34.5097 203.777C34.4679 203.78 34.4263 203.781 34.3849 203.781Z" fill="#2F2E41"/>
<path d="M47.7016 145.686C44.5028 145.686 33.3296 142.091 29.4507 140.81C28.8704 141.274 25.6826 143.655 21.9616 143.22C19.6656 142.951 17.6443 141.652 15.9539 139.361C12.2209 134.299 16.8315 112.593 21.3568 95.2756C22.264 91.7751 24.4942 88.7623 27.5787 86.8706C30.6632 84.9788 34.3617 84.3555 37.8967 85.1315V85.1315C40.4588 85.6966 42.8124 86.9643 44.6931 88.7921C46.5738 90.6199 47.9071 92.9355 48.5431 95.4786C49.3951 98.9434 48.6622 103.019 48.1271 105.995C47.8755 107.394 47.6767 108.5 47.7447 109.043C48.0073 111.142 49.4664 144.063 48.5282 145.468C48.4283 145.618 48.1393 145.686 47.7016 145.686Z" fill="#7283E0"/>
<path d="M35.9991 145.744C36.5132 145.362 36.9372 144.871 37.2411 144.308C37.545 143.744 37.7215 143.12 37.7581 142.481C37.7948 141.842 37.6906 141.202 37.4531 140.608C37.2156 140.013 36.8505 139.477 36.3834 139.039L36.5814 99.1462L27.1768 100.711L29.9393 139.432C29.254 140.265 28.8982 141.32 28.9394 142.397C28.9807 143.474 29.416 144.499 30.1629 145.277C30.9099 146.055 31.9166 146.532 32.9922 146.619C34.0678 146.705 35.1377 146.394 35.9991 145.744V145.744Z" fill="#FFB8B8"/>
<path d="M38.1743 124.766H28.0444C27.5607 124.764 27.0969 124.573 26.7533 124.233C26.4097 123.892 26.2138 123.431 26.208 122.948L25.9593 95.5113C25.9506 94.5626 26.1304 93.6216 26.4881 92.7427C26.8457 91.8639 27.3743 91.0646 28.0431 90.3911C28.712 89.7176 29.5078 89.1832 30.3847 88.819C31.2616 88.4547 32.202 88.2678 33.1516 88.2689C34.1013 88.2701 35.0412 88.4593 35.9172 88.8257C36.7932 89.1921 37.5877 89.7284 38.2549 90.4035C38.9221 91.0786 39.4487 91.8792 39.8042 92.759C40.1598 93.6387 40.3372 94.5801 40.3262 95.5288L40.0107 122.952C40.0035 123.434 39.8071 123.895 39.4636 124.234C39.1202 124.573 38.6572 124.764 38.1743 124.766V124.766Z" fill="#7283E0"/>
<path d="M36.1434 82.1469C31.5541 82.1553 27.2246 78.5312 26.4293 74.0156C26.1446 72.2417 26.273 70.426 26.8045 68.7097C27.3816 66.7558 28.3712 64.9483 29.7068 63.4089C31.0423 61.8695 32.6926 60.634 34.5466 59.7858C36.4005 58.9376 38.4149 58.4963 40.4539 58.4917C42.493 58.4871 44.5094 58.9193 46.3671 59.7591C47.5948 60.3142 48.8041 61.1113 49.3662 62.3349C49.9284 63.5584 49.5765 65.2685 48.3468 65.8191C47.5432 66.1789 46.5347 66.0022 45.8218 66.5186C44.7977 67.2604 45.0614 68.8391 45.5186 70.0173C45.9759 71.1955 46.4931 72.6214 45.7265 73.6266C45.0123 74.5633 43.5845 74.5342 42.4599 74.1816C41.3353 73.8291 40.2253 73.2387 39.0528 73.3588C37.3427 73.5339 36.1138 75.2334 35.8863 76.9357C35.6588 78.6381 36.1943 80.3397 36.723 81.974L36.1434 82.1469Z" fill="#2F2E41"/>
<path d="M161.57 92.3671C161.57 64.9824 183.79 0 211.201 0C238.611 0 260.832 64.9824 260.832 92.3671C260.832 105.518 255.603 118.13 246.295 127.428C236.988 136.727 224.364 141.951 211.201 141.951C198.038 141.951 185.414 136.727 176.106 127.428C166.799 118.13 161.57 105.518 161.57 92.3671V92.3671Z" fill="#7283E0"/>
<path d="M211.201 213C211.093 213 210.989 212.957 210.913 212.881C210.836 212.804 210.793 212.7 210.793 212.592V41.642C210.793 41.5338 210.836 41.4301 210.913 41.3537C210.989 41.2772 211.093 41.2343 211.201 41.2343C211.309 41.2343 211.413 41.2772 211.49 41.3537C211.566 41.4301 211.609 41.5338 211.609 41.642V212.592C211.609 212.7 211.566 212.804 211.49 212.881C211.413 212.957 211.309 213 211.201 213Z" fill="#3F3D56"/>
<path d="M211.201 74.6451C211.147 74.6452 211.094 74.6347 211.044 74.6142C210.995 74.5937 210.95 74.5636 210.912 74.5257L191.268 54.9004C191.192 54.8238 191.15 54.7203 191.15 54.6126C191.151 54.5049 191.194 54.4018 191.27 54.3256C191.346 54.2495 191.449 54.2066 191.557 54.2062C191.665 54.2059 191.769 54.2482 191.845 54.3239L211.489 73.9491C211.546 74.0062 211.585 74.0788 211.601 74.1579C211.617 74.237 211.608 74.319 211.578 74.3934C211.547 74.4679 211.494 74.5316 211.427 74.5764C211.36 74.6212 211.281 74.6451 211.201 74.6451V74.6451Z" fill="#3F3D56"/>
<path d="M211.201 108.62C211.12 108.62 211.041 108.596 210.974 108.552C210.907 108.507 210.855 108.443 210.824 108.369C210.793 108.294 210.785 108.212 210.801 108.133C210.817 108.054 210.855 107.981 210.912 107.924L243.81 75.058C243.886 74.9824 243.99 74.9402 244.098 74.9406C244.205 74.9409 244.309 74.9838 244.385 75.0599C244.461 75.1361 244.504 75.2392 244.504 75.3468C244.505 75.4545 244.463 75.5579 244.387 75.6346L211.49 108.501C211.452 108.539 211.407 108.569 211.357 108.589C211.308 108.61 211.255 108.62 211.201 108.62V108.62Z" fill="#3F3D56"/>
<path d="M73.8512 133.441C80.3624 131.971 87.7391 137.059 87.9678 143.89C88.0321 145.812 87.4684 147.83 85.9886 149.137C84.7668 150.216 82.9488 150.76 81.3694 150.233C78.3301 149.218 78.1678 144.986 79.7982 142.727C82.0057 139.667 86.3792 139.144 89.8494 139.508C94.0921 139.953 98.1245 141.812 101.508 144.359C108.282 149.459 112.596 157.275 116.087 164.826C119.661 172.573 122.26 180.732 123.824 189.118C124.021 190.171 124.202 191.227 124.365 192.286C124.412 192.441 124.517 192.572 124.659 192.65C124.801 192.728 124.968 192.747 125.124 192.703C125.278 192.654 125.407 192.548 125.485 192.407C125.562 192.265 125.582 192.1 125.541 191.944C124.112 182.794 121.472 173.873 117.691 165.417C114.036 157.233 109.427 148.744 102.096 143.283C98.4411 140.56 94.1252 138.665 89.5578 138.26C85.7128 137.919 81.1597 138.732 78.7686 142.073C76.8822 144.709 77.0738 149.089 79.9926 150.925C81.5972 151.934 83.6362 151.816 85.3024 151.031C86.1866 150.595 86.9653 149.972 87.5844 149.205C88.2035 148.438 88.6484 147.546 88.888 146.591C89.9244 142.797 88.3507 138.693 85.6525 135.981C83.1202 133.429 79.6788 131.983 76.0818 131.96C75.2156 131.97 74.353 132.073 73.5089 132.267C72.7402 132.441 73.0837 133.615 73.8512 133.441V133.441Z" fill="#CCCCCC"/>
<path d="M105.252 208.569L101.206 201.667L106.195 198.747L110.242 205.649V205.649C110.629 206.31 110.738 207.098 110.544 207.839C110.35 208.58 109.87 209.214 109.208 209.601C108.547 209.989 107.758 210.097 107.016 209.904C106.274 209.71 105.64 209.23 105.252 208.569Z" fill="#7283E0"/>
<path d="M91.8732 194.223C93.8384 194.223 95.4315 192.631 95.4315 190.668C95.4315 188.705 93.8384 187.113 91.8732 187.113C89.908 187.113 88.3149 188.705 88.3149 190.668C88.3149 192.631 89.908 194.223 91.8732 194.223Z" fill="#7283E0"/>
<path d="M120.908 208.569L116.861 201.667L121.851 198.747L125.897 205.649C126.283 206.31 126.392 207.097 126.198 207.838C126.004 208.578 125.523 209.212 124.862 209.599C124.201 209.986 123.413 210.094 122.671 209.901C121.93 209.708 121.296 209.229 120.908 208.569V208.569Z" fill="#7283E0"/>
<path d="M92.5498 197.83C92.5521 195.827 93.3494 193.907 94.7669 192.49C96.1845 191.074 98.1064 190.278 100.111 190.275H124.047C124.894 190.276 125.707 190.613 126.306 191.212C126.905 191.81 127.242 192.622 127.243 193.468V196.189C127.24 198.627 126.27 200.964 124.544 202.688C122.819 204.411 120.48 205.381 118.04 205.384H100.111C98.1064 205.381 96.1845 204.585 94.7669 203.169C93.3494 201.752 92.5521 199.832 92.5498 197.83V197.83Z" fill="#3F3D56"/>
<path d="M98.0693 209.459V201.46H103.851V209.459C103.851 210.225 103.547 210.96 103.005 211.501C102.463 212.043 101.727 212.347 100.96 212.347C100.194 212.347 99.4583 212.043 98.9161 211.501C98.374 210.96 98.0693 210.225 98.0693 209.459Z" fill="#3F3D56"/>
<path d="M114.848 209.459V201.46H120.63V209.459C120.63 209.838 120.556 210.214 120.411 210.565C120.266 210.916 120.053 211.235 119.784 211.503C119.516 211.772 119.197 211.985 118.846 212.13C118.495 212.276 118.119 212.351 117.739 212.351C117.359 212.351 116.983 212.276 116.632 212.13C116.281 211.985 115.962 211.772 115.693 211.503C115.425 211.235 115.212 210.916 115.067 210.565C114.922 210.214 114.847 209.838 114.848 209.459V209.459Z" fill="#3F3D56"/>
<path d="M138.373 177.813C138.964 177.08 139.823 176.612 140.76 176.511C141.697 176.409 142.636 176.684 143.371 177.273C144.106 177.863 144.576 178.72 144.679 179.656C144.783 180.591 144.51 181.53 143.921 182.265L138.072 189.541L132.524 185.089L138.373 177.813Z" fill="#7283E0"/>
<path d="M124.284 192.146L128.97 186.317C130.109 184.903 131.763 183.998 133.569 183.801C135.375 183.604 137.186 184.131 138.604 185.266L140.068 186.441C141.755 187.798 142.835 189.769 143.07 191.92C143.305 194.072 142.677 196.228 141.322 197.917L137.462 202.719C137.035 203.249 136.416 203.588 135.739 203.661C135.063 203.735 134.385 203.538 133.854 203.113L124.678 195.749C124.148 195.323 123.809 194.705 123.735 194.029C123.661 193.353 123.858 192.676 124.284 192.146V192.146Z" fill="#3F3D56"/>
<path d="M139.069 176.947C139.27 176.697 139.519 176.489 139.8 176.334C140.082 176.18 140.392 176.083 140.711 176.048C141.03 176.013 141.353 176.042 141.662 176.131C141.97 176.221 142.258 176.371 142.508 176.572C142.759 176.773 142.967 177.021 143.122 177.303C143.276 177.584 143.373 177.893 143.408 178.212C143.443 178.531 143.415 178.854 143.325 179.162C143.235 179.47 143.085 179.758 142.884 180.008L136.339 188.15L132.524 185.089L139.069 176.947Z" fill="#3F3D56"/>
<path d="M129.693 190.556L139.75 198.626C140.483 199.217 140.951 200.075 141.052 201.01C141.153 201.946 140.879 202.884 140.289 203.618C139.699 204.351 138.842 204.822 137.905 204.925C136.969 205.028 136.03 204.756 135.294 204.169L125.237 196.1L129.693 190.556Z" fill="#3F3D56"/>
<path d="M140.726 203.887C141.245 203.241 141.375 202.484 141.016 202.196C140.657 201.907 139.945 202.197 139.426 202.843C138.907 203.489 138.777 204.246 139.136 204.534C139.495 204.822 140.207 204.532 140.726 203.887Z" fill="#7283E0"/>
</svg>
