<svg viewBox="0 0 371 386" fill="none" xmlns="http://www.w3.org/2000/svg">
<path d="M371 200.303C371.042 226.17 365.658 251.758 355.198 275.411C354.758 276.402 354.314 277.388 353.856 278.37C353.791 278.523 353.717 278.675 353.648 278.828C353.472 279.203 353.296 279.583 353.116 279.958C352.986 280.231 352.857 280.5 352.723 280.773C352.404 281.44 352.08 282.104 351.751 282.764C351.391 283.492 351.025 284.217 350.655 284.941C350.285 285.663 349.91 286.384 349.531 287.104C349.198 287.729 348.863 288.352 348.527 288.974C348.092 289.776 347.65 290.577 347.199 291.378C346.811 292.063 346.421 292.744 346.029 293.42C345.608 294.142 345.183 294.865 344.752 295.587L344.711 295.657C344.618 295.814 344.526 295.972 344.429 296.129C344.341 296.273 344.257 296.412 344.169 296.555C344.082 296.699 343.998 296.838 343.91 296.976V296.981C343.628 297.444 343.346 297.898 343.064 298.357L343.059 298.361C342.425 299.38 341.778 300.394 341.126 301.399C339.914 303.27 338.669 305.113 337.392 306.928C337.392 306.933 337.388 306.933 337.383 306.937C336.62 308.03 335.838 309.114 335.052 310.188C334.548 310.874 334.039 311.556 333.525 312.235C333.012 312.916 332.494 313.59 331.971 314.259C331.855 314.412 331.735 314.564 331.615 314.717C330.949 315.569 330.273 316.421 329.589 317.26C329.441 317.445 329.292 317.625 329.149 317.806C328.922 318.079 328.7 318.353 328.478 318.621C328.404 318.714 328.33 318.802 328.252 318.894C327.872 319.348 327.493 319.802 327.104 320.256V320.26C326.73 320.705 326.35 321.15 325.966 321.594C325.883 321.691 325.8 321.789 325.712 321.886C325.587 322.034 325.458 322.178 325.328 322.326C325.009 322.701 324.68 323.071 324.347 323.442C324.343 323.447 324.343 323.451 324.338 323.456L324.324 323.47V323.474C314.379 334.706 303.114 344.691 290.772 353.214C290.731 353.246 290.688 353.275 290.643 353.302C290.49 353.413 290.338 353.515 290.185 353.621C289.079 354.381 287.964 355.131 286.84 355.862C286.29 356.224 285.739 356.58 285.184 356.932V356.937C285.18 356.937 285.18 356.937 285.175 356.941H285.166L285.156 356.951L285.129 356.965C285.115 356.974 285.106 356.978 285.092 356.988C284.666 357.261 284.245 357.529 283.815 357.798C283.685 357.886 283.556 357.965 283.426 358.044C283.2 358.187 282.968 358.331 282.737 358.474C282.51 358.613 282.279 358.757 282.048 358.896C281.756 359.072 281.465 359.252 281.174 359.424C280.54 359.808 279.905 360.188 279.268 360.563C279.036 360.702 278.8 360.836 278.565 360.975C278.333 361.109 278.097 361.243 277.861 361.378C277.858 361.383 277.854 361.387 277.849 361.39C277.845 361.393 277.839 361.395 277.834 361.396L277.824 361.401L277.815 361.41H277.81C277.163 361.781 276.52 362.151 275.868 362.512L275.863 362.517C275.34 362.809 274.818 363.096 274.29 363.383C273.041 364.064 271.784 364.732 270.52 365.388C269.641 365.847 268.758 366.291 267.869 366.731C267.333 367 266.791 367.264 266.25 367.528C265.802 367.745 265.348 367.963 264.9 368.176C264.775 368.236 264.654 368.296 264.529 368.352C264.326 368.449 264.118 368.546 263.914 368.639C263.743 368.718 263.576 368.796 263.405 368.875C262.998 369.07 262.587 369.255 262.179 369.44C261.721 369.649 261.268 369.852 260.81 370.056C259.089 370.825 257.35 371.566 255.606 372.279C249.376 374.833 243.008 377.037 236.533 378.882C236.233 378.97 235.927 379.058 235.622 379.142C232.851 379.92 230.06 380.631 227.249 381.276C222.341 382.406 217.388 383.334 212.391 384.06C212.381 384.06 212.367 384.064 212.358 384.064C211.761 384.152 211.16 384.236 210.563 384.319C210.512 384.328 210.457 384.337 210.401 384.342C210.397 384.347 210.392 384.347 210.383 384.342H210.378C209.717 384.43 209.055 384.518 208.389 384.602C208.343 384.611 208.297 384.615 208.25 384.62C207.631 384.694 207.006 384.768 206.381 384.838C205.711 384.912 205.04 384.981 204.365 385.051H204.36C203.333 385.153 202.306 385.25 201.279 385.333C201.261 385.333 201.242 385.338 201.224 385.338C200.816 385.375 200.409 385.403 200.002 385.435H199.998C195.21 385.815 190.377 386.003 185.5 386C180.203 386 174.961 385.779 169.772 385.338C169.753 385.338 169.735 385.333 169.716 385.333C168.611 385.241 167.507 385.139 166.404 385.028C166.113 385 165.826 384.967 165.535 384.94C165.479 384.935 165.423 384.93 165.368 384.921C165.28 384.912 165.192 384.903 165.1 384.893C165.053 384.889 165.002 384.884 164.956 384.875C164.572 384.833 164.188 384.791 163.8 384.745C163.37 384.694 162.935 384.643 162.505 384.588C162.074 384.537 161.639 384.481 161.209 384.421C161.117 384.412 161.02 384.402 160.927 384.384C160.613 384.347 160.298 384.305 159.988 384.259C159.835 384.24 159.687 384.217 159.539 384.194C159.239 384.152 158.943 384.111 158.642 384.064C158.633 384.064 158.619 384.06 158.61 384.06C149.163 382.694 139.838 380.59 130.72 377.766H130.715C130.22 377.614 129.725 377.456 129.23 377.299C129.082 377.257 128.934 377.211 128.786 377.16C127.5 376.748 126.222 376.322 124.951 375.882C123.198 375.28 121.457 374.65 119.729 373.992C119.257 373.812 118.79 373.631 118.318 373.45C117.379 373.08 116.444 372.71 115.514 372.33C113.928 371.681 112.352 371.013 110.787 370.325H110.782V370.32C109.547 369.774 108.316 369.218 107.095 368.639C106.873 368.537 106.651 368.435 106.429 368.329C106.386 368.316 106.346 368.297 106.309 368.273C106.304 368.273 106.304 368.269 106.3 368.269C105.98 368.12 105.661 367.968 105.342 367.815L105.333 367.81C103.7 367.027 102.081 366.22 100.475 365.388C98.4863 364.36 96.5141 363.295 94.5589 362.193C92.9398 361.281 91.3362 360.344 89.7479 359.382C87.8651 358.243 86.0024 357.07 84.1598 355.863C83.5862 355.487 83.0125 355.108 82.4389 354.723C81.9209 354.376 81.4073 354.029 80.8939 353.677C79.0805 352.436 77.2902 351.162 75.5231 349.856C73.6959 348.509 71.8949 347.127 70.1201 345.712C67.8071 343.869 65.5404 341.973 63.3199 340.025C59.1797 336.404 55.2091 332.6 51.4082 328.615C51.2879 328.49 51.1676 328.364 51.0473 328.235C50.668 327.837 50.2933 327.438 49.9186 327.035C49.3728 326.452 48.8316 325.859 48.295 325.266C47.4068 324.299 46.534 323.32 45.6767 322.33H45.672V322.326C45.1493 321.729 44.6405 321.136 44.1224 320.534V320.529C44.0483 320.446 43.979 320.362 43.9095 320.279C43.5811 319.895 43.2619 319.515 42.9428 319.126V319.121C42.5079 318.607 42.0823 318.093 41.666 317.575C41.5735 317.463 41.4856 317.357 41.3977 317.246H41.3931V317.241C41.0507 316.824 40.713 316.403 40.38 315.982C40.2088 315.773 40.0423 315.56 39.8757 315.347H39.8711V315.343C38.8627 314.069 37.8743 312.783 36.9059 311.485V311.48C36.6376 311.124 36.3739 310.767 36.1149 310.406H36.1103C34.8705 308.73 33.6631 307.033 32.4881 305.317V305.312C32.0441 304.668 31.6046 304.02 31.1697 303.367C30.7349 302.714 30.3047 302.06 29.8791 301.404H29.8745C29.435 300.728 29.0002 300.048 28.57 299.366C28.5468 299.329 28.5237 299.297 28.5052 299.264C28.0796 298.593 27.6602 297.917 27.247 297.236C26.9139 296.694 26.5855 296.157 26.2663 295.615C26.0442 295.249 25.8268 294.888 25.614 294.518C25.5354 294.392 25.466 294.268 25.3966 294.147C24.9063 293.309 24.4251 292.471 23.944 291.628C23.3843 290.637 22.8292 289.637 22.2879 288.636C22.0659 288.224 21.8438 287.808 21.6265 287.391C21.5478 287.256 21.4784 287.122 21.409 286.983C21.15 286.492 20.8909 286.001 20.6365 285.506C20.3821 285.015 20.1276 284.52 19.8778 284.024C19.628 283.528 19.3782 283.033 19.1331 282.533C18.948 282.158 18.763 281.778 18.5825 281.403C18.5638 281.371 18.5469 281.339 18.5317 281.306C18.4484 281.13 18.3605 280.958 18.2819 280.782C18.2634 280.755 18.2493 280.726 18.2402 280.694C18.0506 280.305 17.8656 279.921 17.6851 279.532C17.4446 279.032 17.2133 278.527 16.982 278.022C16.8155 277.67 16.6582 277.314 16.4963 276.957C16.265 276.457 16.0383 275.952 15.8162 275.443C15.5803 274.92 15.3537 274.392 15.127 273.864C15.0669 273.73 15.0113 273.6 14.9559 273.466C14.8494 273.225 14.7477 272.984 14.6459 272.743C14.373 272.104 14.1047 271.456 13.841 270.812C13.5403 270.085 13.2474 269.357 12.9621 268.626C12.6891 267.946 12.4239 267.263 12.1664 266.58L12.0693 266.33V266.325C8.04982 255.75 5.0086 244.828 2.9839 233.696V233.691C1.82944 227.336 1.00798 220.924 0.522906 214.483C0.495178 214.131 0.472026 213.779 0.448897 213.427C0.143625 209.069 -0.00594694 204.694 0.000180877 200.303C0.000180877 198.353 0.031019 196.413 0.0926981 194.482C1.29214 154.11 15.6684 115.242 41.0229 83.8229C42.1379 82.4384 43.2728 81.0708 44.4277 79.7201C45.6952 78.2382 46.9843 76.7764 48.295 75.3346C49.2016 74.3344 50.1191 73.3465 51.0474 72.3708C51.0647 72.3512 51.0832 72.3326 51.1029 72.3153C51.2 72.2088 51.3018 72.1023 51.4082 71.9957C57.0702 66.0597 63.1204 60.5074 69.5187 55.3756C70.2496 54.7829 70.9805 54.204 71.7207 53.6344C72.3775 53.1204 73.0344 52.611 73.6959 52.1155C74.4638 51.532 75.2363 50.9562 76.0135 50.3882C80.0612 47.4198 84.2292 44.6167 88.5174 41.9786C90.3076 40.8765 92.1179 39.8053 93.9483 38.7648C94.6144 38.3804 95.2897 38.0053 95.9651 37.6302C96.881 37.1255 97.797 36.6253 98.7222 36.139C126.215 21.6 156.914 14.2018 188.004 14.6226C219.095 15.0433 249.582 23.2694 276.673 38.5471C276.802 38.6166 276.932 38.6906 277.056 38.7648C277.852 39.2186 278.643 39.6724 279.43 40.1402C280.457 40.7422 281.476 41.355 282.487 41.9786C287.594 45.123 292.535 48.5019 297.309 52.1155C298.049 52.6759 298.789 53.2408 299.52 53.8151C300.182 54.3291 300.838 54.8524 301.491 55.3756C301.847 55.6628 302.208 55.9545 302.564 56.2463C310.375 62.6129 317.657 69.6038 324.338 77.1499L324.347 77.1592C324.449 77.275 324.551 77.3861 324.648 77.5019C324.967 77.8631 325.286 78.2289 325.601 78.5902C325.643 78.6364 325.684 78.6874 325.726 78.7337C326.188 79.2662 326.648 79.8034 327.104 80.3453C332.666 86.9176 337.765 93.8682 342.365 101.147C344.077 103.842 345.715 106.587 347.278 109.381C362.879 137.136 371.051 168.456 371 200.303V200.303Z" fill="#3F3D56"/>
<path d="M316.002 11.4301L327.104 312.291V312.297C326.729 312.814 326.35 313.332 325.966 313.85C325.758 314.136 325.545 314.416 325.328 314.702C325.008 315.139 324.68 315.57 324.347 316.002C324.342 316.007 324.342 316.013 324.338 316.018L324.324 316.034V316.04C314.587 328.906 303.32 340.537 290.772 350.676V350.794L290.642 350.778C290.49 350.907 290.337 351.026 290.184 351.15C289.079 352.035 287.964 352.908 286.84 353.76C286.289 354.181 285.737 354.596 285.184 355.006V355.012C285.179 355.012 285.179 355.012 285.174 355.017H285.165L285.156 355.028L285.128 355.044C285.114 355.055 285.105 355.06 285.091 355.071C284.666 355.389 284.245 355.702 283.814 356.015C283.685 356.117 283.555 356.209 283.426 356.301C283.199 356.468 282.968 356.635 282.737 356.802C282.51 356.964 282.279 357.131 282.047 357.293C281.127 357.951 280.197 358.598 279.267 359.235C279.036 359.396 278.8 359.553 278.564 359.715C278.333 359.871 278.097 360.028 277.861 360.184V360.2L277.833 360.205L277.824 360.211L277.815 360.222H277.81C277.162 360.653 276.519 361.085 275.867 361.505L275.862 361.511C275.34 361.85 274.817 362.185 274.29 362.519C273.041 363.312 271.782 364.094 270.52 364.855C269.641 365.389 268.757 365.906 267.869 366.419C267.332 366.731 266.791 367.039 266.25 367.346C265.801 367.6 265.348 367.853 264.899 368.101C264.774 368.171 264.654 368.242 264.529 368.306C264.325 368.42 264.117 368.533 263.914 368.641H107.095C106.873 368.522 106.651 368.403 106.429 368.279C106.385 368.264 106.345 368.242 106.308 368.215C106.304 368.215 106.304 368.209 106.299 368.209C105.98 368.037 105.661 367.859 105.341 367.681L105.332 367.675C103.699 366.764 102.08 365.824 100.475 364.855C96.8343 362.665 93.2585 360.333 89.7474 357.859C87.8647 356.533 86.0019 355.166 84.1593 353.76C83.5857 353.324 83.012 352.881 82.4384 352.434C81.9203 352.029 81.4068 351.625 80.8934 351.215C79.08 349.769 77.2898 348.286 75.5227 346.765C73.6954 345.196 71.8944 343.587 70.1196 341.938C67.8066 339.792 65.5399 337.584 63.3195 335.315C59.1793 331.098 55.2087 326.668 51.4077 322.026C51.2874 321.881 51.1671 321.735 51.0469 321.584C50.1171 320.446 49.1996 319.294 48.2944 318.127L57.5463 11.4301C57.5377 9.56744 57.8782 7.71973 58.5501 5.98276C59.9564 2.42324 62.6996 0.00164795 65.8498 0.00164795H307.698C310.89 0.00164795 313.661 2.48263 315.049 6.11762C315.095 6.23638 315.137 6.35502 315.178 6.47366C315.73 8.06754 316.008 9.7433 316.002 11.4301V11.4301Z" fill="#3F3D56"/>
<path d="M88.1746 34.767C95.0726 34.767 100.665 28.2474 100.665 20.205C100.665 12.1627 95.0726 5.64307 88.1746 5.64307C81.2765 5.64307 75.6846 12.1627 75.6846 20.205C75.6846 28.2474 81.2765 34.767 88.1746 34.767Z" fill="white"/>
<path d="M220.474 59.2323C199.417 64.7771 176.086 68.1499 152.363 69.0734C148.886 69.263 145.401 69.2393 141.927 69.0024C134.293 68.3596 127.754 65.9577 120.471 64.6451C116.97 64.0159 113.071 63.5558 109.546 62.8758C110.36 61.8643 111.189 60.8652 112.033 59.8785C119.633 60.5212 127.352 62.6255 135.043 63.6032C148.118 65.2676 162.768 63.4103 172.68 58.8298C177.489 56.6071 181.172 53.8331 185.964 51.6003C186.616 51.2654 187.322 51.0489 188.049 50.9609C189.566 50.8223 190.898 51.4346 191.983 51.9826C200.022 56.0456 211.695 59.3474 222.529 57.5307C223.337 58.1633 221.802 58.8839 220.474 59.2323Z" fill="white"/>
<path d="M216.398 109.986C216.534 109.961 216.669 109.942 216.805 109.918C216.235 109.565 215.699 109.16 215.202 108.709L216.398 109.986Z" fill="white"/>
<path d="M305.179 120.958C298.985 121.454 292.758 121.823 286.499 122.065C281.74 122.322 276.97 122.29 272.215 121.968C261.765 121.083 252.813 117.8 242.845 116.003C233.708 114.359 222.606 113.568 216.805 109.918C231.798 107.321 247.332 112.609 262.792 114.577C275.297 116.116 287.973 115.49 300.266 112.725C301.978 115.42 303.615 118.165 305.179 120.958Z" fill="white"/>
<path d="M176.156 232.404V227.968C176.155 226.273 175.507 224.642 174.345 223.41C173.182 222.178 171.594 221.437 169.903 221.339V204.015H168.432V221.319H161.812V232.364H130.551V359.384H199.694V257.306C199.693 250.93 197.254 244.796 192.876 240.164C188.498 235.533 182.515 232.756 176.156 232.404Z" fill="#2F2E41"/>
<path d="M151.147 250.405H141.952V257.768H151.147V250.405Z" fill="white"/>
<path d="M166.225 250.405H157.031V257.768H166.225V250.405Z" fill="white"/>
<path d="M181.304 250.405H172.11V257.768H181.304V250.405Z" fill="white"/>
<path d="M151.147 269.181H141.952V276.545H151.147V269.181Z" fill="white"/>
<path d="M166.225 269.181H157.031V276.545H166.225V269.181Z" fill="white"/>
<path d="M181.304 269.181H172.11V276.545H181.304V269.181Z" fill="white"/>
<path d="M151.147 287.958H141.952V295.322H151.147V287.958Z" fill="white"/>
<path d="M166.225 287.958H157.031V295.322H166.225V287.958Z" fill="white"/>
<path d="M181.304 287.958H172.11V295.322H181.304V287.958Z" fill="white"/>
<path d="M151.147 306.735H141.952V314.098H151.147V306.735Z" fill="white"/>
<path d="M166.225 306.735H157.031V314.098H166.225V306.735Z" fill="white"/>
<path d="M181.304 306.735H172.11V314.098H181.304V306.735Z" fill="white"/>
<path d="M151.147 325.512H141.952V332.875H151.147V325.512Z" fill="white"/>
<path d="M166.225 325.512H157.031V332.875H166.225V325.512Z" fill="white"/>
<path d="M181.304 325.512H172.11V332.875H181.304V325.512Z" fill="white"/>
<path d="M151.147 344.288H141.952V351.652H151.147V344.288Z" fill="white"/>
<path d="M166.225 344.288H157.031V351.652H166.225V344.288Z" fill="white"/>
<path d="M181.304 344.288H172.11V351.652H181.304V344.288Z" fill="white"/>
<path d="M132.459 195.45V359.382H89.7478C87.865 358.243 86.0023 357.07 84.1596 355.862C83.586 355.487 83.0124 355.108 82.4388 354.723C81.9207 354.376 81.4072 354.029 80.8937 353.677C79.0803 352.436 77.2901 351.162 75.523 349.856C73.6958 348.509 71.8948 347.127 70.12 345.712C67.807 343.868 65.5403 341.973 63.3198 340.025V170.508H75.6387V150.813H88.1426V132.035H89.6136V150.813H98.7868C100.549 150.813 102.238 151.514 103.484 152.761C104.73 154.008 105.43 155.699 105.43 157.463V170.508H107.544C112.916 170.508 118.144 172.246 122.449 175.462C126.755 178.678 129.907 183.2 131.437 188.355C131.703 189.263 131.919 190.184 132.084 191.115C132.334 192.547 132.459 193.997 132.459 195.45V195.45Z" fill="#2F2E41"/>
<path d="M112.784 185.422H82.9941V187.631H112.784V185.422Z" fill="white"/>
<path d="M112.784 199.045H82.9941V201.254H112.784V199.045Z" fill="white"/>
<path d="M112.784 212.667H82.9941V214.876H112.784V212.667Z" fill="white"/>
<path d="M112.784 226.289H82.9941V228.498H112.784V226.289Z" fill="white"/>
<path d="M112.784 239.912H82.9941V242.121H112.784V239.912Z" fill="white"/>
<path d="M112.784 253.534H82.9941V255.743H112.784V253.534Z" fill="white"/>
<path d="M112.784 267.156H82.9941V269.365H112.784V267.156Z" fill="white"/>
<path d="M112.784 280.779H82.9941V282.988H112.784V280.779Z" fill="white"/>
<path d="M112.784 294.401H82.9941V296.61H112.784V294.401Z" fill="white"/>
<path d="M112.784 308.023H82.9941V310.233H112.784V308.023Z" fill="white"/>
<path d="M112.784 321.646H82.9941V323.855H112.784V321.646Z" fill="white"/>
<path d="M112.784 335.268H82.9941V337.477H112.784V335.268Z" fill="white"/>
<path d="M95.131 154.864H85.9365V162.227H95.131V154.864Z" fill="white"/>
<path d="M315.179 6.47393C315.137 6.35341 315.095 6.23764 315.049 6.11736C313.661 2.48209 310.89 0 307.699 0H65.8503C62.7001 0 59.9568 2.42194 58.5506 5.98303C57.879 7.71957 57.5385 9.56676 57.5468 11.4289L48.2949 325.266C48.8315 325.859 49.3728 326.452 49.9186 327.035C50.2933 327.438 50.668 327.837 51.0473 328.235L60.2992 11.4289C60.2969 10.5311 60.4151 9.63707 60.6508 8.77081C60.6516 8.7565 60.6547 8.74242 60.66 8.7291C61.4557 5.84871 63.4818 3.79728 65.8503 3.79728H307.699C308.266 3.79804 308.826 3.91629 309.345 4.14459C311.51 5.07076 313.106 7.76595 313.236 11.0028C313.24 11.1464 313.245 11.2853 313.245 11.4289L324.347 316C324.68 315.569 325.009 315.139 325.328 314.703C325.448 314.546 325.564 314.389 325.68 314.236C325.777 314.106 325.874 313.981 325.966 313.851C326.35 313.333 326.73 312.814 327.104 312.295V312.291L316.002 11.4289C316.009 9.74263 315.73 8.06736 315.179 6.47393V6.47393ZM100.475 365.388C102.081 366.222 103.7 367.029 105.333 367.81L105.342 367.815C105.661 367.967 105.98 368.12 106.299 368.269C106.304 368.269 106.304 368.273 106.309 368.273C106.346 368.297 106.386 368.316 106.429 368.329C106.651 368.435 106.873 368.537 107.095 368.639H263.914C264.118 368.546 264.326 368.449 264.529 368.352C264.654 368.296 264.775 368.236 264.899 368.176C265.348 367.963 265.802 367.745 266.25 367.528C266.791 367.264 267.333 367 267.869 366.731C268.757 366.291 269.641 365.847 270.52 365.388H100.475Z" fill="#2F2E41"/>
<path d="M314.622 38.7636H58.9229V41.9775H314.622V38.7636Z" fill="#2F2E41"/>
<path d="M318.144 78.5889H56.3164V81.8028H318.144V78.5889Z" fill="#2F2E41"/>
<path d="M98.7214 140.954H95.9648L105.217 1.44299H107.973L98.7214 140.954Z" fill="#2F2E41"/>
<path d="M279.43 141.88H276.674L265.571 1.44299H268.328L279.43 141.88Z" fill="#2F2E41"/>
<path d="M319.532 137.192H56.7788V146.39H319.532V137.192Z" fill="#2F2E41"/>
<path d="M188.629 132.117H191.386C192.049 132.117 192.706 132.248 193.32 132.502C193.933 132.756 194.49 133.129 194.959 133.599C195.428 134.069 195.801 134.626 196.055 135.24C196.309 135.854 196.439 136.512 196.439 137.176V137.176H183.575C183.575 135.834 184.108 134.548 185.055 133.599C186.003 132.65 187.289 132.117 188.629 132.117V132.117Z" fill="#2F2E41"/>
<path d="M95.1739 354.436C91.0106 358.604 91.3344 360.341 89.7477 359.382C87.865 358.243 86.0022 357.07 84.1596 355.863C83.586 355.487 83.0123 355.108 82.4387 354.723C81.9207 354.376 81.4071 354.029 80.8937 353.677C79.0803 352.436 77.29 351.162 75.523 349.856C73.6957 348.509 71.8947 347.127 70.1199 345.712C67.8069 343.869 65.5402 341.973 63.3198 340.025C59.1795 336.404 55.2089 332.6 51.408 328.615C51.2877 328.49 51.1674 328.364 51.0472 328.235C50.6679 327.837 50.2931 327.438 49.9185 327.035L51.8012 320.228L54.1142 221.012L54.253 191.115L54.2622 188.355L56.3161 145.122L56.33 142.362L57.5235 84.0731L57.5327 81.804L57.5512 78.5902L51.1027 72.3154L60.4933 41.9787L60.5072 38.7649L60.6506 8.77086L60.6598 6.32114C65.5587 1.85694 72.493 0.981765 80.9723 1.76898C81.3932 1.81069 81.8235 1.85241 82.2537 1.89864L82.3693 3.79733L82.5821 7.1824V7.18715L84.2474 34.0276V34.0368L84.5435 38.7649L84.7424 41.9787L85.2652 50.3883L77.7619 78.5903L77.9608 81.804L79.4087 105.106L79.6076 108.32L80.0193 114.952L81.7216 142.362L81.8928 145.122L82.2444 150.813L82.6838 157.852L82.7347 158.672L82.9337 161.885L83.5073 171.119L83.6646 173.694L84.3908 185.424L84.488 186.989L84.5296 187.633L84.576 188.355L84.6499 189.559L84.7471 191.115L85.094 196.7L85.2375 199.043L85.3762 201.252L85.4734 202.85L85.6353 205.425L85.7602 207.416L86.084 212.667L86.2228 214.876L86.4587 218.715L86.6021 221.012L86.6206 221.29L86.9305 226.291L87.0692 228.5L87.171 230.209L87.444 234.585L87.6059 237.155L87.7771 239.911L87.9112 242.12L88.4293 250.446L88.5866 253.021L88.619 253.535L88.7578 255.743L89.4147 266.311L89.4655 267.159L89.572 268.886L89.5997 269.367L90.3121 280.778L90.3999 282.176L90.4509 282.987L90.5573 284.751L91.1586 294.402L91.2974 296.611L91.3853 298.042L91.5426 300.616L92.0005 308.026L92.1393 310.235L92.366 313.912L92.5279 316.482L92.8471 321.645L92.9859 323.854L93.3513 329.772L93.5132 332.342L93.615 335.269L93.6936 337.478L95.1739 354.436Z" fill="#CCCCCC"/>
<path d="M325.712 321.886C325.587 322.034 325.457 322.178 325.328 322.326C325.009 322.701 324.68 323.071 324.347 323.442C324.343 323.447 324.342 323.451 324.338 323.456L324.324 323.47V323.474C314.379 334.706 303.113 344.691 290.772 353.214C290.731 353.246 290.688 353.275 290.643 353.302C290.49 353.413 290.337 353.515 290.185 353.621C289.079 354.381 287.964 355.131 286.84 355.863C286.29 356.224 285.739 356.58 285.184 356.932V356.937C285.179 356.937 285.179 356.937 285.175 356.941H285.165L285.156 356.951L285.128 356.965C285.115 356.974 285.105 356.978 285.091 356.988C284.666 357.261 284.245 357.53 283.815 357.798C283.685 357.886 283.556 357.965 283.426 358.044C283.199 358.187 282.968 358.331 282.737 358.474C282.51 358.613 282.279 358.757 282.048 358.896C281.756 359.072 281.465 359.252 281.173 359.424L281.192 357.895L281.22 355.863L281.354 346.517L281.816 339.052L284.56 294.87L284.994 287.877L285.092 286.302L286.327 266.422L286.748 259.596L287.705 244.222L288.135 237.229L288.556 230.473L288.575 230.209L288.612 229.579L288.635 229.195V229.19L289.125 221.346L289.144 221.012L289.491 215.464V215.455L289.986 207.416L290.3 202.368L290.652 196.7L290.934 192.157L290.999 191.115L291.17 188.355L291.179 188.244L292.243 171.064L292.521 166.586V166.581L292.812 161.885L293.011 158.672L293.423 152.105L293.858 145.122L294.029 142.362L294.635 132.563V132.558L294.972 127.103L295.31 121.639L295.81 113.646L296.138 108.32L296.337 105.106L297.78 81.804L297.845 80.7944L297.984 78.5902L298.451 71.0512L288.418 53.8152L289.153 41.9787L289.352 38.7649L291.461 4.81144L291.526 3.79731L291.642 1.89861C300.699 0.903023 308.087 1.63462 313.236 6.32108L313.379 38.7649L313.393 41.9786L316.321 77.5019L316.326 78.5902L316.34 81.804L317.529 142.362L317.542 145.122L319.578 188.355L319.592 191.115L320.646 221.012L320.688 230.209L325.679 314.236L325.712 321.886Z" fill="#CCCCCC"/>
<path d="M286.84 355.862C286.29 356.224 285.739 356.58 285.184 356.932V356.937C285.179 356.937 285.179 356.937 285.175 356.941H285.166L285.156 356.951L285.129 356.965C285.115 356.974 285.105 356.978 285.092 356.988C284.666 357.261 284.245 357.529 283.815 357.798C283.685 357.886 283.556 357.965 283.426 358.044C283.2 358.187 282.968 358.331 282.737 358.474C282.51 358.613 282.279 358.757 282.048 358.896C281.756 359.072 281.465 359.252 281.173 359.424C280.54 359.808 279.904 360.188 279.268 360.563C279.036 360.702 278.8 360.836 278.564 360.975C278.333 361.109 278.097 361.243 277.861 361.378V361.392L277.834 361.396L277.824 361.401L277.815 361.41H277.81C277.163 361.781 276.52 362.151 275.867 362.512L275.863 362.517C275.34 362.809 274.817 363.096 274.29 363.383C273.041 364.064 271.784 364.732 270.52 365.388C269.641 365.847 268.757 366.291 267.869 366.731C267.333 367 266.791 367.264 266.25 367.528C265.801 367.745 265.348 367.963 264.899 368.176C264.774 368.236 264.654 368.296 264.529 368.352C264.326 368.449 264.118 368.546 263.914 368.639C263.743 368.718 263.576 368.796 263.405 368.875C262.998 369.07 262.586 369.255 262.179 369.44C261.721 369.649 261.268 369.852 260.81 370.056C259.089 370.825 257.35 371.566 255.606 372.279C249.376 374.833 243.008 377.037 236.533 378.882C236.232 378.97 235.927 379.058 235.622 379.142C232.851 379.92 230.06 380.631 227.249 381.276C222.341 382.406 217.388 383.334 212.39 384.06C212.381 384.06 212.367 384.064 212.358 384.064C211.761 384.152 211.16 384.236 210.563 384.319C210.512 384.328 210.457 384.337 210.401 384.342C210.397 384.347 210.392 384.347 210.383 384.342H210.378C209.717 384.43 209.055 384.518 208.389 384.602C208.343 384.611 208.296 384.615 208.25 384.62C207.63 384.694 207.006 384.768 206.381 384.838C205.711 384.912 205.04 384.981 204.364 385.051H204.36C203.333 385.153 202.306 385.25 201.279 385.333C201.26 385.333 201.242 385.338 201.223 385.338C200.816 385.375 200.409 385.403 200.002 385.435H199.998C195.21 385.815 190.377 386.003 185.5 386C180.203 386 174.961 385.779 169.772 385.338C169.753 385.338 169.735 385.333 169.716 385.333C168.611 385.241 167.507 385.139 166.404 385.028C166.113 385 165.826 384.967 165.534 384.94C165.479 384.935 165.423 384.93 165.368 384.921C165.28 384.912 165.192 384.903 165.1 384.893C165.053 384.889 165.002 384.884 164.956 384.875C164.572 384.833 164.188 384.791 163.8 384.745C163.37 384.694 162.935 384.643 162.504 384.588C162.074 384.537 161.639 384.481 161.209 384.421C161.117 384.412 161.02 384.402 160.927 384.384C160.612 384.347 160.298 384.305 159.988 384.259C159.835 384.24 159.687 384.217 159.539 384.194C159.239 384.152 158.943 384.111 158.642 384.064C158.633 384.064 158.619 384.06 158.609 384.06C149.163 382.694 139.838 380.59 130.72 377.766H130.715C130.22 377.614 129.725 377.456 129.23 377.299C129.082 377.257 128.934 377.211 128.786 377.16C127.5 376.748 126.222 376.322 124.951 375.882C123.198 375.28 121.457 374.65 119.728 373.992C119.257 373.812 118.789 373.631 118.318 373.45C117.379 373.08 116.444 372.709 115.514 372.33C113.928 371.681 112.352 371.013 110.787 370.325H110.782V370.32C109.547 369.774 108.316 369.218 107.095 368.639C106.873 368.537 106.651 368.435 106.429 368.329C106.386 368.316 106.346 368.297 106.309 368.273C106.304 368.273 106.304 368.269 106.299 368.269C105.98 368.12 105.661 367.967 105.342 367.815L105.333 367.81C103.7 367.027 102.081 366.22 100.475 365.388C98.4862 364.36 96.514 363.295 94.5588 362.193C92.9397 361.281 91.3361 360.344 89.7478 359.382C87.865 358.243 86.0023 357.07 84.1597 355.862H286.84Z" fill="#2F2E41"/>
<path d="M119.168 25.059C119.679 25.059 120.094 24.5761 120.094 23.9804C120.094 23.3846 119.679 22.9017 119.168 22.9017C118.657 22.9017 118.243 23.3846 118.243 23.9804C118.243 24.5761 118.657 25.059 119.168 25.059Z" fill="white"/>
<path d="M175.382 26.3967C175.893 26.3967 176.307 25.9138 176.307 25.3181C176.307 24.7223 175.893 24.2394 175.382 24.2394C174.871 24.2394 174.457 24.7223 174.457 25.3181C174.457 25.9138 174.871 26.3967 175.382 26.3967Z" fill="white"/>
<path d="M210.076 27.4754C210.587 27.4754 211.001 26.9924 211.001 26.3967C211.001 25.801 210.587 25.3181 210.076 25.3181C209.565 25.3181 209.151 25.801 209.151 26.3967C209.151 26.9924 209.565 27.4754 210.076 27.4754Z" fill="white"/>
<path d="M258.871 163.934C259.382 163.934 259.797 163.519 259.797 163.008C259.797 162.496 259.382 162.082 258.871 162.082C258.361 162.082 257.946 162.496 257.946 163.008C257.946 163.519 258.361 163.934 258.871 163.934Z" fill="white"/>
<path d="M202.675 111.828C203.186 111.828 203.6 111.413 203.6 110.901C203.6 110.39 203.186 109.975 202.675 109.975C202.164 109.975 201.75 110.39 201.75 110.901C201.75 111.413 202.164 111.828 202.675 111.828Z" fill="white"/>
<path d="M156.176 159.303C156.687 159.303 157.101 158.888 157.101 158.377C157.101 157.865 156.687 157.451 156.176 157.451C155.665 157.451 155.25 157.865 155.25 158.377C155.25 158.888 155.665 159.303 156.176 159.303Z" fill="white"/>
<path d="M148.312 110.679C148.823 110.679 149.237 110.264 149.237 109.753C149.237 109.241 148.823 108.827 148.312 108.827C147.801 108.827 147.387 109.241 147.387 109.753C147.387 110.264 147.801 110.679 148.312 110.679Z" fill="white"/>
<path d="M86.3241 100.954C86.8351 100.954 87.2493 100.54 87.2493 100.028C87.2493 99.5166 86.8351 99.1019 86.3241 99.1019C85.8131 99.1019 85.3989 99.5166 85.3989 100.028C85.3989 100.54 85.8131 100.954 86.3241 100.954Z" fill="white"/>
<path d="M297.789 290.055L296.865 290.08L298.253 340.984L299.177 340.958L297.789 290.055Z" fill="#B3B3B3"/>
<path d="M312.13 90.4707L311.205 90.4844L312.593 183.992L313.518 183.978L312.13 90.4707Z" fill="#B3B3B3"/>
<path d="M280.35 187.088H267.288C266.993 187.087 266.702 187.151 266.434 187.275C266.167 187.399 265.929 187.58 265.739 187.806C265.557 187.771 265.372 187.753 265.187 187.753C264.365 187.753 263.577 188.08 262.996 188.661C262.415 189.243 262.089 190.032 262.089 190.854C262.089 191.677 262.415 192.466 262.996 193.047C263.577 193.629 264.365 193.956 265.187 193.956C265.655 193.956 266.116 193.848 266.536 193.642L266.754 196.322L267.62 206.914C267.661 207.047 267.716 207.174 267.784 207.295C267.959 207.616 268.218 207.885 268.532 208.072C268.847 208.259 269.206 208.358 269.572 208.358H278.066C278.432 208.358 278.791 208.259 279.106 208.072C279.421 207.884 279.68 207.616 279.856 207.295C279.922 207.173 279.976 207.046 280.018 206.914L282.302 189.734C282.396 189.428 282.417 189.104 282.363 188.789C282.309 188.474 282.182 188.175 281.992 187.918C281.802 187.661 281.555 187.451 281.27 187.307C280.984 187.163 280.669 187.088 280.35 187.088V187.088ZM265.187 193.07C264.6 193.069 264.038 192.836 263.624 192.42C263.209 192.005 262.976 191.441 262.976 190.854C262.976 190.267 263.209 189.704 263.624 189.288C264.038 188.873 264.6 188.639 265.187 188.638C265.227 188.638 265.264 188.649 265.304 188.651C265.216 189.008 265.227 189.382 265.336 189.734L266.271 192.775C265.941 192.967 265.568 193.068 265.187 193.07V193.07Z" fill="#F2F2F2"/>
<path d="M275.867 362.514L273.688 358.541L274.762 358.036L275.618 357.629L279.351 355.864L281.594 354.804L282.519 354.364L283.255 354.016L284.476 355.864L285.091 356.795L285.184 356.934V356.939C285.165 356.946 285.146 356.955 285.128 356.966C285.115 356.975 285.105 356.98 285.091 356.99C284.666 357.263 284.245 357.531 283.815 357.8C283.685 357.888 283.556 357.967 283.426 358.045C283.199 358.189 282.968 358.332 282.737 358.476C282.51 358.615 282.279 358.758 282.048 358.897C281.127 359.462 280.197 360.018 279.267 360.564C279.036 360.703 278.8 360.838 278.564 360.977C278.333 361.111 278.097 361.245 277.861 361.38V361.393L277.833 361.398L277.824 361.403L277.815 361.412H277.81C277.163 361.782 276.52 362.153 275.867 362.514Z" fill="#2F2E41"/>
<g opacity="0.49">
<path d="M273.666 180.126C273.771 179.987 273.867 179.839 273.952 179.686C273.788 179.754 273.618 179.808 273.444 179.846L273.666 180.126Z" fill="white"/>
<path d="M274.86 170.679C274.028 169.083 273.093 167.497 272.759 165.728C272.425 163.955 272.718 162.134 272.82 160.334C272.923 158.533 272.794 156.608 271.754 155.135C270.335 159.634 268.928 164.59 270.744 168.943C271.532 170.832 272.874 172.44 273.739 174.294C274.53 175.987 274.85 178.097 273.952 179.686C275.417 179.094 276.334 177.413 276.39 175.794C276.454 173.995 275.693 172.275 274.86 170.679Z" fill="white"/>
</g>
<g opacity="0.49">
<path d="M272.096 186.147C272.137 186.093 272.174 186.035 272.208 185.975C272.144 186.002 272.077 186.023 272.01 186.038L272.096 186.147Z" fill="white"/>
<path d="M272.56 182.476C272.195 181.878 271.92 181.23 271.744 180.552C271.667 179.855 271.675 179.152 271.768 178.457C271.859 177.756 271.713 177.045 271.353 176.437C270.802 178.185 270.255 180.11 270.961 181.802C271.267 182.535 271.788 183.16 272.125 183.88C272.299 184.2 272.397 184.555 272.411 184.918C272.425 185.282 272.356 185.644 272.207 185.975C272.49 185.836 272.728 185.621 272.895 185.354C273.063 185.087 273.152 184.779 273.155 184.463C273.13 183.761 272.926 183.076 272.56 182.476Z" fill="white"/>
</g>
<path d="M90.7795 43.9375H61.6361C60.7773 43.9375 59.9537 43.596 59.3464 42.988C58.7391 42.3801 58.3979 41.5556 58.3979 40.6959C58.3979 39.8362 58.7391 39.0116 59.3464 38.4037C59.9537 37.7958 60.7773 37.4543 61.6361 37.4543H90.7795C91.6383 37.4543 92.4619 37.7958 93.0692 38.4037C93.6765 39.0116 94.0176 39.8362 94.0176 40.6959C94.0176 41.5556 93.6765 42.3801 93.0692 42.988C92.4619 43.596 91.6383 43.9375 90.7795 43.9375V43.9375Z" fill="#2F2E41"/>
<path d="M340.586 6.65916H34.8124C33.9536 6.65916 33.1299 6.31763 32.5227 5.70972C31.9154 5.1018 31.5742 4.27729 31.5742 3.41756C31.5742 2.55784 31.9154 1.73332 32.5227 1.12541C33.1299 0.517488 33.9536 0.175964 34.8124 0.175964H340.586C341.445 0.175964 342.269 0.517488 342.876 1.12541C343.483 1.73332 343.825 2.55784 343.825 3.41756C343.825 4.27729 343.483 5.1018 342.876 5.70972C342.269 6.31763 341.445 6.65916 340.586 6.65916V6.65916Z" fill="#2F2E41"/>
<path d="M80.6022 76.3535H51.4589C50.6 76.3535 49.7764 76.0119 49.1691 75.404C48.5619 74.7961 48.2207 73.9716 48.2207 73.1119C48.2207 72.2521 48.5619 71.4276 49.1691 70.8197C49.7764 70.2118 50.6 69.8703 51.4589 69.8703H80.6022C81.461 69.8703 82.2847 70.2118 82.8919 70.8197C83.4992 71.4276 83.8404 72.2521 83.8404 73.1119C83.8404 73.9716 83.4992 74.7961 82.8919 75.404C82.2847 76.0119 81.461 76.3535 80.6022 76.3535V76.3535Z" fill="#2F2E41"/>
<path d="M312.824 43.9375H283.681C282.822 43.9375 281.998 43.596 281.391 42.988C280.784 42.3801 280.442 41.5556 280.442 40.6959C280.442 39.8362 280.784 39.0116 281.391 38.4037C281.998 37.7958 282.822 37.4543 283.681 37.4543H312.824C313.683 37.4543 314.506 37.7958 315.114 38.4037C315.721 39.0116 316.062 39.8362 316.062 40.6959C316.062 41.5556 315.721 42.3801 315.114 42.988C314.506 43.596 313.683 43.9375 312.824 43.9375V43.9375Z" fill="#2F2E41"/>
<path d="M324.389 74.9642H295.245C294.387 74.9642 293.563 74.6227 292.956 74.0148C292.348 73.4069 292.007 72.5823 292.007 71.7226C292.007 70.8629 292.348 70.0384 292.956 69.4305C293.563 68.8225 294.387 68.481 295.245 68.481H324.389C325.248 68.481 326.071 68.8225 326.679 69.4305C327.286 70.0384 327.627 70.8629 327.627 71.7226C327.627 72.5823 327.286 73.4069 326.679 74.0148C326.071 74.6227 325.248 74.9642 324.389 74.9642V74.9642Z" fill="#2F2E41"/>
<path d="M63.2553 86.3029L62.3301 86.3167L63.7179 179.824L64.643 179.81L63.2553 86.3029Z" fill="#B3B3B3"/>
<path d="M72.5067 193.739L71.5815 193.752L72.9693 287.26L73.8945 287.246L72.5067 193.739Z" fill="#B3B3B3"/>
<path d="M62.3295 272.921L61.4048 272.946L62.7926 323.849L63.7173 323.824L62.3295 272.921Z" fill="#B3B3B3"/>
<path d="M246.598 305.513V303.745C246.598 303.07 246.34 302.42 245.877 301.929C245.414 301.438 244.781 301.143 244.107 301.104V294.202H243.521V301.096H240.884V305.497H228.428V356.105H255.977V315.434C255.976 312.894 255.004 310.45 253.26 308.605C251.516 306.759 249.132 305.653 246.598 305.513V305.513Z" fill="#2F2E41"/>
<path d="M236.634 312.685H232.971V315.618H236.634V312.685Z" fill="white"/>
<path d="M242.642 312.685H238.979V315.618H242.642V312.685Z" fill="white"/>
<path d="M248.65 312.685H244.986V315.618H248.65V312.685Z" fill="white"/>
<path d="M236.634 320.166H232.971V323.099H236.634V320.166Z" fill="white"/>
<path d="M242.642 320.166H238.979V323.099H242.642V320.166Z" fill="white"/>
<path d="M248.65 320.166H244.986V323.099H248.65V320.166Z" fill="white"/>
<path d="M236.634 327.647H232.971V330.581H236.634V327.647Z" fill="white"/>
<path d="M242.642 327.647H238.979V330.581H242.642V327.647Z" fill="white"/>
<path d="M248.65 327.647H244.986V330.581H248.65V327.647Z" fill="white"/>
<path d="M236.634 335.128H232.971V338.062H236.634V335.128Z" fill="white"/>
<path d="M242.642 335.128H238.979V338.062H242.642V335.128Z" fill="white"/>
<path d="M248.65 335.128H244.986V338.062H248.65V335.128Z" fill="white"/>
<path d="M236.634 342.609H232.971V345.543H236.634V342.609Z" fill="white"/>
<path d="M242.642 342.609H238.979V345.543H242.642V342.609Z" fill="white"/>
<path d="M248.65 342.609H244.986V345.543H248.65V342.609Z" fill="white"/>
<path d="M236.634 350.09H232.971V353.024H236.634V350.09Z" fill="white"/>
<path d="M242.642 350.09H238.979V353.024H242.642V350.09Z" fill="white"/>
<path d="M248.65 350.09H244.986V353.024H248.65V350.09Z" fill="white"/>
<path d="M219.262 280.853H218.419V275.654C218.419 274.951 218.14 274.278 217.644 273.781C217.147 273.284 216.474 273.005 215.772 273.005H212.118V265.524H211.532V273.005H206.55V280.853H201.641V356.105H229.189V290.79C229.189 289.485 228.932 288.193 228.433 286.987C227.934 285.782 227.203 284.686 226.281 283.763C225.36 282.841 224.265 282.109 223.061 281.609C221.857 281.11 220.566 280.853 219.262 280.853V280.853Z" fill="#2F2E41"/>
<path d="M221.349 286.794H209.48V287.674H221.349V286.794Z" fill="white"/>
<path d="M221.349 292.221H209.48V293.101H221.349V292.221Z" fill="white"/>
<path d="M221.349 297.649H209.48V298.529H221.349V297.649Z" fill="white"/>
<path d="M221.349 303.076H209.48V303.956H221.349V303.076Z" fill="white"/>
<path d="M221.349 308.504H209.48V309.384H221.349V308.504Z" fill="white"/>
<path d="M221.349 313.931H209.48V314.812H221.349V313.931Z" fill="white"/>
<path d="M221.349 319.359H209.48V320.239H221.349V319.359Z" fill="white"/>
<path d="M221.349 324.786H209.48V325.667H221.349V324.786Z" fill="white"/>
<path d="M221.349 330.214H209.48V331.094H221.349V330.214Z" fill="white"/>
<path d="M221.349 335.641H209.48V336.522H221.349V335.641Z" fill="white"/>
<path d="M221.349 341.069H209.48V341.949H221.349V341.069Z" fill="white"/>
<path d="M221.349 346.496H209.48V347.377H221.349V346.496Z" fill="white"/>
<path d="M214.316 274.619H210.652V277.552H214.316V274.619Z" fill="white"/>
<path d="M331.614 310.403V314.719C330.948 315.571 330.273 316.423 329.588 317.261C329.44 317.447 329.292 317.627 329.149 317.808C328.922 318.081 328.7 318.354 328.478 318.623C328.404 318.715 328.33 318.803 328.251 318.896C327.872 319.35 327.492 319.804 327.104 320.258C327.104 320.258 327.109 320.262 327.104 320.262C326.729 320.707 326.35 321.151 325.966 321.596C325.758 321.841 325.545 322.082 325.328 322.328C325.008 322.703 324.68 323.073 324.347 323.444C324.342 323.448 324.342 323.453 324.338 323.457L324.324 323.471V310.403L331.614 310.403Z" fill="#2F2E41"/>
<path d="M341.125 301.401C339.913 303.272 338.669 305.115 337.392 306.93C337.392 306.935 337.387 306.935 337.383 306.939C336.62 308.032 335.838 309.116 335.051 310.19C334.547 310.876 334.038 311.558 333.525 312.237C333.011 312.918 332.493 313.592 331.97 314.261C331.855 314.413 331.735 314.566 331.614 314.719C330.948 315.571 330.273 316.423 329.588 317.261C329.44 317.447 329.292 317.627 329.149 317.808C328.922 318.081 328.7 318.354 328.478 318.623C328.399 318.715 328.325 318.803 328.251 318.896C327.872 319.35 327.493 319.804 327.104 320.258C327.104 320.258 327.109 320.262 327.104 320.262C326.729 320.707 326.35 321.151 325.966 321.596C325.758 321.841 325.545 322.082 325.328 322.328H310.224C308.612 322.326 307.067 321.685 305.927 320.544C304.787 319.403 304.147 317.856 304.146 316.243V307.486C304.147 305.872 304.788 304.326 305.928 303.185C307.067 302.044 308.612 301.403 310.224 301.401H341.125Z" fill="#2F2E41"/>
<path d="M349.113 226.447C348.185 226.126 347.209 225.963 346.227 225.965H343.742C342.838 225.966 341.938 226.101 341.073 226.368C339.249 226.942 337.656 228.082 336.524 229.625C335.391 231.167 334.78 233.03 334.777 234.944V307.996C334.777 308.269 334.791 308.538 334.814 308.802C334.855 309.27 334.934 309.735 335.05 310.191C335.837 309.117 336.618 308.033 337.382 306.94C337.386 306.935 337.391 306.935 337.391 306.931C338.668 305.115 339.912 303.272 341.124 301.402C341.776 300.397 342.424 299.382 343.058 298.364C347.637 291.008 351.694 283.339 355.196 275.413V234.944C355.194 233.07 354.607 231.243 353.516 229.719C352.425 228.195 350.886 227.051 349.113 226.447V226.447Z" fill="#2F2E41"/>
<path d="M241.205 362.293L234.907 359.278L243.558 332.926L252.853 337.377L241.205 362.293Z" fill="#FFB6B6"/>
<path d="M283.426 358.045C282.968 358.332 282.51 358.615 282.047 358.897C281.127 359.462 280.197 360.018 279.267 360.564C278.8 360.838 278.328 361.111 277.861 361.38V361.393L277.833 361.398L277.824 361.403L277.111 361.579L276.089 358.874L275.617 357.629L274.951 355.864L273.73 352.636L267.3 335.641L277.296 333.173L277.671 334.706H277.676L277.861 335.465L281.353 349.645L282.066 352.544L282.089 352.632L282.519 354.364L282.889 355.864L283.301 357.541L283.426 358.045Z" fill="#FFB6B6"/>
<path d="M257.929 247.757C258.827 249.217 260.26 250.268 261.922 250.686C263.583 251.103 265.342 250.854 266.823 249.991C267.121 249.81 267.403 249.605 267.667 249.378L287.577 260.817L286.712 249.075L267.938 240.013C266.916 238.986 265.583 238.327 264.147 238.14C262.711 237.953 261.254 238.248 260.003 238.979C258.572 239.839 257.541 241.233 257.137 242.855C256.732 244.476 256.988 246.192 257.847 247.625C257.874 247.669 257.901 247.713 257.929 247.757Z" fill="#FFB6B6"/>
<path d="M279.017 256.51L282.537 258.657L298.343 268.306C299.381 268.955 300.536 269.394 301.743 269.597C302.95 269.8 304.185 269.763 305.378 269.488C306.57 269.213 307.697 268.706 308.694 267.995C309.691 267.284 310.538 266.384 311.187 265.345L311.192 265.337C312.363 263.406 312.777 261.11 312.355 258.892L305.329 223.757C305.07 222.377 304.516 221.07 303.705 219.925C302.895 218.78 301.847 217.823 300.633 217.121C299.419 216.418 298.068 215.987 296.672 215.855C295.276 215.723 293.868 215.895 292.545 216.358C290.32 217.141 288.477 218.742 287.39 220.837C286.303 222.932 286.055 225.363 286.694 227.635L294.041 252.57L282.78 247.314L279.017 256.51Z" fill="#7D92E7"/>
<path d="M343.83 291.153C343.826 291.14 343.816 291.089 343.802 291.01L343.789 290.959C343.756 290.792 343.719 290.607 343.678 290.403C342.734 285.711 341.521 281.077 340.046 276.525C339.172 273.736 338.014 271.046 336.591 268.495C336.544 268.411 336.494 268.328 336.443 268.245L336.271 267.967L334.833 268.495L334.777 268.513L312.906 276.538L306.582 278.859L306.383 278.933L305.305 283.332L290.183 281.373L277.86 279.775L274.321 279.317C272.787 279.117 271.228 279.224 269.736 279.633C268.244 280.042 266.848 280.743 265.629 281.697C264.357 282.684 263.294 283.915 262.502 285.317C261.711 286.72 261.206 288.266 261.017 289.866C260.971 290.218 260.943 290.575 260.929 290.927L259.86 330.831V330.882L260.355 331.873L270.694 352.637H277.86L282.088 352.633H285.525L278.378 334.531L278.54 334.285C279.212 333.253 279.636 332.079 279.778 330.855C279.92 329.631 279.777 328.391 279.359 327.232L280.164 324.899C281.834 320.078 281.042 317.762 280.043 314.836C279.146 312.456 278.619 309.952 278.48 307.412L278.313 304.111C282.509 304.847 286.418 305.667 290.183 306.491C291.442 306.764 292.688 307.04 293.921 307.32C297.432 308.102 300.823 308.857 304.144 309.487C310.87 310.77 317.314 311.552 323.934 311.066C324.064 311.057 324.193 311.048 324.323 311.034C325.933 310.904 327.552 310.696 329.189 310.404C330.11 310.237 331.035 310.047 331.969 309.825C332.228 309.76 332.492 309.695 332.751 309.631C333.47 309.441 334.163 309.162 334.814 308.802C335.74 308.284 336.602 307.659 337.382 306.94C337.386 306.935 337.391 306.935 337.391 306.931C338.668 305.115 339.912 303.272 341.124 301.402C341.776 300.397 342.424 299.382 343.058 298.364C343.983 295.821 344.334 293.256 343.83 291.153Z" fill="#2F2E41"/>
<path d="M343.983 283.656C343.913 283.36 343.826 283.059 343.733 282.767C342.999 280.557 342.143 278.39 341.17 276.274C340.079 273.866 338.769 271.287 337.21 268.495C336.456 267.142 335.645 265.736 334.777 264.276C334.342 263.544 333.891 262.799 333.422 262.039C333.404 262.004 333.383 261.97 333.362 261.937L333.228 261.715L311.587 264.614L303.529 265.693L303.048 269.713L302.932 270.708C302.928 270.708 302.928 270.708 302.932 270.713L302.608 273.427V273.431L302.178 277.015L302.141 277.011L290.183 275.459L277.86 273.862L271.24 273.005C269.706 272.805 268.147 272.912 266.655 273.321C265.163 273.73 263.767 274.431 262.548 275.385C261.276 276.372 260.213 277.603 259.422 279.006C258.63 280.408 258.125 281.954 257.936 283.554C257.894 283.878 257.866 284.212 257.853 284.541L251.608 299.355C247.871 308.214 245.491 317.588 244.548 327.158L239.969 341.815L240.621 341.875L250.326 342.778L252.889 343.019L258.533 334.771C259.176 333.831 259.786 332.864 260.355 331.873C261.292 330.254 262.125 328.577 262.849 326.853L275.056 297.771C276 297.933 276.935 298.087 277.86 298.234C282.139 298.929 286.247 299.495 290.183 299.934C302.983 301.364 314.067 301.476 323.934 300.262C326.705 299.924 329.383 299.48 331.969 298.929C332.918 298.729 333.854 298.515 334.777 298.285C334.995 298.234 335.207 298.183 335.42 298.127C337.332 297.634 339.09 296.668 340.532 295.319C341.975 293.969 343.056 292.279 343.677 290.403C344.419 288.229 344.525 285.888 343.983 283.656V283.656Z" fill="#2F2E41"/>
<path d="M297.966 196.194C306.233 196.194 312.935 189.335 312.935 180.875C312.935 172.415 306.233 165.556 297.966 165.556C289.699 165.556 282.998 172.415 282.998 180.875C282.998 189.335 289.699 196.194 297.966 196.194Z" fill="#FFB6B6"/>
<path d="M333.51 262.553C333.487 262.382 333.459 262.211 333.422 262.039C333.066 260.159 332.141 258.316 331.248 256.529C330.397 254.824 329.587 253.213 329.254 251.611C328.926 250.031 329.12 248.448 329.31 246.92C329.513 245.262 329.726 243.548 329.249 241.886C326.833 233.396 323.514 225.189 319.35 217.407C318.299 213.985 316.285 210.939 313.549 208.635C310.812 206.33 307.47 204.864 303.922 204.413C304.336 203.639 304.509 202.758 304.417 201.884C304.359 201.32 304.19 200.773 303.919 200.274C303.649 199.776 303.282 199.336 302.84 198.981C302.416 198.639 301.928 198.384 301.404 198.231C300.881 198.079 300.333 198.031 299.791 198.092L292.834 198.874C291.719 199.015 290.704 199.59 290.01 200.475C289.316 201.361 288.999 202.485 289.129 203.602C289.168 203.947 289.245 204.285 289.36 204.612C282.902 212.846 279.585 220.348 279.28 227.442V227.447C279.243 228.266 279.248 229.087 279.294 229.906C279.44 232.554 280.015 235.161 280.996 237.625C282.155 240.472 283.706 243.142 285.604 245.558C285.992 246.049 286.395 246.531 286.811 247.003C287.2 247.466 287.634 247.952 288.116 248.462L289.332 250.369L290.466 252.152L296.526 266.151L299.611 266.05L300.041 269.129L300.143 269.847L302.141 277.011L302.289 277.548L305.023 276.247L321.334 268.495L333.528 262.697L333.51 262.553Z" fill="#7D92E7"/>
<path opacity="0.2" d="M281.179 237.551C282.57 240.961 284.525 244.113 286.962 246.872C287.38 247.371 287.821 247.861 288.282 248.352L290.65 252.072C299.379 245.522 306.451 219.733 306.451 219.733L296.602 217.816L281.179 237.551Z" fill="black"/>
<path d="M275.217 197.625C276.079 199.107 276.33 200.869 275.915 202.534C275.5 204.199 274.452 205.636 272.995 206.539C272.696 206.718 272.382 206.872 272.058 206.999L272.755 229.97L262.818 223.708L263.68 202.855C263.257 201.467 263.305 199.978 263.816 198.621C264.328 197.263 265.273 196.113 266.506 195.35C267.931 194.488 269.64 194.227 271.258 194.625C272.875 195.024 274.268 196.049 275.13 197.476C275.16 197.525 275.189 197.575 275.217 197.625Z" fill="#FFB6B6"/>
<path d="M273.628 221.299L262.701 222.855L263.171 245.508C263.198 247.124 263.637 248.706 264.448 250.104C265.258 251.502 266.412 252.67 267.799 253.496V253.496C269.495 254.494 271.469 254.914 273.423 254.692C275.378 254.47 277.207 253.618 278.636 252.264L304.435 227.423C306.25 225.699 307.336 223.344 307.47 220.843C307.605 218.342 306.776 215.885 305.156 213.977V213.977C303.568 212.095 301.299 210.922 298.847 210.716C296.395 210.509 293.962 211.286 292.082 212.876C292.009 212.938 291.936 213.001 291.865 213.065C291.61 213.294 291.367 213.535 291.138 213.79L274.103 233.408L273.628 221.299Z" fill="#7D92E7"/>
<path d="M243.216 357.991L236.402 354.721L235.334 354.207L233.627 358.403L221.71 361.028C221.121 361.158 220.589 361.472 220.191 361.926C219.793 362.38 219.55 362.949 219.499 363.551C219.447 364.152 219.589 364.755 219.904 365.27C220.218 365.785 220.689 366.186 221.248 366.414L232.891 371.17L236.587 367.84L235.681 372.309L240.066 374.101L244.872 358.787L243.216 357.991Z" fill="#2F2E41"/>
<path d="M338.021 174.231C335.477 171.261 334.267 167.32 332.233 163.947C330.199 160.574 326.66 157.555 322.92 158.34C320.342 158.881 318.35 161.158 317.342 163.697C316.333 166.236 316.144 169.035 315.968 171.778C316.03 166.142 312.321 160.678 307.211 158.879C302.101 157.081 295.986 159.087 292.776 163.615C291.374 162.315 289.546 161.575 287.636 161.534C285.726 161.494 283.867 162.157 282.413 163.397C279.541 165.967 278.905 170.857 281.017 174.135C283.129 177.412 287.704 178.633 291.06 176.816L292.247 177.908C291.579 180.247 292.874 183.009 295.052 183.89C296.817 184.604 299.31 184.485 299.971 186.34C300.432 187.636 299.569 189.019 298.651 190.015C297.733 191.011 296.644 192.04 296.533 193.418C296.367 195.497 298.513 196.954 300.465 197.393C305.17 198.451 310.391 196.269 313.103 192.113C313.155 192.032 313.212 191.952 313.273 191.872C314.795 189.924 315.904 187.686 316.532 185.295C317.16 182.903 317.295 180.409 316.928 177.964C316.775 177.003 316.929 176.288 317.591 176.061C320.451 175.077 328.464 177.141 330.889 179.007C333.314 180.872 335.256 183.341 337.592 185.327C339.928 187.313 342.904 188.845 345.87 188.304C348.246 187.871 350.267 186.144 351.626 184.062C352.985 181.98 353.767 179.552 354.468 177.14C349.215 180.178 342.026 178.906 338.021 174.231Z" fill="#2F2E41"/>
<path d="M290.772 353.215V353.317L290.642 353.303C290.49 353.414 290.337 353.516 290.184 353.623C289.079 354.382 287.964 355.129 286.84 355.864C286.289 356.225 285.739 356.582 285.184 356.934V356.939C285.179 356.939 285.175 356.943 285.17 356.943H285.165L285.156 356.952L285.128 356.966C285.114 356.976 285.105 356.98 285.091 356.99V271.384C285.091 268.901 284.259 266.887 283.236 266.882H206.219C205.192 266.887 204.364 268.901 204.36 271.384V385.052C203.333 385.154 202.306 385.252 201.279 385.335C201.26 385.335 201.242 385.339 201.223 385.339C200.816 385.377 200.409 385.404 200.002 385.437H199.997C199.752 384.983 199.512 384.525 199.271 384.061V265.544C199.271 264.859 199.299 264.169 199.345 263.488C199.411 262.553 199.527 261.623 199.692 260.7C200.474 256.398 202.241 253.485 204.249 253.476H285.202C285.495 253.478 285.785 253.539 286.053 253.657C286.448 253.831 286.805 254.081 287.104 254.393C287.509 254.815 287.856 255.29 288.135 255.805C289.125 257.551 289.833 260.154 290.083 263.182C290.083 263.21 290.087 263.238 290.087 263.266C290.152 264.016 290.184 264.78 290.18 265.544L290.245 275.468L290.286 281.386L290.411 299.956L290.457 306.55L290.772 353.215Z" fill="#2F2E41"/>
<path d="M230.192 225.944L224.835 249.541L221.412 253.295H218.942L229.121 210.392L229.624 217.68V217.685L230.192 225.944Z" fill="#2F2E41"/>
<path d="M255.975 250.059L224.546 249.86L221.757 249.842L219.767 249.828L217.45 249.814H217.431C217.095 249.814 216.773 249.948 216.534 250.184L212.62 254.102C212.534 254.187 212.463 254.288 212.412 254.398C212.388 254.43 212.368 254.464 212.352 254.5C212.267 254.697 212.232 254.912 212.25 255.126C212.268 255.34 212.338 255.546 212.454 255.726C212.57 255.906 212.729 256.055 212.916 256.16C213.103 256.264 213.313 256.321 213.527 256.325H254.24C254.484 256.324 254.723 256.254 254.93 256.123C255.136 255.992 255.301 255.805 255.406 255.584L255.725 254.889L256.382 253.477L257.126 251.884C257.206 251.714 257.247 251.529 257.247 251.342C257.245 251.004 257.111 250.68 256.873 250.44C256.635 250.2 256.312 250.064 255.975 250.059Z" fill="#2F2E41"/>
<path opacity="0.17" d="M255.725 254.888L255.403 255.585C255.299 255.806 255.134 255.992 254.929 256.123C254.723 256.254 254.485 256.324 254.241 256.325H213.526C213.312 256.321 213.102 256.265 212.915 256.161C212.728 256.056 212.57 255.907 212.454 255.727C212.338 255.547 212.268 255.341 212.25 255.127C212.233 254.913 212.268 254.699 212.353 254.502C212.368 254.465 212.387 254.431 212.412 254.4L255.725 254.888Z" fill="black"/>
<path opacity="0.17" d="M229.624 217.68V217.685L220.908 253.295H218.942L229.121 210.392L229.624 217.68Z" fill="black"/>
<path d="M240.321 224.205L227.983 130.241C227.938 129.888 227.755 129.569 227.474 129.351L218.981 118.71L218.218 118.122C217.935 117.907 217.58 117.813 217.228 117.858L215.951 118.029C215.599 118.074 215.279 118.258 215.063 118.539C214.846 118.821 214.749 119.177 214.795 119.529V119.529L227.581 216.888V216.893L228.363 222.848L229.292 229.92V229.929L230.736 240.932C230.759 241.12 230.822 241.302 230.922 241.463C231.022 241.625 231.156 241.763 231.314 241.867C231.469 241.974 231.646 242.047 231.832 242.081C232.018 242.114 232.209 242.108 232.392 242.062L233.201 241.858C233.511 241.778 233.783 241.591 233.969 241.33L234.33 240.816L234.497 240.575L240.085 225.155C240.281 224.88 240.365 224.54 240.321 224.205V224.205Z" fill="#2F2E41"/>
<path opacity="0.17" d="M218.979 118.71L234.498 240.577L234.329 240.816L233.97 241.328C233.784 241.59 233.512 241.777 233.202 241.857L232.391 242.061C232.207 242.106 232.016 242.112 231.83 242.079C231.644 242.046 231.467 241.973 231.311 241.867C231.155 241.76 231.023 241.622 230.923 241.461C230.824 241.3 230.76 241.119 230.735 240.932L214.797 119.531C214.75 119.178 214.846 118.822 215.062 118.54C215.278 118.258 215.598 118.073 215.95 118.027L217.23 117.858C217.404 117.835 217.58 117.846 217.749 117.892C217.919 117.937 218.077 118.016 218.216 118.124L218.979 118.71Z" fill="black"/>
<path d="M219.436 122.195L227.672 133.963L237.46 208.52L232.153 219.059L219.436 122.195Z" fill="#7D92E7"/>
<path d="M343.752 272.513C343.752 273.328 343.506 274.123 343.045 274.795C342.584 275.466 341.931 275.982 341.171 276.274C340.811 276.412 340.432 276.496 340.047 276.524C339.945 276.533 339.839 276.538 339.737 276.538H331.97V314.261C331.855 314.413 331.734 314.566 331.614 314.719C330.948 315.571 330.273 316.423 329.588 317.261C329.44 317.447 329.292 317.627 329.148 317.808C328.922 318.081 328.7 318.354 328.478 318.623C328.399 318.715 328.325 318.803 328.251 318.896C327.872 319.35 327.492 319.804 327.104 320.258C327.104 320.258 327.108 320.262 327.104 320.262C326.729 320.707 326.35 321.151 325.966 321.596C325.265 321.204 324.7 320.608 324.347 319.887C324.342 319.882 324.342 319.878 324.337 319.869C324.332 319.858 324.327 319.847 324.324 319.836C324.064 319.294 323.931 318.7 323.935 318.1V276.538H306.523C306.009 276.541 305.5 276.442 305.024 276.246C304.425 276.006 303.892 275.625 303.472 275.135C303.051 274.645 302.755 274.06 302.609 273.43V273.426C302.393 272.511 302.507 271.55 302.933 270.712C302.929 270.707 302.929 270.707 302.933 270.707C303.115 270.341 303.354 270.007 303.641 269.716C303.641 269.712 303.641 269.712 303.646 269.707C304.021 269.323 304.468 269.018 304.962 268.81C305.456 268.602 305.987 268.494 306.523 268.494H339.737C340.802 268.494 341.823 268.918 342.576 269.672C343.329 270.426 343.752 271.448 343.752 272.513V272.513Z" fill="#2F2E41"/>
<path d="M343.486 195.023C341.833 195.023 340.196 195.348 338.668 195.982C337.141 196.615 335.753 197.543 334.584 198.714C333.415 199.884 332.487 201.273 331.855 202.802C331.222 204.331 330.896 205.97 330.896 207.625V207.625C330.897 210.549 331.913 213.381 333.769 215.638C335.626 217.894 338.209 219.434 341.075 219.995V240.607H349.111V195.023H343.486Z" fill="#2F2E41"/>
<path d="M292.612 162.936C296.052 167.509 300.549 178.552 298.913 184.037Z" fill="#FD6584"/>
</svg>
