<svg width="16" height="15" viewBox="0 0 16 15" fill="none" xmlns="http://www.w3.org/2000/svg">
<g clip-path="url(#clip0_47_242)">
<path d="M10.5448 13.9553C8.57021 13.8719 6.11257 12.5688 5.06275 10.3034C4.39926 8.87237 3.86124 5.92684 7.60429 2.42896C7.64851 2.37618 7.70321 2.33328 7.76484 2.30304C7.82647 2.27279 7.89365 2.25589 7.96201 2.25343C8.03036 2.25097 8.09836 2.263 8.16157 2.28875C8.22479 2.31449 8.28181 2.35337 8.32892 2.40286C8.37603 2.45235 8.41218 2.51133 8.43501 2.57597C8.45785 2.64061 8.46685 2.70946 8.46144 2.77804C8.45603 2.84662 8.43633 2.91339 8.40362 2.97401C8.37091 3.03463 8.32592 3.08774 8.27158 3.12988C5.82872 5.4174 5.00448 7.81827 5.95077 9.88534C6.89706 11.9524 9.42479 13.1809 11.1656 12.9712C11.2899 12.9629 11.4123 13.0028 11.5077 13.0826C11.6031 13.1624 11.6641 13.2761 11.6783 13.4004C11.6926 13.5247 11.6589 13.6501 11.5842 13.7508C11.5095 13.8515 11.3995 13.92 11.2768 13.942C11.0334 13.9676 10.7885 13.972 10.5448 13.9553Z" fill="#68656F"/>
<path d="M8.72325 6.21138C8.61326 6.20679 8.50846 6.16436 8.42636 6.09118C8.34426 6.01799 8.28986 5.91849 8.27225 5.80933L7.79145 3.03161L5.01353 3.00251C4.8886 2.99497 4.77171 2.93932 4.68713 2.84712C4.60254 2.75492 4.55676 2.63324 4.55928 2.50736C4.5618 2.38147 4.61244 2.26104 4.70067 2.17106C4.7889 2.08108 4.90796 2.02847 5.03312 2.02414L8.21184 2.05676C8.32492 2.0588 8.4336 2.09985 8.51966 2.17303C8.60573 2.24621 8.66396 2.34708 8.68462 2.45876L9.23016 5.63497C9.24148 5.69837 9.24013 5.76349 9.22619 5.82655C9.21226 5.88961 9.18601 5.94934 9.14898 6.00228C9.11195 6.05521 9.06487 6.10029 9.01049 6.1349C8.95611 6.1695 8.89551 6.19294 8.83221 6.20384C8.79648 6.21222 8.75969 6.21476 8.72325 6.21138Z" fill="#68656F"/>
</g>
<defs>
<clipPath id="clip0_47_242">
<rect width="11.4191" height="10.1503" fill="white" transform="translate(5.43542 0.608337) rotate(26.6528)"/>
</clipPath>
</defs>
</svg>
