<svg width="133" viewBox="0 0 133 56" fill="none" xmlns="http://www.w3.org/2000/svg">
<path d="M100.131 49.8805L120.093 29.9972L100.131 10.1139L106.217 4.05368L132.264 29.9972L106.217 55.9407L100.131 49.8805Z" fill="#E6E6E6"/>
<path d="M51.2421 22.0205H43.1277V30.1279H51.2421V22.0205Z" fill="#E6E6E6"/>
<path d="M83.8619 22.0205H75.7476V30.1279H83.8619V22.0205Z" fill="#E6E6E6"/>
<path d="M67.5519 22.0205H59.4375V30.1279H67.5519V22.0205Z" fill="#E6E6E6"/>
<path d="M32.133 49.6779L12.1513 29.7946L32.1127 9.91137L26.0269 3.85114L0 29.7946L26.0472 55.7381L32.133 49.6779Z" fill="#E6E6E6"/>
<path d="M100.131 46.0296L120.093 26.1464L100.131 6.26278L106.217 0.202545L132.264 26.1464L106.217 52.0899L100.131 46.0296Z" fill="#7283E0"/>
<path d="M43.1277 27.565H51.2421V19.4576H43.1277L43.1277 27.565ZM83.8619 19.4576H75.7476V27.565H83.8619V19.4576ZM59.4376 27.565H67.552V19.4576H59.4376V27.565Z" fill="#7283E0"/>
<path d="M32.133 45.8268L12.1513 25.9435L32.1127 6.06024L26.0269 0L0 25.9435L26.0472 51.887L32.133 45.8268Z" fill="#7283E0"/>
</svg>
