<svg width="325" viewBox="0 0 325 203" fill="none" xmlns="http://www.w3.org/2000/svg">
<path d="M134.374 202.752H33.1397C29.0969 202.752 25.8079 199.464 25.8079 195.424V7.3276C25.8079 3.28711 29.0969 0 33.1397 0H134.374C138.417 0 141.706 3.28711 141.706 7.3276V195.424C141.706 199.464 138.417 202.752 134.374 202.752H134.374ZM33.1397 0.947437C29.6197 0.947437 26.7559 3.80964 26.7559 7.3276V195.424C26.7559 198.942 29.6197 201.804 33.1397 201.804H134.374C137.894 201.804 140.758 198.942 140.758 195.424V7.3276C140.758 3.80964 137.894 0.947437 134.374 0.947437H33.1397Z" fill="#3F3D56"/>
<path d="M315.93 95.6469C315.53 94.9725 313.798 95.6946 313.48 95.0825C313.163 94.4727 314.771 93.5435 315.69 91.4208C315.856 91.038 316.9 88.6257 316.127 87.8813C314.662 86.4704 307.956 92.2929 305.609 90.3875C305.094 89.9693 304.734 89.1346 303.176 87.7793C302.555 87.2401 302.18 86.9967 301.818 87.0872C301.303 87.2157 301.262 87.9045 300.71 89.2588C299.882 91.2897 299.392 91.1671 298.909 92.7875C298.551 93.9904 298.633 94.6897 298.212 94.8259C297.615 95.0188 297.066 93.7429 296.31 93.8571C295.539 93.9737 295.073 95.4593 294.926 96.5715C294.649 98.6588 295.416 100.036 295.841 101.484C296.303 103.058 296.577 105.452 295.511 108.84L284.951 138.573C287.283 132.472 294.032 115.747 296.869 109.532C297.687 107.738 298.591 105.918 300.448 105.2C302.235 104.508 304.689 104.921 307.818 104.168C308.184 104.08 309.198 103.822 309.325 103.226C309.431 102.733 308.835 102.458 308.926 101.996C309.049 101.377 310.222 101.369 311.664 100.655C312.68 100.151 313.313 99.5523 313.858 99.0372C314.022 98.8819 316.462 96.5446 315.93 95.6469H315.93L315.93 95.6469Z" fill="#5C9553"/>
<path d="M274.387 111.3C273.94 111.302 273.795 112.359 273.403 112.339C273.012 112.318 273.02 111.261 272.242 110.198C272.102 110.006 271.219 108.798 270.63 108.962C269.515 109.274 270.439 114.244 268.826 114.845C268.472 114.977 267.959 114.913 266.843 115.286C266.4 115.435 266.172 115.548 266.112 115.753C266.026 116.042 266.353 116.261 266.858 116.923C267.617 117.915 267.415 118.12 268.072 118.824C268.559 119.347 268.926 119.508 268.872 119.754C268.794 120.102 268.009 120.004 267.847 120.407C267.682 120.819 268.277 121.477 268.781 121.87C269.726 122.608 270.624 122.629 271.457 122.838C272.364 123.066 273.618 123.622 274.974 125.123L286.529 138.881C284.206 135.977 277.94 127.841 275.706 124.656C275.061 123.737 274.428 122.768 274.611 121.651C274.787 120.574 275.698 119.49 276.231 117.737C276.293 117.533 276.459 116.961 276.203 116.726C275.992 116.532 275.684 116.745 275.484 116.567C275.216 116.328 275.55 115.751 275.615 114.838C275.661 114.194 275.55 113.71 275.454 113.294C275.425 113.169 274.981 111.298 274.387 111.3V111.3V111.3Z" fill="#5C9553"/>
<path d="M283.298 113.299L283.029 110.898L283.152 110.716C283.72 109.874 284.01 109.053 284.014 108.272C284.015 108.148 284.009 108.024 284.003 107.898C283.98 107.397 283.951 106.775 284.276 106.049C284.458 105.644 284.969 104.708 285.738 104.823C285.945 104.852 286.102 104.947 286.221 105.059C286.238 105.031 286.256 105.003 286.275 104.973C286.515 104.608 286.704 104.451 286.887 104.301C287.027 104.185 287.172 104.065 287.4 103.782C287.5 103.658 287.577 103.549 287.643 103.458C287.842 103.181 288.102 102.85 288.56 102.856C289.049 102.879 289.306 103.284 289.476 103.552C289.779 104.029 289.916 104.374 290.007 104.602C290.04 104.686 290.078 104.779 290.097 104.808C290.255 105.04 291.537 104.823 292.02 104.745C293.106 104.564 294.045 104.407 294.431 105.091C294.709 105.58 294.503 106.227 293.801 107.066C293.582 107.326 293.35 107.525 293.143 107.68C293.314 107.782 293.468 107.938 293.53 108.184C293.676 108.766 293.175 109.349 292.043 109.92C291.761 110.062 291.383 110.252 290.852 110.344C290.602 110.387 290.377 110.397 290.184 110.403C290.18 110.514 290.154 110.635 290.086 110.759C289.887 111.124 289.473 111.298 288.849 111.256C288.162 111.22 287.597 111.089 287.098 110.975C286.663 110.875 286.287 110.79 285.993 110.81C285.446 110.854 285.025 111.291 284.531 111.858L283.298 113.299H283.298V113.299Z" fill="#5C9553"/>
<path d="M284.546 99.0041L282.291 99.8732L282.083 99.8005C281.124 99.464 280.255 99.3921 279.499 99.5867C279.379 99.6176 279.261 99.6546 279.14 99.6923C278.661 99.8418 278.066 100.028 277.281 99.8978C276.843 99.8244 275.807 99.5674 275.724 98.7946C275.7 98.587 275.752 98.4115 275.829 98.2684C275.798 98.2586 275.767 98.2483 275.732 98.2374C275.318 98.0985 275.119 97.9549 274.926 97.8165C274.779 97.7102 274.626 97.6003 274.295 97.4522C274.15 97.3873 274.024 97.3398 273.919 97.2997C273.601 97.1776 273.215 97.0102 273.104 96.5658C273.003 96.0867 273.329 95.7363 273.545 95.5041C273.93 95.0897 274.229 94.8695 274.427 94.7235C274.499 94.6704 274.58 94.6101 274.604 94.5842C274.788 94.3729 274.253 93.1882 274.054 92.7412C273.604 91.738 273.214 90.87 273.778 90.3225C274.181 89.9304 274.86 89.9653 275.849 90.4312C276.157 90.5764 276.408 90.751 276.61 90.9112C276.666 90.7199 276.778 90.5322 277 90.4098C277.527 90.1209 278.218 90.4569 279.057 91.4072C279.267 91.643 279.547 91.9609 279.77 92.4507C279.875 92.6815 279.942 92.8964 279.997 93.0811C280.105 93.0567 280.229 93.0514 280.366 93.0855C280.77 93.1852 281.043 93.5414 281.161 94.1553C281.3 94.8283 281.317 95.4082 281.332 95.9195C281.346 96.3659 281.36 96.7501 281.454 97.0299C281.635 97.5469 282.165 97.8431 282.839 98.177L284.546 99.0041L284.546 99.0041V99.0041Z" fill="#5C9553"/>
<path d="M283.298 91.931L283.029 89.5301L283.152 89.3481C283.72 88.5064 284.01 87.6845 284.014 86.9043C284.015 86.7803 284.009 86.6562 284.003 86.5299C283.98 86.029 283.951 85.4065 284.276 84.6808C284.458 84.2762 284.969 83.3395 285.738 83.4554C285.945 83.4844 286.102 83.5795 286.221 83.6908C286.238 83.6629 286.256 83.6351 286.275 83.605C286.515 83.2398 286.704 83.0833 286.887 82.9326C287.027 82.8167 287.172 82.6973 287.4 82.4144C287.5 82.2903 287.577 82.1814 287.643 82.0898C287.842 81.8127 288.102 81.4823 288.56 81.4881C289.049 81.5113 289.306 81.9159 289.476 82.1837C289.779 82.6613 289.916 83.0056 290.007 83.234C290.04 83.3175 290.078 83.4114 290.097 83.4404C290.255 83.6722 291.537 83.4554 292.02 83.3766C293.106 83.1957 294.045 83.0392 294.431 83.7232C294.709 84.2124 294.503 84.8593 293.801 85.6975C293.582 85.9583 293.35 86.1566 293.143 86.3119C293.314 86.4139 293.468 86.5704 293.53 86.8162C293.676 87.3982 293.175 87.9813 292.043 88.5517C291.761 88.6942 291.383 88.8844 290.852 88.976C290.602 89.0189 290.377 89.0293 290.184 89.0351C290.18 89.1464 290.154 89.267 290.086 89.391C289.887 89.7562 289.473 89.9301 288.849 89.8883C288.162 89.8524 287.597 89.7214 287.098 89.6066C286.663 89.5069 286.287 89.4223 285.993 89.442C285.446 89.486 285.025 89.9231 284.531 90.49L283.298 91.931H283.298V91.931Z" fill="#5C9553"/>
<path d="M285.756 138.534L285.252 138.219L285.13 137.638L285.252 138.219L284.665 138.286C284.656 138.232 284.624 138.107 284.576 137.911C284.313 136.837 283.512 133.57 282.844 128.425C282.378 124.834 282.114 121.142 282.059 117.449C282.005 113.751 282.18 110.951 282.32 108.701C282.427 107.004 282.555 105.388 282.682 103.814C283.018 99.6078 283.335 95.635 283.099 91.2366C283.047 90.2547 282.938 88.2109 281.743 86.0361C281.05 84.7748 280.095 83.6549 278.905 82.7089L279.645 81.7792C280.959 82.8248 282.015 84.0653 282.784 85.4657C284.109 87.877 284.229 90.104 284.286 91.1741C284.526 95.6501 284.205 99.6612 283.865 103.908C283.74 105.476 283.611 107.085 283.506 108.776C283.367 111.005 283.193 113.78 283.247 117.431C283.301 121.079 283.562 124.726 284.021 128.272C284.682 133.352 285.471 136.571 285.73 137.628C285.868 138.192 285.897 138.311 285.756 138.534V138.534H285.756Z" fill="#5C9553"/>
<path d="M276.727 84.5951C276.678 84.5951 276.629 84.5939 276.579 84.5904C275.567 84.536 274.631 83.9308 273.794 82.7924C273.402 82.2568 273.202 81.6458 272.801 80.4274C272.739 80.2396 272.438 79.2867 272.254 77.9755C272.134 77.1188 272.149 76.7606 272.319 76.4441C272.508 76.0917 272.813 75.8459 273.156 75.6802C273.141 75.5665 273.153 75.4495 273.203 75.33C273.405 74.835 273.943 74.9 274.234 74.9313C274.382 74.9498 274.566 74.9742 274.764 74.9637C275.076 74.9486 275.244 74.8559 275.498 74.7168C275.741 74.5835 276.043 74.4177 276.491 74.3261C277.375 74.1418 278.116 74.3922 278.36 74.4745C279.644 74.9023 280.278 75.9004 281.011 77.0562C281.157 77.2881 281.659 78.132 281.99 79.289C282.229 80.1237 282.195 80.4947 282.123 80.7706C281.977 81.3375 281.632 81.6621 280.756 82.3785C279.841 83.1286 279.381 83.5042 278.987 83.7325C278.069 84.2623 277.492 84.5951 276.727 84.5951V84.5951V84.5951Z" fill="#5C9553"/>
<path d="M141.988 83.614H25.5255V113.847H141.988V83.614Z" fill="#7283E0"/>
<path d="M99.6383 0.473755H69.3882V202.278H99.6383V0.473755Z" fill="#7283E0"/>
<path opacity="0.2" d="M100.756 111.571C100.971 110.738 101.098 109.872 101.129 108.98L138.963 74.5441L106.444 58.6719L92.1125 96.8687C91.1329 96.6129 90.1105 96.4629 89.0507 96.4629C88.488 96.4629 87.9387 96.5147 87.3964 96.5889L73.1694 58.6719L40.6506 74.5441L76.9976 107.627C76.9742 107.935 76.9507 108.242 76.9507 108.556C76.9507 109.599 77.0967 110.605 77.345 111.571C55.0653 118.53 45.9443 139.545 45.9443 139.545L73.9257 162.219C72.2568 145.54 82.4483 128.465 87.9579 120.594C88.3184 120.626 88.6818 120.649 89.0507 120.649C89.4196 120.649 89.783 120.626 90.1435 120.594C95.6531 128.465 105.845 145.54 104.176 162.219L132.157 139.545C132.157 139.545 123.036 118.53 100.756 111.571L100.756 111.571Z" fill="black"/>
<path d="M104.865 154.049C104.538 154.049 104.21 153.978 103.899 153.833C103.113 153.466 102.617 152.702 102.604 151.839C102.374 137.217 94.0318 122.866 89.0792 115.613C88.7484 115.128 88.1772 114.839 87.551 114.839H87.5482C86.899 114.839 86.3278 115.128 85.9971 115.613C81.0447 122.866 72.7022 137.217 72.4727 151.839C72.459 152.702 71.9628 153.466 71.1773 153.833C70.3839 154.204 69.4688 154.092 68.7895 153.542L45.5321 134.695C44.702 134.022 44.4583 132.843 44.9528 131.891C47.3038 127.366 56.3547 112.116 74.1175 105.845C74.9102 105.565 75.3916 104.776 75.2879 103.926C75.2303 103.451 75.2011 102.975 75.2011 102.51C75.2023 101.954 74.99 101.45 74.6188 101.112L41.1827 70.6789C40.6281 70.1741 40.3606 69.4298 40.4666 68.6878C40.5728 67.9457 41.0387 67.3059 41.7127 66.977L69.5514 53.3895C70.1224 53.1106 70.7887 53.0858 71.38 53.3204C71.9709 53.5554 72.4377 54.0316 72.6611 54.6266L85.5689 89.028C85.8353 89.7382 86.5185 90.2017 87.2941 90.1823C87.8789 90.1689 88.4721 90.2026 89.0634 90.2794C89.898 90.3909 90.6856 89.9204 90.9777 89.1405L103.928 54.6266C104.151 54.0316 104.618 53.5554 105.209 53.3204C105.8 53.086 106.467 53.1108 107.038 53.3895L134.876 66.977C135.55 67.3059 136.016 67.9457 136.122 68.6882C136.228 69.4298 135.961 70.1741 135.406 70.6789L100.376 102.564C100.049 102.861 99.846 103.266 99.8034 103.705C99.7941 103.8 99.7842 103.895 99.7728 103.99C99.6768 104.788 100.173 105.567 100.953 105.843C118.72 112.113 127.772 127.366 130.124 131.891C130.618 132.843 130.375 134.022 129.544 134.695L106.287 153.542C105.873 153.877 105.372 154.049 104.865 154.049V154.049Z" fill="#7283E0"/>
<path d="M301.294 202.937H203.622C199.579 202.937 196.29 199.65 196.29 195.609V145.942C196.29 141.901 199.579 138.614 203.622 138.614H301.294C305.337 138.614 308.626 141.901 308.626 145.942V195.609C308.626 199.65 305.337 202.937 301.294 202.937V202.937ZM203.622 139.561C200.102 139.561 197.238 142.424 197.238 145.942V195.609C197.238 199.127 200.102 201.99 203.622 201.99H301.294C304.814 201.99 307.678 199.127 307.678 195.609V145.942C307.678 142.424 304.814 139.561 301.294 139.561H203.622Z" fill="#3F3D56"/>
<path d="M262.262 202.88V138.671H245.574V202.88H262.262Z" fill="#AAB7EF"/>
<path d="M308.152 179.531V162.854H196.764V179.531H308.152Z" fill="#AAB7EF"/>
<path opacity="0.2" d="M249.201 181.569C249.66 181.687 250.138 181.757 250.63 181.775L269.638 202.634L278.399 184.705L257.316 176.803C257.457 176.263 257.54 175.7 257.54 175.115C257.54 174.805 257.511 174.502 257.47 174.203L278.399 166.359L269.638 148.431L251.377 168.47C251.208 168.457 251.038 168.444 250.865 168.444C250.289 168.444 249.734 168.525 249.201 168.662C245.36 156.378 233.76 151.35 233.76 151.35L221.245 166.776C230.451 165.856 239.876 171.475 244.22 174.513C244.202 174.712 244.19 174.912 244.19 175.115C244.19 175.319 244.202 175.519 244.22 175.718C239.876 178.755 230.451 184.374 221.245 183.454L233.76 198.881C233.76 198.881 245.36 193.852 249.201 181.569H249.201Z" fill="black"/>
<path d="M270.323 199.765C269.945 199.765 269.582 199.607 269.323 199.324L251.723 180.009C251.578 179.85 251.367 179.749 251.128 179.725L251.052 179.717C250.622 179.669 250.23 179.902 250.096 180.283C246.622 190.127 238.164 195.136 235.655 196.437C235.09 196.732 234.387 196.583 233.985 196.086L223.581 183.262C223.251 182.856 223.185 182.308 223.407 181.832C223.626 181.364 224.082 181.068 224.597 181.06C232.64 180.936 240.542 176.348 244.537 173.624C244.777 173.46 244.921 173.177 244.92 172.867C244.921 172.543 244.778 172.26 244.537 172.096C240.543 169.372 232.641 164.784 224.596 164.66C224.082 164.652 223.626 164.356 223.407 163.888C223.185 163.412 223.251 162.864 223.581 162.458L233.985 149.634C234.388 149.138 235.09 148.99 235.655 149.282C238.164 150.584 246.619 155.593 250.094 165.433C250.229 165.814 250.613 166.052 251.001 166.005C251.422 165.952 251.842 165.94 252.248 165.97L269.323 147.231C269.626 146.899 270.072 146.738 270.516 146.803C270.96 146.867 271.343 147.145 271.539 147.548L279.04 162.898C279.207 163.24 279.222 163.638 279.081 163.992C278.941 164.345 278.656 164.624 278.299 164.757L259.31 171.874C258.961 172.005 258.733 172.346 258.742 172.723L258.744 172.86C258.744 173.155 258.723 173.455 258.683 173.752C258.631 174.135 258.869 174.515 259.25 174.658L278.3 181.797C278.656 181.931 278.941 182.21 279.082 182.563C279.222 182.917 279.207 183.315 279.04 183.657L271.539 199.007C271.343 199.41 270.96 199.688 270.516 199.751C270.451 199.761 270.387 199.765 270.323 199.765V199.765Z" fill="#AAB7EF"/>
<path d="M181.865 81.3319H166.59V76.3052C166.59 67.8795 173.434 61.0389 181.865 61.0389H181.865V81.3319V81.3319Z" fill="#2F2E41"/>
<path d="M178.479 71.9481L181.105 83.7542L165.715 81.2002L171.987 70.0345L178.479 71.9481Z" fill="#FFB6B6"/>
<path opacity="0.1" d="M178.479 71.9481L181.105 83.7542L165.715 81.2002L171.987 70.0345L178.479 71.9481Z" fill="black"/>
<path d="M163.724 118.993H178.479V97.1684H163.724V118.993Z" fill="#FFB6B6"/>
<path d="M188.07 136.837L184.824 154.238C184.824 154.238 186.889 166.33 180.692 178.717L176.561 191.399L170.364 190.514C170.364 190.514 174.2 181.077 174.2 176.948C174.2 172.819 175.085 156.892 175.085 156.892L174.643 138.719L188.07 136.837V136.837Z" fill="#FFB6B6"/>
<path d="M169.478 190.22C169.478 190.22 176.561 187.565 177.151 191.399L176.856 193.169C176.856 193.169 179.512 201.132 175.676 201.722C171.839 202.312 168.298 203.197 168.003 201.427C167.708 199.657 167.713 197.449 168.448 195.899C169.183 194.349 169.478 190.22 169.478 190.22V190.22Z" fill="#2F2E41"/>
<path d="M165.731 134.138L164.006 151.754C164.006 151.754 158.657 162.795 161.163 176.416L161.602 189.746L167.801 190.619C167.801 190.619 166.743 180.487 167.892 176.521C169.04 172.555 172.622 157.011 172.622 157.011L178.104 139.678L165.731 134.138V134.138Z" fill="#FFB6B6"/>
<path d="M168.734 190.582C168.734 190.582 162.669 186.064 161.035 189.582L160.827 191.364C160.827 191.364 156.144 200.171 159.664 201.804C163.185 203.437 166.256 203.375 167.032 201.757C167.808 200.139 168.418 198.016 168.143 196.323C167.868 194.63 168.734 190.582 168.734 190.582V190.582Z" fill="#2F2E41"/>
<path d="M184.234 108.818L196.923 135.657C196.923 135.657 171.397 148.487 156.346 148.487L163.819 108.818H184.234V108.818Z" fill="#2F2E41"/>
<path d="M172.872 77.4079L180.25 78.5876L179.659 97.1683L187.922 113.685L177.299 118.993C177.299 118.993 169.036 103.362 167.56 93.6291C166.085 83.8964 166.97 76.818 166.97 76.818L172.872 77.4079V77.4079Z" fill="#E6E6E6"/>
<path d="M167.265 77.9978L159.888 79.1776L160.478 97.7583L158.707 114.864L162.839 119.583C162.839 119.583 171.102 103.952 172.577 94.2191C174.053 84.4863 173.167 77.408 173.167 77.408L167.265 77.9978V77.9978Z" fill="#E6E6E6"/>
<path d="M178.627 79.03L180.25 78.5876C180.25 78.5876 186.004 77.8503 186.889 80.2097C187.775 82.5692 187.48 96.431 187.48 96.431C187.48 96.431 189.002 113.444 183.077 113.638C177.151 113.832 178.331 99.6753 178.331 99.6753L178.627 79.03V79.03Z" fill="#E6E6E6"/>
<path d="M175.904 75.1882C180.122 75.1882 183.541 71.7707 183.541 67.555C183.541 63.3394 180.122 59.9219 175.904 59.9219C171.686 59.9219 168.266 63.3394 168.266 67.555C168.266 71.7707 171.686 75.1882 175.904 75.1882Z" fill="#FFB6B6"/>
<path d="M173.515 78.0603C175.153 77.6449 177.011 79.3938 177.664 81.9677C177.939 82.9924 177.965 84.0679 177.739 85.1045L178.443 88.0303L178.495 88.0276L184.048 101.108C185.339 104.149 185.203 107.64 183.556 110.505C182.576 112.209 181.29 113.354 179.78 112.185C177.274 110.244 175.638 99.1343 174.891 92.7522L173.163 86.2649C172.469 85.4613 171.978 84.5034 171.731 83.4714C171.078 80.8984 171.876 78.4758 173.515 78.0603V78.0603Z" fill="#FFB6B6"/>
<path d="M166.38 79.03L164.757 78.5876C164.757 78.5876 159.002 77.8503 158.117 80.2097C157.232 82.5692 157.527 96.431 157.527 96.431C157.527 96.431 156.004 113.444 161.93 113.638C167.855 113.832 166.675 99.6753 166.675 99.6753L166.38 79.03H166.38Z" fill="#E6E6E6"/>
<path d="M171.492 78.0603C169.853 77.6449 167.996 79.3938 167.342 81.9677C167.067 82.9924 167.042 84.0679 167.268 85.1045L166.564 88.0303L166.512 88.0276L160.958 101.108C159.667 104.149 159.804 107.64 161.451 110.505C162.43 112.209 163.716 113.354 165.226 112.185C167.732 110.244 169.369 99.1343 170.116 92.7522L171.844 86.2649C172.537 85.4613 173.028 84.5034 173.275 83.4714C173.929 80.8984 173.13 78.4758 171.492 78.0603V78.0603Z" fill="#FFB6B6"/>
<path d="M161.282 73.7304C161.67 72.5498 162.437 71.5162 162.78 70.3217C163.236 68.7357 164.206 72.2542 164.301 70.6068C164.481 67.4756 169.262 59.4212 171.992 57.874C174.722 56.3268 176.29 56.7933 179.071 58.2463C179.071 58.2463 180.421 58.3322 182.101 59.1614C183.782 59.9907 185.295 61.3188 185.948 63.0744C186.466 64.466 186.409 65.9942 186.582 67.4689C187.065 71.5773 189.369 75.4846 188.874 79.5915C188.72 80.8728 188.233 82.1978 187.184 82.9515C186.136 83.7052 184.443 83.6232 183.753 82.5323C183.517 82.16 183.418 81.7184 183.216 81.3269C183.014 80.9353 182.649 80.5704 182.209 80.5825C181.547 80.6009 181.21 81.4887 181.471 82.0971C181.732 82.7055 182.346 83.0728 182.922 83.3995C181.55 84.0164 179.848 83.8243 178.648 82.9172C177.448 82.0101 176.8 80.4255 177.021 78.9383C177.332 76.8424 180.387 77.2762 180.747 75.1882C181.009 73.6682 181.929 71.1249 181.678 69.603C181.428 68.0811 180.224 69.9238 181.492 69.0445C180.097 69.7165 177.114 65.119 175.653 64.604C174.193 64.089 172.955 62.974 172.291 61.5759C170.742 63.8198 169.38 63.2104 168.825 65.8795C168.27 68.5486 168.783 74.6124 171.067 76.1025C170.153 76.7258 169.425 77.6172 168.996 78.6366C168.753 79.2141 168.595 79.8461 168.192 80.3257C167.422 81.2418 166 81.2976 164.866 80.9124C163.461 80.4348 162.259 79.3857 161.596 78.058C160.934 76.7303 160.818 75.1398 161.282 73.7304V73.7304Z" fill="#2F2E41"/>
</svg>
