<svg width="536" viewBox="0 0 536 370" fill="none" xmlns="http://www.w3.org/2000/svg">
<path d="M234.006 369.643L221.259 369.989C219.323 370.086 217.407 369.56 215.805 368.489C214.421 367.48 213.786 366.115 214.064 364.745L216.573 352.385C217.045 350.053 219.96 348.291 223.501 348.195L230.541 348.004C234.083 347.908 237.092 349.51 237.695 351.813L240.895 364.018C241.25 365.372 240.693 366.769 239.368 367.851C237.828 369.007 235.945 369.636 234.006 369.643Z" fill="#3F3D56"/>
<path d="M314.006 369.627L301.259 369.988C299.323 370.09 297.407 369.54 295.805 368.421C294.421 367.365 293.786 365.938 294.064 364.506L296.573 351.584C297.045 349.147 299.96 347.304 303.501 347.204L310.541 347.004C314.083 346.904 317.092 348.579 317.695 350.986L320.895 363.746C321.25 365.161 320.693 366.622 319.368 367.754C317.828 368.962 315.945 369.62 314.006 369.627Z" fill="#3F3D56"/>
<path d="M187.744 259.764C187.14 259.502 186.643 259.04 186.336 258.454C186.028 257.868 185.928 257.194 186.052 256.543C186.176 255.893 186.516 255.304 187.017 254.875C187.518 254.446 188.149 254.202 188.807 254.183L339.035 250.001C339.413 249.99 339.791 250.055 340.145 250.191C340.498 250.328 340.822 250.533 341.098 250.796C341.373 251.058 341.594 251.373 341.749 251.721C341.903 252.07 341.988 252.446 341.999 252.828V252.828C342.019 253.599 341.735 254.347 341.209 254.907C340.684 255.467 339.959 255.794 339.194 255.817L339.194 255.816L188.966 259.999C188.547 260.012 188.129 259.932 187.744 259.764Z" fill="#3F3D56"/>
<path d="M243.522 210.434L200.867 211.613L204.844 355.696L247.499 354.517L243.522 210.434Z" fill="#E6E6E6"/>
<path d="M244.381 208L237 230.343L237.007 332.134L246 335L244.381 208Z" fill="#CCCCCC"/>
<path d="M221.845 172.003C213.911 172.236 207.857 186.431 208.003 191.971L208.27 202L237 201.18L236.732 191.151C236.582 185.611 229.78 171.783 221.845 172.003Z" fill="#3F3D56"/>
<path d="M201.385 271.998C199.854 272.037 198.37 271.486 197.258 270.466C196.146 269.446 195.496 268.04 195.452 266.556L195.002 250.753C194.96 249.269 195.528 247.829 196.58 246.751C197.633 245.672 199.085 245.043 200.616 245.002C202.147 244.961 203.632 245.512 204.744 246.532C205.857 247.553 206.506 248.96 206.548 250.444L206.998 266.247C207.038 267.731 206.47 269.169 205.418 270.248C204.366 271.326 202.915 271.955 201.385 271.998Z" fill="#3F3D56"/>
<path d="M212.185 212.562L212 202.068L214.526 202L214.711 212.46L217 364.924L214.474 365" fill="#3F3D56"/>
<path d="M249 236.634L198.316 238C193.475 232.239 193.035 207.693 203.138 203.021L207.1 196.455L237.646 195L241.216 201.913C246.241 206.086 248.833 230.479 249 236.634Z" fill="#E6E6E6"/>
<path d="M229.671 224.667L216.735 224.999C214.239 225.063 212.116 222.05 212.005 218.283C211.893 214.515 213.833 211.398 216.329 211.333L229.265 211.001C231.761 210.937 233.884 213.95 233.995 217.717C234.107 221.485 232.167 224.602 229.671 224.667Z" fill="#7D92E7"/>
<path d="M206 295L179.61 313.435L175 355L205.785 344.828L206 295Z" fill="#E6E6E6"/>
<path d="M325.863 208.67L283.208 209.848L287.184 353.931L329.84 352.753L325.863 208.67Z" fill="#E6E6E6"/>
<path d="M285 208L292.692 230.121L295 331.876L286.311 335L285 208Z" fill="#CCCCCC"/>
<path d="M347.5 168C350.538 168 353 164.866 353 161C353 157.134 350.538 154 347.5 154C344.462 154 342 157.134 342 161C342 164.866 344.462 168 347.5 168Z" fill="#E6E6E6"/>
<path d="M376 278C379.314 278 382 274.866 382 271C382 267.134 379.314 264 376 264C372.686 264 370 267.134 370 271C370 274.866 372.686 278 376 278Z" fill="#E6E6E6"/>
<path d="M158.5 258C161.538 258 164 254.642 164 250.5C164 246.358 161.538 243 158.5 243C155.462 243 153 246.358 153 250.5C153 254.642 155.462 258 158.5 258Z" fill="#E6E6E6"/>
<path d="M303.368 171.003C295.707 171.236 289.862 185.431 290.002 190.971L290.261 201L318 200.18L317.741 190.151C317.596 184.611 311.029 170.783 303.368 171.003Z" fill="#3F3D56"/>
<path d="M312.185 215.563L312 205.069L314.526 205L314.711 215.461L317 367.924L314.474 368" fill="#3F3D56"/>
<path d="M329.112 234.634L280.266 236C279.414 230.787 280.516 206.46 284.913 201.021L288.732 194.455L318.17 193L321.61 199.913C330.302 200.63 333.342 224.536 329.112 234.634Z" fill="#E6E6E6"/>
<path d="M311.701 224.648L298.767 224.999C296.271 225.067 294.135 221.387 294.006 216.798C293.877 212.209 295.803 208.419 298.299 208.352L311.233 208.001C313.729 207.933 315.865 211.613 315.994 216.202C316.123 220.791 314.197 224.581 311.701 224.648Z" fill="#7D92E7"/>
<path d="M328.065 285L353.339 304.498L356 346L326 334.512L328.065 285Z" fill="#E6E6E6"/>
<path d="M320.658 94.2915C293.865 94.2915 263.072 64.6791 235.829 78.7487C153.343 121.348 164.698 50.0649 141 23.5542L141.778 22C159.718 90.156 175.951 198.76 236.187 76.941C251.276 46.4255 300.799 93.5939 329.949 92.2025L330 94.0705C326.921 94.2185 323.807 94.2921 320.658 94.2915Z" fill="#F2F2F2"/>
<path d="M384.714 98.2882C363.437 114.479 321.1 109.364 307.962 137.098C268.182 221.068 234.15 157.103 199.321 150.185L199 148.47C233.867 151.376 271.266 146.868 307.154 135.433C339.587 125.101 368.522 109.73 390.832 91L392 92.4659C389.645 94.4447 387.216 96.3855 384.714 98.2882Z" fill="#F2F2F2"/>
<path d="M153.5 94C156.538 94 159 90.6421 159 86.5C159 82.3579 156.538 79 153.5 79C150.462 79 148 82.3579 148 86.5C148 90.6421 150.462 94 153.5 94Z" fill="#E6E6E6"/>
<path d="M327 34C330.314 34 333 30.4183 333 26C333 21.5817 330.314 18 327 18C323.686 18 321 21.5817 321 26C321 30.4183 323.686 34 327 34Z" fill="#E6E6E6"/>
<path d="M147.5 190C150.538 190 153 186.866 153 183C153 179.134 150.538 176 147.5 176C144.462 176 142 179.134 142 183C142 186.866 144.462 190 147.5 190Z" fill="#E6E6E6"/>
<path d="M204.859 125.488C202.153 127.618 199.383 122.548 202.141 120.512C204.847 118.382 207.617 123.452 204.859 125.488Z" fill="#E6E6E6"/>
<path d="M355 70.4564L353.578 70.2225L353.889 69.1558L352.942 69L352.63 70.0667L351.208 69.8332L351 70.544L352.422 70.778L352.111 71.8442L353.058 72L353.37 70.9333L354.792 71.1672L355 70.4564Z" fill="#E6E6E6"/>
<path d="M205.5 16C209.09 16 212 12.6421 212 8.5C212 4.35787 209.09 1 205.5 1C201.91 1 199 4.35787 199 8.5C199 12.6421 201.91 16 205.5 16Z" fill="#FF6584"/>
<path d="M257.322 0.00259578C249.114 0.235569 242.852 14.4315 243.003 19.9711L243.28 30L273 29.1798L272.723 19.1509C272.567 13.6114 265.531 -0.217452 257.322 0.00259578Z" fill="#3F3D56"/>
<path d="M274.747 369.627L261.528 369.988C259.52 370.09 257.534 369.54 255.872 368.421C254.436 367.365 253.778 365.938 254.067 364.506L256.668 351.584C257.158 349.147 260.18 347.304 263.853 347.204L271.154 347.004C274.827 346.904 277.947 348.579 278.573 350.986L281.891 363.746C282.26 365.161 281.682 366.622 280.307 367.754C278.711 368.962 276.758 369.62 274.747 369.627Z" fill="#3F3D56"/>
<path d="M280.696 62.1429L238.04 63.3213L246.079 354.569L288.734 353.391L280.696 62.1429Z" fill="#E6E6E6"/>
<path d="M263.222 203.562L263 193.068L266.031 193L266.253 203.46L269 355.924L265.969 356" fill="#3F3D56"/>
<path d="M289 89.3898L230.319 91C229.296 84.8545 230.62 56.1773 235.903 49.7654L237.35 42.1118L277.868 41L279.988 48.4594C285.806 53.3793 288.806 82.1343 289 89.3898Z" fill="#E6E6E6"/>
<path d="M279.338 41.8227L238.763 42.9984C237.265 43.0417 236.028 42.2166 236 41.1554C235.997 41.0025 236.018 40.8501 236.063 40.7048L242.366 20.3307C242.636 19.4583 243.71 18.8176 244.964 18.7813L271.872 18.0016C273.126 17.9653 274.233 18.5428 274.548 19.3983L281.912 39.3764C282.289 40.3982 281.419 41.4615 279.969 41.7513C279.761 41.7928 279.55 41.8166 279.338 41.8227Z" fill="#E6E6E6"/>
<path d="M242.086 201.535C241.717 201.377 241.369 201.175 241.048 200.933C240.588 200.61 240.209 200.185 239.938 199.692C239.667 199.199 239.512 198.651 239.486 198.089L238.001 144.198C237.94 141.968 240.119 140.091 242.859 140.015L279.435 139.002C282.175 138.926 284.454 140.68 284.515 142.911L286 196.801C286.004 197.364 285.88 197.92 285.637 198.428C285.394 198.935 285.038 199.38 284.597 199.728C283.62 200.525 282.402 200.968 281.142 200.985L244.566 201.997C243.716 202.025 242.87 201.868 242.086 201.535Z" fill="#3F3D56"/>
<path d="M266.646 38.6465L253.709 38.9988C251.212 39.0668 249.101 36.2854 249.004 32.7994C248.906 29.3135 250.858 26.4215 253.354 26.3535L266.291 26.0012C268.788 25.9332 270.899 28.7146 270.996 32.2006C271.094 35.6865 269.142 38.5785 266.646 38.6465Z" fill="#7D92E7"/>
<path d="M327.385 267.998C325.854 268.037 324.37 267.486 323.258 266.466C322.146 265.446 321.496 264.039 321.452 262.555L321.002 246.75C320.961 245.267 321.529 243.827 322.582 242.75C323.634 241.672 325.085 241.043 326.616 241.002C328.146 240.961 329.631 241.511 330.743 242.531C331.855 243.551 332.505 244.957 332.548 246.441L332.998 262.246C333.038 263.73 332.47 265.169 331.418 266.247C330.366 267.326 328.915 267.955 327.385 267.998Z" fill="#3F3D56"/>
<path d="M121.239 313C114.449 313 110.035 311.317 108.081 307.972C104.229 301.377 110.681 289.803 127.26 273.574L128.652 274.988C113.253 290.064 106.557 301.424 109.799 306.975C111.85 310.486 117.955 311.744 127.458 310.612C136.891 309.489 149.392 306.142 164.615 300.663C195.953 289.384 235.269 270.358 275.322 247.09C315.374 223.823 351.363 199.1 376.661 177.477C381.52 173.323 385.93 169.327 389.768 165.601C394.806 160.828 399.454 155.662 403.668 150.151C409.342 142.467 411.257 136.55 409.206 133.038C405.78 127.173 391.389 127.725 368.68 134.593L368.104 132.696C392.467 125.328 406.874 125.107 410.924 132.04C413.44 136.348 411.538 142.837 405.269 151.327C400.991 156.925 396.271 162.173 391.155 167.021C387.287 170.777 382.846 174.801 377.955 178.983C352.568 200.681 316.475 225.477 276.323 248.803C236.17 272.129 196.737 291.209 165.289 302.528C149.926 308.058 137.276 311.44 127.693 312.58C125.552 312.847 123.397 312.987 121.239 313Z" fill="#3F3D56"/>
<path d="M280.065 79L305.339 98.4982L308 140L278 128.512L280.065 79Z" fill="#E6E6E6"/>
<path d="M242.935 79L217.661 98.4982L215 140L245 128.512L242.935 79Z" fill="#E6E6E6"/>
<path d="M256.259 49.6925L256 39.069L259.536 39L259.795 49.59L263 69.9229L259.463 70" fill="#3F3D56"/>
<path d="M131.346 132.699C133.922 131.701 135.448 129.439 134.754 127.647C134.06 125.854 131.41 125.209 128.834 126.207C126.258 127.204 124.732 129.466 125.426 131.259C126.12 133.052 128.77 133.697 131.346 132.699Z" fill="#E6E6E6"/>
<path d="M163.779 128.536C166.355 127.539 167.881 125.277 167.187 123.484C166.494 121.691 163.843 121.047 161.267 122.044C158.691 123.042 157.165 125.304 157.859 127.097C158.553 128.889 161.203 129.534 163.779 128.536Z" fill="#E6E6E6"/>
<path d="M128.533 160.382C131.109 159.385 132.635 157.123 131.941 155.33C131.247 153.537 128.597 152.893 126.021 153.89C123.445 154.888 121.919 157.15 122.613 158.943C123.307 160.735 125.957 161.38 128.533 160.382Z" fill="#E6E6E6"/>
<path d="M119.15 172.594C120.332 172.314 120.964 170.709 120.562 169.01C120.16 167.31 118.876 166.159 117.694 166.439C116.512 166.719 115.88 168.324 116.282 170.023C116.684 171.723 117.968 172.874 119.15 172.594Z" fill="#E6E6E6"/>
<path d="M118.957 193.268C120.139 192.988 120.771 191.384 120.369 189.684C119.967 187.984 118.683 186.834 117.501 187.113C116.319 187.393 115.687 188.998 116.089 190.697C116.491 192.397 117.775 193.548 118.957 193.268Z" fill="#E6E6E6"/>
<path d="M147.423 150.447C148.605 150.167 149.237 148.562 148.835 146.863C148.433 145.163 147.149 144.012 145.967 144.292C144.786 144.572 144.154 146.177 144.556 147.876C144.958 149.576 146.242 150.727 147.423 150.447Z" fill="#E6E6E6"/>
<path d="M130.341 146.297C131.523 146.017 132.155 144.412 131.753 142.713C131.351 141.013 130.067 139.862 128.885 140.142C127.703 140.422 127.071 142.027 127.473 143.726C127.875 145.426 129.159 146.577 130.341 146.297Z" fill="#E6E6E6"/>
<path d="M148.446 127.259C149.628 126.98 150.26 125.375 149.858 123.675C149.456 121.976 148.172 120.825 146.99 121.105C145.809 121.385 145.177 122.989 145.579 124.689C145.981 126.388 147.265 127.539 148.446 127.259Z" fill="#E6E6E6"/>
<path d="M414.927 226.098C417.596 225.386 419.359 223.304 418.864 221.446C418.37 219.589 415.805 218.659 413.136 219.37C410.467 220.082 408.704 222.164 409.199 224.022C409.693 225.879 412.258 226.809 414.927 226.098Z" fill="#E6E6E6"/>
<path d="M382.233 226.703C384.902 225.992 386.665 223.91 386.171 222.052C385.676 220.194 383.111 219.265 380.442 219.976C377.773 220.687 376.01 222.77 376.505 224.627C376.999 226.485 379.564 227.415 382.233 226.703Z" fill="#E6E6E6"/>
<path d="M420.734 198.885C423.403 198.173 425.166 196.091 424.672 194.233C424.177 192.376 421.612 191.446 418.943 192.157C416.274 192.869 414.511 194.951 415.006 196.809C415.5 198.666 418.065 199.596 420.734 198.885Z" fill="#E6E6E6"/>
<path d="M430.377 187.317C431.582 187.168 432.385 185.641 432.17 183.908C431.955 182.175 430.804 180.891 429.599 181.04C428.394 181.19 427.591 182.716 427.806 184.449C428.021 186.183 429.172 187.467 430.377 187.317Z" fill="#E6E6E6"/>
<path d="M432.817 166.787C434.023 166.637 434.825 165.111 434.611 163.378C434.396 161.645 433.245 160.361 432.04 160.51C430.834 160.66 430.032 162.186 430.246 163.919C430.461 165.652 431.612 166.936 432.817 166.787Z" fill="#E6E6E6"/>
<path d="M399.862 206.254C401.068 206.104 401.87 204.578 401.656 202.845C401.441 201.112 400.29 199.828 399.085 199.977C397.879 200.127 397.076 201.653 397.291 203.386C397.506 205.119 398.657 206.403 399.862 206.254Z" fill="#E6E6E6"/>
<path d="M416.391 212.239C417.596 212.09 418.399 210.563 418.184 208.83C417.97 207.097 416.818 205.813 415.613 205.962C414.408 206.112 413.605 207.638 413.82 209.371C414.035 211.105 415.186 212.389 416.391 212.239Z" fill="#E6E6E6"/>
<path d="M396.322 229.192C397.527 229.042 398.33 227.516 398.116 225.783C397.901 224.05 396.75 222.766 395.544 222.915C394.339 223.065 393.536 224.591 393.751 226.324C393.966 228.058 395.117 229.341 396.322 229.192Z" fill="#E6E6E6"/>
<path d="M476.043 334C467.49 334 458.116 333.677 447.92 333.031C395.182 329.684 326.872 318.049 255.571 300.27C184.27 282.49 118.498 260.689 70.3701 238.885C46.9256 228.262 28.9321 218.208 16.89 208.999C4.14046 199.251 -1.43635 190.753 0.313799 183.744C3.7239 170.089 33.9186 167.101 58.6485 167L58.6569 168.986C24.6963 169.125 4.66124 174.537 2.2422 184.225C-0.839244 196.564 24.2917 215.827 71.1907 237.076C119.213 258.833 184.864 280.592 256.052 298.343C327.24 316.094 395.425 327.71 448.046 331.049C499.435 334.311 530.677 329.105 533.758 316.765C536.316 306.521 519.451 291.429 486.27 274.27L487.184 272.506C511.293 284.975 539.279 302.857 535.687 317.246C533.936 324.256 525.018 329.138 509.18 331.758C500.152 333.251 489.062 334 476.043 334Z" fill="#7D92E7"/>
</svg>