<svg width="776" viewBox="0 0 776 508" fill="none" xmlns="http://www.w3.org/2000/svg">
<path d="M384.01 86.3606C397.011 86.3606 407.551 75.8225 407.551 62.8231C407.551 49.8237 397.011 39.2856 384.01 39.2856C371.009 39.2856 360.469 49.8237 360.469 62.8231C360.469 75.8225 371.009 86.3606 384.01 86.3606Z" fill="#FD6584"/>
<path d="M436.697 51.6777C436.033 49.5011 434.747 47.5662 432.997 46.1111C431.247 44.6561 429.11 43.7444 426.848 43.4883C426.796 43.4839 426.743 43.4839 426.69 43.4883C426.626 43.4685 426.562 43.4538 426.496 43.4442C418.614 42.4217 409.85 44.9076 403.952 50.3202C401.762 52.2978 400.011 54.7121 398.812 57.4076C397.718 55.9144 396.277 54.7101 394.614 53.8991C392.95 53.0881 391.113 52.6947 389.263 52.7532C386.877 52.9109 384.598 53.8005 382.736 55.3008C380.875 56.801 379.521 58.8389 378.86 61.1365C378.787 61.4172 378.807 61.7139 378.917 61.9823C379.026 62.2508 379.22 62.4766 379.468 62.6263C380.177 63.2327 381.02 63.6617 381.928 63.878C383.876 64.2924 385.843 64.6714 387.809 65.0152C391.653 65.6852 395.517 66.2288 399.402 66.646C401.968 66.9193 404.54 67.1368 407.117 67.2984C412.442 67.6334 417.794 67.7127 423.128 67.5452C425.773 67.457 428.312 67.3689 430.728 66.2053C432.488 65.3397 433.992 64.0301 435.092 62.4059C436.127 60.8435 436.807 59.0733 437.085 57.2198C437.362 55.3663 437.229 53.4745 436.697 51.6777Z" fill="#E6E6E6"/>
<path d="M388.267 85.9692C388.222 84.9829 388.057 84.0059 387.773 83.0601C387.106 80.8837 385.818 78.9494 384.067 77.4947C382.316 76.0399 380.178 75.1279 377.916 74.8707C377.867 74.8663 377.816 74.8663 377.767 74.8707C377.7 74.8518 377.632 74.8371 377.564 74.8267C373.201 74.2924 368.775 74.7473 364.612 76.1578C358.211 78.2999 352.595 82.6193 349.889 88.7901C348.794 87.2958 347.352 86.091 345.686 85.28C344.021 84.4689 342.183 84.0761 340.331 84.1356C337.945 84.2933 335.666 85.1829 333.804 86.6832C331.943 88.1834 330.589 90.2213 329.928 92.5189C329.859 92.7997 329.881 93.0949 329.99 93.3624C330.1 93.63 330.291 93.8562 330.536 94.0087C331.246 94.6134 332.089 95.0422 332.996 95.2605C334.953 95.6748 336.911 96.0538 338.885 96.3976C342.729 97.0676 346.591 97.6112 350.47 98.0285C358.352 98.8744 366.282 99.1748 374.205 98.9276C376.841 98.8394 379.389 98.7513 381.805 97.5877C383.562 96.7218 385.064 95.4121 386.16 93.7883C387.705 91.4855 388.446 88.7366 388.267 85.9692V85.9692Z" fill="#E6E6E6"/>
<path d="M694.863 371.574C695.201 387.623 692.986 403.623 688.301 418.976C688.137 419.534 687.94 420.092 687.743 420.649H591.153C592.534 413.851 594.726 407.243 597.683 400.967C605.721 383.909 618.844 369.311 631.804 354.811C649.652 334.833 667.074 315.02 669.83 289.039C676.904 299.822 682.551 311.477 686.628 323.713C681.636 325.562 677.055 328.37 673.144 331.979C672.061 332.996 670.912 334.473 671.47 335.883C671.995 337.064 673.439 337.458 674.718 337.72C677.802 338.311 680.886 338.901 683.97 339.459C686.398 339.951 688.859 340.41 691.32 340.869C693.482 350.967 694.669 361.249 694.863 371.574V371.574Z" fill="#3F6839"/>
<path d="M776 360.946C760.514 370.36 750.671 384.926 742.633 401.229C735.638 402.823 729.18 406.216 723.899 411.07C722.783 412.088 721.635 413.564 722.226 414.974C722.718 416.155 724.194 416.549 725.474 416.811C728.525 417.402 731.642 417.992 734.693 418.55C734.398 419.239 734.102 419.96 733.807 420.649H631.443C636.09 414.383 641.236 408.503 646.83 403.066C648.044 401.852 649.291 400.704 650.571 399.523C663.619 387.732 678.603 378.278 694.863 371.574C720.479 360.867 748.49 357.198 776 360.946Z" fill="#5C9553"/>
<path d="M648.504 420.649H557.36C556.862 413.352 556.906 406.027 557.492 398.736C561.133 353.696 585.642 310.788 622.618 284.807C617.893 301.635 620.321 318.366 625.242 335.161C624.553 335.391 623.864 335.588 623.241 335.85C618.249 337.699 613.668 340.508 609.756 344.117C608.674 345.134 607.525 346.61 608.083 348.021C608.575 349.202 610.052 349.595 611.331 349.858C614.415 350.448 617.499 351.039 620.551 351.596C623.011 352.088 625.472 352.548 627.933 353.04C629.081 353.237 630.229 353.466 631.377 353.696C631.541 354.089 631.64 354.45 631.804 354.811C637.578 370.721 643.878 386.763 646.831 403.066C647.562 407.158 648.065 411.286 648.34 415.433C648.438 417.172 648.504 418.911 648.504 420.649Z" fill="#F2F2F2"/>
<path d="M151.762 371.574C152.1 387.623 149.885 403.623 145.2 418.976C145.036 419.534 144.839 420.092 144.642 420.649H48.0522C49.433 413.851 51.6251 407.243 54.5814 400.967C62.6195 383.909 75.7432 369.311 88.7028 354.811C106.551 334.833 123.973 315.02 126.729 289.039C133.803 299.822 139.45 311.477 143.527 323.713C138.535 325.562 133.954 328.37 130.042 331.979C128.96 332.996 127.811 334.473 128.369 335.883C128.894 337.064 130.338 337.458 131.617 337.72C134.701 338.311 137.785 338.901 140.869 339.459C143.297 339.951 145.758 340.41 148.219 340.869C150.381 350.967 151.568 361.249 151.762 371.574V371.574Z" fill="#3F6839"/>
<path d="M232.899 360.946C217.413 370.36 207.57 384.926 199.532 401.229C192.537 402.823 186.079 406.216 180.798 411.07C179.682 412.088 178.534 413.564 179.125 414.974C179.617 416.155 181.093 416.549 182.373 416.811C185.424 417.402 188.541 417.992 191.592 418.55C191.297 419.239 191.001 419.96 190.706 420.649H88.3418C92.9886 414.383 98.1346 408.503 103.729 403.066C104.943 401.852 106.19 400.704 107.47 399.523C120.518 387.732 135.502 378.278 151.762 371.574C177.377 360.867 205.389 357.198 232.899 360.946V360.946Z" fill="#F2F2F2"/>
<path d="M105.402 420.649H14.2586C13.7609 413.352 13.8048 406.027 14.39 398.736C18.0317 353.696 42.54 310.788 79.516 284.807C74.7915 301.635 77.2193 318.366 82.1407 335.161C81.4518 335.391 80.7628 335.588 80.1394 335.85C75.1478 337.699 70.5668 340.508 66.6549 344.117C65.5721 345.134 64.4239 346.61 64.9816 348.021C65.4736 349.202 66.95 349.595 68.2296 349.858C71.3136 350.448 74.3977 351.039 77.449 351.596C79.9097 352.088 82.3704 352.548 84.831 353.04C85.9793 353.237 87.1277 353.466 88.2759 353.696C88.4399 354.089 88.5385 354.45 88.7025 354.811C94.4769 370.721 100.776 386.763 103.729 403.066C104.46 407.158 104.964 411.286 105.238 415.433C105.337 417.172 105.402 418.911 105.402 420.649Z" fill="#5C9553"/>
<path d="M444.717 382.389L526.156 389.618L527.028 389.697V42.2516C526.737 42.0489 526.446 41.8461 526.156 41.6434C509.183 29.7733 490.823 20.0219 471.484 12.6058L467.323 69.9933L466.943 75.2472L462.826 132.159L461.556 149.666L444.867 380.362L444.717 382.389Z" fill="#3F3D56"/>
<path d="M243.32 35.7812C242.738 36.1514 242.156 36.5217 241.574 36.9096V389.697L243.32 389.538L323.877 382.389L323.727 380.362L307.037 149.666L305.768 132.159L301.65 75.2472L301.271 69.9933L296.907 9.8114C278.087 16.3341 260.1 25.0508 243.32 35.7812V35.7812Z" fill="#3F3D56"/>
<path d="M527.778 69.9968H240.695V80.2499H527.778V69.9968Z" fill="#3F3D56"/>
<path d="M440.547 2.98836C438.801 2.55641 437.055 2.15091 435.292 1.77185V144.412H440.547V2.98836Z" fill="#3F3D56"/>
<path d="M334.183 0C332.429 0.326165 330.674 0.661149 328.929 1.02258V144.412H334.183V0Z" fill="#3F3D56"/>
<path d="M184.213 403.995C184.212 407.01 184.79 409.996 185.915 412.793C186.347 413.877 186.863 414.927 187.458 415.931C188.226 417.241 189.118 418.475 190.12 419.616C192.335 422.14 195.064 424.162 198.123 425.546C201.182 426.931 204.501 427.647 207.859 427.647H552.861C559.132 427.647 565.147 425.156 569.581 420.722C574.016 416.288 576.507 410.275 576.507 404.004C576.507 397.734 574.016 391.72 569.581 387.286C565.147 382.852 559.132 380.362 552.861 380.362H207.859C201.592 380.368 195.582 382.859 191.149 387.29C186.716 391.721 184.222 397.728 184.213 403.995V403.995Z" fill="#A97474"/>
<path d="M240.695 149.668L527.027 149.668V132.158L240.695 132.158V149.668Z" fill="#3F3D56"/>
<path d="M396.12 136.535H371.602C371.602 133.981 372.617 131.531 374.423 129.725C376.23 127.919 378.68 126.905 381.234 126.905H386.488C387.753 126.905 389.005 127.154 390.174 127.638C391.343 128.122 392.404 128.831 393.299 129.725C394.193 130.62 394.903 131.681 395.387 132.85C395.871 134.018 396.12 135.271 396.12 136.535V136.535H396.12Z" fill="#E6E6E6"/>
<path d="M241.574 36.9096C240.402 37.6677 239.229 38.4435 238.074 39.228V394.51C238.074 403.387 243.338 410.827 250.373 412.723C251.523 413.034 252.709 413.191 253.9 413.19H515.576C516.764 413.191 517.947 413.034 519.094 412.723C521.709 411.997 524.079 410.578 525.953 408.615C529.527 404.795 531.48 399.74 531.402 394.51V45.4075C529.956 44.3409 528.501 43.283 527.029 42.2517C526.738 42.0489 526.447 41.8462 526.156 41.6434V394.51C526.158 395.654 526.022 396.793 525.75 397.904C524.507 403.149 520.407 406.993 515.576 406.993H253.9C248.063 406.993 243.32 401.395 243.32 394.51V35.7812C242.738 36.1515 242.156 36.5217 241.574 36.9096Z" fill="#2F2E41"/>
<path d="M0 417.5C7.65919 426.574 15.9434 435.102 24.7922 443.021H735.92C744.768 435.102 753.053 426.574 760.712 417.5H0Z" fill="#3F3D56"/>
<path d="M349.745 332.16V422.569H413.092V332.16C413.093 331.509 412.885 330.876 412.5 330.352C412.114 329.829 411.571 329.443 410.949 329.251C410.656 329.154 410.35 329.106 410.041 329.11H352.804C352.403 329.109 352.005 329.187 351.634 329.34C351.263 329.493 350.926 329.717 350.642 330.001C350.358 330.284 350.132 330.62 349.978 330.991C349.824 331.361 349.745 331.758 349.745 332.16V332.16ZM374.466 363.225C374.483 361.442 375.203 359.739 376.469 358.485C377.736 357.23 379.446 356.527 381.229 356.527C383.011 356.527 384.722 357.23 385.988 358.485C387.254 359.739 387.974 361.442 387.991 363.225V373.715C387.982 375.502 387.265 377.213 385.998 378.474C384.731 379.734 383.016 380.442 381.229 380.442C379.441 380.442 377.726 379.734 376.459 378.474C375.192 377.213 374.475 375.502 374.466 373.715V363.225Z" fill="#2F2E41"/>
<path d="M349.551 419.678V428.396C349.552 428.848 349.732 429.28 350.05 429.601C350.369 429.921 350.801 430.102 351.252 430.106H411.584C412.036 430.104 412.469 429.923 412.788 429.602C413.107 429.282 413.286 428.848 413.286 428.396V419.678H349.551Z" fill="#3F3D56"/>
<path d="M250.091 195.946V361.021C250.092 363.125 250.929 365.142 252.417 366.629C253.904 368.117 255.922 368.953 258.026 368.955H502.686C504.79 368.953 506.807 368.117 508.295 366.629C509.782 365.142 510.619 363.125 510.621 361.021V195.946C510.616 193.844 509.778 191.83 508.291 190.345C506.803 188.859 504.788 188.024 502.686 188.021H258.026C255.924 188.024 253.908 188.859 252.421 190.345C250.934 191.83 250.096 193.844 250.091 195.946V195.946Z" fill="#3F3D56"/>
<path d="M255.831 198V358.985C255.833 360.109 256.28 361.186 257.075 361.981C257.87 362.775 258.947 363.223 260.071 363.225H500.649C501.773 363.223 502.851 362.775 503.646 361.981C504.441 361.186 504.888 360.109 504.89 358.985V198C504.89 196.875 504.443 195.795 503.648 194.999C502.853 194.202 501.775 193.753 500.649 193.751H260.071C258.946 193.753 257.867 194.202 257.072 194.999C256.277 195.795 255.831 196.875 255.831 198V198Z" fill="#6C63FF"/>
<path d="M304.886 432.16C305.131 432.467 305.442 432.715 305.796 432.884C306.151 433.054 306.539 433.141 306.932 433.139H450.06C450.451 433.138 450.838 433.051 451.191 432.882C451.544 432.713 451.856 432.468 452.102 432.164C452.349 431.86 452.524 431.505 452.616 431.125C452.709 430.744 452.715 430.348 452.634 429.965L450.413 419.413C450.32 418.983 450.122 418.583 449.836 418.249C449.549 417.914 449.184 417.657 448.773 417.5C448.475 417.384 448.158 417.324 447.838 417.324H309.145C308.825 417.324 308.508 417.384 308.21 417.5C307.799 417.657 307.433 417.914 307.147 418.248C306.86 418.583 306.662 418.983 306.57 419.413L304.348 429.965C304.269 430.348 304.277 430.744 304.37 431.123C304.463 431.503 304.639 431.857 304.886 432.16Z" fill="#2F2E41"/>
<path d="M442.843 421.869H446.391C446.629 421.869 446.821 421.676 446.821 421.439V419.655C446.821 419.417 446.629 419.224 446.391 419.224H442.843C442.606 419.224 442.413 419.417 442.413 419.655V421.439C442.413 421.676 442.606 421.869 442.843 421.869Z" fill="#3F3D56"/>
<path d="M434.027 421.869H437.574C437.812 421.869 438.005 421.676 438.005 421.439V419.655C438.005 419.417 437.812 419.224 437.574 419.224H434.027C433.789 419.224 433.597 419.417 433.597 419.655V421.439C433.597 421.676 433.789 421.869 434.027 421.869Z" fill="#3F3D56"/>
<path d="M425.211 421.869H428.758C428.996 421.869 429.188 421.676 429.188 421.439V419.655C429.188 419.417 428.996 419.224 428.758 419.224H425.211C424.973 419.224 424.78 419.417 424.78 419.655V421.439C424.78 421.676 424.973 421.869 425.211 421.869Z" fill="#3F3D56"/>
<path d="M416.394 421.869H419.941C420.179 421.869 420.372 421.676 420.372 421.439V419.655C420.372 419.417 420.179 419.224 419.941 419.224H416.394C416.156 419.224 415.963 419.417 415.963 419.655V421.439C415.963 421.676 416.156 421.869 416.394 421.869Z" fill="#3F3D56"/>
<path d="M407.577 421.869H411.125C411.362 421.869 411.555 421.676 411.555 421.439V419.655C411.555 419.417 411.362 419.224 411.125 419.224H407.577C407.34 419.224 407.147 419.417 407.147 419.655V421.439C407.147 421.676 407.34 421.869 407.577 421.869Z" fill="#3F3D56"/>
<path d="M398.761 421.869H402.308C402.546 421.869 402.739 421.676 402.739 421.439V419.655C402.739 419.417 402.546 419.224 402.308 419.224H398.761C398.523 419.224 398.33 419.417 398.33 419.655V421.439C398.33 421.676 398.523 421.869 398.761 421.869Z" fill="#3F3D56"/>
<path d="M389.944 421.869H393.491C393.729 421.869 393.922 421.676 393.922 421.439V419.655C393.922 419.417 393.729 419.224 393.491 419.224H389.944C389.706 419.224 389.514 419.417 389.514 419.655V421.439C389.514 421.676 389.706 421.869 389.944 421.869Z" fill="#3F3D56"/>
<path d="M381.128 421.869H384.675C384.913 421.869 385.105 421.676 385.105 421.439V419.655C385.105 419.417 384.913 419.224 384.675 419.224H381.128C380.89 419.224 380.697 419.417 380.697 419.655V421.439C380.697 421.676 380.89 421.869 381.128 421.869Z" fill="#3F3D56"/>
<path d="M372.311 421.869H375.859C376.096 421.869 376.289 421.676 376.289 421.439V419.655C376.289 419.417 376.096 419.224 375.859 419.224H372.311C372.073 419.224 371.881 419.417 371.881 419.655V421.439C371.881 421.676 372.073 421.869 372.311 421.869Z" fill="#3F3D56"/>
<path d="M363.494 421.869H367.042C367.279 421.869 367.472 421.676 367.472 421.439V419.655C367.472 419.417 367.279 419.224 367.042 419.224H363.494C363.257 419.224 363.064 419.417 363.064 419.655V421.439C363.064 421.676 363.257 421.869 363.494 421.869Z" fill="#3F3D56"/>
<path d="M354.678 421.869H358.225C358.463 421.869 358.656 421.676 358.656 421.439V419.655C358.656 419.417 358.463 419.224 358.225 419.224H354.678C354.44 419.224 354.247 419.417 354.247 419.655V421.439C354.247 421.676 354.44 421.869 354.678 421.869Z" fill="#3F3D56"/>
<path d="M345.861 421.869H349.409C349.647 421.869 349.839 421.676 349.839 421.439V419.655C349.839 419.417 349.647 419.224 349.409 419.224H345.861C345.624 419.224 345.431 419.417 345.431 419.655V421.439C345.431 421.676 345.624 421.869 345.861 421.869Z" fill="#3F3D56"/>
<path d="M337.045 421.869H340.592C340.83 421.869 341.022 421.676 341.022 421.439V419.655C341.022 419.417 340.83 419.224 340.592 419.224H337.045C336.807 419.224 336.614 419.417 336.614 419.655V421.439C336.614 421.676 336.807 421.869 337.045 421.869Z" fill="#3F3D56"/>
<path d="M328.228 421.869H331.776C332.013 421.869 332.206 421.676 332.206 421.439V419.655C332.206 419.417 332.013 419.224 331.776 419.224H328.228C327.99 419.224 327.798 419.417 327.798 419.655V421.439C327.798 421.676 327.99 421.869 328.228 421.869Z" fill="#3F3D56"/>
<path d="M319.412 421.869H322.959C323.197 421.869 323.39 421.676 323.39 421.439V419.655C323.39 419.417 323.197 419.224 322.959 419.224H319.412C319.174 419.224 318.981 419.417 318.981 419.655V421.439C318.981 421.676 319.174 421.869 319.412 421.869Z" fill="#3F3D56"/>
<path d="M310.595 421.869H314.142C314.38 421.869 314.573 421.676 314.573 421.439V419.655C314.573 419.417 314.38 419.224 314.142 419.224H310.595C310.357 419.224 310.164 419.417 310.164 419.655V421.439C310.164 421.676 310.357 421.869 310.595 421.869Z" fill="#3F3D56"/>
<path d="M442.948 426.277H446.495C446.733 426.277 446.926 426.084 446.926 425.846V424.062C446.926 423.825 446.733 423.632 446.495 423.632H442.948C442.71 423.632 442.517 423.825 442.517 424.062V425.846C442.517 426.084 442.71 426.277 442.948 426.277Z" fill="#3F3D56"/>
<path d="M434.131 426.277H437.679C437.917 426.277 438.109 426.084 438.109 425.846V424.062C438.109 423.825 437.917 423.632 437.679 423.632H434.131C433.894 423.632 433.701 423.825 433.701 424.062V425.846C433.701 426.084 433.894 426.277 434.131 426.277Z" fill="#3F3D56"/>
<path d="M425.315 426.277H428.862C429.1 426.277 429.292 426.084 429.292 425.846V424.062C429.292 423.825 429.1 423.632 428.862 423.632H425.315C425.077 423.632 424.884 423.825 424.884 424.062V425.846C424.884 426.084 425.077 426.277 425.315 426.277Z" fill="#3F3D56"/>
<path d="M416.498 426.277H420.046C420.283 426.277 420.476 426.084 420.476 425.846V424.062C420.476 423.825 420.283 423.632 420.046 423.632H416.498C416.26 423.632 416.068 423.825 416.068 424.062V425.846C416.068 426.084 416.26 426.277 416.498 426.277Z" fill="#3F3D56"/>
<path d="M407.681 426.277H411.229C411.466 426.277 411.659 426.084 411.659 425.846V424.062C411.659 423.825 411.466 423.632 411.229 423.632H407.681C407.444 423.632 407.251 423.825 407.251 424.062V425.846C407.251 426.084 407.444 426.277 407.681 426.277Z" fill="#3F3D56"/>
<path d="M398.865 426.277H402.412C402.65 426.277 402.843 426.084 402.843 425.846V424.062C402.843 423.825 402.65 423.632 402.412 423.632H398.865C398.627 423.632 398.434 423.825 398.434 424.062V425.846C398.434 426.084 398.627 426.277 398.865 426.277Z" fill="#3F3D56"/>
<path d="M390.048 426.277H393.596C393.834 426.277 394.026 426.084 394.026 425.846V424.062C394.026 423.825 393.834 423.632 393.596 423.632H390.048C389.811 423.632 389.618 423.825 389.618 424.062V425.846C389.618 426.084 389.811 426.277 390.048 426.277Z" fill="#3F3D56"/>
<path d="M381.232 426.277H384.779C385.017 426.277 385.209 426.084 385.209 425.846V424.062C385.209 423.825 385.017 423.632 384.779 423.632H381.232C380.994 423.632 380.801 423.825 380.801 424.062V425.846C380.801 426.084 380.994 426.277 381.232 426.277Z" fill="#3F3D56"/>
<path d="M372.415 426.277H375.963C376.2 426.277 376.393 426.084 376.393 425.846V424.062C376.393 423.825 376.2 423.632 375.963 423.632H372.415C372.177 423.632 371.985 423.825 371.985 424.062V425.846C371.985 426.084 372.177 426.277 372.415 426.277Z" fill="#3F3D56"/>
<path d="M363.599 426.277H367.146C367.384 426.277 367.577 426.084 367.577 425.846V424.062C367.577 423.825 367.384 423.632 367.146 423.632H363.599C363.361 423.632 363.168 423.825 363.168 424.062V425.846C363.168 426.084 363.361 426.277 363.599 426.277Z" fill="#3F3D56"/>
<path d="M354.782 426.277H358.329C358.567 426.277 358.76 426.084 358.76 425.846V424.062C358.76 423.825 358.567 423.632 358.329 423.632H354.782C354.544 423.632 354.351 423.825 354.351 424.062V425.846C354.351 426.084 354.544 426.277 354.782 426.277Z" fill="#3F3D56"/>
<path d="M345.965 426.277H349.513C349.751 426.277 349.943 426.084 349.943 425.846V424.062C349.943 423.825 349.751 423.632 349.513 423.632H345.965C345.728 423.632 345.535 423.825 345.535 424.062V425.846C345.535 426.084 345.728 426.277 345.965 426.277Z" fill="#3F3D56"/>
<path d="M337.149 426.277H340.697C340.934 426.277 341.127 426.084 341.127 425.846V424.062C341.127 423.825 340.934 423.632 340.697 423.632H337.149C336.911 423.632 336.719 423.825 336.719 424.062V425.846C336.719 426.084 336.911 426.277 337.149 426.277Z" fill="#3F3D56"/>
<path d="M328.332 426.277H331.88C332.117 426.277 332.31 426.084 332.31 425.846V424.062C332.31 423.825 332.117 423.632 331.88 423.632H328.332C328.094 423.632 327.902 423.825 327.902 424.062V425.846C327.902 426.084 328.094 426.277 328.332 426.277Z" fill="#3F3D56"/>
<path d="M319.516 426.277H323.063C323.301 426.277 323.494 426.084 323.494 425.846V424.062C323.494 423.825 323.301 423.632 323.063 423.632H319.516C319.278 423.632 319.085 423.825 319.085 424.062V425.846C319.085 426.084 319.278 426.277 319.516 426.277Z" fill="#3F3D56"/>
<path d="M310.699 426.277H314.247C314.485 426.277 314.677 426.084 314.677 425.846V424.062C314.677 423.825 314.485 423.632 314.247 423.632H310.699C310.462 423.632 310.269 423.825 310.269 424.062V425.846C310.269 426.084 310.462 426.277 310.699 426.277Z" fill="#3F3D56"/>
<path d="M369.77 431.566H404.176C404.413 431.566 404.606 431.373 404.606 431.136V429.352C404.606 429.114 404.413 428.921 404.176 428.921H369.77C369.532 428.921 369.34 429.114 369.34 429.352V431.136C369.34 431.373 369.532 431.566 369.77 431.566Z" fill="#3F3D56"/>
<path d="M272.16 215.927H497.268C497.502 215.922 497.725 215.826 497.889 215.658C498.052 215.491 498.144 215.266 498.144 215.032C498.144 214.798 498.052 214.573 497.889 214.406C497.725 214.239 497.502 214.142 497.268 214.137H272.16C271.926 214.142 271.704 214.239 271.54 214.406C271.376 214.573 271.285 214.798 271.285 215.032C271.285 215.266 271.376 215.491 271.54 215.658C271.704 215.826 271.926 215.922 272.16 215.927V215.927Z" fill="#3F3D56"/>
<path d="M481.945 209.567C484.842 209.567 487.191 207.166 487.191 204.205C487.191 201.243 484.842 198.843 481.945 198.843C479.048 198.843 476.699 201.243 476.699 204.205C476.699 207.166 479.048 209.567 481.945 209.567Z" fill="#3F3D56"/>
<path d="M463.821 209.567C466.719 209.567 469.068 207.166 469.068 204.205C469.068 201.243 466.719 198.843 463.821 198.843C460.924 198.843 458.575 201.243 458.575 204.205C458.575 207.166 460.924 209.567 463.821 209.567Z" fill="#3F3D56"/>
<path d="M445.698 209.567C448.596 209.567 450.945 207.166 450.945 204.205C450.945 201.243 448.596 198.843 445.698 198.843C442.801 198.843 440.452 201.243 440.452 204.205C440.452 207.166 442.801 209.567 445.698 209.567Z" fill="#3F3D56"/>
<path d="M282.113 201.147C282.112 201.274 282.137 201.399 282.185 201.517C282.233 201.634 282.303 201.741 282.392 201.831C282.482 201.921 282.588 201.993 282.705 202.042C282.822 202.091 282.947 202.116 283.074 202.117H295.946C296.2 202.111 296.443 202.006 296.62 201.824C296.798 201.641 296.898 201.397 296.898 201.143C296.898 200.888 296.798 200.644 296.62 200.462C296.443 200.28 296.2 200.174 295.946 200.169H283.074C282.817 200.172 282.572 200.276 282.392 200.46C282.211 200.643 282.111 200.89 282.113 201.147V201.147Z" fill="#3F3D56"/>
<path d="M282.113 204.805C282.112 204.932 282.137 205.058 282.185 205.175C282.233 205.293 282.303 205.399 282.392 205.489C282.482 205.579 282.588 205.651 282.705 205.7C282.822 205.749 282.947 205.775 283.074 205.775H295.946C296.201 205.769 296.443 205.664 296.621 205.482C296.799 205.3 296.899 205.056 296.899 204.801C296.899 204.546 296.799 204.302 296.621 204.12C296.443 203.938 296.201 203.833 295.946 203.827H283.074C282.817 203.83 282.572 203.935 282.392 204.118C282.211 204.301 282.111 204.548 282.113 204.805V204.805Z" fill="#3F3D56"/>
<path d="M282.113 208.455C282.111 208.712 282.211 208.959 282.392 209.142C282.572 209.326 282.817 209.43 283.074 209.433H295.946C296.2 209.427 296.443 209.322 296.62 209.14C296.798 208.958 296.898 208.714 296.898 208.459C296.898 208.205 296.798 207.96 296.62 207.778C296.443 207.596 296.2 207.491 295.946 207.485H283.074C282.947 207.486 282.822 207.511 282.705 207.56C282.588 207.609 282.482 207.681 282.392 207.771C282.303 207.861 282.233 207.968 282.185 208.085C282.137 208.202 282.112 208.328 282.113 208.455V208.455Z" fill="#3F3D56"/>
<path d="M286.091 236.728H281.466C280.064 236.728 278.927 237.865 278.927 239.267C278.927 240.669 280.064 241.806 281.466 241.806H286.091C287.494 241.806 288.63 240.669 288.63 239.267C288.63 237.865 287.494 236.728 286.091 236.728Z" fill="#E6E6E6"/>
<path d="M338.991 236.728H334.365C332.963 236.728 331.826 237.865 331.826 239.267C331.826 240.669 332.963 241.806 334.365 241.806H338.991C340.393 241.806 341.53 240.669 341.53 239.267C341.53 237.865 340.393 236.728 338.991 236.728Z" fill="#E6E6E6"/>
<path d="M353.978 236.728H349.353C347.951 236.728 346.814 237.865 346.814 239.267C346.814 240.669 347.951 241.806 349.353 241.806H353.978C355.381 241.806 356.518 240.669 356.518 239.267C356.518 237.865 355.381 236.728 353.978 236.728Z" fill="#E6E6E6"/>
<path d="M324.602 236.305H295.855C294.452 236.305 293.315 237.442 293.315 238.844C293.315 240.246 294.452 241.383 295.855 241.383H324.602C326.004 241.383 327.141 240.246 327.141 238.844C327.141 237.442 326.004 236.305 324.602 236.305Z" fill="#E6E6E6"/>
<path d="M395.134 236.305H366.387C364.985 236.305 363.848 237.442 363.848 238.844C363.848 240.246 364.985 241.383 366.387 241.383H395.134C396.537 241.383 397.674 240.246 397.674 238.844C397.674 237.442 396.537 236.305 395.134 236.305Z" fill="#E6E6E6"/>
<path d="M300.198 248.188H295.572C294.17 248.188 293.033 249.325 293.033 250.727C293.033 252.129 294.17 253.266 295.572 253.266H300.198C301.6 253.266 302.737 252.129 302.737 250.727C302.737 249.325 301.6 248.188 300.198 248.188Z" fill="#E6E6E6"/>
<path d="M353.097 248.188H348.472C347.069 248.188 345.933 249.325 345.933 250.727C345.933 252.129 347.069 253.266 348.472 253.266H353.097C354.499 253.266 355.636 252.129 355.636 250.727C355.636 249.325 354.499 248.188 353.097 248.188Z" fill="#E6E6E6"/>
<path d="M368.085 248.188H363.46C362.058 248.188 360.921 249.325 360.921 250.727C360.921 252.129 362.058 253.266 363.46 253.266H368.085C369.488 253.266 370.624 252.129 370.624 250.727C370.624 249.325 369.488 248.188 368.085 248.188Z" fill="#E6E6E6"/>
<path d="M338.708 247.765H309.961C308.559 247.765 307.422 248.902 307.422 250.304C307.422 251.706 308.559 252.843 309.961 252.843H338.708C340.11 252.843 341.247 251.706 341.247 250.304C341.247 248.902 340.11 247.765 338.708 247.765Z" fill="#E6E6E6"/>
<path d="M409.241 247.765H380.494C379.091 247.765 377.955 248.902 377.955 250.304C377.955 251.706 379.091 252.843 380.494 252.843H409.241C410.643 252.843 411.78 251.706 411.78 250.304C411.78 248.902 410.643 247.765 409.241 247.765Z" fill="#E6E6E6"/>
<path d="M314.304 259.648H309.679C308.276 259.648 307.14 260.785 307.14 262.187C307.14 263.589 308.276 264.726 309.679 264.726H314.304C315.706 264.726 316.843 263.589 316.843 262.187C316.843 260.785 315.706 259.648 314.304 259.648Z" fill="#E6E6E6"/>
<path d="M367.204 259.648H362.578C361.176 259.648 360.039 260.785 360.039 262.187C360.039 263.589 361.176 264.726 362.578 264.726H367.204C368.606 264.726 369.743 263.589 369.743 262.187C369.743 260.785 368.606 259.648 367.204 259.648Z" fill="#E6E6E6"/>
<path d="M382.192 259.648H377.566C376.164 259.648 375.027 260.785 375.027 262.187C375.027 263.589 376.164 264.726 377.566 264.726H382.192C383.594 264.726 384.731 263.589 384.731 262.187C384.731 260.785 383.594 259.648 382.192 259.648Z" fill="#E6E6E6"/>
<path d="M352.815 259.225H324.067C322.665 259.225 321.528 260.362 321.528 261.764C321.528 263.166 322.665 264.302 324.067 264.302H352.815C354.217 264.302 355.354 263.166 355.354 261.764C355.354 260.362 354.217 259.225 352.815 259.225Z" fill="#E6E6E6"/>
<path d="M423.347 259.225H394.6C393.198 259.225 392.061 260.362 392.061 261.764C392.061 263.166 393.198 264.302 394.6 264.302H423.347C424.75 264.302 425.886 263.166 425.886 261.764C425.886 260.362 424.75 259.225 423.347 259.225Z" fill="#E6E6E6"/>
<path d="M328.411 271.108H323.785C322.383 271.108 321.246 272.245 321.246 273.647C321.246 275.049 322.383 276.185 323.785 276.185H328.411C329.813 276.185 330.95 275.049 330.95 273.647C330.95 272.245 329.813 271.108 328.411 271.108Z" fill="#E6E6E6"/>
<path d="M381.31 271.108H376.685C375.282 271.108 374.146 272.245 374.146 273.647C374.146 275.049 375.282 276.185 376.685 276.185H381.31C382.712 276.185 383.849 275.049 383.849 273.647C383.849 272.245 382.712 271.108 381.31 271.108Z" fill="#E6E6E6"/>
<path d="M396.298 271.108H391.673C390.271 271.108 389.134 272.245 389.134 273.647C389.134 275.049 390.271 276.185 391.673 276.185H396.298C397.701 276.185 398.837 275.049 398.837 273.647C398.837 272.245 397.701 271.108 396.298 271.108Z" fill="#E6E6E6"/>
<path d="M366.921 270.685H338.174C336.772 270.685 335.635 271.821 335.635 273.223C335.635 274.626 336.772 275.762 338.174 275.762H366.921C368.323 275.762 369.46 274.626 369.46 273.223C369.46 271.821 368.323 270.685 366.921 270.685Z" fill="#E6E6E6"/>
<path d="M338.991 316.677H334.365C332.963 316.677 331.826 317.814 331.826 319.216C331.826 320.618 332.963 321.755 334.365 321.755H338.991C340.393 321.755 341.53 320.618 341.53 319.216C341.53 317.814 340.393 316.677 338.991 316.677Z" fill="#E6E6E6"/>
<path d="M353.978 316.677H349.353C347.951 316.677 346.814 317.814 346.814 319.216C346.814 320.618 347.951 321.755 349.353 321.755H353.978C355.381 321.755 356.518 320.618 356.518 319.216C356.518 317.814 355.381 316.677 353.978 316.677Z" fill="#E6E6E6"/>
<path d="M395.134 317.101H366.387C364.985 317.101 363.848 318.237 363.848 319.639C363.848 321.041 364.985 322.178 366.387 322.178H395.134C396.537 322.178 397.674 321.041 397.674 319.639C397.674 318.237 396.537 317.101 395.134 317.101Z" fill="#E6E6E6"/>
<path d="M286.091 316.677H281.466C280.064 316.677 278.927 317.814 278.927 319.216C278.927 320.618 280.064 321.755 281.466 321.755H286.091C287.494 321.755 288.63 320.618 288.63 319.216C288.63 317.814 287.494 316.677 286.091 316.677Z" fill="#E6E6E6"/>
<path d="M324.602 317.101H295.855C294.452 317.101 293.315 318.237 293.315 319.639C293.315 321.041 294.452 322.178 295.855 322.178H324.602C326.004 322.178 327.141 321.041 327.141 319.639C327.141 318.237 326.004 317.101 324.602 317.101Z" fill="#E6E6E6"/>
<path d="M300.198 305.217H295.572C294.17 305.217 293.033 306.354 293.033 307.756C293.033 309.158 294.17 310.295 295.572 310.295H300.198C301.6 310.295 302.737 309.158 302.737 307.756C302.737 306.354 301.6 305.217 300.198 305.217Z" fill="#E6E6E6"/>
<path d="M353.097 305.217H348.472C347.069 305.217 345.933 306.354 345.933 307.756C345.933 309.158 347.069 310.295 348.472 310.295H353.097C354.499 310.295 355.636 309.158 355.636 307.756C355.636 306.354 354.499 305.217 353.097 305.217Z" fill="#E6E6E6"/>
<path d="M368.085 305.217H363.46C362.058 305.217 360.921 306.354 360.921 307.756C360.921 309.158 362.058 310.295 363.46 310.295H368.085C369.488 310.295 370.624 309.158 370.624 307.756C370.624 306.354 369.488 305.217 368.085 305.217Z" fill="#E6E6E6"/>
<path d="M338.708 305.641H309.961C308.559 305.641 307.422 306.777 307.422 308.179C307.422 309.582 308.559 310.718 309.961 310.718H338.708C340.11 310.718 341.247 309.582 341.247 308.179C341.247 306.777 340.11 305.641 338.708 305.641Z" fill="#E6E6E6"/>
<path d="M314.304 293.758H309.679C308.276 293.758 307.14 294.894 307.14 296.296C307.14 297.698 308.276 298.835 309.679 298.835H314.304C315.706 298.835 316.843 297.698 316.843 296.296C316.843 294.894 315.706 293.758 314.304 293.758Z" fill="#E6E6E6"/>
<path d="M367.204 293.758H362.578C361.176 293.758 360.039 294.894 360.039 296.296C360.039 297.698 361.176 298.835 362.578 298.835H367.204C368.606 298.835 369.743 297.698 369.743 296.296C369.743 294.894 368.606 293.758 367.204 293.758Z" fill="#E6E6E6"/>
<path d="M382.192 293.758H377.566C376.164 293.758 375.027 294.894 375.027 296.296C375.027 297.698 376.164 298.835 377.566 298.835H382.192C383.594 298.835 384.731 297.698 384.731 296.296C384.731 294.894 383.594 293.758 382.192 293.758Z" fill="#E6E6E6"/>
<path d="M352.815 294.181H324.067C322.665 294.181 321.528 295.317 321.528 296.72C321.528 298.122 322.665 299.258 324.067 299.258H352.815C354.217 299.258 355.354 298.122 355.354 296.72C355.354 295.317 354.217 294.181 352.815 294.181Z" fill="#E6E6E6"/>
<path d="M328.411 282.298H323.785C322.383 282.298 321.246 283.434 321.246 284.836C321.246 286.239 322.383 287.375 323.785 287.375H328.411C329.813 287.375 330.95 286.239 330.95 284.836C330.95 283.434 329.813 282.298 328.411 282.298Z" fill="#E6E6E6"/>
<path d="M381.31 282.298H376.685C375.282 282.298 374.146 283.434 374.146 284.836C374.146 286.239 375.282 287.375 376.685 287.375H381.31C382.712 287.375 383.849 286.239 383.849 284.836C383.849 283.434 382.712 282.298 381.31 282.298Z" fill="#E6E6E6"/>
<path d="M396.298 282.298H391.673C390.271 282.298 389.134 283.434 389.134 284.836C389.134 286.239 390.271 287.375 391.673 287.375H396.298C397.701 287.375 398.837 286.239 398.837 284.836C398.837 283.434 397.701 282.298 396.298 282.298Z" fill="#E6E6E6"/>
<path d="M366.921 282.721H338.174C336.772 282.721 335.635 283.858 335.635 285.26C335.635 286.662 336.772 287.798 338.174 287.798H366.921C368.323 287.798 369.46 286.662 369.46 285.26C369.46 283.858 368.323 282.721 366.921 282.721Z" fill="#E6E6E6"/>
<path d="M308.503 481.272C308.309 481.369 308.115 481.466 307.921 481.554C306.695 482.162 305.461 482.762 304.218 483.352C300.497 485.124 296.73 486.808 292.915 488.404C282.878 492.601 272.579 496.143 262.083 499.008C260.32 488.016 258.61 462.09 256.97 443.023C256.661 439.435 256.353 436.094 256.044 433.141C255.751 429.264 255.194 425.411 254.378 421.61C254.298 421.313 254.182 421.025 254.034 420.755C254.201 422.28 254.378 426.829 254.545 433.141C254.633 436.094 254.713 439.435 254.801 443.023C255.215 461.376 255.647 486.35 256.079 500.569C254.854 500.868 253.62 501.168 252.385 501.45C251.609 501.635 250.825 501.812 250.04 501.979C249.088 502.191 248.136 502.402 247.183 502.596C246.187 502.808 245.191 503.011 244.195 503.204C227.914 506.402 211.361 508.008 194.769 508C193.667 508 192.574 507.991 191.471 507.982C191.136 507.982 190.801 507.974 190.458 507.965C189.488 507.947 188.483 507.929 187.46 507.903C167.853 507.361 148.374 504.554 129.412 499.537L130.179 443.023L130.311 433.141L130.364 429.394C129.927 430.599 129.666 431.861 129.588 433.141C129.279 435.547 128.962 438.959 128.645 443.023C127.437 458.678 126.193 483.934 124.906 498.303C109.662 493.966 98.5183 490.008 84.5881 483.044C84.0502 482.779 83.5036 482.506 82.9658 482.233C83.0628 481.554 83.1686 480.875 83.2656 480.179C84.8438 469.213 82.9835 454.941 84.7291 443.023C86.0605 433.828 87.4358 424.995 88.82 417.502C90.4952 408.484 92.1967 401.397 93.8807 397.95C95.8204 393.974 97.7601 390.06 99.638 386.314C100.449 384.701 101.246 383.117 102.027 381.562C102.45 380.725 102.874 379.896 103.288 379.085C105.175 375.392 106.956 371.98 108.587 368.957C109.733 366.832 110.791 364.91 111.761 363.227C112.898 361.243 113.903 359.604 114.732 358.361C120.853 349.083 129.961 342.175 140.547 338.782L140.811 338.711L141.067 338.817L141.358 338.949L158.162 332.805L165.665 314.743L204.203 312.371L210.427 317.105L213.61 319.529L217.004 322.112L223.246 326.864L225.018 327.41L227.655 328.221L245.685 333.757L245.87 333.678L246.134 333.748C255.767 336.831 264.199 342.84 270.256 350.938C270.856 351.714 271.411 352.516 271.949 353.327C273.413 355.496 275.388 358.925 277.715 363.227C278.676 364.999 279.69 366.92 280.757 368.957C281.4 370.182 286.955 387.513 292.36 405.214C297.411 421.787 302.331 438.685 302.975 443.023C303.089 443.825 303.213 444.636 303.327 445.438C304.059 450.454 304.782 455.505 305.479 460.433C306.51 467.741 307.515 474.793 308.476 481.096C308.485 481.158 308.494 481.21 308.503 481.272Z" fill="#3F3D56"/>
<path opacity="0.2" d="M267.663 417.462L260.171 388.555L253.556 413.498L267.663 417.462Z" fill="black"/>
<path d="M13.9562 417.126C14.3447 418.257 15.0815 419.236 16.0609 419.922C17.0404 420.608 18.212 420.966 19.4076 420.944L42.7643 420.343C43.9687 420.32 45.1331 419.907 46.0836 419.167C47.034 418.427 47.7195 417.4 48.0374 416.238L51.3426 380.9C52.5153 381.431 53.7919 381.693 55.079 381.668C57.3374 381.611 59.4808 380.66 61.0376 379.023C62.5945 377.386 63.4373 375.198 63.3806 372.94C63.3239 370.682 62.3724 368.539 60.7353 366.982C59.0983 365.426 56.9099 364.583 54.6515 364.64C54.1371 364.638 53.6239 364.691 53.1208 364.799C52.5736 364.207 51.9086 363.736 51.1685 363.417C50.4284 363.098 49.6296 362.937 48.8236 362.945L12.8955 363.872C12.5975 363.883 12.301 363.92 12.0093 363.982C11.2214 364.129 10.4741 364.443 9.81772 364.903C9.16133 365.363 8.61106 365.958 8.20397 366.648C7.79689 367.339 7.54243 368.108 7.45771 368.905C7.37299 369.702 7.45998 370.508 7.71283 371.268L13.9562 417.126ZM52.0204 378.501L54.3724 370.08C54.6399 369.107 54.6461 368.081 54.3903 367.105C54.5044 367.105 54.6051 367.05 54.7192 367.05C56.3319 367.017 57.892 367.624 59.0574 368.739C60.2228 369.854 60.8985 371.386 60.9363 372.998C60.974 374.61 60.3708 376.172 59.2588 377.34C58.1469 378.508 56.617 379.188 55.0045 379.23C53.962 379.263 52.9302 379.011 52.0204 378.501V378.501Z" fill="#2F2E41"/>
<path d="M12.0093 363.983C12.7747 368.359 21.3805 371.435 31.7283 370.9C41.2438 370.462 49.0242 367.121 50.4496 363.162C49.9221 363.006 49.3735 362.933 48.8235 362.945L12.8955 363.872C12.5975 363.883 12.301 363.92 12.0093 363.983V363.983Z" fill="#3F3D56"/>
<path d="M33.6247 397.708C33.672 397.696 33.717 397.676 33.7578 397.649L38.8301 394.33C38.8914 394.29 38.9418 394.235 38.9767 394.171C39.0115 394.107 39.0298 394.035 39.0299 393.961C39.0299 393.888 39.0117 393.816 38.9768 393.752C38.942 393.687 38.8916 393.633 38.8304 393.593L33.5582 390.14C33.5098 390.108 33.4556 390.086 33.3986 390.075C33.3417 390.064 33.2831 390.064 33.2263 390.076C33.1695 390.088 33.1155 390.11 33.0675 390.143C33.0195 390.176 32.9784 390.217 32.9466 390.266C32.9148 390.314 32.8929 390.369 32.8822 390.426C32.8714 390.483 32.872 390.541 32.8839 390.598C32.8959 390.655 32.9189 390.709 32.9517 390.757C32.9845 390.804 33.0265 390.845 33.0751 390.877L37.784 393.961L33.2752 396.912C33.1879 396.969 33.1237 397.055 33.0939 397.155C33.0642 397.255 33.0709 397.362 33.1128 397.458C33.1548 397.553 33.2292 397.631 33.3229 397.677C33.4166 397.722 33.5236 397.734 33.6247 397.708H33.6247Z" fill="#6C63FF"/>
<path d="M25.6131 398.077C25.6983 398.056 25.775 398.009 25.8336 397.944C25.8921 397.878 25.9297 397.797 25.9417 397.71C25.9536 397.623 25.9393 397.534 25.9006 397.456C25.8618 397.377 25.8005 397.311 25.7243 397.268L21.0488 394.588L25.5678 391.231C25.6143 391.197 25.6535 391.154 25.6831 391.104C25.7128 391.054 25.7325 390.999 25.7409 390.942C25.7493 390.885 25.7464 390.826 25.7323 390.77C25.7182 390.714 25.6932 390.662 25.6587 390.615C25.6242 390.569 25.5809 390.53 25.5312 390.5C25.4816 390.47 25.4266 390.451 25.3693 390.442C25.3121 390.434 25.2538 390.437 25.1977 390.451C25.1416 390.465 25.0888 390.49 25.0424 390.524L19.9829 394.282C19.9241 394.325 19.8771 394.383 19.8461 394.449C19.8151 394.516 19.8011 394.589 19.8054 394.662C19.8098 394.735 19.8322 394.805 19.8707 394.868C19.9093 394.93 19.9627 394.981 20.0262 395.018L25.2855 398.032C25.3847 398.089 25.5022 398.105 25.6131 398.077V398.077Z" fill="#6C63FF"/>
<path d="M33.1199 400.617C33.1626 400.606 33.2033 400.589 33.2407 400.566C33.2902 400.536 33.3333 400.496 33.3675 400.45C33.4017 400.403 33.4264 400.35 33.4401 400.294C33.4538 400.237 33.4563 400.179 33.4474 400.122C33.4386 400.065 33.4185 400.01 33.3884 399.96L26.198 388.14C26.1369 388.041 26.0389 387.97 25.9255 387.943C25.8121 387.916 25.6925 387.934 25.5929 387.995C25.4933 388.056 25.4218 388.153 25.394 388.267C25.3663 388.38 25.3845 388.499 25.4447 388.599L32.635 400.419C32.6841 400.5 32.7577 400.562 32.8449 400.598C32.9322 400.633 33.0285 400.64 33.1199 400.617V400.617Z" fill="#6C63FF"/>
<path d="M692.233 482.231C691.695 482.504 691.148 482.778 690.61 483.042C676.68 490.006 665.536 493.964 650.292 498.301C649.005 483.932 647.762 458.677 646.554 443.021C646.237 438.957 645.919 435.545 645.611 433.139C645.533 431.859 645.272 430.597 644.835 429.392L644.888 433.139L645.02 443.021L645.787 499.535C626.825 504.552 607.346 507.359 587.739 507.901C586.716 507.928 585.711 507.945 584.741 507.963C584.397 507.972 584.062 507.98 583.727 507.98C582.625 507.989 581.532 507.998 580.43 507.998C559.767 508.013 539.179 505.518 519.119 500.567C519.551 486.348 519.983 461.374 520.398 443.021C520.486 439.433 520.565 436.092 520.653 433.139C520.821 426.827 520.997 422.278 521.165 420.753C521.016 421.023 520.901 421.311 520.821 421.608C520.004 425.409 519.447 429.262 519.154 433.139C518.846 436.092 518.537 439.433 518.229 443.021C516.589 462.088 514.878 488.014 513.115 499.006C502.619 496.142 492.321 492.599 482.284 488.402C476.994 486.198 471.798 483.821 466.696 481.27C467.666 474.923 468.68 467.809 469.72 460.431C470.531 454.71 471.369 448.83 472.224 443.021C473.546 434.047 518.476 337.14 529.064 333.746L529.329 333.676L529.514 333.755L547.544 328.219L550.18 327.408L551.952 326.862L558.194 322.11L561.589 319.527L564.771 317.103L570.996 312.369L609.533 314.741L617.036 332.803L633.84 338.947L634.131 338.815L634.387 338.709L634.652 338.78C645.237 342.173 654.345 349.081 660.467 358.359C661.295 359.602 662.3 361.241 663.438 363.225C664.408 364.908 665.466 366.83 666.612 368.955C668.243 371.978 670.024 375.39 671.91 379.083C672.325 379.894 672.748 380.723 673.171 381.56C673.956 383.112 674.752 384.696 675.56 386.312C677.438 390.058 679.378 393.972 681.318 397.948C683.002 401.395 684.703 408.482 686.378 417.5C687.763 424.993 689.138 433.826 690.469 443.021C692.215 454.939 690.355 469.211 691.933 480.177C692.03 480.873 692.136 481.552 692.233 482.231Z" fill="#3F3D56"/>
<path d="M579.209 305.885C603.962 305.885 624.029 285.822 624.029 261.072C624.029 236.322 603.962 216.258 579.209 216.258C554.455 216.258 534.388 236.322 534.388 261.072C534.388 285.822 554.455 305.885 579.209 305.885Z" fill="#FFB6B6"/>
<path opacity="0.2" d="M507.534 417.462L515.026 388.555L521.641 413.498L507.534 417.462Z" fill="black"/>
<path d="M706.886 398.627C704.206 435.545 706.983 451.801 692.189 482.24C678.728 488.827 664.707 494.202 650.292 498.301C648.793 498.724 647.292 499.136 645.787 499.535C626.825 504.552 607.346 507.359 587.739 507.901C586.716 507.928 585.711 507.945 584.741 507.963C584.397 507.972 584.062 507.98 583.727 507.98C582.625 507.989 581.532 507.998 580.43 507.998C559.767 508.013 539.179 505.518 519.119 500.567C517.109 500.073 515.108 499.553 513.115 499.006C502.619 496.142 492.321 492.599 482.284 488.402C476.994 486.198 471.798 483.821 466.696 481.27C465.541 480.688 464.386 480.107 463.249 479.507C457.403 469.228 454.079 456.728 454.009 441.707C458.056 415.826 697.946 376.307 706.886 398.627Z" fill="#2F2E41"/>
<path opacity="0.2" d="M706.879 404.949C707.016 402.664 707.169 400.303 707.347 397.844C698.407 375.524 458.517 415.043 454.47 440.925C454.481 443.298 454.583 445.6 454.753 447.849C464.554 422.303 692.453 384.743 706.879 404.949Z" fill="black"/>
<path d="M448.043 400.368L467.733 390.524L451.325 346.227L447 323.887C446.438 320.985 445.125 318.281 443.19 316.045C441.255 313.809 438.768 312.121 435.976 311.147C433.184 310.174 430.186 309.95 427.281 310.499C424.375 311.047 421.665 312.348 419.42 314.272V314.272C416.093 317.123 414.005 321.155 413.595 325.516C413.185 329.878 414.485 334.228 417.222 337.649L433.275 357.711L448.043 400.368Z" fill="#FFB6B6"/>
<path d="M467.734 382.321L441.479 395.446L461.404 457.866C462.834 462.349 465.399 466.385 468.849 469.585C472.3 472.785 476.518 475.039 481.096 476.128C486.741 477.472 492.667 476.984 498.015 474.733C503.363 472.483 507.856 468.588 510.841 463.613L563.674 373.068C567.418 366.829 568.574 359.373 566.894 352.293C565.215 345.214 560.833 339.071 554.685 335.178V335.178C551.379 333.084 547.668 331.71 543.795 331.145C539.922 330.58 535.974 330.836 532.207 331.898C528.44 332.959 524.938 334.802 521.93 337.306C518.923 339.81 516.476 342.919 514.749 346.431L482.502 415.134L467.734 382.321Z" fill="#3F3D56"/>
<path d="M184.714 302.793C211.95 302.793 234.03 280.717 234.03 253.485C234.03 226.253 211.95 204.177 184.714 204.177C157.478 204.177 135.398 226.253 135.398 253.485C135.398 280.717 157.478 302.793 184.714 302.793Z" fill="#A0616A"/>
<path d="M135.991 219.506C140 214.102 145.764 210.26 150.172 205.177C152.591 202.387 154.599 199.227 157.318 196.73C162.371 192.09 169.436 190.189 176.292 189.952C183.805 189.759 191.259 191.338 198.049 194.56C204.839 197.782 210.775 202.557 215.377 208.498C218.96 206.398 222.544 204.297 226.127 202.196C227.543 205.922 228.959 209.648 230.375 213.373C231.537 212.364 233.018 211.798 234.558 211.776C236.097 211.755 237.594 212.279 238.784 213.255C239.974 214.232 240.779 215.599 241.058 217.112C241.336 218.626 241.07 220.19 240.305 221.526C241.158 218.891 245.066 218.332 247.22 220.073C249.374 221.813 249.951 224.91 249.599 227.657C249.158 230.671 247.826 233.484 245.773 235.734C243.72 237.985 241.042 239.57 238.081 240.286C233.404 241.328 227.962 240.233 224.219 243.224C221.218 245.621 220.312 249.987 217.25 252.305C213.476 255.161 208.143 253.84 203.452 254.471C195.246 255.576 188.748 263.968 189.734 272.188C188.991 269.595 188.211 266.926 186.526 264.819C184.841 262.712 182.002 261.287 179.418 262.061C175.145 263.342 174.446 269.164 175.482 273.502C178.228 285.006 188.636 303.601 188.636 303.601C175.122 308.931 159.022 303.891 148.595 293.777C138.168 283.663 132.738 269.342 130.372 255.011C128.366 242.858 128.651 229.398 135.991 219.506Z" fill="#2F2E41"/>
<path d="M635.377 285.776C644.76 264.268 639.444 244.476 628.007 233.977V233.968C623.51 223.892 617.533 216.117 610.691 214.293C607.385 212.168 604.175 209.673 600.614 208.404C598.954 207.783 597.187 207.504 595.417 207.585C593.647 207.665 591.912 208.103 590.316 208.871L588.5 208.386C586.957 204.446 585.149 204.367 583.139 206.958C575.398 203.353 568.424 201.74 562.217 201.74C541.975 201.74 530.002 218.877 526.828 239.592L543.747 244.097L549.627 234.726L546.912 244.943L556.249 247.42C570.461 265.924 553.454 308.607 531.897 332.356C537.028 330.936 542.139 329.737 547.229 328.759L565.726 301.643L554.265 326.326C560.216 325.453 567.807 326.291 576.103 327.974C578.898 324.325 580.371 319.459 578.925 315.122C581.289 319.696 582.919 324.613 583.756 329.693C601.266 333.969 625.15 336.164 638.022 337.786C648.422 334.391 648.451 296.054 635.377 285.776Z" fill="#2F2E41"/>
<path d="M641.481 212.616C648.353 228.002 634.487 234.619 621.784 234.432C610.305 234.264 600.55 226.201 599.964 214.738C599.683 209.233 601.6 203.842 605.294 199.751C608.988 195.66 614.156 193.203 619.662 192.922C631.126 192.336 636.8 202.136 641.481 212.616Z" fill="#2F2E41"/>
<path d="M322.671 463.075L311.351 444.196L348.99 415.645L364.639 399.124C366.672 396.978 369.233 395.403 372.066 394.556C374.899 393.709 377.904 393.621 380.782 394.299C383.659 394.978 386.309 396.4 388.465 398.423C390.621 400.445 392.208 402.999 393.068 405.827V405.827C394.342 410.018 393.938 414.541 391.941 418.44C389.943 422.339 386.509 425.31 382.363 426.725L358.044 435.026L322.671 463.075Z" fill="#A0616A"/>
<path d="M330.853 462.451L313.228 477.138L308.476 481.096L307.921 481.554C306.695 482.162 305.461 482.762 304.218 483.353C300.497 485.124 296.729 486.808 292.915 488.404C282.878 492.601 272.579 496.144 262.083 499.008C260.091 499.555 258.089 500.075 256.079 500.569C254.854 500.868 253.619 501.168 252.385 501.45C251.609 501.635 250.825 501.812 250.04 501.979C249.088 502.191 248.135 502.402 247.183 502.596C246.187 502.808 245.191 503.011 244.194 503.204C241.514 500.654 239.379 497.585 237.921 494.185C236.463 490.784 235.712 487.123 235.713 483.423C235.713 483.185 235.713 482.938 235.722 482.691L238.552 410.115L239.804 377.948C239.997 370.674 243.027 363.763 248.248 358.693C253.469 353.623 260.466 350.796 267.744 350.815C268.59 350.815 269.428 350.859 270.256 350.938C270.856 351.714 271.411 352.516 271.949 353.327C273.413 355.496 275.388 358.925 277.715 363.227C278.676 364.999 279.69 366.92 280.757 368.957C281.4 370.182 286.955 387.513 292.359 405.214L289.979 423.7L285.676 457.021L303.327 445.438L315.759 437.275L317.231 439.735L321.066 446.134L328.472 458.476L330.853 462.451Z" fill="#3F3D56"/>
<path d="M321.19 441.709C321.181 443.208 321.146 444.68 321.066 446.135C320.882 450.147 320.417 454.141 319.673 458.088C318.456 464.716 316.285 471.132 313.228 477.138C312.823 477.94 312.391 478.733 311.95 479.509C310.812 480.109 309.657 480.69 308.503 481.272C308.309 481.369 308.115 481.466 307.921 481.554C303.01 483.996 298.008 486.279 292.915 488.404C282.878 492.601 272.579 496.144 262.083 499.009C260.091 499.555 258.089 500.075 256.079 500.569C252.156 501.539 248.194 502.417 244.194 503.205C227.914 506.402 211.36 508.008 194.769 508C193.667 508 192.573 507.991 191.471 507.982C191.136 507.982 190.801 507.974 190.457 507.965C189.488 507.947 188.482 507.93 187.46 507.903C167.852 507.361 148.374 504.554 129.411 499.537C127.904 499.141 126.402 498.729 124.906 498.303C110.491 494.204 96.4704 488.829 83.0097 482.242C68.2155 451.803 70.9927 435.547 68.3125 398.629C73.814 384.886 166.891 394.592 238.552 410.115C258.001 414.329 275.864 418.975 289.979 423.7C304.561 428.574 315.133 433.529 319.276 438.183C320.245 439.147 320.91 440.372 321.19 441.709V441.709Z" fill="#2F2E41"/>
<path opacity="0.2" d="M68.3176 404.949C68.1807 402.664 68.0276 400.303 67.8491 397.844C76.7891 375.524 316.679 415.043 320.726 440.925C320.715 443.298 320.614 445.6 320.443 447.849C310.643 422.303 82.7438 384.743 68.3176 404.949Z" fill="black"/>
</svg>
