<svg width="344" viewBox="0 0 344 217" fill="none" xmlns="http://www.w3.org/2000/svg">
<g clip-path="url(#clip0_37_273)">
<path d="M204.122 6.65721C228.886 -6.59823 260.317 0.350916 276.981 23.8546L276.414 24.2572C259.956 1.04364 228.909 -5.81801 204.45 7.27088C202.371 8.38314 200.366 9.62529 198.444 10.9899C173.291 28.8368 167.341 63.8271 185.181 88.9896L184.614 89.3922C166.552 63.9169 172.575 28.491 198.041 10.4225C199.987 9.04115 202.018 7.78359 204.122 6.65721V6.65721Z" fill="#E6E6E6"/>
<path d="M335.314 63.3158L253.861 56.9768C252.597 56.8769 251.424 56.2794 250.599 55.3153C249.774 54.3513 249.366 53.0994 249.463 51.8343L252.994 12.2445C253.094 10.9796 253.691 9.80598 254.655 8.98108C255.618 8.15618 256.87 7.74737 258.134 7.84435L339.587 14.1834C340.851 14.2832 342.025 14.8807 342.849 15.8448C343.674 16.8089 344.082 18.0608 343.985 19.3259L340.454 58.9157C340.355 60.1805 339.757 61.3542 338.794 62.1791C337.83 63.004 336.578 63.4128 335.314 63.3158Z" fill="#AAB7EF"/>
<path d="M316.074 54.3719C315.455 54.3719 314.835 54.3477 314.212 54.2993L261.572 50.2026C260.52 50.1207 259.493 49.8323 258.552 49.3537C257.611 48.8751 256.774 48.2157 256.087 47.4133C255.401 46.6108 254.879 45.681 254.552 44.6769C254.225 43.6728 254.099 42.614 254.181 41.5611L255.381 26.1253C255.549 23.9997 256.552 22.0274 258.172 20.6411C259.791 19.2549 261.894 18.5679 264.02 18.7308L332.089 24.0284C334.214 24.1962 336.186 25.2003 337.571 26.8204C338.957 28.4404 339.644 30.5441 339.481 32.6701C339.022 38.5691 336.358 44.0784 332.02 48.1004C327.682 52.1223 321.988 54.3616 316.074 54.3718V54.3719Z" fill="#C7CFF4"/>
<path d="M330.461 36.2994L263.732 31.1062C263.593 31.0954 263.457 31.0573 263.333 30.9941C263.209 30.9309 263.098 30.8438 263.007 30.7378C262.917 30.6318 262.848 30.509 262.804 30.3764C262.761 30.2437 262.745 30.1039 262.755 29.9648C262.766 29.8257 262.804 29.6902 262.867 29.5658C262.931 29.4415 263.018 29.3308 263.124 29.2401C263.23 29.1494 263.352 29.0805 263.485 29.0373C263.618 28.994 263.757 28.9774 263.896 28.9882L330.625 34.1814C330.764 34.1922 330.9 34.2303 331.024 34.2935C331.149 34.3567 331.259 34.4438 331.35 34.5498C331.441 34.6558 331.509 34.7786 331.553 34.9113C331.596 35.0439 331.613 35.1837 331.602 35.3228C331.591 35.4619 331.553 35.5974 331.49 35.7218C331.426 35.8461 331.339 35.9568 331.233 36.0475C331.128 36.1382 331.005 36.2071 330.872 36.2503C330.74 36.2936 330.6 36.3102 330.461 36.2994Z" fill="#E6E6E6"/>
<path d="M302.753 38.353L263.406 35.2909C263.126 35.2688 262.865 35.1362 262.682 34.9222C262.499 34.7082 262.409 34.4302 262.431 34.1494C262.452 33.8687 262.585 33.6081 262.799 33.4249C263.012 33.2417 263.29 33.151 263.571 33.1727L302.918 36.2349C303.057 36.2456 303.193 36.2837 303.317 36.3469C303.441 36.4101 303.552 36.4972 303.643 36.6032C303.733 36.7092 303.802 36.832 303.846 36.9647C303.889 37.0974 303.906 37.2373 303.895 37.3764C303.884 37.5155 303.846 37.6512 303.783 37.7756C303.719 37.9 303.632 38.0107 303.526 38.1014C303.42 38.1921 303.297 38.261 303.165 38.3042C303.032 38.3473 302.892 38.3639 302.753 38.353V38.353Z" fill="#E6E6E6"/>
<path d="M311.421 43.2377L263.081 39.4756C262.942 39.4649 262.806 39.4269 262.682 39.3637C262.557 39.3005 262.447 39.2134 262.356 39.1074C262.265 39.0014 262.196 38.8785 262.153 38.7458C262.11 38.6132 262.093 38.4733 262.104 38.3341C262.115 38.195 262.153 38.0594 262.216 37.935C262.279 37.8106 262.366 37.6999 262.472 37.6092C262.578 37.5185 262.701 37.4496 262.834 37.4064C262.967 37.3632 263.107 37.3466 263.246 37.3575L311.585 41.1196C311.866 41.1416 312.127 41.2742 312.309 41.4882C312.492 41.7022 312.583 41.9802 312.561 42.261C312.539 42.5417 312.407 42.8023 312.193 42.9855C311.979 43.1687 311.701 43.2594 311.421 43.2377V43.2377Z" fill="#E6E6E6"/>
<path d="M329.863 117.058L248.411 110.719C247.146 110.619 245.973 110.022 245.148 109.058C244.324 108.094 243.915 106.842 244.012 105.577L247.543 65.987C247.643 64.7222 248.24 63.5485 249.204 62.7236C250.168 61.8987 251.419 61.4899 252.684 61.5869L334.136 67.926C335.401 68.0258 336.574 68.6233 337.399 69.5874C338.223 70.5514 338.632 71.8034 338.535 73.0685L335.004 112.658C334.904 113.923 334.307 115.097 333.343 115.922C332.379 116.747 331.128 117.155 329.863 117.058V117.058Z" fill="#AAB7EF"/>
<path d="M310.602 108.114C309.993 108.114 309.379 108.09 308.762 108.042L256.122 103.945C255.069 103.863 254.043 103.575 253.102 103.096C252.161 102.618 251.323 101.958 250.637 101.156C249.95 100.353 249.429 99.4236 249.102 98.4195C248.774 97.4153 248.648 96.3566 248.73 95.3036L249.931 79.8681C250.012 78.8151 250.301 77.7885 250.779 76.8471C251.258 75.9056 251.917 75.0676 252.719 74.381C253.521 73.6943 254.451 73.1725 255.455 72.8452C256.458 72.5179 257.517 72.3917 258.569 72.4736L326.639 77.7711C327.691 77.853 328.718 78.1415 329.659 78.6201C330.6 79.0987 331.437 79.7581 332.124 80.5605C332.81 81.363 333.332 82.2928 333.659 83.297C333.986 84.3011 334.112 85.3599 334.03 86.4128C333.564 92.3127 330.895 97.821 326.554 101.842C322.213 105.863 316.518 108.102 310.602 108.114V108.114Z" fill="#C7CFF4"/>
<path d="M325.01 90.042L258.281 84.8488C258.142 84.838 258.007 84.7999 257.882 84.7366C257.758 84.6734 257.647 84.5863 257.557 84.4804C257.466 84.3744 257.397 84.2515 257.354 84.1189C257.311 83.9863 257.294 83.8464 257.305 83.7074C257.316 83.5683 257.354 83.4327 257.417 83.3084C257.48 83.184 257.567 83.0734 257.673 82.9827C257.779 82.892 257.902 82.8231 258.035 82.7798C258.167 82.7366 258.307 82.7199 258.446 82.7307L325.175 87.9239C325.314 87.9348 325.45 87.9729 325.574 88.0361C325.698 88.0993 325.809 88.1864 325.899 88.2924C325.99 88.3984 326.059 88.5212 326.102 88.6538C326.145 88.7864 326.162 88.9263 326.151 89.0653C326.141 89.2044 326.102 89.34 326.039 89.4643C325.976 89.5887 325.889 89.6994 325.783 89.7901C325.677 89.8808 325.554 89.9497 325.422 89.9929C325.289 90.0361 325.149 90.0528 325.01 90.042V90.042Z" fill="#E6E6E6"/>
<path d="M297.303 92.0957L257.956 89.0335C257.817 89.0228 257.681 88.9847 257.557 88.9215C257.432 88.8583 257.322 88.7713 257.231 88.6652C257.14 88.5592 257.071 88.4364 257.028 88.3037C256.985 88.171 256.968 88.0311 256.979 87.892C256.99 87.7529 257.028 87.6172 257.091 87.4928C257.154 87.3684 257.241 87.2577 257.347 87.167C257.453 87.0763 257.576 87.0074 257.709 86.9643C257.842 86.9211 257.981 86.9045 258.12 86.9154L297.467 89.9775C297.748 89.9995 298.008 90.1321 298.191 90.3462C298.374 90.5602 298.465 90.8382 298.443 91.1189C298.421 91.3997 298.289 91.6603 298.075 91.8435C297.861 92.0266 297.583 92.1174 297.303 92.0957V92.0957Z" fill="#E6E6E6"/>
<path d="M305.97 96.9802L257.63 93.2182C257.35 93.1963 257.089 93.0638 256.906 92.8497C256.723 92.6356 256.632 92.3576 256.654 92.0767C256.676 91.7958 256.808 91.5351 257.022 91.3519C257.236 91.1688 257.514 91.0782 257.795 91.1L306.135 94.8621C306.416 94.8839 306.676 95.0164 306.859 95.2305C307.042 95.4446 307.133 95.7226 307.111 96.0035C307.089 96.2844 306.957 96.5451 306.743 96.7283C306.529 96.9114 306.251 97.0021 305.97 96.9802V96.9802Z" fill="#E6E6E6"/>
<path d="M122.671 96.3737C121.637 94.0298 121.075 91.5051 121.016 88.9437C120.958 86.3824 121.404 83.8346 122.33 81.4458C123.255 79.057 124.642 76.874 126.411 75.0214C128.181 73.1688 130.297 71.683 132.64 70.6487C134.983 69.6144 137.507 69.0519 140.067 68.9933C142.628 68.9347 145.175 69.3811 147.562 70.3072C149.95 71.2332 152.132 72.6207 153.984 74.3905C155.836 76.1602 157.322 78.2774 158.355 80.6214L157.719 80.9024C156.722 78.642 155.29 76.6003 153.504 74.8937C151.718 73.1871 149.614 71.8491 147.311 70.9561C145.008 70.063 142.552 69.6325 140.083 69.689C137.614 69.7455 135.18 70.2879 132.921 71.2853C130.661 72.2827 128.621 73.7156 126.915 75.5021C125.209 77.2885 123.871 79.3937 122.978 81.6973C122.086 84.0008 121.655 86.4578 121.712 88.9277C121.768 91.3977 122.31 93.8324 123.308 96.0927L122.671 96.3737Z" fill="#E6E6E6"/>
<path d="M324.818 205.174C332.781 201.399 338.712 193.805 337.787 185.459C330.643 191.246 320.917 194.477 310.877 194.4C306.966 194.37 302.587 193.972 299.745 196.167C297.977 197.533 297.179 199.702 297.078 201.863C296.977 204.025 297.501 206.213 298.022 208.372L297.864 208.883C307.213 209.479 316.855 208.949 324.818 205.174Z" fill="#3F6839"/>
<path d="M337.591 185.438C334.511 191.45 329.172 196.46 322.536 199.393C321.082 200.072 319.534 200.527 317.944 200.743C316.325 200.912 314.689 200.698 313.168 200.118C311.725 199.6 310.304 198.926 308.774 198.721C308.025 198.617 307.263 198.664 306.533 198.861C305.803 199.058 305.12 199.4 304.525 199.867C303.112 200.967 302.269 202.488 301.505 204.006C300.657 205.691 299.807 207.456 298.146 208.604C297.945 208.743 298.225 209.033 298.426 208.894C301.316 206.896 301.733 203.283 304.029 200.862C304.569 200.251 305.24 199.771 305.993 199.456C306.745 199.142 307.558 199.001 308.372 199.046C309.933 199.161 311.4 199.855 312.856 200.39C314.337 200.975 315.925 201.236 317.515 201.155C319.118 201.014 320.687 200.615 322.163 199.973C325.371 198.637 328.342 196.788 330.957 194.499C333.847 191.999 336.232 188.97 337.985 185.574C338.092 185.366 337.697 185.232 337.591 185.438H337.591Z" fill="white"/>
<path d="M324.759 198.546C325.597 199.535 326.723 200.238 327.979 200.558C329.236 200.877 330.56 200.797 331.769 200.328C332.001 200.231 331.811 199.891 331.579 199.989C330.455 200.427 329.221 200.502 328.052 200.202C326.883 199.903 325.837 199.244 325.061 198.319C324.898 198.121 324.597 198.349 324.759 198.546V198.546Z" fill="white"/>
<path d="M313.868 200.464C314.022 199.29 314.423 198.161 315.045 197.153C315.666 196.145 316.494 195.281 317.474 194.616C317.675 194.476 317.394 194.186 317.194 194.326C316.176 195.02 315.316 195.922 314.672 196.972C314.028 198.022 313.614 199.197 313.456 200.42C313.428 200.652 313.84 200.696 313.868 200.464L313.868 200.464Z" fill="white"/>
<path d="M333.374 191.744C332.991 191.449 332.69 191.062 332.498 190.618C332.307 190.175 332.232 189.69 332.281 189.209C332.313 188.977 331.901 188.934 331.869 189.165C331.818 189.696 331.901 190.231 332.111 190.722C332.321 191.212 332.652 191.642 333.072 191.971C333.11 192.008 333.159 192.031 333.212 192.037C333.265 192.043 333.318 192.03 333.363 192.002C333.382 191.987 333.398 191.968 333.41 191.946C333.421 191.924 333.427 191.9 333.428 191.875C333.43 191.851 333.425 191.826 333.416 191.804C333.406 191.781 333.392 191.76 333.374 191.744V191.744Z" fill="white"/>
<path d="M311.515 167.812C311.491 167.957 311.466 168.101 311.438 168.246C311.098 170.179 310.577 172.076 309.884 173.912C309.833 174.055 309.778 174.199 309.723 174.34C307.969 178.785 305.301 182.813 301.893 186.162C300.505 187.531 299.007 188.784 297.415 189.909C295.196 191.48 292.635 193.014 291.231 195.131C291.082 195.349 290.949 195.577 290.832 195.814L297.159 208.619C297.189 208.643 297.216 208.668 297.246 208.692L297.473 209.212C297.561 209.158 297.651 209.102 297.739 209.048C297.79 209.018 297.84 208.984 297.891 208.954C297.925 208.932 297.958 208.911 297.99 208.894C298.002 208.886 298.013 208.879 298.021 208.873C298.053 208.856 298.08 208.836 298.109 208.82C298.612 208.503 299.113 208.183 299.612 207.858C299.615 207.857 299.615 207.857 299.617 207.853C303.411 205.371 306.98 202.566 309.913 199.33C310.001 199.232 310.092 199.134 310.177 199.031C311.481 197.577 312.648 196.006 313.665 194.338C314.212 193.431 314.707 192.493 315.147 191.529C316.274 189.039 316.943 186.365 317.119 183.636C317.476 178.171 315.856 172.519 311.826 168.144C311.723 168.032 311.622 167.923 311.515 167.812Z" fill="#5C9553"/>
<path d="M311.353 167.9C313.116 174.66 312.508 181.789 309.525 187.856C308.904 189.203 308.049 190.429 307 191.477C305.876 192.508 304.494 193.215 303.001 193.524C301.571 193.862 300.051 194.057 298.767 194.708C298.137 195.024 297.591 195.484 297.173 196.051C296.754 196.618 296.476 197.277 296.361 197.972C296.047 199.667 296.446 201.412 296.901 203.111C297.406 204.998 297.964 206.953 297.498 208.823C297.441 209.05 297.847 209.144 297.903 208.918C298.714 205.665 296.582 202.375 296.663 199.084C296.701 197.548 297.26 196.052 298.686 195.201C299.933 194.456 301.5 194.254 302.953 193.923C304.42 193.638 305.795 192.998 306.958 192.058C308.066 191.07 308.976 189.878 309.638 188.549C311.156 185.62 312.132 182.44 312.518 179.163C312.981 175.361 312.717 171.505 311.74 167.802C311.68 167.569 311.293 167.668 311.353 167.9H311.353Z" fill="white"/>
<path d="M310.616 185.939C313.218 186.754 315.979 185.778 317.07 183.67C317.178 183.462 316.806 183.276 316.699 183.484C315.676 185.459 313.121 186.345 310.689 185.583C310.433 185.503 310.361 185.859 310.616 185.939V185.939Z" fill="white"/>
<path d="M303.76 193.439C303.094 192.434 302.638 191.303 302.422 190.116C302.206 188.929 302.233 187.71 302.502 186.534C302.558 186.307 302.152 186.213 302.097 186.439C301.819 187.664 301.794 188.933 302.022 190.168C302.249 191.403 302.726 192.579 303.422 193.624C303.558 193.837 303.895 193.651 303.76 193.439Z" fill="white"/>
<path d="M312.463 175.522C311.952 175.465 311.46 175.295 311.022 175.025C310.584 174.755 310.211 174.392 309.93 173.962C309.796 173.748 309.459 173.934 309.591 174.146C309.904 174.621 310.317 175.021 310.8 175.32C311.283 175.619 311.826 175.81 312.39 175.878C312.502 175.891 312.607 175.852 312.629 175.747C312.636 175.696 312.622 175.644 312.591 175.602C312.56 175.56 312.514 175.532 312.463 175.522V175.522Z" fill="white"/>
<path d="M324.945 114.256L320.105 88.482L310.604 75.9717L303.563 80.5768C304.558 85.9752 312.084 96.053 312.084 96.053L318.755 115.986C318.728 116.09 318.704 116.194 318.686 116.302C318.58 116.933 318.638 117.58 318.856 118.181C319.073 118.783 319.442 119.318 319.926 119.735C320.411 120.152 320.995 120.437 321.621 120.562C322.248 120.688 322.897 120.649 323.504 120.451C324.112 120.252 324.658 119.9 325.09 119.429C325.522 118.957 325.825 118.383 325.97 117.76C326.114 117.137 326.096 116.487 325.917 115.874C325.737 115.26 325.403 114.703 324.945 114.256V114.256Z" fill="#FFB8B8"/>
<path d="M303.752 83.3001L311.724 76.8276L311.739 76.7934C313.23 73.4136 309.92 67.6183 306.88 63.3519C305.877 61.9459 304.377 60.9735 302.684 60.6313C300.992 60.2891 299.232 60.6026 297.762 61.5084C296.681 62.1839 295.812 63.1483 295.251 64.2924C294.69 65.4365 294.46 66.7149 294.587 67.9829L295.257 74.4396L303.752 83.3001Z" fill="#3F3D56"/>
<path d="M275.579 211.568L270.275 211.568L267.752 191.102L275.58 191.102L275.579 211.568Z" fill="#FFB8B8"/>
<path d="M276.932 209.836L275.439 209.836L269.611 207.465L266.487 209.836H266.486C264.721 209.836 263.028 210.537 261.78 211.786C260.531 213.035 259.83 214.729 259.83 216.495V216.711L276.932 216.712L276.932 209.836Z" fill="#2F2E41"/>
<path d="M299.114 211.568L293.81 211.568L291.286 191.102L299.115 191.102L299.114 211.568Z" fill="#FFB8B8"/>
<path d="M300.467 209.836L298.974 209.836L293.145 207.465L290.021 209.836H290.021C288.256 209.836 286.562 210.537 285.314 211.786C284.066 213.035 283.364 214.729 283.364 216.495V216.711L300.466 216.712L300.467 209.836Z" fill="#2F2E41"/>
<path d="M307.201 123.415C307.201 123.415 307.821 130.85 306.272 137.975C304.724 145.1 304.724 165.166 304.724 165.166L301.318 204.268L291.099 203.339L288.312 137.975L278.402 159.969L279.331 163.067L278.094 163.841C278.094 163.841 279.022 169.882 278.402 169.882C277.783 169.882 276.235 170.811 276.235 170.811L277.473 202.719L266.945 202.409L263.229 157.491L267.254 131.779L267.564 126.822L268.958 126.88L269.667 124.809L270.97 121.246L307.201 123.415Z" fill="#2F2E41"/>
<path d="M307.736 124.976L307.792 124.899C310.739 120.771 306.306 110.851 305.637 109.413L308.454 108.499L307.819 103.106L307.519 100.702L309.671 98.5486L309.677 98.4949L310.916 87.6526L312.717 80.4512C313.396 77.7288 313.338 74.8748 312.55 72.1821C311.761 69.4895 310.271 67.0552 308.231 65.1292L304.068 61.2026L299.009 53.7139H290.85L288.053 58.9998C285.341 59.6269 282.935 61.1859 281.253 63.4053C279.572 65.6247 278.722 68.3638 278.852 71.1455L279.486 85.009L277.004 102.27L277.003 105.394L274.21 108.499L274.82 111.55L272.694 112.462L271.755 116.843C271.367 117.356 268.803 120.776 268.803 121.711C268.803 121.851 268.906 121.987 269.129 122.138C270.876 123.321 280.534 125.734 284.808 124.023C289.361 122.202 307.46 124.934 307.642 124.962L307.736 124.976Z" fill="#3F3D56"/>
<path d="M293.876 51.2964C299.843 51.2964 304.681 46.4569 304.681 40.4872C304.681 34.5174 299.843 29.678 293.876 29.678C287.908 29.678 283.071 34.5174 283.071 40.4872C283.071 46.4569 287.908 51.2964 293.876 51.2964Z" fill="#FFB8B8"/>
<path d="M292.841 51.4714C294.514 51.4543 296.183 51.2942 297.829 50.9929C299.459 50.6173 303.054 47.836 304.034 46.1928C304.762 44.972 305.199 43.0836 305.438 41.7146C305.76 39.9027 305.698 38.0434 305.256 36.2571C304.814 34.4707 304.002 32.7972 302.872 31.3448C302.437 30.7363 301.845 30.2569 301.159 29.9572C301.099 29.9353 301.036 29.9161 300.973 29.8999C299.98 29.6656 299.079 29.1396 298.386 28.3894C298.252 28.2375 298.107 28.0955 297.952 27.9645C297.175 27.3422 296.262 26.9127 295.287 26.711C293.712 26.3327 291.46 26.8068 288.592 28.1212C287.152 28.7816 285.553 28.5974 284.32 28.3631C284.251 28.3516 284.18 28.3584 284.115 28.3828C284.049 28.4072 283.991 28.4484 283.946 28.5022C283.437 29.0054 282.757 29.2973 282.042 29.3192C281.604 29.3498 281.16 29.9684 280.625 30.774C280.504 30.9569 280.362 31.1703 280.259 31.3006L280.239 31.056L279.998 31.3357C279.619 31.7752 279.358 32.3034 279.239 32.8711C279.12 33.4388 279.146 34.0274 279.315 34.5823C279.484 35.1371 279.791 35.6401 280.207 36.0444C280.623 36.4487 281.134 36.7411 281.693 36.8945C282.137 37.0004 282.59 37.0607 283.046 37.0745C283.323 37.0922 283.609 37.1105 283.883 37.1509C284.765 37.308 285.591 37.6911 286.281 38.263C286.971 38.8349 287.501 39.5759 287.819 40.4137C287.894 40.6073 288.012 40.7811 288.165 40.9216C288.318 41.0621 288.501 41.1656 288.7 41.2241C288.9 41.2826 289.11 41.2945 289.314 41.2589C289.519 41.2233 289.712 41.1411 289.88 41.0188C290.159 40.7896 290.489 40.6313 290.843 40.5575C291.196 40.4836 291.562 40.4964 291.91 40.5946C292.212 40.7526 292.45 41.0097 292.586 41.3228C292.749 41.6713 293.012 41.9632 293.342 42.1612C294.467 42.7052 294.609 45.2399 294.265 47.3648C293.933 49.413 293.212 50.9071 292.51 50.9982C291.97 51.0682 291.909 51.1083 291.872 51.2051L291.84 51.2918L291.902 51.3705C292.204 51.4712 292.524 51.5056 292.841 51.4714V51.4714Z" fill="#2F2E41"/>
<path d="M174.093 107.187C185.959 107.187 195.578 97.5639 195.578 85.6935C195.578 73.8232 185.959 64.2003 174.093 64.2003C162.227 64.2003 152.608 73.8232 152.608 85.6935C152.608 97.5639 162.227 107.187 174.093 107.187Z" fill="#7283E0"/>
<path d="M290.352 82.4951L283.265 77.9611C278.752 81.0837 272.653 92.0846 272.653 92.0846L257.217 106.35C256.574 106.461 255.971 106.739 255.47 107.156C254.968 107.574 254.585 108.116 254.36 108.728C254.135 109.341 254.074 110.002 254.185 110.645C254.297 111.288 254.575 111.891 254.993 112.392C255.411 112.893 255.953 113.276 256.566 113.5C257.178 113.725 257.839 113.785 258.482 113.673C259.125 113.561 259.727 113.282 260.227 112.863C260.728 112.444 261.109 111.901 261.333 111.288L282.846 96.2959L290.352 82.4951Z" fill="#FFB8B8"/>
<path d="M289.676 84.3348L294.397 73.0021L292.689 66.7392C292.35 65.511 291.673 64.4022 290.737 63.5382C289.8 62.6743 288.641 62.0896 287.39 61.8502V61.8502C285.691 61.5371 283.938 61.8808 282.483 62.8119C281.028 63.7429 279.981 65.1918 279.554 66.8656C278.261 71.9428 277.268 78.5432 279.879 81.1553L279.906 81.1818L289.676 84.3348Z" fill="#3F3D56"/>
<path d="M14.7981 210.443C5.55856 205.698 -1.14493 196.53 0.256573 186.733C8.45605 193.817 19.7928 197.987 31.6236 198.271C36.2316 198.382 41.4058 198.076 44.6716 200.769C46.7036 202.444 47.5623 205.029 47.6003 207.579C47.6383 210.129 46.9396 212.687 46.2453 215.211L46.4128 215.819C35.3768 216.172 24.0376 215.187 14.7981 210.443Z" fill="#3F6839"/>
<path d="M0.488325 186.716C3.8919 193.913 9.99493 200.015 17.7026 203.718C19.3901 204.571 21.1968 205.165 23.0616 205.479C24.9626 205.739 26.8981 205.548 28.7117 204.922C30.4299 204.366 32.1298 203.625 33.9393 203.44C34.8254 203.345 35.7215 203.429 36.5742 203.689C37.4268 203.948 38.2185 204.377 38.9017 204.949C40.5256 206.297 41.4619 208.121 42.3052 209.937C43.2415 211.954 44.1768 214.065 46.0905 215.48C46.3224 215.651 45.9814 215.982 45.7499 215.811C42.4204 213.349 42.0641 209.077 39.4495 206.14C38.2294 204.77 36.5082 203.749 34.4005 203.838C32.5574 203.915 30.8038 204.678 29.0684 205.254C27.3024 205.888 25.4212 206.136 23.5513 205.981C21.6685 205.755 19.8344 205.226 18.1201 204.415C14.3904 202.721 10.9606 200.432 7.96483 197.638C4.65407 194.585 1.95699 190.927 0.0187086 186.861C-0.0988614 186.612 0.371528 186.469 0.488333 186.716H0.488325Z" fill="white"/>
<path d="M15.1157 202.636C13.0902 204.947 9.52529 205.729 6.79093 204.474C6.52155 204.351 6.75718 203.958 7.02691 204.081C8.33536 204.64 9.78585 204.774 11.1744 204.465C12.5629 204.155 13.8197 203.419 14.7679 202.358C14.9671 202.131 15.3138 202.41 15.1157 202.636V202.636Z" fill="white"/>
<path d="M27.8738 205.303C27.7359 203.914 27.3056 202.57 26.611 201.359C25.9165 200.148 24.9735 199.099 23.8442 198.279C23.6131 198.107 23.954 197.776 24.1848 197.948C25.3582 198.804 26.337 199.898 27.0567 201.159C27.7765 202.421 28.2208 203.82 28.3605 205.266C28.3854 205.541 27.8985 205.577 27.8738 205.303V205.303Z" fill="white"/>
<path d="M5.22054 194.301C5.68262 193.969 6.05213 193.524 6.29403 193.009C6.53592 192.493 6.64218 191.924 6.60271 191.356C6.57389 191.082 7.06083 191.046 7.08946 191.319C7.13023 191.947 7.01223 192.575 6.74636 193.145C6.48049 193.715 6.07533 194.208 5.56831 194.58C5.5223 194.623 5.46325 194.648 5.40076 194.653C5.33827 194.658 5.27602 194.641 5.22413 194.606C5.20171 194.588 5.1836 194.565 5.17105 194.538C5.1585 194.512 5.15181 194.484 5.15147 194.455C5.15113 194.426 5.15714 194.397 5.16907 194.37C5.181 194.344 5.19857 194.32 5.22055 194.301H5.22054Z" fill="white"/>
<path d="M31.8644 166.927C31.8879 167.097 31.9114 167.268 31.9386 167.44C32.2678 169.73 32.8102 171.984 33.5588 174.173C33.6136 174.343 33.672 174.515 33.7323 174.683C35.6327 179.985 38.6246 184.83 42.5145 188.903C44.099 190.567 45.8164 192.099 47.6496 193.484C50.2049 195.417 53.1645 197.32 54.7396 199.866C54.9069 200.128 55.0554 200.403 55.1842 200.686L47.2535 215.534C47.217 215.561 47.1842 215.59 47.1476 215.617L46.8605 216.221C46.7589 216.155 46.6552 216.084 46.5536 216.018C46.4945 215.98 46.4371 215.939 46.378 215.901C46.3391 215.875 46.3003 215.848 46.2633 215.826C46.2504 215.818 46.2375 215.809 46.2282 215.801C46.1912 215.78 46.1598 215.756 46.1265 215.736C45.5459 215.344 44.9677 214.947 44.392 214.546C44.3883 214.545 44.3883 214.545 44.3863 214.54C40.0088 211.474 35.9091 208.037 32.5757 204.115C32.4755 203.997 32.3714 203.877 32.2748 203.753C30.7937 201.991 29.4773 200.097 28.342 198.094C27.7306 197.005 27.1827 195.882 26.701 194.73C25.4654 191.754 24.7781 188.579 24.6721 185.358C24.4552 178.906 26.5754 172.309 31.4853 167.306C31.611 167.178 31.735 167.053 31.8644 166.927Z" fill="#5C9553"/>
<path d="M32.0517 167.035C29.7235 174.933 30.1726 183.355 33.4609 190.613C34.1416 192.223 35.1028 193.699 36.2998 194.973C37.5854 196.229 39.1867 197.114 40.934 197.533C42.606 197.986 44.39 198.272 45.8781 199.087C46.6085 199.482 47.2349 200.045 47.7063 200.728C48.1777 201.412 48.4805 202.198 48.5902 203.021C48.897 205.03 48.3625 207.071 47.7629 209.056C47.0972 211.259 46.367 213.542 46.8466 215.762C46.9047 216.031 46.4232 216.127 46.3652 215.858C45.5309 211.996 48.1663 208.2 48.1932 204.32C48.2057 202.509 47.6027 200.726 45.9552 199.67C44.5145 198.746 42.6752 198.45 40.9767 198.005C39.2588 197.614 37.6626 196.809 36.3274 195.659C35.0591 194.453 34.0321 193.016 33.3015 191.425C31.6225 187.917 30.5918 184.135 30.2593 180.26C29.8554 175.764 30.3102 171.232 31.5995 166.906C31.6799 166.633 32.1316 166.764 32.0517 167.035L32.0517 167.035Z" fill="white"/>
<path d="M32.2473 188.313C29.151 189.177 25.9349 187.924 24.7281 185.399C24.6093 185.15 25.0539 184.945 25.173 185.194C26.3035 187.56 29.2803 188.699 32.1747 187.892C32.4793 187.807 32.5501 188.229 32.2473 188.313Z" fill="white"/>
<path d="M40.0437 197.405C40.8662 196.246 41.4445 194.931 41.7435 193.54C42.0425 192.15 42.0559 190.713 41.7831 189.318C41.7261 189.049 42.2074 188.953 42.2644 189.221C42.5452 190.675 42.5279 192.17 42.2135 193.616C41.8991 195.063 41.2941 196.43 40.4354 197.635C40.2669 197.881 39.8761 197.65 40.0437 197.405H40.0437Z" fill="white"/>
<path d="M30.4599 175.974C31.0641 175.925 31.65 175.743 32.1759 175.442C32.7018 175.14 33.1549 174.727 33.5027 174.23C33.6678 173.983 34.0584 174.214 33.8944 174.46C33.5078 175.007 33.0069 175.463 32.4264 175.798C31.8459 176.132 31.1997 176.336 30.5325 176.395C30.4001 176.407 30.2784 176.356 30.2556 176.233C30.2502 176.171 30.2683 176.111 30.3063 176.062C30.3443 176.014 30.3993 175.983 30.4599 175.974V175.974Z" fill="white"/>
<path d="M59.816 92.5095L60.5121 98.9673L60.1025 107.435L78.8521 105.207L80.614 92.5095L78.3691 92.5314L59.816 92.5095Z" fill="#FFB6B6"/>
<path d="M50.091 209.754H54.1903L56.1413 193.937H50.091V209.754Z" fill="#FFB6B6"/>
<path d="M48.7532 206.945L55.3023 206.554V209.361L61.5286 213.663C61.8362 213.875 62.0678 214.181 62.1897 214.534C62.3115 214.887 62.3173 215.271 62.206 215.628C62.0948 215.984 61.8725 216.296 61.5714 216.518C61.2704 216.74 60.9064 216.859 60.5327 216.859H52.7358L51.3919 214.083L50.8672 216.859H47.9275L48.7532 206.945Z" fill="#2F2E41"/>
<path d="M73.1172 209.754H77.2164L79.1671 193.937H73.1172V209.754Z" fill="#FFB6B6"/>
<path d="M71.7793 206.945L78.3284 206.554V209.361L84.5547 213.663C84.8623 213.875 85.0939 214.181 85.2157 214.534C85.3376 214.887 85.3434 215.271 85.2321 215.628C85.1209 215.984 84.8986 216.296 84.5975 216.518C84.2965 216.74 83.9325 216.859 83.5588 216.859H75.7619L74.418 214.083L73.8932 216.859H70.9535L71.7793 206.945Z" fill="#2F2E41"/>
<path d="M48.3224 196.114H48.367L49.1553 170.395C48.6451 169.411 48.3862 168.316 48.4016 167.207C48.417 166.098 48.7062 165.01 49.2435 164.04L49.3564 163.836L49.0637 162.479C48.6879 160.735 48.8603 158.918 49.5575 157.276L50.293 133.286C47.6655 116.251 60.1875 105.141 60.1875 105.141H78.9456L82.9728 118.983C85.6351 144.931 85.152 170.216 80.9273 194.713L81.0425 194.771C81.4572 194.915 81.6351 195.489 81.4399 196.055C81.2447 196.621 80.7502 196.963 80.3355 196.82L70.4291 196.475C70.0144 196.332 69.8364 195.758 70.0317 195.192C70.2269 194.626 70.7213 194.283 71.136 194.427L71.8096 194.767L70.3731 169.95L70.5325 165.417L70.2041 160.274L68.6856 137.143L62.938 165.588L57.067 196.4C57.2289 196.547 57.3426 196.739 57.393 196.952C57.4434 197.164 57.4281 197.387 57.3492 197.591C57.2703 197.795 57.1315 197.97 56.9511 198.093C56.7707 198.216 56.5572 198.282 56.3388 198.281H48.3224C48.18 198.282 48.0389 198.254 47.9072 198.199C47.7756 198.145 47.6559 198.065 47.5551 197.965C47.4543 197.864 47.3743 197.744 47.3198 197.613C47.2652 197.481 47.2371 197.34 47.2371 197.198C47.2371 197.055 47.2652 196.914 47.3198 196.782C47.3743 196.651 47.4543 196.531 47.5551 196.431C47.6559 196.33 47.7756 196.25 47.9072 196.196C48.0389 196.141 48.18 196.114 48.3224 196.114V196.114Z" fill="#2F2E41"/>
<path d="M63.0901 59.4639C68.6468 59.4639 73.1514 54.9576 73.1514 49.3987C73.1514 43.8399 68.6468 39.3336 63.0901 39.3336C57.5334 39.3336 53.0287 43.8399 53.0287 49.3987C53.0287 54.9576 57.5334 59.4639 63.0901 59.4639Z" fill="#FFB6B6"/>
<path d="M19.0018 95.8991C20.4159 92.6151 22.3577 89.5847 24.7502 86.9282C22.7242 90.1583 21.5664 93.8571 21.3888 97.6663C22.1223 98.1246 22.8898 98.5262 23.6845 98.8675C26.0728 99.8696 28.6193 100.442 31.2067 100.558C32.6012 95.9102 35.0082 91.6294 38.2544 88.0235C35.9149 91.7558 34.7384 96.1 34.8747 100.503C37.7606 100.254 40.6039 99.644 43.3386 98.6886C47.4446 97.2756 51.4301 95.1652 54.2697 91.8828C57.3428 88.3302 58.8574 83.6421 59.3465 78.9687C59.8356 74.2988 59.3757 69.5852 58.9122 64.9117C58.6932 62.6845 60.5473 60.1214 60.3283 57.8942H60.1823C59.2078 56.5578 58.2151 55.1886 57.737 53.6041C57.2625 52.0231 57.3866 50.1573 58.4779 48.9123C59.0893 48.2618 59.8608 47.7833 60.7152 47.5248C60.7955 47.4226 60.8831 47.324 60.9743 47.2254C62.6269 45.4694 64.572 44.0141 66.7227 42.9244C65.1716 44.0964 64.135 45.4218 63.6533 46.791C64.9964 46.4952 66.3395 46.2007 67.6826 45.9074C68.1315 45.4311 68.6041 44.9777 69.0987 44.5492C69.8177 43.9248 70.055 43.8773 70.9127 43.2895C70.2202 43.8989 69.6834 44.665 69.3469 45.524C71.0733 45.0895 72.7996 44.436 73.6975 42.9499C75.1866 40.4927 73.4164 37.1775 70.9455 35.7097C69.1481 34.6939 67.0771 34.2691 65.0251 34.4951C62.9732 34.7211 61.0441 35.5867 59.5108 36.9693C55.9376 34.3368 50.8498 34.3806 46.8752 36.3486C44.2512 37.706 41.9909 39.673 40.2837 42.0846C41.274 41.9575 42.2709 41.888 43.2692 41.8765C41.8638 42.0822 40.5256 42.6122 39.3603 43.4246C38.8448 44.2253 38.3721 45.0529 37.9442 45.9037C37.6631 46.4623 37.3979 47.0283 37.1485 47.6015C35.6193 51.0847 34.6229 54.7943 33.59 58.46C32.3856 62.7319 31.0935 67.033 28.838 70.8557C25.3796 76.6685 19.9241 81.0229 13.4906 83.1054C12.9541 87.9359 15.3119 92.6605 19.0018 95.8991Z" fill="#2F2E41"/>
<path d="M73.2221 66.1948L71.2693 65.4612L68.8069 61.4781L60.0358 62.1951L57.9038 66.4659L52.768 70.3895L55.014 82.2227L58.5034 96.5965L81.862 93.6755L81.8373 82.8552C81.8373 82.8552 86.0584 74.3065 79.24 71.1032L73.2221 66.1948Z" fill="#7283E0"/>
<path d="M109.227 103.728C108.774 103.91 108.286 103.99 107.798 103.963C107.31 103.936 106.834 103.803 106.403 103.572C105.973 103.341 105.598 103.018 105.305 102.627C105.013 102.235 104.809 101.785 104.71 101.306L78.6651 85.5405L83.4256 80.0459L107.53 97.2706C108.345 97.1566 109.173 97.3455 109.858 97.8015C110.542 98.2575 111.036 98.949 111.245 99.7449C111.455 100.541 111.365 101.386 110.993 102.12C110.621 102.854 109.992 103.426 109.227 103.728V103.728Z" fill="#FFB6B6"/>
<path d="M69.9866 78.0645C69.9866 78.0645 68.742 79.3173 71.8651 81.3773C74.3654 83.0265 85.5177 91.1763 89.4711 92.4654C89.4216 93.0463 89.5667 93.6271 89.8836 94.1165C90.2004 94.6058 90.671 94.9757 91.2212 95.168L94.8007 87.299C94.0259 85.5001 92.7865 85.9166 92.1344 86.3245L87.8113 83.0721L77.1956 72.4677L70.8703 77.1429L69.9866 78.0645Z" fill="#7283E0"/>
<path d="M59.5746 37.2432C58.3652 39.0284 57.584 41.0686 57.2916 43.2052C56.9992 45.3418 57.2036 47.5171 57.8888 49.5618" fill="#FD6584"/>
<path d="M45.6628 122.502C45.4199 122.588 45.2209 122.766 45.1094 122.999C44.9979 123.231 44.9829 123.498 45.0679 123.741L58.6463 162.891C58.7319 163.134 58.9103 163.333 59.1423 163.445C59.3744 163.557 59.6413 163.571 59.8844 163.486L138.893 135.755C139.136 135.67 139.335 135.491 139.446 135.259C139.558 135.027 139.573 134.76 139.488 134.517L125.909 95.3663C125.823 95.1233 125.645 94.9242 125.413 94.8126C125.181 94.7011 124.914 94.6862 124.671 94.7712L45.6628 122.502Z" fill="#AAB7EF"/>
<path d="M65.6608 157.836C64.1059 157.836 62.5894 157.353 61.3195 156.456C60.0496 155.558 59.0887 154.289 58.5687 152.824L51.1119 131.718C50.4477 129.838 50.5572 127.771 51.4162 125.972C52.2753 124.173 53.8136 122.789 55.6926 122.125L95.6242 108.006C103.099 105.372 111.313 105.812 118.464 109.23C125.615 112.647 131.119 118.762 133.768 126.234C134.432 128.114 134.323 130.181 133.464 131.98C132.605 133.779 131.066 135.163 129.187 135.827L129.129 135.663L129.187 135.827L68.1578 157.406C67.3559 157.69 66.5115 157.836 65.6608 157.836V157.836Z" fill="#C7CFF4"/>
<path d="M118.615 116.231L82.8595 128.781C82.3557 128.958 81.7314 128.485 81.4649 127.726C81.1985 126.966 81.3909 126.207 81.8947 126.03L117.65 113.481C118.154 113.304 118.778 113.776 119.044 114.536C119.311 115.295 119.119 116.055 118.615 116.231Z" fill="#E6E6E6"/>
<path d="M121.38 124.117L85.625 136.667C85.1212 136.844 84.4969 136.371 84.2304 135.611C83.964 134.852 84.1564 134.093 84.6602 133.916L120.415 121.366C120.919 121.189 121.543 121.662 121.81 122.421C122.076 123.181 121.884 123.94 121.38 124.117Z" fill="#E6E6E6"/>
<path d="M78.0215 133.071C78.4054 134.154 78.5919 135.296 78.5722 136.445C78.5646 136.97 78.5127 137.494 78.417 138.01C78.1122 139.68 77.3722 141.239 76.2718 142.531C75.1714 143.822 73.7497 144.8 72.1503 145.365C70.5509 145.931 68.8307 146.064 67.1634 145.751C65.4962 145.438 63.9411 144.69 62.6554 143.583C62.5255 143.472 62.3991 143.358 62.2762 143.239C61.2261 142.233 60.4176 141.001 59.9113 139.637C59.4049 138.273 59.2139 136.813 59.3525 135.364C59.4911 133.916 59.9557 132.518 60.7116 131.275C61.4674 130.032 62.4948 128.976 63.7167 128.187C64.9385 127.398 66.3232 126.896 67.7667 126.719C69.2102 126.542 70.6751 126.694 72.0515 127.164C73.4279 127.634 74.68 128.409 75.714 129.432C76.7479 130.456 77.5368 131.7 78.0215 133.071V133.071Z" fill="#E4E4E4"/>
<path d="M69.3414 137.754C70.3583 137.754 71.1826 136.929 71.1826 135.912C71.1826 134.895 70.3583 134.07 69.3414 134.07C68.3245 134.07 67.5001 134.895 67.5001 135.912C67.5001 136.929 68.3245 137.754 69.3414 137.754Z" fill="#FD6584"/>
<path d="M62.2762 143.239C62.7489 142.142 63.3076 140.468 64.6017 141.077C65.2411 141.354 66.3861 142.197 66.851 141.217L70.4914 133.594C70.5605 133.451 70.6572 133.324 70.7759 133.22C70.8947 133.116 71.033 133.037 71.1829 132.987C71.3328 132.937 71.4911 132.917 71.6486 132.929C71.8062 132.941 71.9597 132.985 72.1002 133.057L78.5722 136.444C78.5647 136.97 78.5127 137.494 78.417 138.01L62.6554 143.583L62.2762 143.239Z" fill="#3F3D56"/>
<path d="M64.155 120.726C63.6995 120.549 63.2885 120.274 62.9508 119.921C62.613 119.567 62.3568 119.144 62.2002 118.681C62.0436 118.218 61.9903 117.727 62.0442 117.241C62.0981 116.755 62.2578 116.287 62.5121 115.869L54.2727 86.5531L61.5018 85.7974L67.3277 114.852C68.0003 115.326 68.4758 116.03 68.6641 116.831C68.8524 117.632 68.7404 118.475 68.3493 119.199C67.9582 119.923 67.3152 120.478 66.5422 120.759C65.7691 121.041 64.9197 121.029 64.155 120.726V120.726Z" fill="#FFB6B6"/>
<path d="M53.0538 70.46C53.0538 70.46 51.2893 70.5234 52.1615 74.1626C52.8597 77.076 55.4241 95.3524 57.429 98.9965C56.996 99.3867 56.7051 99.9099 56.602 100.484C56.499 101.058 56.5897 101.649 56.8599 102.166L64.8492 98.8695C65.5128 97.0266 64.999 95.3534 64.2443 95.2053L63.3109 89.8752L61.9353 71.9943L54.3284 70.3915L53.0538 70.46Z" fill="#7283E0"/>
<path d="M125.024 147.595L113.975 148.053C113.739 148.063 113.503 148.02 113.287 147.926C113.07 147.832 112.877 147.691 112.722 147.512C112.57 147.338 112.459 147.131 112.398 146.908C112.336 146.684 112.326 146.45 112.369 146.222C113.217 141.597 112.969 136.838 111.647 132.325C111.545 131.98 111.566 131.61 111.706 131.278C111.846 130.947 112.096 130.674 112.415 130.507C116.941 128.155 121.181 128.035 125.018 130.152C125.219 130.261 125.394 130.413 125.531 130.597C125.667 130.781 125.762 130.992 125.808 131.216C126.807 136.14 127.046 141.189 126.518 146.185C126.481 146.561 126.31 146.911 126.035 147.17C125.761 147.429 125.401 147.58 125.024 147.595Z" fill="url(#paint0_linear_37_273)"/>
<path d="M124.556 140.361L116.108 140.711C116.004 140.715 115.9 140.699 115.802 140.663C115.704 140.627 115.614 140.572 115.538 140.502C115.461 140.431 115.399 140.346 115.355 140.252C115.311 140.157 115.286 140.055 115.282 139.951C115.278 139.847 115.294 139.743 115.33 139.645C115.366 139.547 115.421 139.457 115.491 139.38C115.562 139.304 115.647 139.242 115.741 139.198C115.836 139.154 115.938 139.129 116.042 139.125L124.491 138.775C124.595 138.771 124.699 138.787 124.797 138.823C124.894 138.859 124.984 138.913 125.061 138.984C125.137 139.055 125.199 139.14 125.243 139.234C125.287 139.329 125.312 139.431 125.316 139.535C125.32 139.639 125.304 139.743 125.268 139.841C125.232 139.939 125.178 140.028 125.107 140.105C125.037 140.182 124.952 140.244 124.857 140.288C124.763 140.331 124.66 140.356 124.556 140.361V140.361Z" fill="white"/>
<path d="M124.441 137.58L115.993 137.93C115.783 137.939 115.578 137.864 115.423 137.721C115.268 137.579 115.176 137.381 115.168 137.17C115.159 136.96 115.234 136.755 115.377 136.6C115.519 136.445 115.717 136.353 115.927 136.345L124.376 135.995C124.586 135.986 124.791 136.061 124.946 136.204C125.1 136.346 125.192 136.544 125.201 136.755C125.21 136.965 125.135 137.17 124.992 137.325C124.85 137.48 124.652 137.571 124.441 137.58V137.58Z" fill="white"/>
<path d="M327.102 61.1294L316.137 59.6908C315.903 59.6605 315.679 59.5776 315.481 59.4482C315.283 59.3188 315.117 59.1463 314.996 58.9437C314.875 58.7459 314.801 58.5234 314.779 58.2929C314.757 58.0624 314.787 57.8299 314.868 57.6128C316.494 53.2006 317.064 48.4687 316.532 43.7965C316.49 43.439 316.574 43.0782 316.768 42.7755C316.963 42.4728 317.257 42.2469 317.599 42.1365C322.46 40.5929 326.659 41.2007 330.077 43.9423C330.257 44.0844 330.403 44.2639 330.506 44.4684C330.609 44.6728 330.666 44.8973 330.674 45.1261C330.816 50.1486 330.189 55.1632 328.815 59.9959C328.715 60.3601 328.486 60.6756 328.171 60.884C327.856 61.0924 327.476 61.1796 327.102 61.1294V61.1294Z" fill="url(#paint1_linear_37_273)"/>
<path d="M327.878 53.9216L319.494 52.8215C319.391 52.808 319.291 52.7742 319.201 52.7222C319.111 52.6701 319.032 52.6008 318.968 52.5181C318.905 52.4355 318.858 52.3412 318.831 52.2405C318.804 52.1399 318.797 52.0349 318.811 51.9316C318.824 51.8283 318.858 51.7287 318.91 51.6384C318.962 51.5481 319.031 51.469 319.114 51.4055C319.197 51.3421 319.291 51.2955 319.392 51.2685C319.492 51.2415 319.597 51.2345 319.7 51.2481L328.084 52.3481C328.293 52.3755 328.482 52.4846 328.61 52.6515C328.738 52.8184 328.795 53.0294 328.767 53.238C328.74 53.4467 328.631 53.6359 328.464 53.7641C328.297 53.8923 328.086 53.9489 327.878 53.9216V53.9216Z" fill="white"/>
<path d="M328.24 51.1624L319.856 50.0624C319.752 50.049 319.653 50.0153 319.562 49.9634C319.472 49.9114 319.392 49.842 319.329 49.7594C319.265 49.6767 319.219 49.5823 319.191 49.4815C319.164 49.3808 319.157 49.2757 319.171 49.1722C319.184 49.0688 319.218 48.969 319.27 48.8787C319.323 48.7883 319.392 48.7091 319.475 48.6457C319.558 48.5822 319.652 48.5357 319.753 48.5088C319.854 48.4819 319.959 48.4751 320.062 48.4889L328.446 49.5889C328.549 49.6023 328.649 49.6359 328.739 49.6879C328.83 49.7399 328.909 49.8092 328.973 49.8919C329.036 49.9746 329.083 50.069 329.11 50.1697C329.137 50.2705 329.144 50.3756 329.131 50.479C329.117 50.5825 329.083 50.6822 329.031 50.7726C328.979 50.8629 328.91 50.9421 328.827 51.0056C328.744 51.0691 328.65 51.1156 328.549 51.1425C328.448 51.1694 328.343 51.1761 328.24 51.1624Z" fill="white"/>
<path d="M181.047 82.3891H177.396V78.7367C177.396 77.8603 177.048 77.0197 176.429 76.4C175.809 75.7803 174.969 75.4321 174.093 75.4321C173.217 75.4321 172.377 75.7803 171.757 76.4C171.138 77.0197 170.79 77.8603 170.79 78.7367V82.3891H167.139C166.262 82.3891 165.422 82.7372 164.803 83.357C164.183 83.9767 163.835 84.8172 163.835 85.6936C163.835 86.5701 164.183 87.4106 164.803 88.0303C165.422 88.65 166.262 88.9982 167.139 88.9982H170.79V92.6506C170.79 93.527 171.138 94.3675 171.757 94.9873C172.377 95.607 173.217 95.9552 174.093 95.9552C174.969 95.9552 175.809 95.607 176.429 94.9873C177.048 94.3675 177.396 93.527 177.396 92.6506V88.9982H181.047C181.923 88.9982 182.764 88.65 183.383 88.0303C184.003 87.4106 184.351 86.5701 184.351 85.6936C184.351 84.8172 184.003 83.9767 183.383 83.357C182.764 82.7372 181.923 82.3891 181.047 82.3891V82.3891Z" fill="white"/>
<path d="M299.283 14.7956C301.206 14.7956 302.764 13.2365 302.764 11.3132C302.764 9.38984 301.206 7.83069 299.283 7.83069C297.361 7.83069 295.802 9.38984 295.802 11.3132C295.802 13.2365 297.361 14.7956 299.283 14.7956Z" fill="#3F3D56"/>
<path d="M85.4373 113.237C87.3599 113.237 88.9184 111.677 88.9184 109.754C88.9184 107.831 87.3599 106.272 85.4373 106.272C83.5147 106.272 81.9561 107.831 81.9561 109.754C81.9561 111.677 83.5147 113.237 85.4373 113.237Z" fill="#3F3D56"/>
</g>
<defs>
<linearGradient id="paint0_linear_37_273" x1="119.187" y1="128.649" x2="126.791" y2="128.649" gradientUnits="userSpaceOnUse">
<stop stop-color="#7283E0"/>
<stop offset="1" stop-color="#7892EE"/>
</linearGradient>
<linearGradient id="paint1_linear_37_273" x1="322.733" y1="41.3051" x2="330.693" y2="41.3051" gradientUnits="userSpaceOnUse">
<stop stop-color="#7283E0"/>
<stop offset="1" stop-color="#7892EE"/>
</linearGradient>
<clipPath id="clip0_37_273">
<rect width="344" height="217" fill="white"/>
</clipPath>
</defs>
</svg>
